<?xml version="1.0" encoding="utf-8"?>
<!-- Generator: Adobe Illustrator 22.0.0, SVG Export Plug-In . SVG Version: 6.00 Build 0)  -->
<svg version="1.1" xmlns="http://www.w3.org/2000/svg" xmlns:xlink="http://www.w3.org/1999/xlink" x="0px" y="0px"
	 viewBox="0 0 1920 622" style="enable-background:new 0 0 1920 622;" xml:space="preserve">
<style type="text/css">
	.st0{display:none;}
	.st1{display:inline;}
	.st2{fill:none;stroke:#B70B14;stroke-width:5;}
	.st3{fill:#303029;}
	.st4{display:inline;fill:#B70B14;}
	.st5{display:inline;fill:#303029;}
	.st6{font-family:'Calibri-Light';}
	.st7{font-size:108.4758px;}
	.st8{fill:none;stroke:#000000;stroke-width:60;stroke-miterlimit:10;}
	.st9{fill:#FBFCFC;}
	.st10{fill:#FBFCFC;stroke:#000000;stroke-width:60;stroke-miterlimit:10;}
	.st11{fill:#B70B14;stroke:#000000;stroke-width:60;stroke-miterlimit:10;}
	.st12{font-size:93.1563px;}
	.st13{fill:#B70B14;}
	.st14{font-size:92.1102px;}
</style>
<g id="Capa_1" class="st0">
	<g class="st1">
		<g>
			<path class="st2" d="M220.5,453.9c25.7,0,45.3,5.8,58.7,17.5c13.4,11.7,20.1,29.4,20.1,53c0,13.1-1.7,24.9-5,35.5
				c-3.4,10.5-8.7,19.4-16,26.6c-7.3,7.2-16.7,12.7-28.1,16.6c-11.4,3.9-25,5.8-40.9,5.8H13.8l41.7-66.3h158.7
				c7.7,0,13.4-1.5,16.9-4.4c3.6-2.9,5.3-7.8,5.3-14.4c0-6.7-1.8-11.4-5.3-14.3c-3.6-2.8-9.2-4.2-16.9-4.2H100.1
				c-13.6,0-25.3-1.8-35.1-5.4s-18-8.6-24.5-15s-11.3-14.2-14.4-23.3c-3.1-9.1-4.7-19.2-4.7-30.3c0-12.1,1.7-23.1,5.2-33
				s8.8-18.3,16-25.2c7.2-6.9,16.5-12.3,27.9-16.2c11.4-3.9,25-5.8,40.9-5.8h182.3L252,418.2H106.4c-7.5,0-13.1,1.3-16.8,3.9
				s-5.5,7.2-5.5,13.9c0,6.7,1.8,11.4,5.5,14.1s9.3,4,16.8,4h114.1V453.9z"/>
			<path class="st2" d="M582.9,608.8h-64.6v-99.4H393.4v99.4h-65.3V351h65.3v91.3h124.9V351h64.6L582.9,608.8L582.9,608.8z"/>
			<path class="st2" d="M711.5,608.8l39.2-66.3h52.7c6.3,0,12.8,0,19.6,0s12.7,0.3,17.7,0.8c-2.9-4.6-6.3-10.5-10.2-17.5
				c-3.9-7.1-7.6-13.7-11.1-19.9l-37.6-68.2l-98.5,171.1h-76.9L741,375.7c4.4-7.4,9.9-14.1,16.6-20c6.7-5.9,15.2-8.9,25.4-8.9
				c9.8,0,18,2.8,24.6,8.3s12.2,12.4,16.8,20.6l131.1,233.2h-244V608.8z"/>
			<path class="st2" d="M1276.5,608.8h-86.9l-46.7-68.2h-99.8v68.2h-64.9V477h182.6c10,0,18.5-2.6,25.4-7.7s10.4-12.2,10.4-21.2
				c0-10-3.1-17.5-9.4-22.5s-15.1-7.5-26.4-7.5H978.1l42.3-67.1h134.9c11.9,0,24.3,1.3,37,4c12.8,2.7,24.4,7.5,34.8,14.5
				c10.5,6.9,19.1,16.3,25.9,28.1c6.8,11.8,10.2,27,10.2,45.5c0,10-1.3,19.5-3.8,28.5s-6.1,17.1-10.8,24.3
				c-4.7,7.2-10.5,13.3-17.2,18.3c-6.8,5-14.5,8.5-23.1,10.6c3.6,3.3,7.5,7.6,11.9,12.7c4.4,5.1,10.2,12.2,17.6,21.2L1276.5,608.8z"
				/>
			<path class="st2" d="M1564.5,608.8h-98.2l-63.4-67.8c-10.9-11.6-19.2-20.5-24.9-27c-5.8-6.4-10.4-11.8-14-16.2
				c0.2,5.9,0.4,12,0.6,18.3s0.3,12.5,0.3,18.7v74h-65.3V351h65.3v59.7c0,8-0.1,15.8-0.3,23.5c-0.2,7.7-0.5,14.9-0.9,21.6
				c4.2-4.6,9.3-10.3,15.2-17.1c6-6.8,13.8-15.1,23.4-24.9l60.5-62.8h94.1l-80.3,74c-6.9,6.4-13,12.1-18.3,16.9
				c-5.3,4.9-10.1,9.1-14.3,12.7c-4.2,3.6-8,6.8-11.5,9.6c-3.4,2.8-6.8,5.5-10.2,8.1c6.1,5.1,13.4,11.6,22,19.3
				c8.6,7.7,19.7,18.4,33.2,32L1564.5,608.8z"/>
			<path class="st2" d="M1780.3,453.9c25.7,0,45.3,5.8,58.7,17.5c13.4,11.7,20.1,29.4,20.1,53c0,13.1-1.7,24.9-5,35.5
				c-3.3,10.5-8.7,19.4-16,26.6c-7.3,7.2-16.7,12.7-28.1,16.6c-11.4,3.9-25.1,5.8-40.9,5.8h-195.4l41.7-66.3H1774
				c7.7,0,13.4-1.5,16.9-4.4c3.6-2.9,5.3-7.8,5.3-14.4c0-6.7-1.8-11.4-5.3-14.3c-3.6-2.8-9.2-4.2-16.9-4.2h-114.2
				c-13.6,0-25.3-1.8-35.1-5.4c-9.8-3.6-18-8.6-24.5-15s-11.3-14.2-14.4-23.3c-3.1-9.1-4.7-19.2-4.7-30.3c0-12.1,1.7-23.1,5.2-33
				c3.4-9.9,8.8-18.3,16-25.2c7.2-6.9,16.5-12.3,27.9-16.2c11.4-3.9,25-5.8,40.9-5.8h182.3l-41.7,67.1h-145.6
				c-7.5,0-13.1,1.3-16.8,3.9c-3.7,2.6-5.5,7.2-5.5,13.9c0,6.7,1.8,11.4,5.5,14.1s9.2,4,16.8,4h114.2V453.9z"/>
		</g>
		<g>
			<path class="st3" d="M220.5,453.9c25.7,0,45.3,5.8,58.7,17.5c13.4,11.7,20.1,29.4,20.1,53c0,13.1-1.7,24.9-5,35.5
				c-3.4,10.5-8.7,19.4-16,26.6c-7.3,7.2-16.7,12.7-28.1,16.6c-11.4,3.9-25,5.8-40.9,5.8H13.8l41.7-66.3h158.7
				c7.7,0,13.4-1.5,16.9-4.4c3.6-2.9,5.3-7.8,5.3-14.4c0-6.7-1.8-11.4-5.3-14.3c-3.6-2.8-9.2-4.2-16.9-4.2H100.1
				c-13.6,0-25.3-1.8-35.1-5.4s-18-8.6-24.5-15s-11.3-14.2-14.4-23.3c-3.1-9.1-4.7-19.2-4.7-30.3c0-12.1,1.7-23.1,5.2-33
				s8.8-18.3,16-25.2c7.2-6.9,16.5-12.3,27.9-16.2c11.4-3.9,25-5.8,40.9-5.8h182.3L252,418.2H106.4c-7.5,0-13.1,1.3-16.8,3.9
				s-5.5,7.2-5.5,13.9c0,6.7,1.8,11.4,5.5,14.1s9.3,4,16.8,4h114.1V453.9z"/>
			<path class="st3" d="M582.9,608.8h-64.6v-99.4H393.4v99.4h-65.3V351h65.3v91.3h124.9V351h64.6L582.9,608.8L582.9,608.8z"/>
			<path class="st3" d="M711.5,608.8l39.2-66.3h52.7c6.3,0,12.8,0,19.6,0s12.7,0.3,17.7,0.8c-2.9-4.6-6.3-10.5-10.2-17.5
				c-3.9-7.1-7.6-13.7-11.1-19.9l-37.6-68.2l-98.5,171.1h-76.9L741,375.7c4.4-7.4,9.9-14.1,16.6-20c6.7-5.9,15.2-8.9,25.4-8.9
				c9.8,0,18,2.8,24.6,8.3s12.2,12.4,16.8,20.6l131.1,233.2h-244V608.8z"/>
			<path class="st3" d="M1276.5,608.8h-86.9l-46.7-68.2h-99.8v68.2h-64.9V477h182.6c10,0,18.5-2.6,25.4-7.7s10.4-12.2,10.4-21.2
				c0-10-3.1-17.5-9.4-22.5s-15.1-7.5-26.4-7.5H978.1l42.3-67.1h134.9c11.9,0,24.3,1.3,37,4c12.8,2.7,24.4,7.5,34.8,14.5
				c10.5,6.9,19.1,16.3,25.9,28.1c6.8,11.8,10.2,27,10.2,45.5c0,10-1.3,19.5-3.8,28.5s-6.1,17.1-10.8,24.3
				c-4.7,7.2-10.5,13.3-17.2,18.3c-6.8,5-14.5,8.5-23.1,10.6c3.6,3.3,7.5,7.6,11.9,12.7c4.4,5.1,10.2,12.2,17.6,21.2L1276.5,608.8z"
				/>
			<path class="st3" d="M1564.5,608.8h-98.2l-63.4-67.8c-10.9-11.6-19.2-20.5-24.9-27c-5.8-6.4-10.4-11.8-14-16.2
				c0.2,5.9,0.4,12,0.6,18.3s0.3,12.5,0.3,18.7v74h-65.3V351h65.3v59.7c0,8-0.1,15.8-0.3,23.5c-0.2,7.7-0.5,14.9-0.9,21.6
				c4.2-4.6,9.3-10.3,15.2-17.1c6-6.8,13.8-15.1,23.4-24.9l60.5-62.8h94.1l-80.3,74c-6.9,6.4-13,12.1-18.3,16.9
				c-5.3,4.9-10.1,9.1-14.3,12.7c-4.2,3.6-8,6.8-11.5,9.6c-3.4,2.8-6.8,5.5-10.2,8.1c6.1,5.1,13.4,11.6,22,19.3
				c8.6,7.7,19.7,18.4,33.2,32L1564.5,608.8z"/>
			<path class="st3" d="M1780.3,453.9c25.7,0,45.3,5.8,58.7,17.5c13.4,11.7,20.1,29.4,20.1,53c0,13.1-1.7,24.9-5,35.5
				c-3.3,10.5-8.7,19.4-16,26.6c-7.3,7.2-16.7,12.7-28.1,16.6c-11.4,3.9-25.1,5.8-40.9,5.8h-195.4l41.7-66.3H1774
				c7.7,0,13.4-1.5,16.9-4.4c3.6-2.9,5.3-7.8,5.3-14.4c0-6.7-1.8-11.4-5.3-14.3c-3.6-2.8-9.2-4.2-16.9-4.2h-114.2
				c-13.6,0-25.3-1.8-35.1-5.4c-9.8-3.6-18-8.6-24.5-15s-11.3-14.2-14.4-23.3c-3.1-9.1-4.7-19.2-4.7-30.3c0-12.1,1.7-23.1,5.2-33
				c3.4-9.9,8.8-18.3,16-25.2c7.2-6.9,16.5-12.3,27.9-16.2c11.4-3.9,25-5.8,40.9-5.8h182.3l-41.7,67.1h-145.6
				c-7.5,0-13.1,1.3-16.8,3.9c-3.7,2.6-5.5,7.2-5.5,13.9c0,6.7,1.8,11.4,5.5,14.1s9.2,4,16.8,4h114.2V453.9z"/>
		</g>
		<g>
			<path class="st3" d="M220.5,453.9c25.7,0,45.3,5.8,58.7,17.5c13.4,11.7,20.1,29.4,20.1,53c0,13.1-1.7,24.9-5,35.5
				c-3.4,10.5-8.7,19.4-16,26.6c-7.3,7.2-16.7,12.7-28.1,16.6c-11.4,3.9-25,5.8-40.9,5.8H13.8l41.7-66.3h158.7
				c7.7,0,13.4-1.5,16.9-4.4c3.6-2.9,5.3-7.8,5.3-14.4c0-6.7-1.8-11.4-5.3-14.3c-3.6-2.8-9.2-4.2-16.9-4.2H100.1
				c-13.6,0-25.3-1.8-35.1-5.4s-18-8.6-24.5-15s-11.3-14.2-14.4-23.3c-3.1-9.1-4.7-19.2-4.7-30.3c0-12.1,1.7-23.1,5.2-33
				s8.8-18.3,16-25.2c7.2-6.9,16.5-12.3,27.9-16.2c11.4-3.9,25-5.8,40.9-5.8h182.3L252,418.2H106.4c-7.5,0-13.1,1.3-16.8,3.9
				s-5.5,7.2-5.5,13.9c0,6.7,1.8,11.4,5.5,14.1s9.3,4,16.8,4h114.1V453.9z"/>
			<path class="st3" d="M582.9,608.8h-64.6v-99.4H393.4v99.4h-65.3V351h65.3v91.3h124.9V351h64.6L582.9,608.8L582.9,608.8z"/>
			<path class="st3" d="M711.5,608.8l39.2-66.3h52.7c6.3,0,12.8,0,19.6,0s12.7,0.3,17.7,0.8c-2.9-4.6-6.3-10.5-10.2-17.5
				c-3.9-7.1-7.6-13.7-11.1-19.9l-37.6-68.2l-98.5,171.1h-76.9L741,375.7c4.4-7.4,9.9-14.1,16.6-20c6.7-5.9,15.2-8.9,25.4-8.9
				c9.8,0,18,2.8,24.6,8.3s12.2,12.4,16.8,20.6l131.1,233.2h-244V608.8z"/>
			<path class="st3" d="M1276.5,608.8h-86.9l-46.7-68.2h-99.8v68.2h-64.9V477h182.6c10,0,18.5-2.6,25.4-7.7s10.4-12.2,10.4-21.2
				c0-10-3.1-17.5-9.4-22.5s-15.1-7.5-26.4-7.5H978.1l42.3-67.1h134.9c11.9,0,24.3,1.3,37,4c12.8,2.7,24.4,7.5,34.8,14.5
				c10.5,6.9,19.1,16.3,25.9,28.1c6.8,11.8,10.2,27,10.2,45.5c0,10-1.3,19.5-3.8,28.5s-6.1,17.1-10.8,24.3
				c-4.7,7.2-10.5,13.3-17.2,18.3c-6.8,5-14.5,8.5-23.1,10.6c3.6,3.3,7.5,7.6,11.9,12.7c4.4,5.1,10.2,12.2,17.6,21.2L1276.5,608.8z"
				/>
			<path class="st3" d="M1564.5,608.8h-98.2l-63.4-67.8c-10.9-11.6-19.2-20.5-24.9-27c-5.8-6.4-10.4-11.8-14-16.2
				c0.2,5.9,0.4,12,0.6,18.3s0.3,12.5,0.3,18.7v74h-65.3V351h65.3v59.7c0,8-0.1,15.8-0.3,23.5c-0.2,7.7-0.5,14.9-0.9,21.6
				c4.2-4.6,9.3-10.3,15.2-17.1c6-6.8,13.8-15.1,23.4-24.9l60.5-62.8h94.1l-80.3,74c-6.9,6.4-13,12.1-18.3,16.9
				c-5.3,4.9-10.1,9.1-14.3,12.7c-4.2,3.6-8,6.8-11.5,9.6c-3.4,2.8-6.8,5.5-10.2,8.1c6.1,5.1,13.4,11.6,22,19.3
				c8.6,7.7,19.7,18.4,33.2,32L1564.5,608.8z"/>
			<path class="st3" d="M1780.3,453.9c25.7,0,45.3,5.8,58.7,17.5c13.4,11.7,20.1,29.4,20.1,53c0,13.1-1.7,24.9-5,35.5
				c-3.3,10.5-8.7,19.4-16,26.6c-7.3,7.2-16.7,12.7-28.1,16.6c-11.4,3.9-25.1,5.8-40.9,5.8h-195.4l41.7-66.3H1774
				c7.7,0,13.4-1.5,16.9-4.4c3.6-2.9,5.3-7.8,5.3-14.4c0-6.7-1.8-11.4-5.3-14.3c-3.6-2.8-9.2-4.2-16.9-4.2h-114.2
				c-13.6,0-25.3-1.8-35.1-5.4c-9.8-3.6-18-8.6-24.5-15s-11.3-14.2-14.4-23.3c-3.1-9.1-4.7-19.2-4.7-30.3c0-12.1,1.7-23.1,5.2-33
				c3.4-9.9,8.8-18.3,16-25.2c7.2-6.9,16.5-12.3,27.9-16.2c11.4-3.9,25-5.8,40.9-5.8h182.3l-41.7,67.1h-145.6
				c-7.5,0-13.1,1.3-16.8,3.9c-3.7,2.6-5.5,7.2-5.5,13.9c0,6.7,1.8,11.4,5.5,14.1s9.2,4,16.8,4h114.2V453.9z"/>
		</g>
	</g>
	<g class="st1">
		<g>
			<path class="st3" d="M124.1,331c-1.7,0-3.4-0.3-5.1-1s-3.5-2.2-5.6-4.7l-52.7-58.1v62.1H36.6v-87.6c0-3.5,0.4-6.5,1.2-9
				s1.9-4.6,3.2-6.2c1.3-1.6,2.9-2.7,4.6-3.5c1.8-0.7,3.6-1.1,5.5-1.1c1.6,0,3.3,0.3,4.9,1c1.7,0.7,3.6,2.2,5.7,4.7l52.7,58.1v-62.1
				h24.3v87.5c0,3.5-0.4,6.5-1.2,9s-1.9,4.6-3.2,6.2s-2.9,2.8-4.7,3.6C127.9,330.6,126,331,124.1,331z"/>
			<path class="st3" d="M214.6,221.9c20.9,0,36.6,4.4,47.1,13.1c10.5,8.7,15.7,22.5,15.7,41.4s-5.2,32.8-15.7,41.5
				S235.5,331,214.5,331c-21.1,0-36.8-4.4-47.2-13.1s-15.6-22.6-15.6-41.5c0-18.8,5.2-32.6,15.7-41.4
				C177.9,226.2,193.6,221.9,214.6,221.9z M214.6,303.5c6.7,0,12.3-0.3,17-1c4.6-0.7,8.4-2,11.2-4c2.9-2,4.9-4.8,6.2-8.3
				s1.9-8.1,1.9-13.8c0-5.7-0.6-10.3-1.9-13.8c-1.3-3.5-3.4-6.3-6.2-8.2c-2.9-1.9-6.6-3.3-11.2-3.9c-4.6-0.7-10.3-1-17-1
				s-12.3,0.3-17,1c-4.6,0.7-8.4,2-11.3,3.9c-2.9,1.9-4.9,4.7-6.2,8.2s-1.9,8.1-1.9,13.8c0,5.7,0.6,10.3,1.9,13.8
				c1.3,3.5,3.4,6.3,6.2,8.3c2.9,2,6.6,3.3,11.3,4S207.9,303.5,214.6,303.5z"/>
			<path class="st3" d="M318,329.2h-26.6V223.6H318V329.2z"/>
			<path class="st3" d="M414.2,265.8c10.5,0,18.5,2.4,24,7.2c5.5,4.8,8.2,12,8.2,21.7c0,5.4-0.7,10.2-2.1,14.5s-3.6,7.9-6.6,10.9
				c-3,2.9-6.8,5.2-11.5,6.8c-4.7,1.6-10.3,2.4-16.8,2.4h-80.1l17.1-27.2h65c3.2,0,5.5-0.6,6.9-1.8c1.5-1.2,2.2-3.2,2.2-5.9
				c0-2.7-0.7-4.7-2.2-5.8c-1.5-1.2-3.8-1.7-6.9-1.7h-46.8c-5.6,0-10.4-0.7-14.4-2.2s-7.4-3.5-10-6.2c-2.7-2.6-4.6-5.8-5.9-9.6
				c-1.3-3.7-1.9-7.9-1.9-12.4c0-4.9,0.7-9.4,2.1-13.5s3.6-7.5,6.6-10.3s6.8-5.1,11.4-6.6c4.7-1.6,10.3-2.4,16.8-2.4H444l-17.1,27.5
				h-59.6c-3.1,0-5.4,0.5-6.9,1.6s-2.2,2.9-2.2,5.7c0,2.7,0.7,4.7,2.2,5.8c1.5,1.1,3.8,1.7,6.9,1.7h46.9V265.8z"/>
			<path class="st3" d="M558.2,302.1l-17.1,27.2h-82.8V223.6h99.6l-17.2,27.5H485v12.6h68.1l-15.3,24H485v14.4H558.2z"/>
		</g>
	</g>
	<path class="st4" d="M1853,271.9l-92.7-1.9h-0.8l-0.6,0.7l-17.5,19.1l-22.1-37.5l-3.3-5.6l-2.5,6.1l-8.3,20.4l-7-8.2l-3.3-3.9
		l-3,4.3l-11.7,16.9l-6.4-11l-4.3-7.4l-4.1,7.7l-6.2,11.7l-19.1-30.8l-4.5-7.3l-5.3,7.1l-25,33.3c-13.3-0.2-26.6-0.5-40-0.6
		c-13.9-0.1-27.9,0-41.8,0.1c-1.7-0.7-3.8-1.9-5.6-3c-2.3-1.4-4.5-3.1-6.7-4.7c-4.3-3.5-8.2-7.5-11.7-11.9
		c-7-8.7-12.3-18.9-16.2-29.7c-1-2.7-1.8-5.5-2.7-8.2l-2.1-8.4c-1.2-5.7-2.2-11.4-2.8-17.2c-0.5-2.9-0.5-5.8-0.8-8.7
		s-0.4-5.8-0.4-8.8c-0.2-5.9-0.1-11.8,0.1-17.6c0.2-5.9,0.8-11.8,1.3-17.7c0.8-5.9,1.3-11.8,2.4-17.6c1-5.9,1.9-11.7,3.2-17.6
		c1.2-5.8,2.4-11.7,3.9-17.5c1.4-5.8,2.8-11.6,4.5-17.3c1.6-5.8,3.2-11.5,5.1-17.2s3.5-11.4,5.6-17.1l6-17l4.8-13.6l-13.5,4.1
		c-8.4,2.5-16,5.4-23.8,8.5c-7.7,3.1-15.3,6.4-22.8,10c-7.5,3.5-14.9,7.3-22.2,11.2c-7.3,4-14.5,8.1-21.6,12.4l-10.5,6.6l-10.3,6.9
		c-6.8,4.8-13.5,9.6-20.1,14.7c-3.3,2.5-6.5,5.1-9.7,7.8c-3.2,2.6-6.4,5.3-9.5,8c-6.3,5.4-12.3,11.1-18.3,16.9
		c-5.8,5.9-11.7,11.8-17.2,18c-5.7,6.1-10.8,12.6-16.2,19c-5,6.7-10.2,13.2-14.8,20.1c-4.8,6.8-9.2,13.9-13.5,21
		c-2.3,3.5-4.1,7.2-6.2,10.8c-2,3.7-4.1,7.2-5.9,11c-3.7,7.5-7.4,14.9-10.6,22.6c-3.5,7.6-6.3,15.4-9.2,23.2
		c-2.3,6.1-4.1,12.3-6,18.5h-138.2L990.5,107.7L977,83.9v27.4l0.1,205.7L851.5,115.9l-13.4-21.4v25.3l0.4,208.3l-45-62.1l-5.1-7
		l-5.9,6.3c-11.7,12.3-23.6,24.2-35.2,36.6l-35.7-62.6l-5-8.8l-4,9.1l-22.3,50.6L670,271l-0.8-1.6h-1.6l-98.7,2.8l97,2.7l11.9,24.6
		l3.1,6.3l3.2-6.4l23.4-46.7l32.5,64.2l4.3,8.5l7.1-6.9c12.3-12.1,24-24.7,35.9-37.2l53,73.1l13.1,18.1v-22.3L853,144.8L978.2,346
		l13.3,21.4v-25.2l-0.1-203.5l89.3,158l2.1,3.7h4.2h147.7h5.2l1.7-5.2c2.5-7.6,4.6-15.4,7.4-22.9s5.5-15.1,8.8-22.3
		c3-7.4,6.6-14.6,10.2-21.7c1.7-3.6,3.8-7.1,5.7-10.6c2-3.5,3.8-7.1,6-10.4c4.2-6.8,8.4-13.7,13-20.2c4.4-6.7,9.4-12.9,14.2-19.4
		c5.1-6.1,10.1-12.5,15.6-18.3c5.3-6,11-11.7,16.6-17.4c5.8-5.5,11.6-11.1,17.7-16.3c3-2.7,6.1-5.2,9.2-7.8c3.1-2.5,6.2-5.1,9.4-7.5
		c6.3-4.9,12.8-9.6,19.4-14.2l10-6.7l10.2-6.4c6.9-4.2,13.8-8.2,20.9-12c7.1-3.8,14.2-7.5,21.5-10.9c7.2-3.5,14.6-6.7,22-9.7
		c2.8-1.1,5.7-2.2,8.6-3.3l-1.1,3.1c-2.1,5.7-3.8,11.6-5.7,17.5c-1.9,5.8-3.6,11.7-5.2,17.6c-1.7,5.9-3.2,11.8-4.7,17.8
		c-1.5,5.9-2.8,12-4,18c-1.3,6-2.3,12.1-3.3,18.2c-1.1,6.1-1.6,12.3-2.5,18.4c-0.6,6.2-1.1,12.3-1.4,18.6
		c-0.2,6.2-0.4,12.4-0.1,18.7c0,3.1,0.2,6.2,0.5,9.4c0.3,3.1,0.4,6.3,0.8,9.4c0.7,6.2,1.8,12.5,3.1,18.7l2.3,9.2
		c1,3,1.9,6.1,2.9,9.1c4.4,12,10.4,23.6,18.6,33.8c4.1,5.1,8.6,9.8,13.8,14c2.6,2.1,5.2,4.1,8.1,5.9c3,1.8,5.6,3.4,9.5,4.9l1,0.4
		h1.4c14.4,0.1,28.9,0.2,43.3,0.1s28.9-0.4,43.3-0.6l3.5-0.1l1.9-2.7l20.9-30l20.2,30.2l5.1,7.6l3.9-8l6.1-12.4l5.8,9.3l3.8,6
		l3.8-5.9l12.2-18.9l7.8,8.5l4.2,4.5l2.1-5.7l7.5-20.4l21.6,33.9l1.8,2.8l2.1-2.5l18.4-21.7L1853,271.9z"/>
	<text transform="matrix(1 0 0 1 1859.0195 417.5566)" class="st5 st6 st7">®</text>
</g>
<g id="Capa_3">
	<g>
		<g>
			<g>
				<path class="st8" d="M324.7,450.8c22.1,0,38.9,5,50.4,15.1c11.5,10,17.2,25.2,17.2,45.5c0,11.3-1.4,21.4-4.3,30.5
					c-2.9,9.1-7.5,16.7-13.7,22.8c-6.3,6.2-14.3,10.9-24.1,14.2c-9.8,3.3-21.5,5-35.2,5H147.2l35.8-56.9h136.3
					c6.6,0,11.5-1.3,14.5-3.8c3-2.5,4.6-6.7,4.6-12.4c0-5.7-1.5-9.8-4.6-12.2c-3.1-2.4-7.9-3.6-14.5-3.6h-98.1
					c-11.7,0-21.7-1.5-30.2-4.6c-8.4-3.1-15.4-7.4-21-12.9c-5.6-5.5-9.7-12.2-12.4-20c-2.7-7.8-4-16.5-4-26
					c0-10.4,1.5-19.8,4.4-28.3c3-8.5,7.5-15.7,13.7-21.7c6.2-6,14.2-10.6,24-13.9c9.8-3.3,21.5-5,35.2-5h156.5L351.7,420h-125
					c-6.5,0-11.3,1.1-14.4,3.3c-3.1,2.2-4.7,6.2-4.7,11.9c0,5.7,1.6,9.8,4.7,12.1c3.1,2.3,7.9,3.5,14.4,3.5H324.7z"/>
				<path class="st8" d="M635.9,583.8h-55.5v-85.4H473.2v85.4h-56V362.4h56v78.4h107.2v-78.4h55.5V583.8z"/>
				<path class="st8" d="M746.4,583.8l33.7-56.9h45.3c5.4,0,11,0,16.8,0c5.8,0,10.9,0.2,15.2,0.7c-2.5-4-5.4-9-8.8-15.1
					c-3.3-6.1-6.5-11.7-9.6-17l-32.3-58.6l-84.6,146.9h-66l115.6-200.2c3.8-6.4,8.5-12.1,14.3-17.2c5.7-5.1,13-7.6,21.8-7.6
					c8.4,0,15.5,2.4,21.1,7.1c5.7,4.7,10.5,10.7,14.4,17.7L956,583.8H746.4z"/>
				<path class="st8" d="M1231.5,583.8h-74.6l-40.1-58.6h-85.7v58.6h-55.8V470.6h156.8c8.6,0,15.9-2.2,21.8-6.6
					c5.9-4.4,8.9-10.5,8.9-18.2c0-8.6-2.7-15.1-8.1-19.4c-5.4-4.3-12.9-6.5-22.6-6.5H975.3l36.4-57.6h115.8
					c10.2,0,20.8,1.2,31.8,3.5c11,2.3,20.9,6.5,29.9,12.4c9,5.9,16.4,14,22.2,24.2c5.8,10.1,8.8,23.2,8.8,39.1
					c0,8.6-1.1,16.8-3.2,24.5c-2.2,7.7-5.3,14.7-9.3,20.8c-4,6.2-9,11.4-14.8,15.7c-5.8,4.3-12.4,7.3-19.8,9.1
					c3.1,2.9,6.5,6.5,10.2,10.9c3.8,4.4,8.8,10.5,15.1,18.2L1231.5,583.8z"/>
				<path class="st8" d="M1478.9,583.8h-84.3l-54.4-58.3c-9.3-9.9-16.5-17.6-21.4-23.2c-4.9-5.5-8.9-10.1-12-13.9
					c0.2,5.1,0.4,10.3,0.5,15.7c0.2,5.4,0.3,10.8,0.3,16.1v63.5h-56V362.4h56v51.3c0,6.8-0.1,13.6-0.3,20.2
					c-0.2,6.6-0.5,12.8-0.8,18.5c3.6-4,8-8.9,13.1-14.7c5.1-5.8,11.8-13,20.1-21.4l52-53.9h80.8l-69,63.5
					c-5.9,5.5-11.2,10.4-15.8,14.6c-4.6,4.2-8.7,7.8-12.3,10.9c-3.6,3.1-6.9,5.8-9.8,8.3c-3,2.4-5.9,4.7-8.8,7
					c5.2,4.4,11.5,9.9,18.9,16.5c7.4,6.6,16.9,15.8,28.6,27.5L1478.9,583.8z"/>
				<path class="st8" d="M1664.2,450.8c22.1,0,38.9,5,50.4,15.1c11.5,10,17.2,25.2,17.2,45.5c0,11.3-1.4,21.4-4.3,30.5
					c-2.9,9.1-7.5,16.7-13.7,22.8c-6.3,6.2-14.3,10.9-24.1,14.2c-9.8,3.3-21.5,5-35.2,5h-167.8l35.8-56.9h136.3
					c6.6,0,11.5-1.3,14.5-3.8c3.1-2.5,4.6-6.7,4.6-12.4c0-5.7-1.5-9.8-4.6-12.2c-3.1-2.4-7.9-3.6-14.5-3.6h-98.1
					c-11.7,0-21.7-1.5-30.2-4.6c-8.4-3.1-15.4-7.4-21-12.9c-5.6-5.5-9.7-12.2-12.4-20c-2.7-7.8-4-16.5-4-26
					c0-10.4,1.5-19.8,4.4-28.3c3-8.5,7.5-15.7,13.7-21.7c6.2-6,14.2-10.6,24-13.9c9.8-3.3,21.5-5,35.2-5H1727l-35.8,57.6h-125
					c-6.5,0-11.3,1.1-14.4,3.3c-3.1,2.2-4.7,6.2-4.7,11.9c0,5.7,1.6,9.8,4.7,12.1c3.1,2.3,7.9,3.5,14.4,3.5H1664.2z"/>
			</g>
			<g>
				<path class="st3" d="M324.7,450.8c22.1,0,38.9,5,50.4,15.1c11.5,10,17.2,25.2,17.2,45.5c0,11.3-1.4,21.4-4.3,30.5
					c-2.9,9.1-7.5,16.7-13.7,22.8c-6.3,6.2-14.3,10.9-24.1,14.2c-9.8,3.3-21.5,5-35.2,5H147.2l35.8-56.9h136.3
					c6.6,0,11.5-1.3,14.5-3.8c3-2.5,4.6-6.7,4.6-12.4c0-5.7-1.5-9.8-4.6-12.2c-3.1-2.4-7.9-3.6-14.5-3.6h-98.1
					c-11.7,0-21.7-1.5-30.2-4.6c-8.4-3.1-15.4-7.4-21-12.9c-5.6-5.5-9.7-12.2-12.4-20c-2.7-7.8-4-16.5-4-26
					c0-10.4,1.5-19.8,4.4-28.3c3-8.5,7.5-15.7,13.7-21.7c6.2-6,14.2-10.6,24-13.9c9.8-3.3,21.5-5,35.2-5h156.5L351.7,420h-125
					c-6.5,0-11.3,1.1-14.4,3.3c-3.1,2.2-4.7,6.2-4.7,11.9c0,5.7,1.6,9.8,4.7,12.1c3.1,2.3,7.9,3.5,14.4,3.5H324.7z"/>
				<path class="st3" d="M635.9,583.8h-55.5v-85.4H473.2v85.4h-56V362.4h56v78.4h107.2v-78.4h55.5V583.8z"/>
				<path class="st3" d="M746.4,583.8l33.7-56.9h45.3c5.4,0,11,0,16.8,0c5.8,0,10.9,0.2,15.2,0.7c-2.5-4-5.4-9-8.8-15.1
					c-3.3-6.1-6.5-11.7-9.6-17l-32.3-58.6l-84.6,146.9h-66l115.6-200.2c3.8-6.4,8.5-12.1,14.3-17.2c5.7-5.1,13-7.6,21.8-7.6
					c8.4,0,15.5,2.4,21.1,7.1c5.7,4.7,10.5,10.7,14.4,17.7L956,583.8H746.4z"/>
				<path class="st3" d="M1231.5,583.8h-74.6l-40.1-58.6h-85.7v58.6h-55.8V470.6h156.8c8.6,0,15.9-2.2,21.8-6.6
					c5.9-4.4,8.9-10.5,8.9-18.2c0-8.6-2.7-15.1-8.1-19.4c-5.4-4.3-12.9-6.5-22.6-6.5H975.3l36.4-57.6h115.8
					c10.2,0,20.8,1.2,31.8,3.5c11,2.3,20.9,6.5,29.9,12.4c9,5.9,16.4,14,22.2,24.2c5.8,10.1,8.8,23.2,8.8,39.1
					c0,8.6-1.1,16.8-3.2,24.5c-2.2,7.7-5.3,14.7-9.3,20.8c-4,6.2-9,11.4-14.8,15.7c-5.8,4.3-12.4,7.3-19.8,9.1
					c3.1,2.9,6.5,6.5,10.2,10.9c3.8,4.4,8.8,10.5,15.1,18.2L1231.5,583.8z"/>
				<path class="st3" d="M1478.9,583.8h-84.3l-54.4-58.3c-9.3-9.9-16.5-17.6-21.4-23.2c-4.9-5.5-8.9-10.1-12-13.9
					c0.2,5.1,0.4,10.3,0.5,15.7c0.2,5.4,0.3,10.8,0.3,16.1v63.5h-56V362.4h56v51.3c0,6.8-0.1,13.6-0.3,20.2
					c-0.2,6.6-0.5,12.8-0.8,18.5c3.6-4,8-8.9,13.1-14.7c5.1-5.8,11.8-13,20.1-21.4l52-53.9h80.8l-69,63.5
					c-5.9,5.5-11.2,10.4-15.8,14.6c-4.6,4.2-8.7,7.8-12.3,10.9c-3.6,3.1-6.9,5.8-9.8,8.3c-3,2.4-5.9,4.7-8.8,7
					c5.2,4.4,11.5,9.9,18.9,16.5c7.4,6.6,16.9,15.8,28.6,27.5L1478.9,583.8z"/>
				<path class="st3" d="M1664.2,450.8c22.1,0,38.9,5,50.4,15.1c11.5,10,17.2,25.2,17.2,45.5c0,11.3-1.4,21.4-4.3,30.5
					c-2.9,9.1-7.5,16.7-13.7,22.8c-6.3,6.2-14.3,10.9-24.1,14.2c-9.8,3.3-21.5,5-35.2,5h-167.8l35.8-56.9h136.3
					c6.6,0,11.5-1.3,14.5-3.8c3.1-2.5,4.6-6.7,4.6-12.4c0-5.7-1.5-9.8-4.6-12.2c-3.1-2.4-7.9-3.6-14.5-3.6h-98.1
					c-11.7,0-21.7-1.5-30.2-4.6c-8.4-3.1-15.4-7.4-21-12.9c-5.6-5.5-9.7-12.2-12.4-20c-2.7-7.8-4-16.5-4-26
					c0-10.4,1.5-19.8,4.4-28.3c3-8.5,7.5-15.7,13.7-21.7c6.2-6,14.2-10.6,24-13.9c9.8-3.3,21.5-5,35.2-5H1727l-35.8,57.6h-125
					c-6.5,0-11.3,1.1-14.4,3.3c-3.1,2.2-4.7,6.2-4.7,11.9c0,5.7,1.6,9.8,4.7,12.1c3.1,2.3,7.9,3.5,14.4,3.5H1664.2z"/>
			</g>
			<g>
				<path class="st9" d="M324.7,450.8c22.1,0,38.9,5,50.4,15.1c11.5,10,17.2,25.2,17.2,45.5c0,11.3-1.4,21.4-4.3,30.5
					c-2.9,9.1-7.5,16.7-13.7,22.8c-6.3,6.2-14.3,10.9-24.1,14.2c-9.8,3.3-21.5,5-35.2,5H147.2l35.8-56.9h136.3
					c6.6,0,11.5-1.3,14.5-3.8c3-2.5,4.6-6.7,4.6-12.4c0-5.7-1.5-9.8-4.6-12.2c-3.1-2.4-7.9-3.6-14.5-3.6h-98.1
					c-11.7,0-21.7-1.5-30.2-4.6c-8.4-3.1-15.4-7.4-21-12.9c-5.6-5.5-9.7-12.2-12.4-20c-2.7-7.8-4-16.5-4-26
					c0-10.4,1.5-19.8,4.4-28.3c3-8.5,7.5-15.7,13.7-21.7c6.2-6,14.2-10.6,24-13.9c9.8-3.3,21.5-5,35.2-5h156.5L351.7,420h-125
					c-6.5,0-11.3,1.1-14.4,3.3c-3.1,2.2-4.7,6.2-4.7,11.9c0,5.7,1.6,9.8,4.7,12.1c3.1,2.3,7.9,3.5,14.4,3.5H324.7z"/>
				<path class="st9" d="M635.9,583.8h-55.5v-85.4H473.2v85.4h-56V362.4h56v78.4h107.2v-78.4h55.5V583.8z"/>
				<path class="st9" d="M746.4,583.8l33.7-56.9h45.3c5.4,0,11,0,16.8,0c5.8,0,10.9,0.2,15.2,0.7c-2.5-4-5.4-9-8.8-15.1
					c-3.3-6.1-6.5-11.7-9.6-17l-32.3-58.6l-84.6,146.9h-66l115.6-200.2c3.8-6.4,8.5-12.1,14.3-17.2c5.7-5.1,13-7.6,21.8-7.6
					c8.4,0,15.5,2.4,21.1,7.1c5.7,4.7,10.5,10.7,14.4,17.7L956,583.8H746.4z"/>
				<path class="st9" d="M1231.5,583.8h-74.6l-40.1-58.6h-85.7v58.6h-55.8V470.6h156.8c8.6,0,15.9-2.2,21.8-6.6
					c5.9-4.4,8.9-10.5,8.9-18.2c0-8.6-2.7-15.1-8.1-19.4c-5.4-4.3-12.9-6.5-22.6-6.5H975.3l36.4-57.6h115.8
					c10.2,0,20.8,1.2,31.8,3.5c11,2.3,20.9,6.5,29.9,12.4c9,5.9,16.4,14,22.2,24.2c5.8,10.1,8.8,23.2,8.8,39.1
					c0,8.6-1.1,16.8-3.2,24.5c-2.2,7.7-5.3,14.7-9.3,20.8c-4,6.2-9,11.4-14.8,15.7c-5.8,4.3-12.4,7.3-19.8,9.1
					c3.1,2.9,6.5,6.5,10.2,10.9c3.8,4.4,8.8,10.5,15.1,18.2L1231.5,583.8z"/>
				<path class="st9" d="M1478.9,583.8h-84.3l-54.4-58.3c-9.3-9.9-16.5-17.6-21.4-23.2c-4.9-5.5-8.9-10.1-12-13.9
					c0.2,5.1,0.4,10.3,0.5,15.7c0.2,5.4,0.3,10.8,0.3,16.1v63.5h-56V362.4h56v51.3c0,6.8-0.1,13.6-0.3,20.2
					c-0.2,6.6-0.5,12.8-0.8,18.5c3.6-4,8-8.9,13.1-14.7c5.1-5.8,11.8-13,20.1-21.4l52-53.9h80.8l-69,63.5
					c-5.9,5.5-11.2,10.4-15.8,14.6c-4.6,4.2-8.7,7.8-12.3,10.9c-3.6,3.1-6.9,5.8-9.8,8.3c-3,2.4-5.9,4.7-8.8,7
					c5.2,4.4,11.5,9.9,18.9,16.5c7.4,6.6,16.9,15.8,28.6,27.5L1478.9,583.8z"/>
				<path class="st9" d="M1664.2,450.8c22.1,0,38.9,5,50.4,15.1c11.5,10,17.2,25.2,17.2,45.5c0,11.3-1.4,21.4-4.3,30.5
					c-2.9,9.1-7.5,16.7-13.7,22.8c-6.3,6.2-14.3,10.9-24.1,14.2c-9.8,3.3-21.5,5-35.2,5h-167.8l35.8-56.9h136.3
					c6.6,0,11.5-1.3,14.5-3.8c3.1-2.5,4.6-6.7,4.6-12.4c0-5.7-1.5-9.8-4.6-12.2c-3.1-2.4-7.9-3.6-14.5-3.6h-98.1
					c-11.7,0-21.7-1.5-30.2-4.6c-8.4-3.1-15.4-7.4-21-12.9c-5.6-5.5-9.7-12.2-12.4-20c-2.7-7.8-4-16.5-4-26
					c0-10.4,1.5-19.8,4.4-28.3c3-8.5,7.5-15.7,13.7-21.7c6.2-6,14.2-10.6,24-13.9c9.8-3.3,21.5-5,35.2-5H1727l-35.8,57.6h-125
					c-6.5,0-11.3,1.1-14.4,3.3c-3.1,2.2-4.7,6.2-4.7,11.9c0,5.7,1.6,9.8,4.7,12.1c3.1,2.3,7.9,3.5,14.4,3.5H1664.2z"/>
			</g>
		</g>
		<g>
			<g>
				<path class="st10" d="M241.9,345.2c-1.5,0-2.9-0.3-4.4-0.9c-1.4-0.6-3-1.9-4.8-4l-45.3-49.9v53.3h-20.8v-75.3c0-3,0.4-5.6,1-7.7
					c0.7-2.2,1.6-3.9,2.8-5.3c1.1-1.4,2.5-2.4,4-3c1.5-0.6,3.1-1,4.7-1c1.4,0,2.8,0.3,4.3,0.9c1.4,0.6,3.1,1.9,4.9,4l45.3,49.9V253
					h20.9v75.1c0,3-0.3,5.6-1,7.7c-0.7,2.2-1.6,4-2.8,5.4c-1.1,1.4-2.5,2.4-4,3.1C245.1,344.9,243.6,345.2,241.9,345.2z"/>
				<path class="st10" d="M319.6,251.5c18,0,31.4,3.8,40.4,11.3c9,7.5,13.5,19.3,13.5,35.5c0,16.3-4.5,28.2-13.5,35.7
					c-9,7.5-22.5,11.2-40.5,11.2c-18.1,0-31.6-3.7-40.6-11.2c-8.9-7.5-13.4-19.4-13.4-35.7c0-16.2,4.5-28,13.5-35.5
					C288.1,255.2,301.6,251.5,319.6,251.5z M319.6,321.6c5.7,0,10.6-0.3,14.6-0.9c4-0.6,7.2-1.7,9.7-3.5c2.5-1.7,4.3-4.1,5.4-7.1
					c1.1-3,1.7-7,1.7-11.9c0-4.9-0.6-8.8-1.7-11.9c-1.1-3-2.9-5.4-5.4-7.1c-2.5-1.7-5.7-2.8-9.7-3.4c-4-0.6-8.8-0.9-14.6-0.9
					c-5.7,0-10.6,0.3-14.6,0.9c-4,0.6-7.2,1.7-9.7,3.4c-2.5,1.7-4.2,4-5.3,7.1c-1.1,3-1.7,7-1.7,11.9c0,4.9,0.6,8.8,1.7,11.9
					c1.1,3,2.9,5.4,5.3,7.1c2.5,1.7,5.7,2.9,9.7,3.5C309.1,321.3,313.9,321.6,319.6,321.6z"/>
				<path class="st10" d="M408.4,343.7h-22.8V253h22.8V343.7z"/>
				<path class="st10" d="M491.1,289.2c9,0,15.9,2.1,20.6,6.2c4.7,4.1,7.1,10.3,7.1,18.6c0,4.6-0.6,8.8-1.8,12.5
					c-1.2,3.7-3.1,6.8-5.6,9.4c-2.6,2.5-5.9,4.5-9.9,5.8c-4,1.4-8.8,2-14.4,2h-68.8l14.7-23.3h55.9c2.7,0,4.7-0.5,6-1.6
					c1.3-1,1.9-2.7,1.9-5.1c0-2.3-0.6-4-1.9-5c-1.2-1-3.2-1.5-6-1.5h-40.2c-4.8,0-8.9-0.6-12.4-1.9c-3.5-1.3-6.3-3-8.6-5.3
					c-2.3-2.3-4-5-5.1-8.2c-1.1-3.2-1.7-6.8-1.7-10.6c0-4.2,0.6-8.1,1.8-11.6c1.2-3.5,3.1-6.4,5.6-8.9c2.5-2.4,5.8-4.3,9.8-5.7
					c4-1.4,8.8-2,14.4-2h64.1l-14.7,23.6h-51.2c-2.6,0-4.6,0.5-5.9,1.4c-1.3,0.9-1.9,2.5-1.9,4.9c0,2.4,0.6,4,1.9,5
					c1.3,1,3.3,1.4,5.9,1.4H491.1z"/>
				<path class="st10" d="M614.7,320.4L600,343.7h-71.1V253h85.5l-14.8,23.6h-47.8v10.8h58.5L597.2,308h-45.4v12.3H614.7z"/>
			</g>
		</g>
		<path class="st11" d="M1726.6,294.5l-79.6-1.6l-0.7,0l-0.5,0.6l-15,16.4l-19-32.2l-2.8-4.8l-2.1,5.3l-7.1,17.5l-6-7l-2.9-3.3
			l-2.6,3.7l-10,14.5l-5.5-9.4l-3.7-6.3l-3.5,6.6l-5.3,10.1l-16.4-26.4l-3.9-6.3l-4.5,6.1l-21.5,28.6c-11.4-0.2-22.9-0.4-34.3-0.5
			c-12-0.1-24,0-35.9,0c-1.4-0.6-3.3-1.6-4.8-2.6c-2-1.2-3.9-2.6-5.7-4.1c-3.7-3-7-6.4-10-10.2c-6-7.5-10.6-16.2-13.9-25.5
			c-0.8-2.3-1.5-4.7-2.3-7l-1.8-7.2c-1-4.9-1.9-9.8-2.4-14.8c-0.4-2.5-0.5-5-0.7-7.5c-0.2-2.5-0.4-5-0.4-7.5
			c-0.2-5-0.1-10.1,0.1-15.2c0.2-5.1,0.7-10.1,1.1-15.2c0.7-5.1,1.1-10.1,2-15.2c0.8-5,1.6-10.1,2.7-15.1c1-5,2.1-10,3.4-15
			c1.2-5,2.4-10,3.9-14.9c1.4-4.9,2.7-9.9,4.4-14.8c1.6-4.9,3-9.8,4.8-14.7l5.2-14.6l4.1-11.6l-11.6,3.5c-7.2,2.2-13.7,4.6-20.4,7.3
			c-6.6,2.7-13.2,5.5-19.6,8.6c-6.5,3-12.8,6.3-19.1,9.6c-6.3,3.4-12.4,7-18.5,10.7l-9,5.7l-8.9,6c-5.8,4.1-11.6,8.2-17.2,12.6
			c-2.9,2.1-5.6,4.4-8.4,6.7c-2.8,2.2-5.5,4.5-8.2,6.9c-5.4,4.6-10.6,9.6-15.7,14.5c-5,5.1-10.1,10.1-14.8,15.5
			c-4.9,5.2-9.3,10.8-13.9,16.3c-4.3,5.7-8.8,11.3-12.7,17.3c-4.2,5.8-7.9,11.9-11.6,18c-1.9,3-3.5,6.2-5.3,9.3
			c-1.7,3.1-3.6,6.2-5.1,9.4c-3.2,6.4-6.4,12.8-9.1,19.4c-3,6.5-5.4,13.2-7.9,19.9c-2,5.2-3.5,10.6-5.2,15.9h-118.7l-86.5-153.1
			L974.3,133l0,23.6l0.1,176.7L866.6,160.4L855.1,142l0,21.7l0.3,178.9l-38.6-53.3l-4.4-6l-5.1,5.4c-10,10.5-20.3,20.8-30.2,31.4
			l-30.6-53.7l-4.3-7.6l-3.4,7.8l-19.1,43.5l-8.9-16.4l-0.7-1.3l-1.4,0l-84.8,2.4l83.3,2.3l10.2,21.2l2.6,5.4l2.8-5.5l20.1-40.1
			l27.9,55.1l3.7,7.3l6.1-5.9c10.6-10.4,20.6-21.2,30.8-31.9l45.5,62.8l11.2,15.5l0-19.2l-0.3-176.4l107.8,172.7l11.5,18.4l0-21.6
			l-0.1-174.8l76.7,135.7l1.8,3.1h3.6h126.9h4.5l1.5-4.5c2.1-6.5,3.9-13.2,6.4-19.6c2.4-6.4,4.7-12.9,7.6-19.2
			c2.6-6.4,5.7-12.5,8.7-18.7c1.4-3.1,3.2-6.1,4.9-9.1c1.7-3,3.2-6.1,5.1-9c3.6-5.8,7.2-11.7,11.2-17.3c3.8-5.7,8.1-11.1,12.2-16.6
			c4.4-5.3,8.7-10.7,13.4-15.7c4.5-5.2,9.4-10,14.2-14.9c5-4.7,10-9.5,15.2-14c2.6-2.3,5.2-4.5,7.9-6.7c2.7-2.2,5.3-4.4,8.1-6.5
			c5.4-4.3,11-8.3,16.7-12.2l8.6-5.8l8.7-5.5c5.9-3.6,11.9-7,17.9-10.3c6.1-3.2,12.2-6.4,18.5-9.3c6.2-3,12.5-5.7,18.9-8.3
			c2.4-1,4.9-1.9,7.4-2.8l-0.9,2.7c-1.8,4.9-3.3,10-4.9,15c-1.7,5-3.1,10.1-4.5,15.1c-1.5,5-2.8,10.2-4,15.3
			c-1.3,5.1-2.4,10.3-3.5,15.5c-1.1,5.2-2,10.4-2.8,15.6c-1,5.2-1.4,10.5-2.1,15.8c-0.5,5.3-1,10.6-1.2,15.9
			c-0.2,5.3-0.3,10.7-0.1,16c0,2.7,0.2,5.4,0.4,8c0.2,2.7,0.3,5.4,0.7,8c0.6,5.4,1.5,10.7,2.6,16l2,7.9c0.8,2.6,1.6,5.2,2.5,7.8
			c3.8,10.3,8.9,20.3,15.9,29c3.5,4.4,7.4,8.4,11.8,12.1c2.2,1.8,4.5,3.5,7,5c2.5,1.6,4.8,2.9,8.1,4.2l0.9,0.4l1.2,0
			c12.4,0.1,24.8,0.2,37.2,0.1c12.4-0.1,24.8-0.3,37.2-0.5l3-0.1l1.6-2.3l18-25.7l17.3,25.9l4.4,6.5l3.4-6.9l5.2-10.7l5,8l3.3,5.2
			l3.2-5l10.4-16.3l6.7,7.3l3.6,3.9l1.8-4.9l6.4-17.5l18.5,29.1l1.6,2.4l1.8-2.1l15.8-18.6L1726.6,294.5z"/>
		<text transform="matrix(1 0 0 1 1724.6846 426.5215)" class="st10 st6 st12">®</text>
	</g>
</g>
<g id="Capa_2">
	<g>
		<g>
			<g>
				<path class="st3" d="M331.9,449.4c21.8,0,38.4,5,49.8,14.9c11.4,9.9,17,24.9,17,45c0,11.1-1.4,21.2-4.3,30.1
					c-2.8,9-7.4,16.5-13.6,22.6c-6.2,6.1-14.2,10.8-23.8,14.1c-9.7,3.3-21.3,4.9-34.8,4.9h-166l35.4-56.3h134.8
					c6.6,0,11.4-1.3,14.4-3.8c3-2.5,4.5-6.6,4.5-12.3c0-5.7-1.5-9.7-4.5-12.1c-3-2.4-7.8-3.6-14.4-3.6h-97
					c-11.5,0-21.5-1.5-29.8-4.6c-8.3-3.1-15.3-7.3-20.8-12.8c-5.5-5.4-9.6-12-12.3-19.8c-2.7-7.7-4-16.3-4-25.7
					c0-10.3,1.5-19.6,4.4-28c2.9-8.4,7.5-15.5,13.6-21.4c6.1-5.9,14-10.5,23.7-13.7c9.7-3.3,21.3-4.9,34.8-4.9h154.8l-35.4,56.9
					H234.9c-6.4,0-11.1,1.1-14.3,3.3c-3.1,2.2-4.7,6.1-4.7,11.8c0,5.7,1.5,9.7,4.7,11.9c3.1,2.3,7.9,3.4,14.3,3.4H331.9z"/>
				<path class="st3" d="M639.5,580.9h-54.9v-84.4h-106v84.4h-55.4V362h55.4v77.5h106V362h54.9V580.9z"/>
				<path class="st3" d="M748.7,580.9l33.3-56.3h44.8c5.3,0,10.9,0,16.6,0c5.8,0,10.8,0.2,15.1,0.7c-2.5-3.9-5.4-8.9-8.7-14.9
					c-3.3-6-6.4-11.6-9.5-16.9l-32-57.9l-83.6,145.3h-65.3l114.3-198c3.7-6.3,8.4-12,14.1-17c5.7-5,12.9-7.5,21.6-7.5
					c8.3,0,15.3,2.3,20.9,7c5.6,4.7,10.3,10.5,14.2,17.5l111.4,198H748.7z"/>
				<path class="st3" d="M1228.5,580.9h-73.8L1115,523h-84.7v57.9h-55.1V469h155c8.5,0,15.7-2.2,21.6-6.5c5.9-4.4,8.8-10.4,8.8-18
					c0-8.5-2.7-14.9-8-19.1c-5.3-4.3-12.8-6.4-22.4-6.4h-155l36-56.9h114.5c10.1,0,20.6,1.1,31.4,3.4c10.8,2.3,20.7,6.4,29.6,12.3
					c8.9,5.9,16.2,13.8,22,23.9c5.8,10,8.7,22.9,8.7,38.6c0,8.5-1.1,16.6-3.2,24.2c-2.1,7.6-5.2,14.5-9.2,20.6
					c-4,6.1-8.9,11.3-14.6,15.5c-5.8,4.3-12.3,7.3-19.6,9c3,2.8,6.4,6.4,10.1,10.8c3.7,4.4,8.7,10.4,14.9,18L1228.5,580.9z"/>
				<path class="st3" d="M1473,580.9h-83.4l-53.8-57.6c-9.2-9.8-16.3-17.4-21.2-22.9c-4.9-5.4-8.8-10-11.9-13.7
					c0.2,5,0.4,10.2,0.5,15.5c0.2,5.3,0.3,10.6,0.3,15.9v62.8h-55.4V362h55.4v50.7c0,6.8-0.1,13.4-0.3,20
					c-0.2,6.5-0.4,12.7-0.8,18.3c3.6-3.9,7.9-8.8,12.9-14.6c5.1-5.8,11.7-12.8,19.8-21.1l51.4-53.3h79.9l-68.2,62.8
					c-5.9,5.5-11.1,10.3-15.6,14.4c-4.5,4.2-8.6,7.7-12.1,10.8c-3.6,3.1-6.8,5.8-9.7,8.2c-2.9,2.4-5.8,4.7-8.7,6.9
					c5.1,4.4,11.4,9.8,18.6,16.4c7.3,6.5,16.7,15.6,28.2,27.2L1473,580.9z"/>
				<path class="st3" d="M1656.3,449.4c21.8,0,38.4,5,49.8,14.9c11.4,9.9,17,24.9,17,45c0,11.1-1.4,21.2-4.3,30.1
					c-2.8,9-7.4,16.5-13.6,22.6c-6.2,6.1-14.2,10.8-23.8,14.1c-9.7,3.3-21.3,4.9-34.8,4.9h-166l35.4-56.3H1651
					c6.6,0,11.4-1.3,14.4-3.8c3-2.5,4.5-6.6,4.5-12.3c0-5.7-1.5-9.7-4.5-12.1c-3-2.4-7.8-3.6-14.4-3.6h-97
					c-11.5,0-21.5-1.5-29.8-4.6c-8.3-3.1-15.3-7.3-20.8-12.8c-5.5-5.4-9.6-12-12.3-19.8c-2.7-7.7-4-16.3-4-25.7
					c0-10.3,1.5-19.6,4.4-28c2.9-8.4,7.5-15.5,13.6-21.4c6.1-5.9,14-10.5,23.7-13.7c9.7-3.3,21.3-4.9,34.8-4.9h154.8l-35.4,56.9
					h-123.6c-6.4,0-11.1,1.1-14.2,3.3c-3.1,2.2-4.7,6.1-4.7,11.8c0,5.7,1.6,9.7,4.7,11.9c3.1,2.3,7.9,3.4,14.2,3.4H1656.3z"/>
			</g>
			<g>
				<path class="st9" d="M331.9,449.4c21.8,0,38.4,5,49.8,14.9c11.4,9.9,17,24.9,17,45c0,11.1-1.4,21.2-4.3,30.1
					c-2.8,9-7.4,16.5-13.6,22.6c-6.2,6.1-14.2,10.8-23.8,14.1c-9.7,3.3-21.3,4.9-34.8,4.9h-166l35.4-56.3h134.8
					c6.6,0,11.4-1.3,14.4-3.8c3-2.5,4.5-6.6,4.5-12.3c0-5.7-1.5-9.7-4.5-12.1c-3-2.4-7.8-3.6-14.4-3.6h-97
					c-11.5,0-21.5-1.5-29.8-4.6c-8.3-3.1-15.3-7.3-20.8-12.8c-5.5-5.4-9.6-12-12.3-19.8c-2.7-7.7-4-16.3-4-25.7
					c0-10.3,1.5-19.6,4.4-28c2.9-8.4,7.5-15.5,13.6-21.4c6.1-5.9,14-10.5,23.7-13.7c9.7-3.3,21.3-4.9,34.8-4.9h154.8l-35.4,56.9
					H234.9c-6.4,0-11.1,1.1-14.3,3.3c-3.1,2.2-4.7,6.1-4.7,11.8c0,5.7,1.5,9.7,4.7,11.9c3.1,2.3,7.9,3.4,14.3,3.4H331.9z"/>
				<path class="st9" d="M639.5,580.9h-54.9v-84.4h-106v84.4h-55.4V362h55.4v77.5h106V362h54.9V580.9z"/>
				<path class="st9" d="M748.7,580.9l33.3-56.3h44.8c5.3,0,10.9,0,16.6,0c5.8,0,10.8,0.2,15.1,0.7c-2.5-3.9-5.4-8.9-8.7-14.9
					c-3.3-6-6.4-11.6-9.5-16.9l-32-57.9l-83.6,145.3h-65.3l114.3-198c3.7-6.3,8.4-12,14.1-17c5.7-5,12.9-7.5,21.6-7.5
					c8.3,0,15.3,2.3,20.9,7c5.6,4.7,10.3,10.5,14.2,17.5l111.4,198H748.7z"/>
				<path class="st9" d="M1228.5,580.9h-73.8L1115,523h-84.7v57.9h-55.1V469h155c8.5,0,15.7-2.2,21.6-6.5c5.9-4.4,8.8-10.4,8.8-18
					c0-8.5-2.7-14.9-8-19.1c-5.3-4.3-12.8-6.4-22.4-6.4h-155l36-56.9h114.5c10.1,0,20.6,1.1,31.4,3.4c10.8,2.3,20.7,6.4,29.6,12.3
					c8.9,5.9,16.2,13.8,22,23.9c5.8,10,8.7,22.9,8.7,38.6c0,8.5-1.1,16.6-3.2,24.2c-2.1,7.6-5.2,14.5-9.2,20.6
					c-4,6.1-8.9,11.3-14.6,15.5c-5.8,4.3-12.3,7.3-19.6,9c3,2.8,6.4,6.4,10.1,10.8c3.7,4.4,8.7,10.4,14.9,18L1228.5,580.9z"/>
				<path class="st9" d="M1473,580.9h-83.4l-53.8-57.6c-9.2-9.8-16.3-17.4-21.2-22.9c-4.9-5.4-8.8-10-11.9-13.7
					c0.2,5,0.4,10.2,0.5,15.5c0.2,5.3,0.3,10.6,0.3,15.9v62.8h-55.4V362h55.4v50.7c0,6.8-0.1,13.4-0.3,20
					c-0.2,6.5-0.4,12.7-0.8,18.3c3.6-3.9,7.9-8.8,12.9-14.6c5.1-5.8,11.7-12.8,19.8-21.1l51.4-53.3h79.9l-68.2,62.8
					c-5.9,5.5-11.1,10.3-15.6,14.4c-4.5,4.2-8.6,7.7-12.1,10.8c-3.6,3.1-6.8,5.8-9.7,8.2c-2.9,2.4-5.8,4.7-8.7,6.9
					c5.1,4.4,11.4,9.8,18.6,16.4c7.3,6.5,16.7,15.6,28.2,27.2L1473,580.9z"/>
				<path class="st9" d="M1656.3,449.4c21.8,0,38.4,5,49.8,14.9c11.4,9.9,17,24.9,17,45c0,11.1-1.4,21.2-4.3,30.1
					c-2.8,9-7.4,16.5-13.6,22.6c-6.2,6.1-14.2,10.8-23.8,14.1c-9.7,3.3-21.3,4.9-34.8,4.9h-166l35.4-56.3H1651
					c6.6,0,11.4-1.3,14.4-3.8c3-2.5,4.5-6.6,4.5-12.3c0-5.7-1.5-9.7-4.5-12.1c-3-2.4-7.8-3.6-14.4-3.6h-97
					c-11.5,0-21.5-1.5-29.8-4.6c-8.3-3.1-15.3-7.3-20.8-12.8c-5.5-5.4-9.6-12-12.3-19.8c-2.7-7.7-4-16.3-4-25.7
					c0-10.3,1.5-19.6,4.4-28c2.9-8.4,7.5-15.5,13.6-21.4c6.1-5.9,14-10.5,23.7-13.7c9.7-3.3,21.3-4.9,34.8-4.9h154.8l-35.4,56.9
					h-123.6c-6.4,0-11.1,1.1-14.2,3.3c-3.1,2.2-4.7,6.1-4.7,11.8c0,5.7,1.6,9.7,4.7,11.9c3.1,2.3,7.9,3.4,14.2,3.4H1656.3z"/>
			</g>
		</g>
		<g>
			<g>
				<path class="st9" d="M250,345c-1.5,0-2.9-0.3-4.3-0.9c-1.4-0.6-3-1.9-4.7-4l-44.7-49.3v52.7h-20.5v-74.4c0-3,0.3-5.5,1-7.6
					c0.7-2.1,1.6-3.9,2.7-5.2c1.1-1.3,2.4-2.3,3.9-2.9c1.5-0.6,3-0.9,4.6-0.9c1.4,0,2.8,0.3,4.2,0.9c1.4,0.6,3,1.9,4.9,4l44.7,49.3
					v-52.7h20.6v74.3c0,3-0.3,5.5-1,7.6c-0.7,2.1-1.6,3.9-2.7,5.3c-1.1,1.4-2.5,2.4-4,3C253.2,344.7,251.6,345,250,345z"/>
				<path class="st9" d="M326.8,252.4c17.7,0,31.1,3.7,40,11.1c8.9,7.4,13.4,19.1,13.4,35.1c0,16.1-4.4,27.8-13.3,35.3
					c-8.9,7.4-22.2,11.1-40.1,11.1c-17.9,0-31.3-3.7-40.1-11.1c-8.8-7.4-13.3-19.2-13.3-35.3c0-16,4.4-27.7,13.3-35.1
					C295.7,256.1,309,252.4,326.8,252.4z M326.8,321.7c5.7,0,10.5-0.3,14.4-0.9c3.9-0.6,7.1-1.7,9.5-3.4c2.4-1.7,4.2-4,5.3-7
					c1.1-3,1.6-6.9,1.6-11.7c0-4.8-0.5-8.7-1.6-11.7c-1.1-3-2.9-5.3-5.3-7c-2.4-1.7-5.6-2.8-9.5-3.4c-3.9-0.6-8.7-0.9-14.4-0.9
					c-5.7,0-10.5,0.3-14.4,0.9c-3.9,0.6-7.1,1.7-9.6,3.4c-2.4,1.7-4.2,4-5.3,7c-1.1,3-1.6,6.9-1.6,11.7c0,4.8,0.5,8.7,1.6,11.7
					c1.1,3,2.9,5.3,5.3,7c2.4,1.7,5.6,2.8,9.6,3.4C316.4,321.4,321.2,321.7,326.8,321.7z"/>
				<path class="st9" d="M414.6,343.5H392v-89.7h22.6V343.5z"/>
				<path class="st9" d="M496.3,289.6c8.9,0,15.7,2,20.4,6.1c4.7,4.1,7,10.2,7,18.4c0,4.6-0.6,8.7-1.8,12.3c-1.2,3.7-3,6.7-5.6,9.3
					c-2.5,2.5-5.8,4.4-9.8,5.8c-4,1.3-8.7,2-14.2,2h-68l14.5-23.1h55.2c2.7,0,4.7-0.5,5.9-1.5c1.2-1,1.9-2.7,1.9-5
					c0-2.3-0.6-4-1.9-5c-1.2-1-3.2-1.5-5.9-1.5h-39.7c-4.7,0-8.8-0.6-12.2-1.9c-3.4-1.3-6.3-3-8.5-5.2c-2.3-2.2-3.9-4.9-5-8.1
					c-1.1-3.2-1.6-6.7-1.6-10.5c0-4.2,0.6-8,1.8-11.5c1.2-3.4,3.1-6.4,5.6-8.8c2.5-2.4,5.7-4.3,9.7-5.6c4-1.3,8.7-2,14.2-2h63.4
					l-14.5,23.3h-50.6c-2.6,0-4.6,0.4-5.8,1.3c-1.3,0.9-1.9,2.5-1.9,4.8c0,2.3,0.6,4,1.9,4.9c1.3,0.9,3.2,1.4,5.8,1.4H496.3z"/>
				<path class="st9" d="M618.6,320.5L604,343.5h-70.3v-89.7h84.6l-14.6,23.3h-47.3v10.7h57.8l-13,20.4h-44.9v12.2H618.6z"/>
			</g>
		</g>
		<path class="st13" d="M1718,294.8l-78.7-1.6l-0.7,0l-0.5,0.6l-14.9,16.2l-18.8-31.8l-2.8-4.8l-2.1,5.2l-7,17.3l-6-6.9l-2.8-3.3
			l-2.5,3.7l-9.9,14.3l-5.4-9.3l-3.7-6.3l-3.5,6.5l-5.3,9.9l-16.2-26.1l-3.9-6.2l-4.5,6l-21.2,28.3c-11.3-0.2-22.6-0.4-33.9-0.5
			c-11.8-0.1-23.7,0-35.5,0c-1.4-0.6-3.3-1.6-4.8-2.6c-2-1.2-3.8-2.6-5.7-4c-3.6-2.9-6.9-6.3-9.9-10.1c-6-7.4-10.4-16.1-13.8-25.2
			c-0.8-2.3-1.5-4.6-2.3-7l-1.8-7.1c-1-4.8-1.9-9.7-2.4-14.6c-0.4-2.4-0.4-4.9-0.7-7.4c-0.2-2.5-0.4-5-0.4-7.5c-0.2-5-0.1-10,0.1-15
			c0.2-5,0.7-10,1.1-15c0.7-5,1.1-10,2-15c0.8-5,1.6-10,2.7-14.9c1-5,2-9.9,3.3-14.8c1.2-4.9,2.4-9.9,3.9-14.7
			c1.4-4.9,2.7-9.8,4.3-14.6c1.6-4.8,3-9.7,4.7-14.5l5.1-14.4l4.1-11.5l-11.5,3.5c-7.1,2.2-13.6,4.6-20.2,7.2
			c-6.5,2.7-13,5.5-19.4,8.5c-6.4,3-12.6,6.2-18.8,9.5c-6.2,3.4-12.3,6.9-18.3,10.5l-8.9,5.6l-8.8,5.9c-5.8,4-11.5,8.1-17,12.5
			c-2.8,2.1-5.5,4.4-8.3,6.6c-2.7,2.2-5.5,4.5-8.1,6.8c-5.4,4.6-10.5,9.5-15.6,14.3c-4.9,5-10,10-14.6,15.3
			c-4.8,5.2-9.2,10.7-13.7,16.1c-4.2,5.7-8.7,11.2-12.5,17.1c-4.1,5.7-7.8,11.8-11.5,17.8c-1.9,3-3.5,6.1-5.3,9.2
			c-1.7,3.1-3.5,6.1-5,9.3c-3.1,6.3-6.3,12.6-9,19.2c-2.9,6.4-5.3,13.1-7.8,19.7c-1.9,5.2-3.5,10.4-5.1,15.7h-117.4l-85.6-151.3
			l-11.5-20.3l0,23.3l0.1,174.7L867.6,162.3l-11.4-18.2l0,21.5l0.3,176.9l-38.2-52.7l-4.3-6l-5.1,5.3c-9.9,10.4-20.1,20.6-29.9,31.1
			l-30.3-53.1l-4.3-7.5l-3.4,7.7l-18.9,43l-8.8-16.2l-0.7-1.3l-1.4,0l-83.8,2.4l82.3,2.3l10.1,20.9l2.6,5.4l2.7-5.5l19.8-39.6
			l27.6,54.5l3.6,7.2l6-5.9c10.4-10.2,20.4-21,30.4-31.6l45,62.1l11.1,15.4l0-19L868.6,187l106.6,170.8l11.3,18.1l0-21.4l-0.1-172.8
			l75.9,134.2l1.8,3.1h3.6h125.4h4.4l1.5-4.4c2.1-6.5,3.9-13,6.3-19.4c2.4-6.4,4.7-12.8,7.5-19c2.6-6.3,5.6-12.4,8.6-18.5
			c1.4-3.1,3.2-6,4.8-9c1.7-2.9,3.2-6,5.1-8.9c3.6-5.8,7.1-11.6,11.1-17.1c3.7-5.7,8-11,12.1-16.4c4.4-5.2,8.6-10.6,13.2-15.5
			c4.5-5.1,9.3-9.9,14.1-14.8c4.9-4.7,9.8-9.4,15-13.8c2.5-2.3,5.1-4.5,7.8-6.6c2.6-2.2,5.2-4.3,8-6.4c5.4-4.2,10.9-8.2,16.5-12.1
			l8.5-5.7l8.6-5.5c5.8-3.5,11.7-7,17.7-10.2c6-3.2,12.1-6.3,18.3-9.2c6.1-2.9,12.4-5.7,18.7-8.2c2.4-1,4.8-1.9,7.3-2.8l-0.9,2.6
			c-1.8,4.9-3.2,9.9-4.8,14.8c-1.7,4.9-3,10-4.4,15c-1.5,5-2.8,10-4,15.1c-1.3,5-2.4,10.2-3.4,15.3c-1.1,5.1-2,10.3-2.8,15.5
			c-1,5.1-1.4,10.4-2.1,15.6c-0.5,5.2-0.9,10.5-1.2,15.8c-0.2,5.3-0.3,10.6-0.1,15.9c0,2.6,0.2,5.3,0.4,8c0.2,2.7,0.3,5.3,0.7,8
			c0.6,5.3,1.5,10.6,2.6,15.8l2,7.8c0.8,2.6,1.6,5.2,2.5,7.7c3.7,10.2,8.8,20.1,15.8,28.7c3.4,4.3,7.3,8.4,11.7,11.9
			c2.2,1.8,4.4,3.5,6.9,5c2.5,1.6,4.7,2.8,8.1,4.2l0.9,0.3l1.2,0c12.2,0,24.5,0.1,36.7,0.1c12.3-0.1,24.5-0.3,36.7-0.5l3-0.1
			l1.6-2.3l17.8-25.4l17.1,25.6l4.3,6.4l3.3-6.8l5.1-10.5l4.9,7.9l3.2,5.1l3.2-5l10.3-16.1l6.7,7.2l3.5,3.8l1.8-4.8l6.3-17.3
			l18.3,28.8l1.5,2.4l1.8-2.1l15.6-18.4L1718,294.8z"/>
		<text transform="matrix(1 0 0 1 1716.0928 425.4199)" class="st9 st6 st14">®</text>
	</g>
</g>
</svg>
