<?xml version="1.0"?>
<svg xmlns="http://www.w3.org/2000/svg" id="Capa_1" enable-background="new 0 0 511.468 511.468" height="512px" viewBox="0 0 511.468 511.468" width="512px" class=""><g><path d="m255.292 218.277c-51.307 0-93.049 41.741-93.049 93.049v90.323c0 18.807 6.797 36.564 19.211 50.489-9.307 8.312-14.865 20.312-14.865 33.281v18.548c0 4.143 3.358 7.5 7.5 7.5h161.406c4.142 0 7.5-3.357 7.5-7.5v-18.547c0-12.707-5.34-24.479-14.31-32.768 12.703-13.999 19.656-31.967 19.656-51.003v-45.026-45.297c-.001-51.307-41.742-93.049-93.049-93.049zm72.703 278.191h-146.407v-11.048c0-11.975 7.135-22.706 18.178-27.338l34.757-14.579c5.183 5.211 12.355 8.442 20.268 8.442s15.084-3.231 20.268-8.442l34.757 14.579c11.043 4.632 18.178 15.363 18.178 27.338v11.048zm-71.345-91.028c-26.774 0-48.556-21.782-48.556-48.556v-53.308h52.2c2.306 0 4.484-1.061 5.905-2.877l7.701-9.836 8.321 10.008c1.425 1.714 3.538 2.705 5.767 2.705h17.217v53.308c.001 26.774-21.781 48.556-48.555 48.556zm11.744 13.895v4.009c0 7.5-6.102 13.602-13.602 13.602s-13.602-6.102-13.602-13.602v-4.814c4.952 1.242 10.129 1.911 15.461 1.911 4.012-.001 7.934-.391 11.743-1.106zm64.946-17.686c0 16.101-6.206 31.243-17.469 42.713-.085-.036-.168-.076-.254-.112l-33.1-13.883c.57-2.248.875-4.6.875-7.023v-8.824c21.716-10.117 36.813-32.14 36.813-57.635v-55.585c0-7.016-5.708-12.723-12.723-12.723h-15.977l-9.101-10.946c-2.17-2.611-5.367-4.111-8.757-4.03-3.396.049-6.543 1.611-8.637 4.285l-8.371 10.691h-50.824c-7.015 0-12.723 5.707-12.723 12.723v55.585c0 24.015 13.391 44.957 33.095 55.764v10.695c0 2.423.305 4.775.875 7.023l-32.643 13.692c-11.077-11.436-17.179-26.45-17.179-42.409v-90.323c0-43.036 35.013-78.049 78.049-78.049s78.049 35.013 78.049 78.049v45.297 45.025z" data-original="#000000" class="active-path" data-old_color="#000000" fill="#FFFFFF"/><circle cx="228.829" cy="328.805" r="8.201" data-original="#000000" class="active-path" data-old_color="#000000" fill="#FFFFFF"/><circle cx="281.754" cy="328.805" r="8.201" data-original="#000000" class="active-path" data-old_color="#000000" fill="#FFFFFF"/><circle cx="364.593" cy="328.04" r="5.677" data-original="#000000" class="active-path" data-old_color="#000000" fill="#FFFFFF"/><circle cx="401.229" cy="328.04" r="5.677" data-original="#000000" class="active-path" data-old_color="#000000" fill="#FFFFFF"/><circle cx="142.99" cy="328.04" r="5.677" data-original="#000000" class="active-path" data-old_color="#000000" fill="#FFFFFF"/><circle cx="106.354" cy="328.04" r="5.677" data-original="#000000" class="active-path" data-old_color="#000000" fill="#FFFFFF"/><path d="m429.375 0h-347.282c-37.566 0-68.128 30.562-68.128 68.127v152.345c0 29.094 18.063 54.372 44.803 64.03-.807 3.448-1.248 7.036-1.248 10.727v26.067c-2.509 3.525-4 7.822-4 12.469 0 11.896 9.678 21.573 21.574 21.573h3.015c2.518 14.657 11.945 26.975 24.801 33.478v4.666c0 1.179.095 2.336.274 3.466l-21.164 8.878c-12.373 5.188-20.367 17.21-20.367 30.627v12.839c0 4.143 3.358 7.5 7.5 7.5h85.472c4.142 0 7.5-3.357 7.5-7.5s-3.358-7.5-7.5-7.5h-77.972v-5.339c0-7.357 4.384-13.949 11.168-16.795l22.688-9.517c3.886 3.389 8.96 5.448 14.509 5.448s10.623-2.06 14.509-5.448l7.72 3.238c.948.397 1.931.586 2.898.586 2.931 0 5.715-1.729 6.919-4.601 1.603-3.819-.195-8.215-4.015-9.817l-6.198-2.6c.179-1.13.274-2.287.274-3.466v-6.051c2.234-1.307 4.368-2.801 6.368-4.481 3.172-2.664 3.584-7.395.92-10.566-2.664-3.172-7.395-3.584-10.566-.92-5.619 4.719-12.763 7.317-20.116 7.317-17.261 0-31.303-14.042-31.303-31.303v-27.787-6.806h44.884c4.142 0 7.5-3.357 7.5-7.5s-3.358-7.5-7.5-7.5h-48.769c-6.129 0-11.115 4.986-11.115 11.115v3.19h-2.333c-.872 0-1.728.067-2.574.168v-17.13c0-17.689 14.391-32.08 32.08-32.08h44.065c4.142 0 7.5-3.357 7.5-7.5s-3.358-7.5-7.5-7.5h-44.065c-16.942 0-31.818 8.998-40.112 22.463-21.173-7.368-35.524-27.235-35.524-50.14v-152.343c0-29.294 23.833-53.127 53.128-53.127h347.282c29.294 0 53.127 23.833 53.127 53.127v152.345c0 25.301-17.895 46.948-42.261 52.004-12.964-17.616-33.83-29.075-57.331-29.075-8.847 0-17.483 1.605-25.669 4.772-3.863 1.495-5.783 5.838-4.289 9.701 1.495 3.862 5.837 5.783 9.701 4.289 6.453-2.497 13.269-3.763 20.257-3.763 30.962 0 56.151 25.188 56.151 56.15v31.471h-8.907v-37.021c0-6.129-4.986-11.115-11.115-11.115h-9.977l-5.607-6.744c-1.951-2.347-4.836-3.689-7.872-3.623-3.051.045-5.88 1.448-7.761 3.852l-5.102 6.516h-19.552c-4.142 0-7.5 3.357-7.5 7.5s3.358 7.5 7.5 7.5h23.205c2.306 0 4.484-1.061 5.905-2.877l3.567-4.556 3.931 4.728c1.425 1.714 3.538 2.705 5.767 2.705h9.61v34.593c0 17.261-14.042 31.303-31.303 31.303-6.487 0-12.708-1.965-17.989-5.682-3.387-2.384-8.066-1.57-10.45 1.817s-1.57 8.066 1.817 10.45c1.051.74 2.129 1.429 3.228 2.074v6.041c0 1.179.095 2.336.274 3.466l-2.086.875c-3.82 1.603-5.618 5.997-4.015 9.817 1.205 2.872 3.988 4.601 6.919 4.601.967 0 1.95-.188 2.897-.586l3.609-1.514c3.886 3.389 8.96 5.448 14.509 5.448s10.623-2.06 14.509-5.448l22.688 9.517c6.784 2.846 11.167 9.438 11.167 16.795v5.339h-77.232c-4.142 0-7.5 3.357-7.5 7.5s3.358 7.5 7.5 7.5h84.732c4.142 0 7.5-3.357 7.5-7.5v-12.839c0-13.417-7.994-25.438-20.365-30.627l-21.165-8.878c.179-1.13.274-2.287.274-3.466v-4.666c11.158-5.643 19.738-15.662 23.457-27.794h12.924c7.173 0 13.009-5.836 13.009-13.009v-33.462c0-10.155-2.154-19.813-6.004-28.561 28.795-8.192 49.445-34.749 49.445-65.518v-152.345c0-37.565-30.562-68.127-68.127-68.127zm-297.25 393.005v.476c0 3.919-3.188 7.107-7.107 7.107s-7.107-3.188-7.107-7.107v-.08c1.908.241 3.848.379 5.821.379 2.83 0 5.639-.266 8.393-.775zm-54.697-65.815v13.147h-2.333c-3.625 0-6.574-2.949-6.574-6.573 0-3.625 2.949-6.574 6.574-6.574zm312.244 66.291c0 3.919-3.188 7.107-7.107 7.107s-7.107-3.188-7.107-7.107v-.465c2.747.502 5.553.764 8.394.764 1.973 0 3.912-.138 5.821-.379v.08z" data-original="#000000" class="active-path" data-old_color="#000000" fill="#FFFFFF"/><path d="m440.894 240.519c-3.587 2.072-4.815 6.659-2.744 10.246 1.389 2.405 3.91 3.75 6.501 3.75 1.272 0 2.563-.324 3.744-1.006 11.785-6.807 19.106-19.466 19.106-33.037v-152.345c0-21.023-17.104-38.127-38.127-38.127h-36.114c-4.142 0-7.5 3.357-7.5 7.5s3.358 7.5 7.5 7.5h36.114c12.752 0 23.127 10.375 23.127 23.127v152.345c.001 8.23-4.447 15.912-11.607 20.047z" data-original="#000000" class="active-path" data-old_color="#000000" fill="#FFFFFF"/><path d="m82.093 45h280.736c4.142 0 7.5-3.357 7.5-7.5s-3.358-7.5-7.5-7.5h-280.736c-21.023 0-38.127 17.104-38.127 38.127v152.345c0 12.693 6.304 24.521 16.864 31.636 1.286.866 2.742 1.281 4.184 1.281 2.411 0 4.778-1.16 6.227-3.31 2.314-3.436 1.406-8.097-2.029-10.411-6.416-4.323-10.246-11.499-10.246-19.196v-152.345c-.001-12.752 10.374-23.127 23.127-23.127z" data-original="#000000" class="active-path" data-old_color="#000000" fill="#FFFFFF"/><path d="m241.691 93.185c-6.322-3.935-13.982-4.126-20.491-.511-6.51 3.616-10.396 10.221-10.396 17.667v63.833c0 7.446 3.886 14.05 10.396 17.666 3.104 1.724 6.469 2.582 9.826 2.582 3.684 0 7.358-1.034 10.665-3.093l51.276-31.916c5.967-3.714 9.529-10.128 9.529-17.156s-3.563-13.442-9.529-17.156zm43.349 53.494-51.276 31.916c-2.349 1.462-4.475.579-5.28.132s-2.679-1.787-2.679-4.553v-63.833c0-2.767 1.874-4.106 2.679-4.554.473-.263 1.402-.676 2.563-.676.816 0 1.748.204 2.717.808l51.276 31.916c2.217 1.38 2.456 3.552 2.456 4.422s-.239 3.042-2.456 4.422z" data-original="#000000" class="active-path" data-old_color="#000000" fill="#FFFFFF"/></g> </svg>
