<?xml version="1.0" encoding="utf-8"?>
<!-- Generator: Adobe Illustrator 22.0.0, SVG Export Plug-In . SVG Version: 6.00 Build 0)  -->
<svg version="1.1" id="Capa_1" xmlns="http://www.w3.org/2000/svg" xmlns:xlink="http://www.w3.org/1999/xlink" x="0px" y="0px"
	 viewBox="0 0 663 351" style="enable-background:new 0 0 663 351;" xml:space="preserve">
<style type="text/css">
	.st0{fill:#FF0000;}
</style>
<path class="st0" d="M371.9,346.2c-6,0-11.4-3.1-13-7.6L286.9,151l-66.4,104c-2.2,3.4-6.5,5.7-11.4,5.9c-5.1,0.3-9.5-1.6-12.1-4.7
	l-50.5-59.3H17.7c-7.5,0-13.7-4.8-13.7-10.7s6.1-10.7,13.7-10.7H154c4.6,0,8.8,1.8,11.4,4.8l41.5,48.7l71.3-111.6
	c2.4-3.9,7.7-6.4,13.4-5.8c5.6,0.4,10.2,3.4,11.9,7.6l65.8,172.3l71-278.1c1.3-5.1,7.3-9,13.9-8.6c6.6,0.2,12.3,4.2,13,9.5l25,176.8
	l37-14.5c1.9-0.7,4-1.1,6.1-1.1h109c7.5,0,13.7,4.8,13.7,10.7s-6.1,10.7-13.7,10.7H538.6L487,217.1c-4,1.6-8.7,1.5-12.6-0.2
	s-6.5-4.7-7-8.2L449.8,85l-64.5,252.7c-1.3,4.8-6.5,8.3-12.8,8.6C372.3,346.2,372.1,346.2,371.9,346.2z"/>
</svg>
