<?xml version="1.0" encoding="utf-8"?>
<!-- Generator: Adobe Illustrator 22.0.0, SVG Export Plug-In . SVG Version: 6.00 Build 0)  -->
<svg version="1.1" id="Capa_1" xmlns="http://www.w3.org/2000/svg" xmlns:xlink="http://www.w3.org/1999/xlink" x="0px" y="0px"
	 viewBox="0 0 100 100" style="enable-background:new 0 0 100 100;" xml:space="preserve">
<style type="text/css">
	.st0{display:none;}
	.st1{display:inline;fill:#F9F9F9;}
	.st2{fill:#FFFFFF;}
</style>
<g id="Capa_1_1_" class="st0">
	<path class="st1" d="M70.6,53.2H56.9v44.3H36.5V53.2h-9.7V35.9h9.7V24.6c0-8,3.8-20.6,20.6-20.6l15.1,0.1V21h-11
		c-1.8,0-4.3,0.9-4.3,4.7v10.2h15.5L70.6,53.2z"/>
</g>
<g id="Capa_2_1_">
	<g>
		<path class="st2" d="M97,23.7c-3.5,1.5-7.2,2.6-11.2,3.1c4-2.4,7.1-6.2,8.6-10.8c-3.8,2.2-7.9,3.8-12.4,4.7
			c-3.6-3.8-8.6-6.1-14.2-6.1c-10.7,0-19.5,8.7-19.5,19.5c0,1.5,0.2,3,0.5,4.4C32.7,37.7,18.3,30,8.7,18.2C7,21.1,6.1,24.4,6.1,28
			c0,6.7,3.4,12.7,8.7,16.2c-3.2-0.1-6.2-1-8.8-2.4C6,41.9,6,42,6,42c0,9.4,6.7,17.3,15.6,19.1c-1.6,0.4-3.4,0.7-5.1,0.7
			c-1.3,0-2.5-0.1-3.7-0.3C15.3,69.2,22.5,74.9,31,75c-6.7,5.2-15.1,8.3-24.2,8.3c-1.6,0-3.1-0.1-4.6-0.3c8.6,5.5,18.8,8.7,29.8,8.7
			c35.8,0,55.4-29.7,55.4-55.4c0-0.8,0-1.7-0.1-2.5C91.1,31.1,94.4,27.6,97,23.7L97,23.7z"/>
	</g>
</g>
</svg>
