<?xml version="1.0" encoding="utf-8"?>
<!-- Generator: Adobe Illustrator 16.0.3, SVG Export Plug-In . SVG Version: 6.00 Build 0)  -->
<!DOCTYPE svg PUBLIC "-//W3C//DTD SVG 1.1//EN" "http://www.w3.org/Graphics/SVG/1.1/DTD/svg11.dtd">
<svg version="1.1" id="Capa_1" xmlns="http://www.w3.org/2000/svg" xmlns:xlink="http://www.w3.org/1999/xlink" x="0px" y="0px"
	 width="1078.387px" height="1080px" viewBox="0 0 1078.387 1080" enable-background="new 0 0 1078.387 1080" xml:space="preserve">
<path fill="#545454" d="M580.365,361.065L753.976,1.598h-70.156L541.8,295.646L394.814,1.598h-70.658l179.681,359.468H0V1080
	h1078.387V361.065H580.365z M728.001,941.69H126.372V499.402h601.629V941.69z M952.012,941.891H791.138v-63.188h160.874V941.891z
	 M952.012,815.414H791.138v-63.137h160.874V815.414z M952.012,688.988H791.138v-63.137h160.874V688.988z M952.012,562.563H791.138
	v-63.162h160.874V562.563z"/>
<path fill="none" stroke="#545454" stroke-width="0.25" stroke-miterlimit="10" d="M580.365,361.065L753.976,1.598h-70.156
	L541.8,295.646L394.814,1.598h-70.658l179.681,359.468H0V1080h1078.387V361.065H580.365z M728.001,941.69H126.372V499.402h601.629
	V941.69z M952.012,941.891H791.138v-63.188h160.874V941.891z M952.012,815.414H791.138v-63.137h160.874V815.414z M952.012,688.988
	H791.138v-63.137h160.874V688.988z M952.012,562.563H791.138v-63.162h160.874V562.563z"/>
<rect x="189.56" y="562.563" fill="#545454" width="475.255" height="315.938"/>
<rect x="189.56" y="562.563" fill="none" stroke="#545454" stroke-width="0.25" stroke-miterlimit="10" width="475.255" height="315.938"/>
</svg>
