<?xml version="1.0" encoding="utf-8"?>
<!-- Generator: Adobe Illustrator 16.0.3, SVG Export Plug-In . SVG Version: 6.00 Build 0)  -->
<!DOCTYPE svg PUBLIC "-//W3C//DTD SVG 1.1//EN" "http://www.w3.org/Graphics/SVG/1.1/DTD/svg11.dtd">
<svg version="1.1" id="Capa_1" xmlns="http://www.w3.org/2000/svg" xmlns:xlink="http://www.w3.org/1999/xlink" x="0px" y="0px"
	 width="15.59px" height="15.59px" viewBox="0 0 15.59 15.59" enable-background="new 0 0 15.59 15.59" xml:space="preserve">
<path fill="#545454" d="M9.721,11.561c-0.069,0.043-0.143,0.083-0.221,0.122c-0.611,0.307-1.413,0.475-2.258,0.475
	c-0.223,0-0.442-0.012-0.657-0.034c-0.003,0.438-0.068,0.859-0.184,1.256c0.271,0.043,0.553,0.067,0.841,0.067
	c0.711,0,1.4-0.142,1.892-0.387c0.404-0.203,0.587-0.436,0.587-0.567V11.561z"/>
<path fill="none" stroke="#545454" stroke-width="0.25" stroke-miterlimit="10" d="M9.721,11.561
	c-0.069,0.043-0.143,0.083-0.221,0.122c-0.611,0.307-1.413,0.475-2.258,0.475c-0.223,0-0.442-0.012-0.657-0.034
	c-0.003,0.438-0.068,0.859-0.184,1.256c0.271,0.043,0.553,0.067,0.841,0.067c0.711,0,1.4-0.142,1.892-0.387
	c0.404-0.203,0.587-0.436,0.587-0.567V11.561z"/>
<path fill="#545454" d="M7.242,2.875c-0.845,0-1.648-0.168-2.258-0.475C4.906,2.361,4.833,2.321,4.761,2.278V3.21
	c0,0.132,0.185,0.365,0.589,0.568C5.841,4.023,6.53,4.165,7.242,4.165s1.4-0.142,1.892-0.387C9.538,3.575,9.721,3.342,9.721,3.21
	V2.278C9.651,2.321,9.578,2.361,9.5,2.4C8.889,2.707,8.087,2.875,7.242,2.875"/>
<path fill="none" stroke="#545454" stroke-width="0.25" stroke-miterlimit="10" d="M7.242,2.875c-0.845,0-1.648-0.168-2.258-0.475
	C4.906,2.361,4.833,2.321,4.761,2.278V3.21c0,0.132,0.185,0.365,0.589,0.568C5.841,4.023,6.53,4.165,7.242,4.165
	s1.4-0.142,1.892-0.387C9.538,3.575,9.721,3.342,9.721,3.21V2.278C9.651,2.321,9.578,2.361,9.5,2.4
	C8.889,2.707,8.087,2.875,7.242,2.875z"/>
<path fill="#545454" d="M7.242,5.196c-0.845,0-1.648-0.169-2.258-0.474c-0.078-0.04-0.151-0.08-0.223-0.124v0.932
	c0,0.131,0.185,0.365,0.589,0.567C5.841,6.344,6.53,6.486,7.242,6.486s1.4-0.142,1.892-0.388c0.404-0.202,0.587-0.436,0.587-0.567
	V4.599C9.651,4.642,9.578,4.682,9.5,4.722C8.889,5.027,8.087,5.196,7.242,5.196"/>
<path fill="none" stroke="#545454" stroke-width="0.25" stroke-miterlimit="10" d="M7.242,5.196c-0.845,0-1.648-0.169-2.258-0.474
	c-0.078-0.04-0.151-0.08-0.223-0.124v0.932c0,0.131,0.185,0.365,0.589,0.567C5.841,6.344,6.53,6.486,7.242,6.486
	s1.4-0.142,1.892-0.388c0.404-0.202,0.587-0.436,0.587-0.567V4.599C9.651,4.642,9.578,4.682,9.5,4.722
	C8.889,5.027,8.087,5.196,7.242,5.196z"/>
<path fill="#545454" d="M9.5,7.042C8.889,7.348,8.087,7.516,7.242,7.516S5.594,7.348,4.984,7.042
	C4.906,7.003,4.833,6.961,4.761,6.92v0.931c0,0.131,0.185,0.364,0.589,0.567C5.841,8.664,6.53,8.806,7.242,8.806
	c0.711,0,1.4-0.142,1.892-0.387c0.404-0.203,0.587-0.436,0.587-0.567V7.735V6.92C9.651,6.961,9.578,7.003,9.5,7.042"/>
<path fill="none" stroke="#545454" stroke-width="0.25" stroke-miterlimit="10" d="M9.5,7.042C8.889,7.348,8.087,7.516,7.242,7.516
	S5.594,7.348,4.984,7.042C4.906,7.003,4.833,6.961,4.761,6.92v0.931c0,0.131,0.185,0.364,0.589,0.567
	C5.841,8.664,6.53,8.806,7.242,8.806c0.711,0,1.4-0.142,1.892-0.387c0.404-0.203,0.587-0.436,0.587-0.567V7.735V6.92
	C9.651,6.961,9.578,7.003,9.5,7.042z"/>
<path fill="#545454" d="M7.242,11.126c0.712,0,1.4-0.141,1.892-0.387c0.404-0.202,0.587-0.437,0.587-0.568V9.239
	C9.651,9.282,9.578,9.323,9.5,9.362C8.889,9.668,8.087,9.837,7.242,9.837c-0.457,0-0.9-0.051-1.309-0.144
	c0.25,0.413,0.438,0.877,0.546,1.379C6.725,11.107,6.98,11.126,7.242,11.126"/>
<path fill="none" stroke="#545454" stroke-width="0.25" stroke-miterlimit="10" d="M7.242,11.126c0.712,0,1.4-0.141,1.892-0.387
	c0.404-0.202,0.587-0.437,0.587-0.568V9.239C9.651,9.282,9.578,9.323,9.5,9.362C8.889,9.668,8.087,9.837,7.242,9.837
	c-0.457,0-0.9-0.051-1.309-0.144c0.25,0.413,0.438,0.877,0.546,1.379C6.725,11.107,6.98,11.126,7.242,11.126z"/>
<path fill="#545454" d="M15.367,13.887c-0.61,0.307-1.409,0.476-2.258,0.476c-0.845,0-1.647-0.169-2.257-0.476
	c-0.078-0.039-0.152-0.079-0.223-0.123v0.934c0,0.132,0.186,0.364,0.59,0.566c0.491,0.246,1.18,0.387,1.89,0.387
	c0.712,0,1.401-0.141,1.892-0.387c0.405-0.202,0.589-0.435,0.589-0.566v-0.934C15.519,13.808,15.446,13.848,15.367,13.887"/>
<path fill="none" stroke="#545454" stroke-width="0.25" stroke-miterlimit="10" d="M15.367,13.887
	c-0.61,0.307-1.409,0.476-2.258,0.476c-0.845,0-1.647-0.169-2.257-0.476c-0.078-0.039-0.152-0.079-0.223-0.123v0.934
	c0,0.132,0.186,0.364,0.59,0.566c0.491,0.246,1.18,0.387,1.89,0.387c0.712,0,1.401-0.141,1.892-0.387
	c0.405-0.202,0.589-0.435,0.589-0.566v-0.934C15.519,13.808,15.446,13.848,15.367,13.887z"/>
<path fill="#545454" d="M15.367,11.566c-0.61,0.307-1.409,0.476-2.258,0.476c-0.845,0-1.647-0.169-2.257-0.476
	c-0.078-0.039-0.152-0.08-0.223-0.122v0.933c0,0.131,0.186,0.363,0.59,0.566c0.491,0.246,1.18,0.387,1.89,0.387
	c0.712,0,1.401-0.141,1.892-0.387c0.405-0.203,0.589-0.436,0.589-0.566v-0.933C15.519,11.486,15.446,11.527,15.367,11.566"/>
<path fill="none" stroke="#545454" stroke-width="0.25" stroke-miterlimit="10" d="M15.367,11.566
	c-0.61,0.307-1.409,0.476-2.258,0.476c-0.845,0-1.647-0.169-2.257-0.476c-0.078-0.039-0.152-0.08-0.223-0.122v0.933
	c0,0.131,0.186,0.363,0.59,0.566c0.491,0.246,1.18,0.387,1.89,0.387c0.712,0,1.401-0.141,1.892-0.387
	c0.405-0.203,0.589-0.436,0.589-0.566v-0.933C15.519,11.486,15.446,11.527,15.367,11.566z"/>
<path fill="#545454" d="M15.367,9.247c-0.61,0.306-1.409,0.475-2.258,0.475c-0.845,0-1.647-0.169-2.257-0.475
	C10.774,9.208,10.7,9.166,10.63,9.124v0.933c0,0.13,0.186,0.363,0.59,0.566c0.491,0.246,1.18,0.387,1.89,0.387
	c0.712,0,1.401-0.142,1.892-0.387c0.405-0.203,0.589-0.437,0.589-0.566V9.124C15.519,9.166,15.446,9.208,15.367,9.247"/>
<path fill="none" stroke="#545454" stroke-width="0.25" stroke-miterlimit="10" d="M15.367,9.247
	c-0.61,0.306-1.409,0.475-2.258,0.475c-0.845,0-1.647-0.169-2.257-0.475C10.774,9.208,10.7,9.166,10.63,9.124v0.933
	c0,0.13,0.186,0.363,0.59,0.566c0.491,0.246,1.18,0.387,1.89,0.387c0.712,0,1.401-0.142,1.892-0.387
	c0.405-0.203,0.589-0.437,0.589-0.566V9.124C15.519,9.166,15.446,9.208,15.367,9.247z"/>
<path fill="#545454" d="M5.351,1.457C5.841,1.702,6.53,1.844,7.242,1.844c0.711,0,1.4-0.142,1.892-0.387
	C9.538,1.254,9.721,1.021,9.721,0.89S9.538,0.525,9.134,0.322C8.642,0.076,7.953-0.064,7.242-0.064c-0.712,0-1.4,0.14-1.891,0.386
	C4.946,0.525,4.761,0.758,4.761,0.89S4.946,1.254,5.351,1.457"/>
<path fill="none" stroke="#545454" stroke-width="0.25" stroke-miterlimit="10" d="M5.351,1.457C5.841,1.702,6.53,1.844,7.242,1.844
	c0.711,0,1.4-0.142,1.892-0.387C9.538,1.254,9.721,1.021,9.721,0.89S9.538,0.525,9.134,0.322C8.642,0.076,7.953-0.064,7.242-0.064
	c-0.712,0-1.4,0.14-1.891,0.386C4.946,0.525,4.761,0.758,4.761,0.89S4.946,1.254,5.351,1.457z"/>
<path fill="#545454" d="M11.22,8.303c0.49,0.246,1.18,0.387,1.89,0.387c0.712,0,1.401-0.141,1.892-0.387
	C15.406,8.1,15.59,7.867,15.59,7.735c0-0.131-0.184-0.363-0.589-0.567c-0.49-0.246-1.18-0.386-1.892-0.386
	c-0.71,0-1.399,0.14-1.89,0.386c-0.404,0.204-0.59,0.436-0.59,0.567C10.63,7.867,10.815,8.1,11.22,8.303"/>
<path fill="none" stroke="#545454" stroke-width="0.25" stroke-miterlimit="10" d="M11.22,8.303c0.49,0.246,1.18,0.387,1.89,0.387
	c0.712,0,1.401-0.141,1.892-0.387C15.406,8.1,15.59,7.867,15.59,7.735c0-0.131-0.184-0.363-0.589-0.567
	c-0.49-0.246-1.18-0.386-1.892-0.386c-0.71,0-1.399,0.14-1.89,0.386c-0.404,0.204-0.59,0.436-0.59,0.567
	C10.63,7.867,10.815,8.1,11.22,8.303z"/>
<path fill="#545454" d="M5.677,12.069c0-1.743-1.25-3.163-2.786-3.163c-1.536,0-2.786,1.419-2.786,3.163
	c0,1.745,1.25,3.164,2.786,3.164C4.427,15.233,5.677,13.814,5.677,12.069 M3.248,13.789v0.42H2.596v-0.418
	c-0.363-0.13-0.639-0.483-0.721-0.935L1.85,12.722l0.591-0.405l0.061,0.244c0.11,0.438,0.243,0.527,0.42,0.527
	c0.141,0,0.203-0.058,0.24-0.109c0.042-0.059,0.064-0.139,0.064-0.24c0-0.131-0.066-0.237-0.416-0.427
	c-0.232-0.12-0.35-0.201-0.499-0.347c-0.176-0.178-0.263-0.403-0.263-0.69c0-0.42,0.219-0.777,0.547-0.919V9.931h0.652v0.427
	c0.214,0.089,0.384,0.269,0.503,0.537l0.07,0.155l-0.557,0.412l-0.09-0.182c-0.107-0.215-0.186-0.231-0.284-0.231
	c-0.096,0-0.156,0.102-0.156,0.195c0,0.082,0.013,0.133,0.09,0.201l0.002,0.002c0.053,0.041,0.099,0.076,0.132,0.098l0.209,0.123
	c0.153,0.087,0.241,0.139,0.383,0.261c0.236,0.199,0.347,0.443,0.359,0.792l0,0.008c0,0.299-0.086,0.556-0.255,0.764
	C3.541,13.635,3.404,13.733,3.248,13.789"/>
<path fill="none" stroke="#545454" stroke-width="0.25" stroke-miterlimit="10" d="M5.677,12.069c0-1.743-1.25-3.163-2.786-3.163
	c-1.536,0-2.786,1.419-2.786,3.163c0,1.745,1.25,3.164,2.786,3.164C4.427,15.233,5.677,13.814,5.677,12.069z M3.248,13.789v0.42
	H2.596v-0.418c-0.363-0.13-0.639-0.483-0.721-0.935L1.85,12.722l0.591-0.405l0.061,0.244c0.11,0.438,0.243,0.527,0.42,0.527
	c0.141,0,0.203-0.058,0.24-0.109c0.042-0.059,0.064-0.139,0.064-0.24c0-0.131-0.066-0.237-0.416-0.427
	c-0.232-0.12-0.35-0.201-0.499-0.347c-0.176-0.178-0.263-0.403-0.263-0.69c0-0.42,0.219-0.777,0.547-0.919V9.931h0.652v0.427
	c0.214,0.089,0.384,0.269,0.503,0.537l0.07,0.155l-0.557,0.412l-0.09-0.182c-0.107-0.215-0.186-0.231-0.284-0.231
	c-0.096,0-0.156,0.102-0.156,0.195c0,0.082,0.013,0.133,0.09,0.201l0.002,0.002c0.053,0.041,0.099,0.076,0.132,0.098l0.209,0.123
	c0.153,0.087,0.241,0.139,0.383,0.261c0.236,0.199,0.347,0.443,0.359,0.792l0,0.008c0,0.299-0.086,0.556-0.255,0.764
	C3.541,13.635,3.404,13.733,3.248,13.789z"/>
</svg>
