<?xml version="1.0" encoding="utf-8"?>
<!-- Generator: Adobe Illustrator 16.0.3, SVG Export Plug-In . SVG Version: 6.00 Build 0)  -->
<!DOCTYPE svg PUBLIC "-//W3C//DTD SVG 1.1//EN" "http://www.w3.org/Graphics/SVG/1.1/DTD/svg11.dtd">
<svg version="1.1" id="Capa_1" xmlns="http://www.w3.org/2000/svg" xmlns:xlink="http://www.w3.org/1999/xlink" x="0px" y="0px"
	 width="1078.387px" height="1080px" viewBox="0 0 1078.387 1080" enable-background="new 0 0 1078.387 1080" xml:space="preserve">
<path fill="#545454" d="M669.827,795.706c-4.932,2.938-10.063,5.764-15.544,8.425c-42.799,21.062-98.949,32.59-158.142,32.59
	c-15.594,0-30.938-0.831-46.035-2.438c-0.251,30.04-4.783,59.027-12.854,86.241c18.881,2.938,38.711,4.545,58.889,4.545
	c49.825,0,98.105-9.645,132.482-26.493c28.349-13.856,41.203-29.874,41.203-38.964V795.706z"/>
<path fill="none" stroke="#545454" stroke-width="0.25" stroke-miterlimit="10" d="M669.827,795.706
	c-4.932,2.938-10.063,5.764-15.544,8.425c-42.799,21.062-98.949,32.59-158.142,32.59c-15.594,0-30.938-0.831-46.035-2.438
	c-0.251,30.04-4.783,59.027-12.854,86.241c18.881,2.938,38.711,4.545,58.889,4.545c49.825,0,98.105-9.645,132.482-26.493
	c28.349-13.856,41.203-29.874,41.203-38.964V795.706z"/>
<path fill="#545454" d="M496.142,199.777c-59.189,0-115.39-11.639-158.14-32.589c-5.431-2.661-10.562-5.432-15.544-8.425v63.96
	c0,9.035,12.904,25.053,41.252,38.909c34.331,16.903,82.559,26.604,132.431,26.604c49.874,0,98.105-9.701,132.482-26.604
	c28.349-13.856,41.203-29.875,41.203-38.909v-63.96c-4.932,2.993-10.063,5.764-15.544,8.425
	C611.484,188.138,555.334,199.777,496.142,199.777"/>
<path fill="none" stroke="#545454" stroke-width="0.25" stroke-miterlimit="10" d="M496.142,199.777
	c-59.189,0-115.39-11.639-158.14-32.589c-5.431-2.661-10.562-5.432-15.544-8.425v63.96c0,9.035,12.904,25.053,41.252,38.909
	c34.331,16.903,82.559,26.604,132.431,26.604c49.874,0,98.105-9.701,132.482-26.604c28.349-13.856,41.203-29.875,41.203-38.909
	v-63.96c-4.932,2.993-10.063,5.764-15.544,8.425C611.484,188.138,555.334,199.777,496.142,199.777z"/>
<path fill="#545454" d="M496.142,358.958c-59.189,0-115.39-11.529-158.14-32.479c-5.431-2.771-10.562-5.542-15.544-8.48v63.96
	c0,8.979,12.904,25.053,41.252,38.964c34.331,16.849,82.559,26.549,132.431,26.549c49.874,0,98.105-9.7,132.482-26.549
	c28.349-13.912,41.203-29.985,41.203-38.964v-63.96c-4.932,2.938-10.063,5.708-15.544,8.48
	C611.484,347.429,555.334,358.958,496.142,358.958"/>
<path fill="none" stroke="#545454" stroke-width="0.25" stroke-miterlimit="10" d="M496.142,358.958
	c-59.189,0-115.39-11.529-158.14-32.479c-5.431-2.771-10.562-5.542-15.544-8.48v63.96c0,8.979,12.904,25.053,41.252,38.964
	c34.331,16.849,82.559,26.549,132.431,26.549c49.874,0,98.105-9.7,132.482-26.549c28.349-13.912,41.203-29.985,41.203-38.964v-63.96
	c-4.932,2.938-10.063,5.708-15.544,8.48C611.484,347.429,555.334,358.958,496.142,358.958z"/>
<path fill="#545454" d="M654.283,485.659c-42.799,20.951-98.949,32.534-158.142,32.534c-59.189,0-115.39-11.583-158.14-32.534
	c-5.431-2.661-10.562-5.542-15.544-8.369v63.905c0,9.034,12.904,25.052,41.252,38.908c34.331,16.85,82.559,26.604,132.431,26.604
	c49.825,0,98.105-9.755,132.482-26.604c28.349-13.856,41.203-29.874,41.203-38.908v-7.981V477.29
	C664.896,480.117,659.765,482.999,654.283,485.659"/>
<path fill="none" stroke="#545454" stroke-width="0.25" stroke-miterlimit="10" d="M654.283,485.659
	c-42.799,20.951-98.949,32.534-158.142,32.534c-59.189,0-115.39-11.583-158.14-32.534c-5.431-2.661-10.562-5.542-15.544-8.369
	v63.905c0,9.034,12.904,25.052,41.252,38.908c34.331,16.85,82.559,26.604,132.431,26.604c49.825,0,98.105-9.755,132.482-26.604
	c28.349-13.856,41.203-29.874,41.203-38.908v-7.981V477.29C664.896,480.117,659.765,482.999,654.283,485.659z"/>
<path fill="#545454" d="M496.142,765.888c49.874,0,98.105-9.645,132.482-26.493c28.349-13.911,41.203-29.984,41.203-39.018v-63.961
	c-4.932,2.992-10.063,5.764-15.544,8.479c-42.799,21.007-98.949,32.534-158.142,32.534c-31.986,0-63.024-3.437-91.624-9.754
	c17.488,28.267,30.641,60.136,38.215,94.554C459.971,764.668,477.858,765.888,496.142,765.888"/>
<path fill="none" stroke="#545454" stroke-width="0.25" stroke-miterlimit="10" d="M496.142,765.888
	c49.874,0,98.105-9.645,132.482-26.493c28.349-13.911,41.203-29.984,41.203-39.018v-63.961c-4.932,2.992-10.063,5.764-15.544,8.479
	c-42.799,21.007-98.949,32.534-158.142,32.534c-31.986,0-63.024-3.437-91.624-9.754c17.488,28.267,30.641,60.136,38.215,94.554
	C459.971,764.668,477.858,765.888,496.142,765.888z"/>
<path fill="#545454" d="M1065.228,955.386c-42.697,21.007-98.801,32.591-158.139,32.591c-59.19,0-115.393-11.584-158.09-32.591
	c-5.48-2.66-10.614-5.487-15.597-8.369v63.961c0,8.979,12.954,24.995,41.255,38.909c34.428,16.849,82.658,26.492,132.432,26.492
	c49.822,0,98.103-9.644,132.481-26.492c28.351-13.914,41.204-29.93,41.204-38.909v-63.961
	C1075.843,949.898,1070.709,952.726,1065.228,955.386"/>
<path fill="none" stroke="#545454" stroke-width="0.25" stroke-miterlimit="10" d="M1065.228,955.386
	c-42.697,21.007-98.801,32.591-158.139,32.591c-59.19,0-115.393-11.584-158.09-32.591c-5.48-2.66-10.614-5.487-15.597-8.369v63.961
	c0,8.979,12.954,24.995,41.255,38.909c34.428,16.849,82.658,26.492,132.432,26.492c49.822,0,98.103-9.644,132.481-26.492
	c28.351-13.914,41.204-29.93,41.204-38.909v-63.961C1075.843,949.898,1070.709,952.726,1065.228,955.386z"/>
<path fill="#545454" d="M1065.228,796.149c-42.697,21.006-98.801,32.591-158.139,32.591c-59.19,0-115.393-11.585-158.09-32.591
	c-5.48-2.66-10.614-5.542-15.597-8.425v63.961c0,9.034,12.954,24.997,41.255,38.964c34.428,16.849,82.658,26.493,132.432,26.493
	c49.822,0,98.103-9.645,132.481-26.493c28.351-13.967,41.204-29.93,41.204-38.964v-63.961
	C1075.843,790.607,1070.709,793.489,1065.228,796.149"/>
<path fill="none" stroke="#545454" stroke-width="0.25" stroke-miterlimit="10" d="M1065.228,796.149
	c-42.697,21.006-98.801,32.591-158.139,32.591c-59.19,0-115.393-11.585-158.09-32.591c-5.48-2.66-10.614-5.542-15.597-8.425v63.961
	c0,9.034,12.954,24.997,41.255,38.964c34.428,16.849,82.658,26.493,132.432,26.493c49.822,0,98.103-9.645,132.481-26.493
	c28.351-13.967,41.204-29.93,41.204-38.964v-63.961C1075.843,790.607,1070.709,793.489,1065.228,796.149z"/>
<path fill="#545454" d="M1065.228,636.97c-42.697,20.951-98.801,32.59-158.139,32.59c-59.19,0-115.393-11.639-158.09-32.59
	c-5.48-2.66-10.614-5.542-15.597-8.425v63.961c0,8.979,12.954,24.941,41.255,38.907c34.428,16.849,82.658,26.493,132.432,26.493
	c49.822,0,98.103-9.645,132.481-26.493c28.351-13.966,41.204-29.929,41.204-38.907v-63.961
	C1075.843,631.428,1070.709,634.31,1065.228,636.97"/>
<path fill="none" stroke="#545454" stroke-width="0.25" stroke-miterlimit="10" d="M1065.228,636.97
	c-42.697,20.951-98.801,32.59-158.139,32.59c-59.19,0-115.393-11.639-158.09-32.59c-5.48-2.66-10.614-5.542-15.597-8.425v63.961
	c0,8.979,12.954,24.941,41.255,38.907c34.428,16.849,82.658,26.493,132.432,26.493c49.822,0,98.103-9.645,132.481-26.493
	c28.351-13.966,41.204-29.929,41.204-38.907v-63.961C1075.843,631.428,1070.709,634.31,1065.228,636.97z"/>
<path fill="#545454" d="M363.71,102.451C398.042,119.3,446.27,129,496.142,129c49.825,0,98.105-9.7,132.482-26.549
	c28.349-13.967,41.203-29.93,41.203-38.964c0-9.035-12.854-24.997-41.203-38.963C594.247,7.674,545.967-1.97,496.142-1.97
	c-49.872,0-98.1,9.644-132.431,26.494c-28.349,13.966-41.252,29.929-41.252,38.963C322.458,72.521,335.362,88.484,363.71,102.451"/>
<path fill="none" stroke="#545454" stroke-width="0.25" stroke-miterlimit="10" d="M363.71,102.451
	C398.042,119.3,446.27,129,496.142,129c49.825,0,98.105-9.7,132.482-26.549c28.349-13.967,41.203-29.93,41.203-38.964
	c0-9.035-12.854-24.997-41.203-38.963C594.247,7.674,545.967-1.97,496.142-1.97c-49.872,0-98.1,9.644-132.431,26.494
	c-28.349,13.966-41.252,29.929-41.252,38.963C322.458,72.521,335.362,88.484,363.71,102.451z"/>
<path fill="#545454" d="M774.657,572.178c34.378,16.85,82.658,26.549,132.432,26.549c49.822,0,98.103-9.699,132.481-26.549
	c28.351-13.911,41.204-29.874,41.204-38.964c0-8.979-12.854-24.941-41.204-38.908c-34.379-16.849-82.659-26.494-132.481-26.494
	c-49.773,0-98.054,9.645-132.432,26.494c-28.301,13.967-41.255,29.93-41.255,38.908
	C733.402,542.304,746.356,558.267,774.657,572.178"/>
<path fill="none" stroke="#545454" stroke-width="0.25" stroke-miterlimit="10" d="M774.657,572.178
	c34.378,16.85,82.658,26.549,132.432,26.549c49.822,0,98.103-9.699,132.481-26.549c28.351-13.911,41.204-29.874,41.204-38.964
	c0-8.979-12.854-24.941-41.204-38.908c-34.379-16.849-82.659-26.494-132.481-26.494c-49.773,0-98.054,9.645-132.432,26.494
	c-28.301,13.967-41.255,29.93-41.255,38.908C733.402,542.304,746.356,558.267,774.657,572.178z"/>
<path fill="#545454" d="M386.581,830.68c0-119.662-87.541-216.988-195.16-216.988c-107.567,0-195.108,97.326-195.108,216.988
	s87.541,217.043,195.108,217.043C299.04,1047.723,386.581,950.342,386.581,830.68 M216.483,948.68v28.821h-45.739V948.79
	c-25.408-8.979-44.742-33.145-50.471-64.126l-1.743-9.257l41.403-27.823l4.284,16.738c7.674,30.097,16.992,36.137,29.396,36.137
	c9.867,0,14.2-3.879,16.791-7.426c2.99-4.047,4.535-9.533,4.535-16.518c0-8.979-4.634-16.295-29.148-29.264
	c-16.241-8.203-24.461-13.802-34.875-23.778c-12.358-12.192-18.438-27.657-18.438-47.388c0-28.821,15.348-53.318,38.265-63.073
	v-29.098h45.739v29.209c14.998,6.152,26.856,18.456,35.175,36.912l4.982,10.642l-39.062,28.267l-6.278-12.415
	c-7.522-14.799-13.003-15.963-19.88-15.963c-6.725,0-10.91,6.983-10.91,13.413c0,5.653,0.847,9.146,6.275,13.856l0.152,0.111
	c3.735,2.826,6.976,5.265,9.266,6.705l14.65,8.481c10.71,5.93,16.89,9.532,26.804,17.846c16.492,13.69,24.265,30.429,25.162,54.373
	l0.049,0.554c0,20.451-6.03,38.077-17.885,52.377C236.961,938.038,227.396,944.8,216.483,948.68"/>
<path fill="none" stroke="#545454" stroke-width="0.25" stroke-miterlimit="10" d="M386.581,830.68
	c0-119.662-87.541-216.988-195.16-216.988c-107.567,0-195.108,97.326-195.108,216.988s87.541,217.043,195.108,217.043
	C299.04,1047.723,386.581,950.342,386.581,830.68z M216.483,948.68v28.821h-45.739V948.79
	c-25.408-8.979-44.742-33.145-50.471-64.126l-1.743-9.257l41.403-27.823l4.284,16.738c7.674,30.097,16.992,36.137,29.396,36.137
	c9.867,0,14.2-3.879,16.791-7.426c2.99-4.047,4.535-9.533,4.535-16.518c0-8.979-4.634-16.295-29.148-29.264
	c-16.241-8.203-24.461-13.802-34.875-23.778c-12.358-12.192-18.438-27.657-18.438-47.388c0-28.821,15.348-53.318,38.265-63.073
	v-29.098h45.739v29.209c14.998,6.152,26.856,18.456,35.175,36.912l4.982,10.642l-39.062,28.267l-6.278-12.415
	c-7.522-14.799-13.003-15.963-19.88-15.963c-6.725,0-10.91,6.983-10.91,13.413c0,5.653,0.847,9.146,6.275,13.856l0.152,0.111
	c3.735,2.826,6.976,5.265,9.266,6.705l14.65,8.481c10.71,5.93,16.89,9.532,26.804,17.846c16.492,13.69,24.265,30.429,25.162,54.373
	l0.049,0.554c0,20.451-6.03,38.077-17.885,52.377C236.961,938.038,227.396,944.8,216.483,948.68z"/>
</svg>
