<?xml version="1.0" encoding="utf-8"?>
<!-- Generator: Adobe Illustrator 16.0.3, SVG Export Plug-In . SVG Version: 6.00 Build 0)  -->
<!DOCTYPE svg PUBLIC "-//W3C//DTD SVG 1.1//EN" "http://www.w3.org/Graphics/SVG/1.1/DTD/svg11.dtd">
<svg version="1.1" id="Capa_1" xmlns="http://www.w3.org/2000/svg" xmlns:xlink="http://www.w3.org/1999/xlink" x="0px" y="0px"
	 width="15.59px" height="15.59px" viewBox="0 0 15.59 15.59" enable-background="new 0 0 15.59 15.59" xml:space="preserve">
<path fill="#545454" d="M13.187,2.276c-3.013-3.035-7.915-3.035-10.927,0c-3.013,3.034-3.013,7.971,0,11.006
	c3.012,3.034,7.915,3.034,10.927-0.001C16.201,10.246,16.201,5.31,13.187,2.276 M12.344,12.432c-2.547,2.566-6.693,2.566-9.241,0
	c-2.549-2.565-2.549-6.742,0-9.308c2.548-2.566,6.694-2.567,9.241,0C14.894,5.689,14.893,9.866,12.344,12.432 M11.217,10.854
	c0.096,0.224-0.005,0.483-0.227,0.579c-0.222,0.097-0.479-0.006-0.575-0.229c-0.421-0.98-1.417-1.615-2.537-1.615
	c-1.146,0-2.148,0.634-2.552,1.614c-0.069,0.17-0.233,0.272-0.403,0.272c-0.056,0-0.113-0.013-0.168-0.034
	c-0.222-0.094-0.328-0.351-0.235-0.575c0.54-1.311,1.859-2.157,3.359-2.157C9.347,8.708,10.656,9.551,11.217,10.854 M4.842,5.672
	c0-0.502,0.404-0.909,0.903-0.909c0.498,0,0.903,0.407,0.903,0.909c0,0.503-0.405,0.909-0.903,0.909
	C5.246,6.581,4.842,6.175,4.842,5.672 M8.937,5.672c0-0.502,0.405-0.909,0.902-0.909c0.498,0,0.905,0.407,0.905,0.909
	c0,0.503-0.405,0.909-0.905,0.909C9.342,6.581,8.937,6.175,8.937,5.672"/>
<path fill="none" stroke="#545454" stroke-width="0.25" stroke-miterlimit="10" d="M13.187,2.276c-3.013-3.035-7.915-3.035-10.927,0
	c-3.013,3.034-3.013,7.971,0,11.006c3.012,3.034,7.915,3.034,10.927-0.001C16.201,10.246,16.201,5.31,13.187,2.276z M12.344,12.432
	c-2.547,2.566-6.693,2.566-9.241,0c-2.549-2.565-2.549-6.742,0-9.308c2.548-2.566,6.694-2.567,9.241,0
	C14.894,5.689,14.893,9.866,12.344,12.432z M11.217,10.854c0.096,0.224-0.005,0.483-0.227,0.579
	c-0.222,0.097-0.479-0.006-0.575-0.229c-0.421-0.98-1.417-1.615-2.537-1.615c-1.146,0-2.148,0.634-2.552,1.614
	c-0.069,0.17-0.233,0.272-0.403,0.272c-0.056,0-0.113-0.013-0.168-0.034c-0.222-0.094-0.328-0.351-0.235-0.575
	c0.54-1.311,1.859-2.157,3.359-2.157C9.347,8.708,10.656,9.551,11.217,10.854z M4.842,5.672c0-0.502,0.404-0.909,0.903-0.909
	c0.498,0,0.903,0.407,0.903,0.909c0,0.503-0.405,0.909-0.903,0.909C5.246,6.581,4.842,6.175,4.842,5.672z M8.937,5.672
	c0-0.502,0.405-0.909,0.902-0.909c0.498,0,0.905,0.407,0.905,0.909c0,0.503-0.405,0.909-0.905,0.909
	C9.342,6.581,8.937,6.175,8.937,5.672z"/>
</svg>
