<?xml version="1.0" encoding="utf-8"?>
<!-- Generator: Adobe Illustrator 16.0.3, SVG Export Plug-In . SVG Version: 6.00 Build 0)  -->
<!DOCTYPE svg PUBLIC "-//W3C//DTD SVG 1.1//EN" "http://www.w3.org/Graphics/SVG/1.1/DTD/svg11.dtd">
<svg version="1.1" id="Capa_1" xmlns="http://www.w3.org/2000/svg" xmlns:xlink="http://www.w3.org/1999/xlink" x="0px" y="0px"
	 width="1078.387px" height="1080px" viewBox="0 0 1078.387 1080" enable-background="new 0 0 1078.387 1080" xml:space="preserve">
<path fill="#545454" d="M917.973,160.942c-210.085-211.265-551.77-211.265-761.743-0.056
	c-210.025,211.265-210.025,554.968,0,766.289c209.974,211.21,551.658,211.21,761.743-0.055
	C1127.943,715.854,1127.943,372.151,917.973,160.942 M859.198,868.055c-177.595,178.643-466.597,178.643-644.192,0
	c-177.651-178.699-177.651-469.46,0-648.048c177.595-178.643,466.597-178.698,644.192,0
	C1036.849,398.595,1036.793,689.41,859.198,868.055 M780.61,758.163c6.697,15.531-0.388,33.568-15.827,40.305
	c-15.441,6.735-33.372-0.446-40.069-15.977c-29.333-68.307-98.787-112.453-176.876-112.453c-79.86,0-149.704,44.09-177.872,112.396
	c-4.871,11.747-16.271,18.873-28.115,18.873c-3.93,0-7.858-0.725-11.734-2.339c-15.494-6.514-22.856-24.438-16.38-40.027
	c37.634-91.241,129.557-150.14,234.101-150.14C650.222,608.802,741.593,667.421,780.61,758.163 M336.206,397.369
	c0-34.96,28.171-63.296,62.925-63.296c34.757,0,62.982,28.336,62.982,63.296c0,35.017-28.225,63.352-62.982,63.352
	C364.376,460.721,336.206,432.386,336.206,397.369 M621.665,397.369c0-34.96,28.171-63.296,62.926-63.296
	c34.754,0,62.979,28.336,62.979,63.296c0,35.017-28.167,63.352-62.979,63.352C649.836,460.721,621.665,432.386,621.665,397.369"/>
<path fill="none" stroke="#545454" stroke-width="0.25" stroke-miterlimit="10" d="M917.973,160.942
	c-210.085-211.265-551.77-211.265-761.743-0.056c-210.025,211.265-210.025,554.968,0,766.289
	c209.974,211.21,551.658,211.21,761.743-0.055C1127.943,715.854,1127.943,372.151,917.973,160.942z M859.198,868.055
	c-177.595,178.643-466.597,178.643-644.192,0c-177.651-178.699-177.651-469.46,0-648.048c177.595-178.643,466.597-178.698,644.192,0
	C1036.849,398.595,1036.793,689.41,859.198,868.055z M780.61,758.163c6.697,15.531-0.388,33.568-15.827,40.305
	c-15.441,6.735-33.372-0.446-40.069-15.977c-29.333-68.307-98.787-112.453-176.876-112.453c-79.86,0-149.704,44.09-177.872,112.396
	c-4.871,11.747-16.271,18.873-28.115,18.873c-3.93,0-7.858-0.725-11.734-2.339c-15.494-6.514-22.856-24.438-16.38-40.027
	c37.634-91.241,129.557-150.14,234.101-150.14C650.222,608.802,741.593,667.421,780.61,758.163z M336.206,397.369
	c0-34.96,28.171-63.296,62.925-63.296c34.757,0,62.982,28.336,62.982,63.296c0,35.017-28.225,63.352-62.982,63.352
	C364.376,460.721,336.206,432.386,336.206,397.369z M621.665,397.369c0-34.96,28.171-63.296,62.926-63.296
	c34.754,0,62.979,28.336,62.979,63.296c0,35.017-28.167,63.352-62.979,63.352C649.836,460.721,621.665,432.386,621.665,397.369z"/>
</svg>
