<?xml version="1.0" encoding="utf-8"?>
<!-- Generator: Adobe Illustrator 16.0.3, SVG Export Plug-In . SVG Version: 6.00 Build 0)  -->
<!DOCTYPE svg PUBLIC "-//W3C//DTD SVG 1.1//EN" "http://www.w3.org/Graphics/SVG/1.1/DTD/svg11.dtd">
<svg version="1.1" id="Capa_1" xmlns="http://www.w3.org/2000/svg" xmlns:xlink="http://www.w3.org/1999/xlink" x="0px" y="0px"
	 width="1078.387px" height="1080px" viewBox="0 0 1078.387 1080" enable-background="new 0 0 1078.387 1080" xml:space="preserve">
<path fill="#545454" d="M856.362,110.157c0-23.235,28.358-42.046,63.201-42.046V5.07H350.814
	c-87.154,0-158.092,47.135-158.092,105.087v277.472h663.64V110.157z"/>
<path fill="none" stroke="#545454" stroke-width="0.25" stroke-miterlimit="10" d="M856.362,110.157
	c0-23.235,28.358-42.046,63.201-42.046V5.07H350.814c-87.154,0-158.092,47.135-158.092,105.087v277.472h663.64V110.157z"/>
<path fill="#545454" d="M1014.372,26.149V131.18c-34.928,0-63.207,18.865-63.207,42.044v27.357h126.41v-90.425
	C1077.575,75.829,1052.709,45.29,1014.372,26.149"/>
<path fill="none" stroke="#545454" stroke-width="0.25" stroke-miterlimit="10" d="M1014.372,26.149V131.18
	c-34.928,0-63.207,18.865-63.207,42.044v27.357h126.41v-90.425C1077.575,75.829,1052.709,45.29,1014.372,26.149z"/>
<path fill="#545454" d="M951.165,269.072v181.682H98V269.072C42.779,282.045,3.11,317.121,3.11,358.225v628.553
	c0,52.169,63.866,94.602,142.208,94.602h758.448c78.422,0,142.207-42.433,142.207-94.602V358.225
	C1045.974,317.121,1006.305,282.045,951.165,269.072 M344.411,955.271H192.723v-63.04h151.688V955.271z M344.411,829.135H192.723
	v-63.068h151.688V829.135z M344.411,703.025H192.723v-63.068h151.688V703.025z M600.386,955.271H448.698v-63.04h151.688V955.271z
	 M600.386,829.135H448.698v-63.068h151.688V829.135z M600.386,703.025H448.698v-63.068h151.688V703.025z M856.362,955.271H704.671
	v-63.04h151.691V955.271z M856.362,829.135H704.671v-63.068h151.691V829.135z M856.362,703.025H704.671v-63.068h151.691V703.025z
	 M856.362,576.861h-663.64v-63.067h663.64V576.861z"/>
<path fill="none" stroke="#545454" stroke-width="0.25" stroke-miterlimit="10" d="M951.165,269.072v181.682H98V269.072
	C42.779,282.045,3.11,317.121,3.11,358.225v628.553c0,52.169,63.866,94.602,142.208,94.602h758.448
	c78.422,0,142.207-42.433,142.207-94.602V358.225C1045.974,317.121,1006.305,282.045,951.165,269.072z M344.411,955.271H192.723
	v-63.04h151.688V955.271z M344.411,829.135H192.723v-63.068h151.688V829.135z M344.411,703.025H192.723v-63.068h151.688V703.025z
	 M600.386,955.271H448.698v-63.04h151.688V955.271z M600.386,829.135H448.698v-63.068h151.688V829.135z M600.386,703.025H448.698
	v-63.068h151.688V703.025z M856.362,955.271H704.671v-63.04h151.691V955.271z M856.362,829.135H704.671v-63.068h151.691V829.135z
	 M856.362,703.025H704.671v-63.068h151.691V703.025z M856.362,576.861h-663.64v-63.067h663.64V576.861z"/>
</svg>
