<?xml version="1.0" encoding="utf-8"?>
<!-- Generator: Adobe Illustrator 16.0.3, SVG Export Plug-In . SVG Version: 6.00 Build 0)  -->
<!DOCTYPE svg PUBLIC "-//W3C//DTD SVG 1.1//EN" "http://www.w3.org/Graphics/SVG/1.1/DTD/svg11.dtd">
<svg version="1.1" id="Capa_1" xmlns="http://www.w3.org/2000/svg" xmlns:xlink="http://www.w3.org/1999/xlink" x="0px" y="0px"
	 width="15.59px" height="15.59px" viewBox="0 0 15.59 15.59" enable-background="new 0 0 15.59 15.59" xml:space="preserve">
<path fill="#545454" d="M12.374,1.522c0-0.337,0.402-0.609,0.896-0.609V0H5.22C3.986,0,2.982,0.682,2.982,1.522v4.019h9.392V1.522z"
	/>
<path fill="none" stroke="#545454" stroke-width="0.25" stroke-miterlimit="10" d="M12.374,1.522c0-0.337,0.402-0.609,0.896-0.609V0
	H5.22C3.986,0,2.982,0.682,2.982,1.522v4.019h9.392V1.522z"/>
<path fill="#545454" d="M14.611,0.306v1.521c-0.494,0-0.896,0.272-0.896,0.608v0.396h1.79v-1.31
	C15.506,1.025,15.155,0.583,14.611,0.306"/>
<path fill="none" stroke="#545454" stroke-width="0.25" stroke-miterlimit="10" d="M14.611,0.306v1.521
	c-0.494,0-0.896,0.272-0.896,0.608v0.396h1.79v-1.31C15.506,1.025,15.155,0.583,14.611,0.306z"/>
<path fill="#545454" d="M13.716,3.824v2.631H1.642V3.824C0.86,4.012,0.299,4.52,0.299,5.115v9.104c0,0.755,0.904,1.37,2.013,1.37
	h10.734c1.11,0,2.013-0.615,2.013-1.37V5.115C15.059,4.52,14.498,4.012,13.716,3.824 M5.129,13.763H2.982V12.85h2.146V13.763z
	 M5.129,11.936H2.982v-0.913h2.146V11.936z M5.129,10.11H2.982V9.196h2.146V10.11z M8.752,13.763H6.605V12.85h2.147V13.763z
	 M8.752,11.936H6.605v-0.913h2.147V11.936z M8.752,10.11H6.605V9.196h2.147V10.11z M12.374,13.763h-2.146V12.85h2.146V13.763z
	 M12.374,11.936h-2.146v-0.913h2.146V11.936z M12.374,10.11h-2.146V9.196h2.146V10.11z M12.374,8.282H2.982V7.369h9.392V8.282z"/>
<path fill="none" stroke="#545454" stroke-width="0.25" stroke-miterlimit="10" d="M13.716,3.824v2.631H1.642V3.824
	C0.86,4.012,0.299,4.52,0.299,5.115v9.104c0,0.755,0.904,1.37,2.013,1.37h10.734c1.11,0,2.013-0.615,2.013-1.37V5.115
	C15.059,4.52,14.498,4.012,13.716,3.824z M5.129,13.763H2.982V12.85h2.146V13.763z M5.129,11.936H2.982v-0.913h2.146V11.936z
	 M5.129,10.11H2.982V9.196h2.146V10.11z M8.752,13.763H6.605V12.85h2.147V13.763z M8.752,11.936H6.605v-0.913h2.147V11.936z
	 M8.752,10.11H6.605V9.196h2.147V10.11z M12.374,13.763h-2.146V12.85h2.146V13.763z M12.374,11.936h-2.146v-0.913h2.146V11.936z
	 M12.374,10.11h-2.146V9.196h2.146V10.11z M12.374,8.282H2.982V7.369h9.392V8.282z"/>
</svg>
