<?xml version="1.0" encoding="utf-8"?>
<!-- Generator: Adobe Illustrator 16.0.3, SVG Export Plug-In . SVG Version: 6.00 Build 0)  -->
<!DOCTYPE svg PUBLIC "-//W3C//DTD SVG 1.1//EN" "http://www.w3.org/Graphics/SVG/1.1/DTD/svg11.dtd">
<svg version="1.1" id="Capa_1" xmlns="http://www.w3.org/2000/svg" xmlns:xlink="http://www.w3.org/1999/xlink" x="0px" y="0px"
	 width="1.42px" height="1.42px" viewBox="0 0 1.42 1.42" enable-background="new 0 0 1.42 1.42" xml:space="preserve">
<path fill="#545454" d="M0.71,0.153c0.179,0,0.325,0.116,0.325,0.258S0.889,0.67,0.71,0.67c-0.18,0-0.325-0.116-0.325-0.258
	S0.53,0.153,0.71,0.153"/>
<ellipse fill="none" stroke="#545454" stroke-width="0.25" stroke-miterlimit="10" cx="0.71" cy="0.412" rx="0.325" ry="0.258"/>
<path fill="#545454" d="M0.71,0.799c-0.325,0-0.589,0.278-0.589,0.621h1.177C1.298,1.077,1.035,0.799,0.71,0.799"/>
<path fill="none" stroke="#545454" stroke-width="0.25" stroke-miterlimit="10" d="M0.71,0.799c-0.325,0-0.589,0.209-0.589,0.468
	h1.177C1.298,1.008,1.035,0.799,0.71,0.799z"/>
</svg>
