<?xml version="1.0" encoding="utf-8"?>
<!-- Generator: Adobe Illustrator 16.0.3, SVG Export Plug-In . SVG Version: 6.00 Build 0)  -->
<!DOCTYPE svg PUBLIC "-//W3C//DTD SVG 1.1//EN" "http://www.w3.org/Graphics/SVG/1.1/DTD/svg11.dtd">
<svg version="1.1" id="Capa_1" xmlns="http://www.w3.org/2000/svg" xmlns:xlink="http://www.w3.org/1999/xlink" x="0px" y="0px"
	 width="939.162px" height="1079.12px" viewBox="0 0 939.162 1079.12" enable-background="new 0 0 939.162 1079.12"
	 xml:space="preserve">
<path fill="#545454" d="M469.607,0c143.015,0,259.101,112.041,259.101,250.259c0,138.215-116.086,250.256-259.101,250.256
	c-143.068,0-259.038-112.041-259.038-250.256C210.569,112.041,326.54,0,469.607,0"/>
<path fill="none" stroke="#545454" stroke-width="0.25" stroke-miterlimit="10" d="M469.607,0
	c143.015,0,259.101,112.041,259.101,250.259c0,138.215-116.086,250.256-259.101,250.256c-143.068,0-259.038-112.041-259.038-250.256
	C210.569,112.041,326.54,0,469.607,0z"/>
<path fill="#545454" d="M469.607,625.616C210.281,625.616,0,828.64,0,1079.12h939.162
	C939.162,828.64,728.939,625.616,469.607,625.616"/>
<path fill="none" stroke="#545454" stroke-width="0.25" stroke-miterlimit="10" d="M469.607,625.616
	C210.281,625.616,0,828.64,0,1079.12h939.162C939.162,828.64,728.939,625.616,469.607,625.616z"/>
</svg>
