<?xml version="1.0" encoding="utf-8"?>
<!-- Generator: Adobe Illustrator 16.0.3, SVG Export Plug-In . SVG Version: 6.00 Build 0)  -->
<!DOCTYPE svg PUBLIC "-//W3C//DTD SVG 1.1//EN" "http://www.w3.org/Graphics/SVG/1.1/DTD/svg11.dtd">
<svg version="1.1" id="Capa_1" xmlns="http://www.w3.org/2000/svg" xmlns:xlink="http://www.w3.org/1999/xlink" x="0px" y="0px"
	 width="1078.387px" height="1080px" viewBox="0 0 1078.387 1080" enable-background="new 0 0 1078.387 1080" xml:space="preserve">
<path fill="#545454" d="M935.22,408.356l-5.16-1.821l-20.028-48.652l2.108-4.917c60.862-140.053,56.59-144.25,46.549-154.301
	l-81.06-80.438c-3.271-3.285-9.097-5.661-14.146-5.661c-4.552,0-18.31,0-138.04,55.005l-4.771,2.209l-49.489-20.102l-1.941-5.024
	C612.927,3.024,607.268,3.024,593.23,3.024H478.773c-14.037,0-20.308,0-72.572,141.906l-1.886,5.188l-49.156,20.269l-4.715-1.934
	c-81.116-34.736-128.275-52.38-140.702-52.38c-4.994,0-10.763,2.263-14.147,5.605l-81.114,80.574
	c-10.21,10.382-14.482,14.58,49.379,151.761l2.328,5.081l-20.082,48.545l-4.827,1.988C-1.365,465.57-1.365,471.039-1.365,485.729
	v113.877c0,14.689,0,20.711,142.92,72.73l5.104,1.825l20.084,48.434l-2.107,4.913c-60.807,140.222-56.923,143.92-46.66,154.413
	l80.891,80.356c3.498,3.313,9.266,5.687,14.315,5.687c4.493,0,18.363,0,138.094-54.949l4.828-2.376l49.432,20.27l1.888,5.08
	c56.202,141.544,62.026,141.544,76.063,141.544h114.571c14.369,0,20.307,0,72.569-141.984l1.885-5.028l49.212-20.322l4.719,1.988
	c81,34.792,128.162,52.301,140.479,52.301c4.938,0,10.873-2.209,14.257-5.579l81.227-80.741
	c10.264-10.328,14.479-14.525-49.602-151.541l-2.387-5.08l20.087-48.489l4.769-1.932c142.811-56.276,142.811-61.745,142.811-76.269
	V480.98C1078.084,466.29,1078.084,460.269,935.22,408.356 M538.359,725.133c-102.252,0-185.42-83.003-185.42-184.84
	c0-101.837,83.167-184.676,185.42-184.676c102.253,0,185.474,82.839,185.474,184.676
	C723.833,642.13,640.612,725.133,538.359,725.133"/>
<path fill="none" stroke="#545454" stroke-width="0.25" stroke-miterlimit="10" d="M935.22,408.356l-5.16-1.821l-20.028-48.652
	l2.108-4.917c60.862-140.053,56.59-144.25,46.549-154.301l-81.06-80.438c-3.271-3.285-9.097-5.661-14.146-5.661
	c-4.552,0-18.31,0-138.04,55.005l-4.771,2.209l-49.489-20.102l-1.941-5.024C612.927,3.024,607.268,3.024,593.23,3.024H478.773
	c-14.037,0-20.308,0-72.572,141.906l-1.886,5.188l-49.156,20.269l-4.715-1.934c-81.116-34.736-128.275-52.38-140.702-52.38
	c-4.994,0-10.763,2.263-14.147,5.605l-81.114,80.574c-10.21,10.382-14.482,14.58,49.379,151.761l2.328,5.081l-20.082,48.545
	l-4.827,1.988C-1.365,465.57-1.365,471.039-1.365,485.729v113.877c0,14.689,0,20.711,142.92,72.73l5.104,1.825l20.084,48.434
	l-2.107,4.913c-60.807,140.222-56.923,143.92-46.66,154.413l80.891,80.356c3.498,3.313,9.266,5.687,14.315,5.687
	c4.493,0,18.363,0,138.094-54.949l4.828-2.376l49.432,20.27l1.888,5.08c56.202,141.544,62.026,141.544,76.063,141.544h114.571
	c14.369,0,20.307,0,72.569-141.984l1.885-5.028l49.212-20.322l4.719,1.988c81,34.792,128.162,52.301,140.479,52.301
	c4.938,0,10.873-2.209,14.257-5.579l81.227-80.741c10.264-10.328,14.479-14.525-49.602-151.541l-2.387-5.08l20.087-48.489
	l4.769-1.932c142.811-56.276,142.811-61.745,142.811-76.269V480.98C1078.084,466.29,1078.084,460.269,935.22,408.356z
	 M538.359,725.133c-102.252,0-185.42-83.003-185.42-184.84c0-101.837,83.167-184.676,185.42-184.676
	c102.253,0,185.474,82.839,185.474,184.676C723.833,642.13,640.612,725.133,538.359,725.133z"/>
</svg>
