<?xml version="1.0" encoding="utf-8"?>
<!-- Generator: Adobe Illustrator 16.0.3, SVG Export Plug-In . SVG Version: 6.00 Build 0)  -->
<!DOCTYPE svg PUBLIC "-//W3C//DTD SVG 1.1//EN" "http://www.w3.org/Graphics/SVG/1.1/DTD/svg11.dtd">
<svg version="1.1" id="Capa_1" xmlns="http://www.w3.org/2000/svg" xmlns:xlink="http://www.w3.org/1999/xlink" x="0px" y="0px"
	 width="15.59px" height="15.59px" viewBox="0 0 15.59 15.59" enable-background="new 0 0 15.59 15.59" xml:space="preserve">
<path fill="none" stroke="#545454" stroke-width="0.25" stroke-miterlimit="10" d="M13.44,6.015L13.367,5.99l-0.283-0.674
	l0.029-0.068c0.863-1.938,0.803-1.996,0.659-2.136l-1.147-1.114c-0.047-0.045-0.129-0.078-0.201-0.078c-0.065,0-0.26,0-1.956,0.762
	L10.4,2.712L9.7,2.434l-0.029-0.07c-0.797-1.96-0.877-1.96-1.077-1.96H6.973c-0.199,0-0.288,0-1.028,1.964L5.918,2.44L5.222,2.721
	L5.154,2.694C4.006,2.213,3.337,1.969,3.161,1.969c-0.07,0-0.152,0.031-0.2,0.077l-1.15,1.116C1.667,3.306,1.605,3.364,2.512,5.263
	l0.032,0.069L2.259,6.005L2.191,6.033C0.17,6.808,0.17,6.884,0.17,7.086v1.577c0,0.203,0,0.287,2.025,1.006l0.073,0.026l0.285,0.67
	l-0.03,0.067c-0.861,1.942-0.806,1.993-0.662,2.138l1.147,1.113c0.05,0.046,0.131,0.078,0.203,0.078c0.063,0,0.26,0,1.957-0.761
	l0.068-0.032l0.701,0.281l0.027,0.069c0.796,1.96,0.879,1.96,1.078,1.96h1.624c0.204,0,0.288,0,1.027-1.966l0.027-0.069l0.698-0.282
	l0.065,0.028c1.149,0.48,1.816,0.725,1.991,0.725c0.07,0,0.154-0.031,0.201-0.078l1.151-1.117c0.146-0.143,0.205-0.201-0.702-2.098
	l-0.034-0.071l0.285-0.672l0.067-0.025c2.023-0.779,2.023-0.855,2.023-1.056V7.021C15.465,6.817,15.465,6.734,13.44,6.015z
	 M8.52,10.308c-1.396,0.376-2.847-0.425-3.235-1.783c-0.388-1.358,0.433-2.77,1.83-3.146C8.51,5.001,9.962,5.801,10.35,7.159
	C10.737,8.517,9.916,9.932,8.52,10.308z"/>
</svg>
