<?xml version="1.0" encoding="utf-8"?>
<!-- Generator: Adobe Illustrator 16.0.3, SVG Export Plug-In . SVG Version: 6.00 Build 0)  -->
<!DOCTYPE svg PUBLIC "-//W3C//DTD SVG 1.1//EN" "http://www.w3.org/Graphics/SVG/1.1/DTD/svg11.dtd">
<svg version="1.1" id="Capa_1" xmlns="http://www.w3.org/2000/svg" xmlns:xlink="http://www.w3.org/1999/xlink" x="0px" y="0px"
	 width="1078.387px" height="1080px" viewBox="0 0 1078.387 1080" enable-background="new 0 0 1078.387 1080" xml:space="preserve">
<path fill="#545454" d="M1081.645,411.526l-372.98-57.805L537.51,1.972L369.746,355.44L-2.706,417.044L266.5,693.381
	l-59.063,389.872l334.258-182.709l335.951,179.271l-62.72-389.205L1081.645,411.526z M541.322,819.642L296.749,953.275
	l43.226-285.234l-197.06-202.229l272.599-45.08l122.79-258.814l125.28,257.455l272.968,42.421L741.294,665.935l45.874,284.848
	L541.322,819.642z"/>
<path fill="none" stroke="#545454" stroke-width="0.25" stroke-miterlimit="10" d="M1081.645,411.526l-372.98-57.805L537.51,1.972
	L369.746,355.44L-2.706,417.044L266.5,693.381l-59.063,389.872l334.258-182.709l335.951,179.271l-62.72-389.205L1081.645,411.526z
	 M541.322,819.642L296.749,953.275l43.226-285.234l-197.06-202.229l272.599-45.08l122.79-258.814l125.28,257.455l272.968,42.421
	L741.294,665.935l45.874,284.848L541.322,819.642z"/>
</svg>
