<?xml version="1.0" encoding="utf-8"?>
<!-- Generator: Adobe Illustrator 16.0.3, SVG Export Plug-In . SVG Version: 6.00 Build 0)  -->
<!DOCTYPE svg PUBLIC "-//W3C//DTD SVG 1.1//EN" "http://www.w3.org/Graphics/SVG/1.1/DTD/svg11.dtd">
<svg version="1.1" id="Capa_1" xmlns="http://www.w3.org/2000/svg" xmlns:xlink="http://www.w3.org/1999/xlink" x="0px" y="0px"
	 width="15.59px" height="15.59px" viewBox="0 0 15.59 15.59" enable-background="new 0 0 15.59 15.59" xml:space="preserve">
<path fill="#545454" d="M15.353,5.834l-5.307-0.812L7.611,0.076l-2.387,4.97l-5.299,0.866l3.83,3.886l-0.84,5.481l4.756-2.568
	l4.78,2.521l-0.893-5.474L15.353,5.834z M7.665,11.573l-3.479,1.879l0.615-4.011L1.997,6.597l3.878-0.634l1.747-3.638l1.782,3.62
	l3.884,0.597L10.51,9.412l0.653,4.004L7.665,11.573z"/>
<path fill="none" stroke="#545454" stroke-width="0.25" stroke-miterlimit="10" d="M15.353,5.834l-5.307-0.812L7.611,0.076
	l-2.387,4.97l-5.299,0.866l3.83,3.886l-0.84,5.481l4.756-2.568l4.78,2.521l-0.893-5.474L15.353,5.834z M7.665,11.573l-3.479,1.879
	l0.615-4.011L1.997,6.597l3.878-0.634l1.747-3.638l1.782,3.62l3.884,0.597L10.51,9.412l0.653,4.004L7.665,11.573z"/>
</svg>
