<?xml version="1.0" encoding="utf-8"?>
<!-- Generator: Adobe Illustrator 24.0.2, SVG Export Plug-In . SVG Version: 6.00 Build 0)  -->
<svg version="1.1" baseProfile="tiny" id="Capa_1" xmlns="http://www.w3.org/2000/svg" xmlns:xlink="http://www.w3.org/1999/xlink"
	 x="0px" y="0px" viewBox="0 0 449 269" xml:space="preserve">
<text transform="matrix(1 0 0 1 370.4707 -499.5098)" font-family="'MyriadPro-Regular'" font-size="12px">L</text>
<text transform="matrix(1 0 0 1 375.9668 -499.5098)" font-family="'MyriadPro-Regular'" font-size="12px">o</text>
<text transform="matrix(1 0 0 1 382.5547 -499.5098)" font-family="'MyriadPro-Regular'" font-size="12px">r</text>
<text transform="matrix(1 0 0 1 386.3584 -499.5098)" font-family="'MyriadPro-Regular'" font-size="12px">e</text>
<text transform="matrix(1 0 0 1 392.3701 -499.5098)" font-family="'MyriadPro-Regular'" font-size="12px">m</text>
<text transform="matrix(1 0 0 1 402.3789 -499.5098)" font-family="'MyriadPro-Regular'" font-size="12px"> </text>
<text transform="matrix(1 0 0 1 404.9219 -499.5098)" font-family="'MyriadPro-Regular'" font-size="12px">i</text>
<text transform="matrix(1 0 0 1 407.7305 -499.5098)" font-family="'MyriadPro-Regular'" font-size="12px">p</text>
<text transform="matrix(1 0 0 1 414.5586 -499.5098)" font-family="'MyriadPro-Regular'" font-size="12px">s</text>
<text transform="matrix(1 0 0 1 419.3105 -499.5098)" font-family="'MyriadPro-Regular'" font-size="12px">u</text>
<text transform="matrix(1 0 0 1 425.9219 -499.5098)" font-family="'MyriadPro-Regular'" font-size="12px">m</text>
<g>
	<path fill="#FF0000" d="M0.13,135.38l190.04,34.86L68.24,23.34l58.72,187.28L231.41,84.81L38.62,95.99l89.64,125.29L77.67,31.76
		L204.36,171.7L13.78,135.06l189.91-41.12L80.59,236.54l44.8-190.99l-84.4,131.32l194.03-10.9L116.03,56.91l11.1,199.31L0.13,135.38
		z"/>
	<path fill="#FF0000" d="M43.88,93.74l73.22,122.94L244.5,90.6l-7.94,88.7L158.26,21.61L62.9,131.11l199.51,8.84L157.66,33.05
		l30.03,195.27L52.66,133.64l185.26,74.31L189.28,68.32L43.88,93.74z"/>
	<path fill="#FF0000" d="M214.42,240.09L170.45,42.2l78.96,31.7l-87.48,169.85l23.02-197.8l-83.82,134.04l188.84,5.4L183.2,55.45
		l-47.04,191.18l117.75-147.5L64.64,139.99l191.85,32.85L122.48,36.57l59.97,184.71l85.01-161.83L98.01,154.93L214.42,240.09z
		 M236.27,211.54L82.35,101.24L194.91,36.5l10.39,196.2L89.56,163.35L238.1,46.09l-55.64,182.99L236.27,211.54z"/>
	<path fill="#FF0000" d="M258.74,28.67L140.6,174.27l189.87-39.92l-187.23-28.64l52.64,145.52l113.53-143.49l-15.99,110.11
		L209.2,55.07l-47.98,188.9L286.25,98.57L99.37,146.75l165.12,69.51L207.17,34.48l40.32,195.03L142.58,198.6l95.66-165.14
		l-25.66,196.92L192.36,31.8l-88.79,116.71l197.2-10.44L194.92,22.06l19.95,198.75L258.74,28.67z M119.2,131.23l185.88-39.81
		L222.16,240.7l-110.3-95.37l162.72-78.14l-58.19,179.13L119.2,131.23z"/>
	<path fill="#FF0000" d="M326.41,196.81l-174.93-56.28l192.95-36.47L212.24,234.71l42.34-190.74L160.27,158.9l198.65,2.61
		L242.37,55.07l11.56,199.34l56.26-176.53L138.73,142.7l189.89-55.27l-184.24,88.39l179.9-12.55L153.01,68.99l155.26,114.22
		l15.62-142.3L168.68,177.28L337.44,58.97L184.16,197.06L326.41,196.81z"/>
	<path fill="#FF0000" d="M162.08,112.56l109,92.13l106.28-95.25l-109-92.13L162.08,112.56z M171.26,191.16l185.95-35.71l11.75-72.55
		L220.9,70.49L171.26,191.16z"/>
	<path fill="#FF0000" d="M227.92,55.37l-11.03,70.47l167.7,89.22l-17.7-126.11l-187.91,25.91l40.1,73.64l8.31,23.23L227.92,55.37z"
		/>
	<path fill="#FF0000" d="M367.21,237.86L323.24,39.97l78.97,31.7l-87.44,169.85l22.98-197.81l-83.82,134.04l188.84,5.4L336,53.22
		L288.96,244.4L406.7,96.9l-189.26,40.87l191.85,32.85L275.28,34.35l59.98,184.7l85.01-161.83L250.81,152.7L367.21,237.86z
		 M389.1,209.29L235.16,98.99l112.55-64.71l10.39,196.2l-115.74-69.35L390.94,43.89l-55.73,182.97L389.1,209.29z"/>
</g>
</svg>
