<?xml version="1.0" encoding="utf-8"?>
<!-- Generator: Adobe Illustrator 24.0.2, SVG Export Plug-In . SVG Version: 6.00 Build 0)  -->
<svg version="1.1" baseProfile="tiny" id="Capa_1" xmlns="http://www.w3.org/2000/svg" xmlns:xlink="http://www.w3.org/1999/xlink"
	 x="0px" y="0px" viewBox="0 0 347 269" xml:space="preserve">
<text transform="matrix(1 0 0 1 323.4707 -499.5098)" font-family="'MyriadPro-Regular'" font-size="12px">L</text>
<text transform="matrix(1 0 0 1 328.9668 -499.5098)" font-family="'MyriadPro-Regular'" font-size="12px">o</text>
<text transform="matrix(1 0 0 1 335.5547 -499.5098)" font-family="'MyriadPro-Regular'" font-size="12px">r</text>
<text transform="matrix(1 0 0 1 339.3584 -499.5098)" font-family="'MyriadPro-Regular'" font-size="12px">e</text>
<text transform="matrix(1 0 0 1 345.3701 -499.5098)" font-family="'MyriadPro-Regular'" font-size="12px">m</text>
<text transform="matrix(1 0 0 1 355.3789 -499.5098)" font-family="'MyriadPro-Regular'" font-size="12px"> </text>
<text transform="matrix(1 0 0 1 357.9219 -499.5098)" font-family="'MyriadPro-Regular'" font-size="12px">i</text>
<text transform="matrix(1 0 0 1 360.7305 -499.5098)" font-family="'MyriadPro-Regular'" font-size="12px">p</text>
<text transform="matrix(1 0 0 1 367.5586 -499.5098)" font-family="'MyriadPro-Regular'" font-size="12px">s</text>
<text transform="matrix(1 0 0 1 372.3105 -499.5098)" font-family="'MyriadPro-Regular'" font-size="12px">u</text>
<text transform="matrix(1 0 0 1 378.9219 -499.5098)" font-family="'MyriadPro-Regular'" font-size="12px">m</text>
<g>
	<path fill="#FF0000" d="M235.92,86.31L51.79,140.29l87.96,119.26L180.9,76.63L10.84,138.74l172.34,56.84L136.54,13.98l-84.5,128.78
		l192.19,10.61L137.63,24.64l30.72,194.03L37.92,82.48l186.5,53.35L59.76,219.68L135.59,49l102.15,106L83.87,53.12L235.92,86.31z"/>
	<path fill="#FF0000" d="M119.84,247.47L244.12,102.5L54.81,143.8l175.11,56.35l-59.43-175.2l-33.04,191.64L274.99,84.16
		L89.64,143.24l186.38,54.74L135.46,68.39l38.45,190.73L119.84,247.47z M117.98,66.68l154.35,108.04l-195.5-31.27l194.4-37.26
		L119.49,218.47l51.16-184.02l55.87,182.88L72.02,109.61l195.57,31.03L73.01,177.36l151.85-111.8l-51.13,184.05L117.98,66.68z"/>
	<path fill="#FF0000" d="M252.05,32.29L133.88,177.87l189.87-39.91l-187.23-28.63l52.64,145.52l113.52-143.51l-15.97,110.11
		L202.48,58.68l-47.97,188.9l125.03-145.39L92.65,150.37l165.13,69.5L200.47,38.09l40.33,195.03l-104.91-30.89l95.65-165.16
		l-25.67,196.92L185.65,35.41L96.86,152.12l197.2-10.44L188.2,25.67l19.95,198.75L252.05,32.29z M112.48,134.83l185.88-39.81
		l-82.92,149.29l-110.3-95.39L267.8,70.74l-58.13,179.18L112.48,134.83z"/>
	<path fill="#FF0000" d="M133.35,184.53l192.67-51.29l12.04-51.16l-152.8-6.67L133.35,184.53z"/>
</g>
</svg>
