<?xml version="1.0" encoding="utf-8"?>
<!-- Generator: Adobe Illustrator 24.0.2, SVG Export Plug-In . SVG Version: 6.00 Build 0)  -->
<svg version="1.1" baseProfile="tiny" id="Capa_1" xmlns="http://www.w3.org/2000/svg" xmlns:xlink="http://www.w3.org/1999/xlink"
	 x="0px" y="0px" viewBox="0 0 241 235" xml:space="preserve">
<text transform="matrix(1 0 0 1 270.4707 -515.5098)" font-family="'MyriadPro-Regular'" font-size="12px">L</text>
<text transform="matrix(1 0 0 1 275.9668 -515.5098)" font-family="'MyriadPro-Regular'" font-size="12px">o</text>
<text transform="matrix(1 0 0 1 282.5547 -515.5098)" font-family="'MyriadPro-Regular'" font-size="12px">r</text>
<text transform="matrix(1 0 0 1 286.3584 -515.5098)" font-family="'MyriadPro-Regular'" font-size="12px">e</text>
<text transform="matrix(1 0 0 1 292.3701 -515.5098)" font-family="'MyriadPro-Regular'" font-size="12px">m</text>
<text transform="matrix(1 0 0 1 302.3789 -515.5098)" font-family="'MyriadPro-Regular'" font-size="12px"> </text>
<text transform="matrix(1 0 0 1 304.9219 -515.5098)" font-family="'MyriadPro-Regular'" font-size="12px">i</text>
<text transform="matrix(1 0 0 1 307.7305 -515.5098)" font-family="'MyriadPro-Regular'" font-size="12px">p</text>
<text transform="matrix(1 0 0 1 314.5586 -515.5098)" font-family="'MyriadPro-Regular'" font-size="12px">s</text>
<text transform="matrix(1 0 0 1 319.3105 -515.5098)" font-family="'MyriadPro-Regular'" font-size="12px">u</text>
<text transform="matrix(1 0 0 1 325.9219 -515.5098)" font-family="'MyriadPro-Regular'" font-size="12px">m</text>
<g>
	<path fill="#FF0000" d="M81.17,48.92L180,232.72l-73.24-10.01l74.4-177.23L78.29,34.32l135.27,160.54L69.85,40.71l-6.12,91.53
		l175.11,77.78L204.61,87.2L81.17,48.92z"/>
	<path fill="#FF0000" d="M162.62,16.45L35.32,158.79l190.13-37.33L51.56,61.45l55.73,176.41l37.05-190.91L4.07,176.48l186.55-55.18
		L5.43,62.64l137.8,132.53L108.8,3.67L162.62,16.45z M160.73,197.2L8.63,85.99l194.8,35.32L8.29,154.51l154-109.11l-54.94,182.95
		L55.3,44.36l152.23,110.91L12.64,120.15l195.32-32.62L53.83,196.14l54.91-182.96L160.73,197.2z"/>
</g>
</svg>
