<?xml version="1.0" encoding="utf-8"?>
<!-- Generator: Adobe Illustrator 24.0.2, SVG Export Plug-In . SVG Version: 6.00 Build 0)  -->
<svg version="1.1" baseProfile="tiny" id="Capa_1" xmlns="http://www.w3.org/2000/svg" xmlns:xlink="http://www.w3.org/1999/xlink"
	 x="0px" y="0px" viewBox="0 0 321 235" xml:space="preserve">
<text transform="matrix(1 0 0 1 303.4707 -515.5098)" font-family="'MyriadPro-Regular'" font-size="12px">L</text>
<text transform="matrix(1 0 0 1 308.9668 -515.5098)" font-family="'MyriadPro-Regular'" font-size="12px">o</text>
<text transform="matrix(1 0 0 1 315.5547 -515.5098)" font-family="'MyriadPro-Regular'" font-size="12px">r</text>
<text transform="matrix(1 0 0 1 319.3584 -515.5098)" font-family="'MyriadPro-Regular'" font-size="12px">e</text>
<text transform="matrix(1 0 0 1 325.3701 -515.5098)" font-family="'MyriadPro-Regular'" font-size="12px">m</text>
<text transform="matrix(1 0 0 1 335.3789 -515.5098)" font-family="'MyriadPro-Regular'" font-size="12px"> </text>
<text transform="matrix(1 0 0 1 337.9219 -515.5098)" font-family="'MyriadPro-Regular'" font-size="12px">i</text>
<text transform="matrix(1 0 0 1 340.7305 -515.5098)" font-family="'MyriadPro-Regular'" font-size="12px">p</text>
<text transform="matrix(1 0 0 1 347.5586 -515.5098)" font-family="'MyriadPro-Regular'" font-size="12px">s</text>
<text transform="matrix(1 0 0 1 352.3105 -515.5098)" font-family="'MyriadPro-Regular'" font-size="12px">u</text>
<text transform="matrix(1 0 0 1 358.9219 -515.5098)" font-family="'MyriadPro-Regular'" font-size="12px">m</text>
<g>
	<path fill="#FF0000" d="M219.98-1.28L117.78,102.06l199.56,44.72L198.67,44.02l5.64,199.59l58.9-173.22L84.46,120.13l191.96,32.46
		L152.21,9.86l54.31,188.35L219.98-1.28z M250.16,195.82L102.51,78.49l192.56,43.06l-192.51,41.96L250.77,46.35L203.55,233.2
		l-9.37-199.43l112.94,101.38l-199.79-23.98L204.9,8.67L250.16,195.82z"/>
	<path fill="#FF0000" d="M228.86,15.39L87.98,144.8l193.6-29.22L100.89,63.9L166.99,232l47.49-185.97L63.14,162.61l190.74-47.16
		L64.23,64.88L213.4,184.54L168.49-2.19L228.86,15.39z M229.78,184.77l-162.22-99l196.51,29.68L67.26,142.93L231.2,46.29
		l-64.15,176.2L105.73,45.01l162.23,98.82L71.4,114.3l196.93-26.99l-164.08,96.18L168.43,7.32L229.78,184.77z"/>
	<path fill="#FF0000" d="M248.42,150.12L177.68,38L45.08,155.76l22.93-96.62l121.43,157.27L134.51,31.79L69.89,211.15L217.24,87.5
		L22.91,114.67l193.41,31.06L77.51,14.43l59.88,183.22L40.55,90.1l177.43,58.02L202.04-0.53L248.42,150.12z M215.5,167.22
		l-182.4-53.45l185.12-47.93l-81.77,155.64L108.95,25.77l131.09,98.35L40.34,113.03L138.66,7.19L215.5,167.22z"/>
	<path fill="#FF0000" d="M74.67,12.88l41.32,197.94l-86.82-41.88L133.04,10.8l-31.08,196.06l90.33-125.91l-192.6-9.58L103.53,197.4
		l56.63-186.39L26.24,144.11l193.55-28.78L25.54,86.22l144.51,126l-62.94-180.6L14.42,182.85l178.27-86.83L74.67,12.88z
		 M43.83,46.86l161.96,100.88l-120.48,67.3L80.58,20.71l120.48,76.61L39.51,198.88l67.75-175.06L43.83,46.86z"/>
</g>
</svg>
