<?xml version="1.0" encoding="utf-8"?>
<!-- Generator: Adobe Illustrator 24.0.2, SVG Export Plug-In . SVG Version: 6.00 Build 0)  -->
<svg version="1.1" baseProfile="tiny" id="Capa_1" xmlns="http://www.w3.org/2000/svg" xmlns:xlink="http://www.w3.org/1999/xlink"
	 x="0px" y="0px" viewBox="0 0 425 269" xml:space="preserve">
<text transform="matrix(1 0 0 1 362.4707 -499.5098)" font-family="'MyriadPro-Regular'" font-size="12px">L</text>
<text transform="matrix(1 0 0 1 367.9668 -499.5098)" font-family="'MyriadPro-Regular'" font-size="12px">o</text>
<text transform="matrix(1 0 0 1 374.5547 -499.5098)" font-family="'MyriadPro-Regular'" font-size="12px">r</text>
<text transform="matrix(1 0 0 1 378.3584 -499.5098)" font-family="'MyriadPro-Regular'" font-size="12px">e</text>
<text transform="matrix(1 0 0 1 384.3701 -499.5098)" font-family="'MyriadPro-Regular'" font-size="12px">m</text>
<text transform="matrix(1 0 0 1 394.3789 -499.5098)" font-family="'MyriadPro-Regular'" font-size="12px"> </text>
<text transform="matrix(1 0 0 1 396.9219 -499.5098)" font-family="'MyriadPro-Regular'" font-size="12px">i</text>
<text transform="matrix(1 0 0 1 399.7305 -499.5098)" font-family="'MyriadPro-Regular'" font-size="12px">p</text>
<text transform="matrix(1 0 0 1 406.5586 -499.5098)" font-family="'MyriadPro-Regular'" font-size="12px">s</text>
<text transform="matrix(1 0 0 1 411.3105 -499.5098)" font-family="'MyriadPro-Regular'" font-size="12px">u</text>
<text transform="matrix(1 0 0 1 417.9219 -499.5098)" font-family="'MyriadPro-Regular'" font-size="12px">m</text>
<g>
	<path fill="#FF0000" d="M354.4,237.15l10.23-106.43L174.34,92.37l16.69,67.03L344.1,68.15l20.47,126.1l9.75-136.77l-3.74,168.38
		L219.84,77.28l6.04,68.25l190.18,53.22L374.92,91.44l4.78-6.8L354.4,237.15z"/>
	<path fill="#FF0000" d="M365.25,162.69L258.28,68.21l-108.33,92.91l106.96,94.49L365.25,162.69z M357.78,83.91L171.1,115.55
		l-13.34,72.28l147.76,15.63L357.78,83.91z"/>
	<path fill="#FF0000" d="M341.47,89.65L148,110.23l77.96,116.79l9.7-199.35l35.29,192.28l-140.5-91.24l164.65-75.12l-80.67,175.46
		l40.97-195.84l-84.36,169.14l176.07-60.01L165.78,86.77l106.44,159.1L230.57,52.71l-18.3,198.87l107.29-112.7l-198.01-11.42
		l90.15,114.93l18.59-198.81l41.84,192l-136.81-94.48L293.3,59.84L216.19,239.1L245.3,41.14l-95.15,166.01l168.51-76.74
		L141.12,62.99l119.32,150.77L235.48,18.54L341.47,89.65z"/>
	<path fill="#FF0000" d="M310.54,89.42L117.08,110l77.95,116.8l9.7-199.35l35.29,192.28L99.52,128.37l164.64-75.01L183.5,228.83
		l40.97-195.84L140.1,202.11l176.07-60.01L134.85,86.55l106.44,159.1L199.66,52.49l-18.32,198.87l107.29-112.7L90.61,127.24
		l90.15,114.93l18.59-198.81l41.84,192.01l-136.8-94.48l158.06-81.22l-77.19,179.2l29.11-197.96l-95.17,166l168.52-76.73
		L110.19,62.77l119.35,150.76L204.56,18.32L310.54,89.42z"/>
	<path fill="#FF0000" d="M284.76,162.11L177.8,67.63L69.47,160.54l106.97,94.48L284.76,162.11z M277.3,83.32L90.62,114.97
		l-13.34,72.28l147.76,15.63L277.3,83.32z"/>
	<path fill="#FF0000" d="M203.64,30.75L76.23,172.99l190.16-37.18L92.55,75.65l55.58,176.46l37.21-190.88L44.95,190.64l186.6-55.02
		L46.42,76.81L184.1,209.46L149.83,17.92L203.64,30.75z M201.59,211.5l-152-111.35l194.77,35.5L49.2,168.69L203.31,59.72
		l-55.13,182.89L96.32,58.55l152.1,111.06L53.58,134.32l195.35-32.44L94.69,210.34l55.09-182.9L201.59,211.5z"/>
	<path fill="#FF0000" d="M222.01,182.43L143.66,55.12L23.88,188.01L57.72,66.3l89.64,177.76L106.53,51.81L23.87,216.25l170.37-77.6
		L10.84,63.23l13.08,110.46l183.1-35.78L34.64,208.23l76.28-167.31l37.49,192.91L14.29,136.46l185.25,34.31L178.36,32.51
		L222.01,182.43z"/>
</g>
</svg>
