<?xml version="1.0" encoding="utf-8"?>
<!-- Generator: Adobe Illustrator 24.0.2, SVG Export Plug-In . SVG Version: 6.00 Build 0)  -->
<svg version="1.1" id="Capa_1" xmlns="http://www.w3.org/2000/svg" xmlns:xlink="http://www.w3.org/1999/xlink" x="0px" y="0px"
	 viewBox="0 0 1033 979" style="enable-background:new 0 0 1033 979;" xml:space="preserve">
<style type="text/css">
	.st0{fill:#515151;}
	.st1{fill:#4D5EFF;}
	.st2{fill:#1200FF;}
	.st3{fill:#FF5555;}
	.st4{fill:#F5AF0B;}
	.st5{fill:#F28704;}
	.st6{fill:#F2CA04;}
	.st7{fill:#F24193;}
	.st8{fill:#BF037D;}
	.st9{fill:#FF0000;}
	.st10{fill:#7C7C7C;}
	.st11{fill:#262626;}
</style>
<g>
	<path class="st0" d="M17.22,898.75h998.57v64.2H17.22V898.75z"/>
	<path class="st1" d="M51.65,449.38h413.2c19.02,0,34.43,14.37,34.43,32.1v256.79c0,17.73-15.42,32.1-34.43,32.1H51.65
		c-19.02,0-34.43-14.37-34.43-32.1V481.48C17.22,463.75,32.63,449.38,51.65,449.38z"/>
	<path class="st2" d="M86.08,545.67v-96.3H51.65c-19.02,0-34.43,14.37-34.43,32.1v256.79c0,17.73,15.42,32.1,34.43,32.1h413.2
		c19.02,0,34.43-14.37,34.43-32.1v-32.1H258.25C163.16,706.16,86.08,634.31,86.08,545.67z"/>
	<path class="st2" d="M223.82,609.87h34.43l0,0v160.49l0,0h-103.3l0,0v-96.3C154.95,638.61,185.78,609.87,223.82,609.87z"/>
	<path class="st2" d="M120.52,834.56h275.47c19.02,0,34.43,14.37,34.43,32.1v32.1l0,0H86.08l0,0v-32.1
		C86.08,848.93,101.5,834.56,120.52,834.56z"/>
	<path class="st2" d="M258.25,609.87c38.03,0,68.87,28.74,68.87,64.2v160.49l0,0H189.38l0,0V674.07
		C189.38,638.61,220.22,609.87,258.25,609.87z"/>
	<path class="st3" d="M568.15,609.87h241.03c38.03,0,68.87,28.74,68.87,64.2v224.69l0,0H499.28l0,0V674.07
		C499.28,638.61,530.12,609.87,568.15,609.87z"/>
	<path class="st4" d="M637.02,545.67h103.3l0,0v80.25c0,26.59-23.12,48.15-51.65,48.15c-28.53,0-51.65-21.56-51.65-48.15V545.67
		L637.02,545.67z"/>
	<path class="st5" d="M637.02,625.92c0.04,3.97,0.62,7.91,1.72,11.75c34.7,9.26,72.03,3.41,101.58-15.92v-76.07h-103.3V625.92z"/>
	<path class="st6" d="M568.15,385.18h241.03l0,0v112.34c0,62.05-53.96,112.34-120.52,112.34s-120.52-50.3-120.52-112.34V385.18
		L568.15,385.18z"/>
	<path class="st3" d="M482.07,256.79H723.1c47.54,0,86.08,35.93,86.08,80.25v48.15l0,0H568.15c-47.54,0-86.08-35.93-86.08-80.25
		V256.79L482.07,256.79z"/>
	<path class="st7" d="M533.72,385.18h34.43l0,0v96.3l0,0h-34.43c-19.02,0-34.43-14.37-34.43-32.1v-32.1
		C499.28,399.55,514.7,385.18,533.72,385.18z"/>
	<path class="st7" d="M809.18,385.18h34.43c19.02,0,34.43,14.37,34.43,32.1v32.1c0,17.73-15.42,32.1-34.43,32.1h-34.43l0,0V385.18
		L809.18,385.18z"/>
	<path class="st8" d="M705.88,513.57c0,17.65-15.5,48.15-34.43,48.15s-34.43-30.49-34.43-48.15s15.5-16.05,34.43-16.05
		S705.88,495.92,705.88,513.57z"/>
	<path class="st7" d="M671.45,529.62c-10.09,0.03-19.65,4.2-26.13,11.41c6.32,11.23,15.62,20.69,26.13,20.69
		c10.52,0,19.82-9.37,26.13-20.69C691.1,533.83,681.54,529.65,671.45,529.62z"/>
	<path class="st8" d="M843.62,417.28v-32.1h-34.43v96.3h34.43c13.9,0,26.44-7.8,31.78-19.77
		C856.16,454.23,843.62,436.71,843.62,417.28z"/>
	<path class="st8" d="M533.72,417.28v-32.1h34.43v96.3h-34.43c-13.9,0-26.44-7.8-31.78-19.77
		C521.17,454.23,533.71,436.71,533.72,417.28z"/>
	<path class="st9" d="M535.27,256.79h-53.2v48.15c0,44.32,38.54,80.25,86.08,80.25h241.03v-48.15H637.02
		C586.65,336.99,543.66,303.08,535.27,256.79z"/>
	<path class="st4" d="M619.8,497.52c0-35.45,30.83-64.2,68.87-64.2h120.52v-48.15H568.15v112.34
		c-0.1,61.96,53.71,112.26,120.17,112.34c8.8,0.01,17.58-0.88,26.17-2.65C659.21,595.92,619.82,550.28,619.8,497.52z"/>
	<path class="st9" d="M585.37,706.16v-96.3h-17.22c-38.03,0-68.87,28.74-68.87,64.2v224.69h378.77v-64.2H723.1
		C647.03,834.56,585.37,777.07,585.37,706.16z"/>
	<path class="st9" d="M791.97,770.36L791.97,770.36V882.7l0,0h-34.43l0,0v-80.25C757.53,784.73,772.95,770.36,791.97,770.36z"/>
	<path class="st10" d="M819.09,667.44L819.09,667.44c13.45-12.53,35.24-12.53,48.69,0l48.69,45.39c13.45,12.53,13.45,32.85,0,45.39
		l0,0c-13.45,12.53-35.24,12.53-48.69,0l-48.69-45.39C805.64,700.29,805.64,679.97,819.09,667.44z"/>
	<path class="st10" d="M895.27,834.56h68.87c19.02,0,34.43,14.37,34.43,32.1v32.1l0,0H860.83l0,0v-32.1
		C860.83,848.93,876.25,834.56,895.27,834.56z"/>
	<path class="st0" d="M916.67,726.11c-13.44,12.54-35.25,12.54-48.7,0.01c0,0-0.01-0.01-0.01-0.01l-48.69-45.4
		c-2.08-1.99-3.87-4.22-5.32-6.64c-7.83,12.55-5.65,28.44,5.32,38.74l48.69,45.4c13.62,12.38,35.42,12.12,48.69-0.57
		c10.68-10.21,12.85-25.77,5.33-38.19C920.52,721.87,918.74,724.11,916.67,726.11L916.67,726.11z"/>
	<path class="st0" d="M882.04,837.03c-12.84,4.98-21.21,16.66-21.21,29.63v32.1h137.73v-32.1H929.7
		C908.86,866.65,890.06,854.96,882.04,837.03z"/>
	<path class="st10" d="M86.08,898.75h929.7l0,0v32.1l0,0H120.52C101.5,930.85,86.08,916.48,86.08,898.75L86.08,898.75z"/>
	<path class="st1" d="M258.25,609.87c38.03,0,68.87,28.74,68.87,64.2v128.39l0,0c-38.03,0-68.87-28.74-68.87-64.2V609.87
		L258.25,609.87z"/>
	<path class="st1" d="M137.73,834.56h258.25c19.02,0,34.43,14.37,34.43,32.1l0,0H172.17C153.15,866.66,137.73,852.28,137.73,834.56
		L137.73,834.56z"/>
	<ellipse class="st10" cx="258.25" cy="337.03" rx="51.65" ry="48.15"/>
	<path class="st10" d="M280.3,380.37c-13.91,6.36-30.2,6.36-44.11,0l-29.6,69.01v32.1c0,17.73,15.42,32.1,34.43,32.1h34.43
		c19.02,0,34.43-14.37,34.43-32.1v-32.1L280.3,380.37z"/>
	<path class="st0" d="M292.68,369.13c-28.4,0.12-51.53-21.25-51.66-47.72c-0.06-11.85,4.59-23.3,13.06-32.14
		c-28.36,2.05-49.58,25.14-47.38,51.59c2.2,26.44,26.97,46.21,55.34,44.17c13.44-0.97,25.94-6.81,34.81-16.28
		C295.44,368.84,294.11,369.13,292.68,369.13L292.68,369.13z"/>
	<path class="st0" d="M275.47,497.52c-19.02,0-34.43-14.37-34.43-32.1v-14.09c0-11.9,2.43-23.69,7.18-34.73
		c15.75-2.06,29.61-10.75,37.58-23.58l-5.42-12.61c-13.91,6.36-30.2,6.36-44.11,0l-29.66,68.96v32.1c0,17.73,15.42,32.1,34.43,32.1
		h34.43c12.25-0.03,23.56-6.15,29.66-16.05H275.47z"/>
	<g>
		<path class="st11" d="M1015.78,882.7v-16.05c0-26.59-23.12-48.15-51.65-48.15v-32.1c0-4.26-1.82-8.34-5.04-11.35l-20.33-18.95
			c9.43-18.34,5.45-40.23-9.93-54.65l-34.02-31.71c-2.39-42.48-39.98-75.82-85.62-75.93h-29.72c29.8-24.29,46.91-59.39,46.93-96.3
			h17.22c28.53,0,51.65-21.56,51.65-48.15l0,0v-96.3c-0.12-97.45-84.84-176.43-189.38-176.54h-34.43
			c-56.37-0.08-109.79,23.5-145.45,64.2h-43.94c-9.51,0-17.22,7.19-17.22,16.05v48.15c0.09,46.94,36.44,86.99,86.08,94.85v97.74
			c0.02,36.9,17.13,72,46.93,96.3h-29.72c-9.51,0-17.22,7.19-17.22,16.05s7.71,16.05,17.22,16.05h51.65
			c0,35.45,30.83,64.2,68.87,64.2c38.03,0,68.87-28.74,68.87-64.2h51.65c14.8,0.04,28.86,6.04,38.57,16.45
			c-28.32-2.27-53.24,17.29-55.68,43.69c-1.31,14.17,4.2,28.15,15.03,38.16l24.33,22.69l24.33,22.69
			c15.39,14.51,39,18.24,58.66,9.28l15.25,14.22v25.41h-34.4c-28.53,0-51.65,21.56-51.65,48.15v16.05h-34.43v-96.3
			c0-8.86-7.71-16.05-17.22-16.05s-17.22,7.19-17.22,16.05v96.3H602.58V754.31c0-8.86-7.71-16.05-17.22-16.05
			c-9.51,0-17.22,7.19-17.22,16.05V882.7H516.5v-48.15c0-8.86-7.71-16.05-17.22-16.05c-9.51,0-17.22,7.19-17.22,16.05v48.15h-34.43
			v-16.05c0-26.59-23.12-48.15-51.65-48.15h-51.65v-32.1h120.52c28.53,0,51.65-21.56,51.65-48.15V481.48
			c0-26.59-23.12-48.15-51.65-48.15H321.56l-20.06-46.75c29.6-22.27,34.23-62.68,10.34-90.27c-23.89-27.59-67.24-31.91-96.84-9.64
			c-29.6,22.27-34.23,62.68-10.34,90.27c3.07,3.55,6.54,6.78,10.34,9.64l-24.4,56.83c-0.81,1.9-1.22,3.93-1.22,5.97v32.1
			c0,26.59,23.12,48.15,51.65,48.15h34.43c28.53,0,51.65-21.56,51.65-48.15v-16.05h137.73c9.51,0,17.22,7.19,17.22,16.05v256.79
			c0,8.86-7.71,16.05-17.22,16.05H344.33v-80.25c0-44.32-38.54-80.25-86.08-80.25s-86.08,35.93-86.08,80.25v80.25H51.65
			c-9.51,0-17.22-7.19-17.22-16.05V481.48c0-8.86,7.71-16.05,17.22-16.05h86.08c9.51,0,17.22-7.19,17.22-16.05
			s-7.71-16.05-17.22-16.05H51.65C23.12,433.33,0,454.88,0,481.48v256.79c0,26.59,23.12,48.15,51.65,48.15h120.52v32.1h-51.65
			c-9.51,0-17.22,7.19-17.22,16.05s7.71,16.05,17.22,16.05h275.47c9.51,0,17.22,7.19,17.22,16.05v16.05H17.22
			C7.71,882.7,0,889.89,0,898.75v64.2C0,971.81,7.71,979,17.22,979s17.22-7.19,17.22-16.05V914.8h964.13v48.15
			c0,8.86,7.71,16.05,17.22,16.05c9.51,0,17.22-7.19,17.22-16.05v-64.2C1033,889.89,1025.29,882.7,1015.78,882.7L1015.78,882.7z
			 M860.83,449.38c0,8.86-7.71,16.05-17.22,16.05H826.4v-64.2h17.22c9.51,0,17.22,7.19,17.22,16.05V449.38z M671.45,208.64h34.43
			c85.54,0.09,154.86,64.71,154.95,144.44v19c-5.51-1.9-11.34-2.9-17.22-2.95H826.4v-32.1c-0.06-53.16-46.27-96.24-103.3-96.3
			H574.35C601.77,219.91,636.08,208.57,671.45,208.64z M499.28,304.93v-32.1H723.1c38.03,0,68.87,28.74,68.87,64.2v32.1H568.15
			C530.12,369.13,499.28,340.39,499.28,304.93z M585.37,497.52v-96.3h206.6v96.3c0,53.18-46.25,96.3-103.3,96.3
			S585.37,550.71,585.37,497.52z M688.67,658.02c-19.02,0-34.43-14.37-34.43-32.1v-4.22c22.56,5.63,46.31,5.63,68.87,0v4.22
			C723.1,643.65,707.68,658.02,688.67,658.02z M831.44,678.77c6.72-6.27,17.62-6.27,24.34,0l12.17,11.35l-24.34,22.69l-12.17-11.35
			C824.72,695.19,824.72,685.04,831.44,678.77z M880.13,746.86l-12.17-11.36l24.34-22.69l12.17,11.35
			c6.73,6.26,6.73,16.43,0.01,22.7c0,0-0.01,0.01-0.01,0.01C897.67,752.93,886.94,752.93,880.13,746.86z M258.25,304.93
			c12.25,0.03,23.55,6.15,29.65,16.05h-12.43c-9.51,0-17.22,7.19-17.22,16.05s7.71,16.05,17.22,16.05h12.43
			c-9.51,15.35-30.57,20.61-47.04,11.75c-16.47-8.86-22.11-28.5-12.6-43.85C234.44,311,245.89,304.88,258.25,304.93z M292.68,481.48
			c0,8.86-7.71,16.05-17.22,16.05h-34.43c-9.51,0-17.22-7.19-17.22-16.05v-29.02l22.38-52.35c7.9,1.5,16.04,1.5,23.93,0l22.55,52.35
			L292.68,481.48z M206.6,818.51V674.07c0-26.59,23.12-48.15,51.65-48.15s51.65,21.56,51.65,48.15v144.44H206.6z M878.05,882.7
			v-16.05c0-8.86,7.71-16.05,17.22-16.05h68.87c9.51,0,17.22,7.19,17.22,16.05v16.05H878.05z"/>
	</g>
	<g>
		<ellipse class="st11" cx="619.8" cy="449.38" rx="17.22" ry="16.05"/>
	</g>
	<g>
		<ellipse class="st11" cx="723.1" cy="449.38" rx="17.22" ry="16.05"/>
	</g>
	<g>
		<path class="st11" d="M619.8,513.57c0,25.55,20.66,64.2,51.65,64.2s51.65-38.65,51.65-64.2c0.45-8.47-2.86-16.74-9.14-22.87
			c-10.81-7.79-24.57-11.13-38.08-9.23h-8.85c-13.52-1.94-27.3,1.41-38.08,9.24C622.66,496.85,619.36,505.11,619.8,513.57
			L619.8,513.57z M666.77,513.57h9.37c3.89,0,9.3,0,12.53,0.29c-0.17,13.14-11.74,31.14-17.22,31.83
			c-5.53-0.69-17.1-18.68-17.22-31.83C658.4,513.56,662.59,513.46,666.77,513.57z"/>
	</g>
	<g>
		<path class="st11" d="M482.07,128.39c-28.53,0-51.65,21.56-51.65,48.15c0,8.86,7.71,16.05,17.22,16.05s17.22-7.19,17.22-16.05
			s7.71-16.05,17.22-16.05c9.51,0,17.22-7.19,17.22-16.05S491.58,128.39,482.07,128.39z"/>
	</g>
	<g>
		<path class="st11" d="M482.07,64.2c-66.53,0.07-120.44,50.33-120.52,112.34c0,8.86,7.71,16.05,17.22,16.05s17.22-7.19,17.22-16.05
			c0.06-44.3,38.56-80.19,86.08-80.25c9.51,0,17.22-7.19,17.22-16.05S491.58,64.2,482.07,64.2z"/>
	</g>
	<g>
		<path class="st11" d="M309.9,192.59c9.51,0,17.22-7.19,17.22-16.05c0.1-79.73,69.42-144.35,154.95-144.44
			c9.51,0,17.22-7.19,17.22-16.05S491.58,0,482.07,0C377.52,0.11,292.81,79.09,292.68,176.54
			C292.68,185.4,300.39,192.59,309.9,192.59z"/>
	</g>
</g>
</svg>
