<?xml version="1.0" encoding="utf-8"?>
<!-- Generator: Adobe Illustrator 24.0.2, SVG Export Plug-In . SVG Version: 6.00 Build 0)  -->
<svg version="1.1" id="Capa_1" xmlns="http://www.w3.org/2000/svg" xmlns:xlink="http://www.w3.org/1999/xlink" x="0px" y="0px"
	 viewBox="0 0 1379 1080" style="enable-background:new 0 0 1379 1080;" xml:space="preserve">
<style type="text/css">
	.st0{fill:#933EC5;}
	.st1{fill:#ED539D;}
	.st2{fill:#7ED63E;}
	.st3{fill:#FFCD00;}
	.st4{fill:#FF3051;}
	.st5{fill:#2488FF;}
	.st6{fill:#D54B8D;}
	.st7{fill:#E5B800;}
	.st8{fill:#207AE5;}
	.st9{fill:#C2FB3B;}
	.st10{fill:#FF9811;}
	.st11{fill:#91DC5A;}
	.st12{fill:#A25BCD;}
	.st13{fill:#57A4FF;}
	.st14{fill:#B2FA09;}
</style>
<g>
	<path class="st0" d="M1003.01,732.74c18.17-14.21,18.17-37.26,0-51.47L509.69,295.36c-18.16-14.21-47.61-14.22-65.78-0.02
		c-18.17,14.21-18.17,37.25-0.01,51.46l493.34,385.94C955.41,746.95,984.85,746.95,1003.01,732.74z"/>
	<path class="st1" d="M937.19,732.7l-79.29,29.3c-5.04-22.75-27.81-40.55-56.89-44.48c-29.08-3.93-58.16,6.88-72.65,27
		c-14.48,20.11-11.22,45.18,8.14,62.6l-98.6,36.56c-7.11-12.61-17.12-24.07-29.53-33.84c-48.59-38.33-125.69-43.12-181.4-11.27
		c-55.72,31.85-73.31,90.77-41.39,138.62L0,1080l98.13-162.1c51.19,19.17,112.58,6.64,145.27-29.64s27.12-85.73-13.17-116.99
		c-9.5-7.32-20.51-13.35-32.56-17.83l115.35-190.47c50.98,11.38,105.37-5.61,132.28-41.35c26.92-35.74,19.58-81.19-17.86-110.56
		c-4.95-3.87-10.32-7.4-16.04-10.55l32.56-53.67L937.19,732.7z"/>
	<path class="st2" d="M411.01,809.1c-42.79,33.62-53.11,84.95-25.58,127.22l252.26-93.39c-18.35-33.19-56.51-57.12-101.92-63.9
		c-45.41-6.78-92.16,4.49-124.84,30.06H411.01z"/>
	<path class="st3" d="M427.46,539.77c45.41-35.52,45.41-93.11,0-128.64c-4.97-3.87-10.37-7.4-16.11-10.55l-98.32,162.36
		C353.72,572.03,397.51,563.16,427.46,539.77z"/>
	<path class="st4" d="M678.13,629.82c0,30.14-31.24,54.58-69.77,54.58c-38.54,0-69.77-24.44-69.77-54.58
		c0-30.14,31.23-54.58,69.77-54.58C646.9,575.25,678.13,599.68,678.13,629.82z"/>
	<path class="st3" d="M408.2,694.14c0,20.09-20.81,36.39-46.51,36.39c-25.69,0-46.51-16.29-46.51-36.39
		c0-20.09,20.83-36.39,46.51-36.39C387.38,657.75,408.2,674.04,408.2,694.14z"/>
	<path class="st5" d="M230.14,899.97c45.41-35.52,45.41-93.12,0-128.64c-9.39-7.38-20.35-13.43-32.4-17.88L98.09,917.85
		C142.52,934.26,195.34,927.11,230.14,899.97z"/>
	<g>
		<path class="st6" d="M148.76,926.56c4.37-0.04,8.74-0.26,13.09-0.66l-17.21,28.38l-56.28,92.96L0,1080l98.13-162.1
			c3.96,1.46,8.14,2.73,12.09,3.82C122.65,924.99,135.66,926.62,148.76,926.56z"/>
		<path class="st6" d="M373.25,563.51c3.17-0.56,6.27-1.29,9.3-2.19l-23.02,38.03L246.04,786.73c-1.4-1.63-2.79-3.28-4.42-4.91
			c-3.41-3.77-7.22-7.29-11.4-10.55c-9.5-7.32-20.51-13.35-32.56-17.83l115.35-190.47c13.38,2.92,27.32,3.97,41.16,3.09
			c3.26-0.19,6.51-0.55,9.54-0.91C366.93,564.78,370.12,564.23,373.25,563.51z"/>
		<path class="st6" d="M449.06,434.71c-0.94-1.63-2.03-3.22-3.26-4.73c-1.02-1.58-2.19-3.1-3.49-4.55
			c-8.19-9.78-18.68-18.24-30.93-24.93l32.56-53.67l46.51,36.39l-32.56,53.67l-3.95,6.55C452.52,440.46,450.88,437.55,449.06,434.71
			z"/>
	</g>
	<path class="st7" d="M453.95,443.44l-71.4,117.89c-6.14,1.64-12.43,2.92-18.83,3.82c-3.03,0.36-6.28,0.73-9.54,0.91
		c-13.84,0.88-27.79-0.17-41.16-3.09l98.37-162.46c12.25,6.69,22.74,15.15,30.93,24.93c1.37,1.4,2.55,2.93,3.49,4.55
		c1.23,1.51,2.32,3.09,3.26,4.73C450.88,437.55,452.52,440.46,453.95,443.44z"/>
	<path class="st8" d="M246.04,786.73l-1.86,3.09l-82.33,136.08c-4.42,0.36-8.83,0.55-13.02,0.73c-13.13,0.03-26.16-1.63-38.61-4.91
		c-3.95-1.09-8.13-2.36-12.09-3.82l99.54-164.46c12.05,4.48,23.05,10.51,32.56,17.83c4.18,3.26,7.99,6.79,11.4,10.55
		C243.25,783.46,244.65,785.1,246.04,786.73z"/>
	<path class="st9" d="M739.89,732.74c-25.98,20.23-27.42,52.77-3.28,74.35l121.35-45.03c-4.43-20.09-22.8-36.57-47.65-42.75
		C785.49,713.16,758.32,718.33,739.89,732.74z"/>
	<path class="st4" d="M1122.3,111.06c0,20.09-20.81,36.39-46.51,36.39c-25.69,0-46.51-16.29-46.51-36.39s20.83-36.39,46.51-36.39
		C1101.49,74.67,1122.3,90.97,1122.3,111.06z"/>
	<path class="st3" d="M1075.79,420.33c0,20.09-20.81,36.39-46.51,36.39c-25.69,0-46.51-16.29-46.51-36.39s20.83-36.39,46.51-36.39
		C1054.98,383.95,1075.79,400.24,1075.79,420.33z"/>
	<path class="st9" d="M657.19,92.87c0,20.09-20.81,36.39-46.51,36.39c-25.69,0-46.51-16.29-46.51-36.39S585,56.48,610.68,56.48
		C636.38,56.48,657.19,72.77,657.19,92.87z"/>
	<path class="st3" d="M1104.22,219.49h-42.05c-85.74-0.21-162.93,40.67-194.53,103.03l-46.3,90.53c-4.79,9.35,1.02,19.95,12.97,23.7
		c11.94,3.74,25.5-0.8,30.28-10.15l46.28-90.55c24.58-48.51,84.62-80.31,151.32-80.13h42.05c77.47-0.01,148.59-33.45,184.96-86.96
		l86.89-141.92c4.18-5.91,3.83-13.15-0.9-18.81c-4.74-5.66-13.09-8.79-21.69-8.15c-8.6,0.65-16.04,4.96-19.32,11.22l-86.46,141.16
		C1219.33,193.78,1164.18,219.54,1104.22,219.49z"/>
	<path class="st10" d="M660.41,307.48c-0.59,10.04,9.33,18.55,22.17,19.01h1.09c12.43,0.01,22.69-7.64,23.26-17.36l5.04-85.72
		c0.42-46.86,33.74-89.74,86.7-111.62l37.21-15.35c37.4-15.42,67.92-39.37,87.51-68.68c3.97-5.77,3.68-12.76-0.77-18.31
		c-4.45-5.54-12.37-8.79-20.73-8.5c-8.36,0.28-15.87,4.07-19.68,9.9c-15.24,22.79-38.98,41.42-68.07,53.41l-37.21,15.35
		c-67.88,27.96-110.68,82.79-111.46,142.8L660.41,307.48z"/>
	<path class="st11" d="M1354.85,383.4h-44.27c-52.96-0.14-101.41,23.29-124.93,60.41l-28.79,45.02
		c-15.66,24.76-47.97,40.37-83.28,40.26h-66.83c-11.66,0-22.06,6.47-23.73,15.49c-2.08,11.26,9.03,20.93,23.03,20.93h67.54
		c52.96,0.14,101.41-23.29,124.93-60.41l28.79-45.02c15.66-24.75,47.97-40.37,83.28-40.26l43.57,0c11.66,0,22.06-6.47,23.73-15.49
		C1379.96,393.07,1368.84,383.4,1354.85,383.4z"/>
	<path class="st4" d="M859.68,233.08c8.81-7.13,8.69-18.49-0.28-25.5c-8.97-7.02-23.47-7.12-32.6-0.22l-23.26,18.19
		c-6.04,4.57-8.46,11.33-6.34,17.7s8.48,11.33,16.61,13c8.13,1.66,16.77-0.23,22.61-4.97L859.68,233.08z"/>
	<path class="st10" d="M1145.58,620.15h-45.85c-11.66,0-22.06,6.47-23.73,15.49c-2.08,11.26,9.03,20.93,23.03,20.93h45.85
		c11.66,0,22.06-6.47,23.73-15.49C1170.7,629.82,1159.58,620.15,1145.58,620.15z"/>
	<path class="st3" d="M1268.65,571.2l-23.26,18.19c-6.04,4.57-8.46,11.33-6.34,17.7s8.48,11.33,16.61,13
		c8.13,1.66,16.77-0.23,22.61-4.97l23.26-18.19c8.81-7.13,8.69-18.49-0.28-25.5C1292.28,564.41,1277.78,564.31,1268.65,571.2z"/>
	<path class="st10" d="M1204.94,313.09l-46.51,18.19c-11.49,4.49-16.16,15.42-10.42,24.42c5.75,8.99,19.71,12.64,31.22,8.15
		l46.51-18.19c11.49-4.49,16.16-15.42,10.41-24.41C1230.41,312.25,1216.43,308.6,1204.94,313.09z"/>
	<path class="st4" d="M563.09,202.01v17.66c0,9.12,8.27,17.26,19.8,18.57c14.4,1.63,26.76-7.06,26.76-18.01v-17.66
		c0-9.12-8.27-17.26-19.8-18.57C575.44,182.37,563.09,191.06,563.09,202.01z"/>
	<path class="st3" d="M896.49,134.53c-6.7,5.21-8.72,13.07-5.1,19.9c3.62,6.82,12.16,11.25,21.61,11.21
		c1.48-0.03,2.95-0.15,4.39-0.36c1.56-0.17,3.05-0.53,4.45-1.09c1.48-0.4,2.88-0.95,4.18-1.63c1.22-0.68,2.38-1.4,3.49-2.19
		c9.13-7.13,9.13-18.7,0-25.83C920.4,127.4,905.61,127.4,896.49,134.53z"/>
	<path class="st12" d="M760.43,35.2c1.31,0.68,2.73,1.23,4.21,1.63c1.39,0.56,2.88,0.92,4.42,1.09c1.46,0.21,2.94,0.34,4.42,0.36
		c1.48-0.03,2.95-0.15,4.39-0.36c1.56-0.17,3.05-0.53,4.45-1.09c1.42-0.36,2.76-0.91,3.95-1.63c1.25-0.64,2.41-1.37,3.49-2.19
		c6.84-5.12,8.88-13.03,5.12-19.83c-1.12-2.27-2.87-4.32-5.12-6c-1.08-0.81-2.24-1.54-3.49-2.19c-1.19-0.71-2.53-1.27-3.95-1.63
		c-1.4-0.55-2.9-0.92-4.45-1.09c-2.9-0.54-5.92-0.54-8.81,0c-1.53,0.17-3.03,0.54-4.42,1.09c-1.49,0.4-2.91,0.95-4.21,1.63
		l-3.46,2.19c-8.99,7.18-8.99,18.66,0,25.83L760.43,35.2z"/>
	<path class="st5" d="M786.27,332.46c-1.19-0.71-2.53-1.27-3.95-1.63c-1.4-0.55-2.9-0.92-4.45-1.09c-2.9-0.54-5.92-0.54-8.81,0
		c-1.53,0.17-3.03,0.54-4.42,1.09c-1.49,0.4-2.91,0.95-4.21,1.63c-1.2,0.68-2.36,1.41-3.46,2.19c-8.99,7.18-8.99,18.66,0,25.83
		l3.46,2.19c1.31,0.68,2.73,1.23,4.21,1.63c1.39,0.56,2.88,0.92,4.42,1.09c1.46,0.21,2.94,0.34,4.42,0.36
		c1.48-0.03,2.95-0.15,4.39-0.36c1.56-0.17,3.05-0.53,4.45-1.09c1.42-0.36,2.76-0.91,3.95-1.63c1.25-0.64,2.41-1.37,3.49-2.19
		c4.41-3.42,6.9-8.06,6.97-12.92c-0.03-2.37-0.67-4.73-1.85-6.91c-1.12-2.27-2.87-4.32-5.12-6
		C788.68,333.84,787.52,333.11,786.27,332.46z"/>
	<path class="st13" d="M1315.09,280.07c-2.04,1.77-3.7,3.8-4.88,6c-2.48,4.41-2.48,9.42,0,13.83c1.18,2.2,2.84,4.23,4.88,6
		c4.43,3.36,10.34,5.25,16.51,5.28c6.17-0.07,12.06-1.95,16.51-5.28c2.06-1.77,3.71-3.79,4.89-6c2.48-4.41,2.48-9.42,0-13.83
		c-1.18-2.2-2.84-4.24-4.89-6C1338.79,273.34,1324.43,273.34,1315.09,280.07z"/>
	<path class="st14" d="M1215.33,56.48c6.19,0.05,12.14-1.85,16.52-5.27c4.37-3.43,6.8-8.08,6.73-12.92
		c-0.09-4.81-2.5-9.42-6.74-12.92c-9.32-6.73-23.69-6.73-33.02,0c-8.99,7.18-8.99,18.66,0,25.83
		C1203.28,54.54,1209.17,56.42,1215.33,56.48z"/>
	<path class="st4" d="M896.49,461.99c-6.7,5.21-8.72,13.07-5.1,19.9c3.62,6.82,12.16,11.25,21.61,11.21
		c1.48-0.03,2.95-0.15,4.39-0.36c1.56-0.17,3.05-0.53,4.45-1.09c1.48-0.4,2.88-0.95,4.18-1.63l3.49-2.19
		c9.13-7.13,9.13-18.7,0-25.83C920.4,454.86,905.61,454.86,896.49,461.99z"/>
	<path class="st1" d="M1348.11,480.19c-9.32-6.73-23.69-6.73-33.02,0c-2.04,1.77-3.7,3.8-4.88,6c-2.48,4.41-2.48,9.42,0,13.83
		c1.18,2.2,2.84,4.23,4.88,6c4.43,3.36,10.34,5.25,16.51,5.28c6.17-0.07,12.06-1.95,16.51-5.28c2.06-1.77,3.71-3.79,4.89-6
		c2.48-4.41,2.48-9.42,0-13.83C1351.83,483.99,1350.17,481.96,1348.11,480.19z"/>
</g>
</svg>
