<?xml version="1.0" encoding="utf-8"?>
<!-- Generator: Adobe Illustrator 24.0.2, SVG Export Plug-In . SVG Version: 6.00 Build 0)  -->
<svg version="1.1" id="Capa_1" xmlns="http://www.w3.org/2000/svg" xmlns:xlink="http://www.w3.org/1999/xlink" x="0px" y="0px"
	 viewBox="0 0 1379 1080" style="enable-background:new 0 0 1379 1080;" xml:space="preserve">
<style type="text/css">
	.st0{fill:#9D27B0;}
	.st1{fill:#141414;}
	.st2{fill:#6A1B9A;}
	.st3{fill:#02A9F4;}
</style>
<g>
	<path class="st0" d="M294.25,975.75V1038h790.5v-62.25V589.76H1325v-62.25V270.92l-240.25-147.94L867.75,42v72.88
		c0,76.83-80.21,139.68-178.25,139.68c-98.04,0-178.25-62.86-178.25-139.68V42l-217,80.97L54,270.92v256.59v62.25h240.25V975.75z"/>
</g>
<g>
	<g>
		<path class="st1" d="M1368.71,243.03L1118.22,88.88c-0.18-0.11-0.38-0.2-0.56-0.31c-0.5-0.3-1.02-0.58-1.55-0.85
			c-0.27-0.14-0.55-0.27-0.84-0.4c-0.55-0.25-1.1-0.49-1.67-0.72c-0.15-0.06-0.29-0.13-0.44-0.19L886.92,2.05
			c-0.13-0.05-0.27-0.08-0.4-0.13c-0.61-0.22-1.23-0.41-1.86-0.59c-0.27-0.08-0.53-0.16-0.8-0.23c-0.66-0.17-1.34-0.32-2.02-0.45
			c-0.25-0.05-0.5-0.11-0.75-0.15c-0.72-0.12-1.46-0.21-2.2-0.29c-0.22-0.02-0.44-0.06-0.66-0.08c-0.95-0.08-1.92-0.13-2.9-0.13l0,0
			c-0.01,0,0.01,0,0,0H503.66c-0.01,0,0.01,0,0,0l0,0c-0.98,0-1.95,0.05-2.9,0.13c-0.22,0.02-0.44,0.05-0.66,0.08
			c-0.74,0.08-1.48,0.17-2.2,0.29c-0.25,0.04-0.5,0.1-0.75,0.15c-0.68,0.13-1.36,0.28-2.02,0.45c-0.27,0.07-0.54,0.15-0.8,0.23
			c-0.63,0.18-1.25,0.38-1.86,0.59c-0.13,0.05-0.27,0.08-0.4,0.13L265.84,86.42c-0.16,0.06-0.3,0.14-0.46,0.2
			c-0.55,0.22-1.1,0.45-1.63,0.7c-0.29,0.14-0.58,0.27-0.87,0.42c-0.52,0.26-1.01,0.54-1.51,0.82c-0.19,0.11-0.4,0.21-0.59,0.32
			L10.29,243.03C3.79,247.03,0,253.15,0,259.62v332.23l0,0c0,11.65,12.06,21.09,26.93,21.09h223.55v445.97l0,0
			c0,11.65,12.06,21.09,26.93,21.09h824.16c14.88,0,26.93-9.44,26.93-21.09l0,0V612.94h223.55c14.88,0,26.93-9.44,26.93-21.09l0,0
			V259.62C1379,253.15,1375.2,247.03,1368.71,243.03z M674.01,42.19h30.97v49.48h-30.97V42.19z M620.15,42.19v70.57
			c0,11.65,12.06,21.09,26.93,21.09h84.84c14.88,0,26.93-9.44,26.93-21.09V42.19h89.56v54.84c0,68.62-71.29,124.45-158.91,124.45
			c-87.62,0-158.9-55.83-158.9-124.45V42.19H620.15z M250.48,148.87v44.01c0,11.65,12.06,21.09,26.93,21.09
			c14.88,0,26.93-9.44,26.93-21.09v-74.09L476.73,54.5v42.53c0,91.89,95.45,166.64,212.77,166.64s212.77-74.75,212.77-166.64V54.5
			l172.37,64.29v219.08c0,11.65,12.06,21.09,26.93,21.09c14.88,0,26.93-9.44,26.93-21.09v-189l196.62,121v236.02h-196.62v-1.45
			c0-11.65-12.06-21.09-26.93-21.09c-14.88,0-26.93,9.44-26.93,21.09l0,0l0,0v468.51h-770.3v-613.5l0,0l0,0l0,0
			c0-11.65-12.06-21.09-26.93-21.09s-26.93,9.44-26.93,21.09v146.44H53.87V269.87L250.48,148.87z M53.87,570.75v-22.68h196.62v22.68
			H53.87z M1074.65,1037.81h-770.3v-22.68h770.3V1037.81z M1325.13,570.75h-196.62v-22.68h196.62V570.75z"/>
	</g>
</g>
<path class="st2" d="M692.97,221c90.18,0,163.97-52.93,163.97-117.63V42H730.4v74.08h-74.86V42H529v61.37
	C529,168.07,602.79,221,692.97,221z"/>
<rect x="674" y="42" class="st3" width="31" height="50"/>
<g>
	<path class="st3" d="M614.96,389.18v127.24c0-21,17.03-38.18,37.84-38.18c20.76,0,37.76,17.1,37.84,38.04c0-0.01,0-0.02,0-0.03
		c0.09-20.92,17.08-38.01,37.84-38.01c20.81,0,37.84,17.18,37.84,38.18v-70.12c0-21,17.03-38.18,37.84-38.18S842,425.29,842,446.29
		v126.86v97.42c0,53.58-47.42,97.42-105.39,97.42H630.23c-57.96,0-105.39-43.84-105.39-97.42v-40.22
		c-20.81,0-37.84-17.18-37.84-38.18s17.03-38.18,37.84-38.18h14.45V389.18c0-21,17.03-38.18,37.84-38.18
		C597.94,351,614.96,368.18,614.96,389.18z"/>
</g>
<path d="M503.09,648.63v22.51c0,62.78,55.32,113.86,123.32,113.86h104.27c68,0,123.32-51.08,123.32-113.86V454.81
	c0-31.27-25.62-56.72-57.11-56.72c-31.49,0-57.11,25.44-57.11,56.72v13.51c-5.39-1.68-11.12-2.59-17.06-2.59
	c-14.15,0-27.1,5.15-37.09,13.64c-9.99-8.49-22.94-13.64-37.09-13.64c-5.94,0-11.67,0.91-17.06,2.59v-68.6
	c0-31.27-25.62-56.72-57.11-56.72s-57.11,25.44-57.11,56.72V539.1C488.5,542.02,466,566.21,466,595.52
	C466,619.8,481.45,640.55,503.09,648.63z M779.83,454.81c0-9.34,7.65-16.94,17.06-16.94s17.06,7.6,17.06,16.94v216.33
	c0,40.85-37.35,74.09-83.27,74.09H626.41c-45.91,0-83.27-33.23-83.27-74.09v-18.91h48.8c3.72,27.72,27.68,49.18,56.59,49.18
	c14.15,0,27.1-5.15,37.09-13.64c9.99,8.49,22.94,13.64,37.09,13.64l0,0c31.49,0,57.11-25.44,57.11-56.72V522.44L779.83,454.81
	L779.83,454.81z M650.56,652.06c0.3-0.02,0.59-0.04,0.89-0.07c1.39-0.12,2.76-0.29,4.13-0.5c0.25-0.04,0.49-0.09,0.73-0.13
	c1.27-0.22,2.52-0.47,3.76-0.77c0.18-0.04,0.36-0.08,0.54-0.12c1.33-0.33,2.65-0.71,3.94-1.13c0.14-0.04,0.28-0.08,0.42-0.12
	c-2,7.16-8.61,12.43-16.45,12.43c-6.68,0-12.48-3.84-15.28-9.41h12.97C647.68,652.23,649.13,652.16,650.56,652.06z M722.71,505.5
	c9.41,0,17.06,7.6,17.06,16.94V644.7c0,9.34-7.65,16.94-17.06,16.94c-9.4,0-17.05-7.59-17.06-16.93c0,0,0-0.01,0-0.01
	c0,0,0-0.01,0-0.01v-49.13c0-0.01,0-0.02,0-0.04v-36.83c0-0.01,0-0.01,0-0.02v-36.21c0,0,0-0.01,0-0.01c0,0,0-0.01,0-0.01
	C705.66,513.1,713.31,505.5,722.71,505.5z M648.54,505.5c9.4,0,17.05,7.59,17.06,16.93c0,0,0,0.01,0,0.01v16.35h-34.12v-16.35
	C631.47,513.1,639.13,505.5,648.54,505.5z M574.36,382.77c9.41,0,17.06,7.6,17.06,16.94v122.73v16.35H557.3V399.72
	C557.3,390.37,564.95,382.77,574.36,382.77z M523.11,578.57h88.33h54.15v16.96c-0.01,8.7-9.42,16.93-19.37,16.93h-34.78h-88.33
	c-9.41,0-17.06-7.6-17.06-16.95C506.05,586.17,513.7,578.57,523.11,578.57z"/>
</svg>
