<?xml version="1.0" encoding="utf-8"?>
<!-- Generator: Adobe Illustrator 24.0.2, SVG Export Plug-In . SVG Version: 6.00 Build 0)  -->
<svg version="1.1" id="Capa_1" xmlns="http://www.w3.org/2000/svg" xmlns:xlink="http://www.w3.org/1999/xlink" x="0px" y="0px"
	 viewBox="0 0 1008 1080" style="enable-background:new 0 0 1008 1080;" xml:space="preserve">
<style type="text/css">
	.st0{fill:#FF0000;}
	.st1{fill:#FFFFFF;}
	.st2{fill:#98A1B3;}
	.st3{fill:#DFF6FC;}
	.st4{fill:#91D9B9;}
	.st5{fill:#D8EC84;}
	.st6{fill:#141414;}
</style>
<g>
	<path class="st0" d="M97.36,21.09h582.75v936.56H97.36V21.09z"/>
	<g>
		<path class="st1" d="M194.01,135h78.75v101.25h-78.75V135z"/>
		<path class="st1" d="M351.51,135h78.75v101.25h-78.75V135z"/>
		<path class="st1" d="M509.01,135h78.75v101.25h-78.75V135z"/>
		<path class="st1" d="M194.01,320.63h78.75v101.25h-78.75V320.63z"/>
		<path class="st1" d="M351.51,320.63h78.75v101.25h-78.75V320.63z"/>
		<path class="st1" d="M509.01,320.63h78.75v101.25h-78.75V320.63z"/>
		<path class="st1" d="M194.01,506.25h78.75V607.5h-78.75V506.25z"/>
		<path class="st1" d="M351.51,506.25h78.75V607.5h-78.75V506.25z"/>
		<path class="st1" d="M509.01,506.25h78.75V607.5h-78.75V506.25z"/>
	</g>
	<path class="st2" d="M19.69,957.66h732.38v101.25H19.69V957.66z"/>
	<path class="st3" d="M228.38,717.19h315v240.47h-315V717.19z"/>
	<path class="st4" d="M915.58,576.63c2.26-11.74,3.45-23.9,3.45-36.36c0-98.79-74.75-178.89-166.97-178.89
		s-166.97,80.1-166.97,178.89c0,12.46,1.2,24.62,3.46,36.36c-42.99,21.82-72.74,68.72-72.74,123.08
		c0,75.18,56.88,136.13,127.05,136.13c46.43,0,87.03-26.71,109.2-66.54c22.16,39.84,62.76,66.54,109.2,66.54
		c70.17,0,127.05-60.95,127.05-136.13C988.31,645.35,958.57,598.44,915.58,576.63z"/>
	<path class="st5" d="M960.75,1058.91c0-46.6-35.26-84.38-78.75-84.38c-13.7,0-26.58,3.75-37.8,10.34
		c-21.01-29.98-54.46-49.36-92.14-49.36c-63.61,0-115.17,55.25-115.17,123.4H960.75z"/>
	<g>
		<path class="st6" d="M194.01,257.34h78.75c10.87,0,19.69-9.44,19.69-21.09V135c0-11.65-8.82-21.09-19.69-21.09h-78.75
			c-10.87,0-19.69,9.44-19.69,21.09v101.25C174.33,247.9,183.14,257.34,194.01,257.34z M213.7,156.09h39.38v59.06H213.7V156.09z"/>
	</g>
	<g>
		<path class="st6" d="M351.51,257.34h78.75c10.87,0,19.69-9.44,19.69-21.09V135c0-11.65-8.82-21.09-19.69-21.09h-78.75
			c-10.87,0-19.69,9.44-19.69,21.09v101.25C331.83,247.9,340.64,257.34,351.51,257.34z M371.2,156.09h39.38v59.06H371.2V156.09z"/>
	</g>
	<g>
		<path class="st6" d="M509.01,257.34h78.75c10.87,0,19.69-9.44,19.69-21.09V135c0-11.65-8.82-21.09-19.69-21.09h-78.75
			c-10.87,0-19.69,9.44-19.69,21.09v101.25C489.33,247.9,498.14,257.34,509.01,257.34z M528.7,156.09h39.38v59.06H528.7V156.09z"/>
	</g>
	<g>
		<path class="st6" d="M174.33,421.88c0,11.65,8.81,21.09,19.69,21.09h78.75c10.87,0,19.69-9.44,19.69-21.09V320.63
			c0-11.65-8.82-21.09-19.69-21.09h-78.75c-10.87,0-19.69,9.44-19.69,21.09V421.88z M213.7,341.72h39.38v59.06H213.7V341.72z"/>
	</g>
	<g>
		<path class="st6" d="M331.83,421.88c0,11.65,8.81,21.09,19.69,21.09h78.75c10.87,0,19.69-9.44,19.69-21.09V320.63
			c0-11.65-8.82-21.09-19.69-21.09h-78.75c-10.87,0-19.69,9.44-19.69,21.09V421.88z M371.2,341.72h39.38v59.06H371.2V341.72z"/>
	</g>
	<g>
		<path class="st6" d="M174.33,607.5c0,11.65,8.81,21.09,19.69,21.09h78.75c10.87,0,19.69-9.44,19.69-21.09V506.25
			c0-11.65-8.82-21.09-19.69-21.09h-78.75c-10.87,0-19.69,9.44-19.69,21.09V607.5z M213.7,527.34h39.38v59.06H213.7V527.34z"/>
	</g>
	<g>
		<path class="st6" d="M331.83,607.5c0,11.65,8.81,21.09,19.69,21.09h78.75c10.87,0,19.69-9.44,19.69-21.09V506.25
			c0-11.65-8.82-21.09-19.69-21.09h-78.75c-10.87,0-19.69,9.44-19.69,21.09V607.5z M371.2,527.34h39.38v59.06H371.2V527.34z"/>
	</g>
	<g>
		<g>
			<path class="st6" d="M882,953.44c-11,0-21.93,1.99-32.26,5.82c-20.86-23.59-48.11-38.69-77.99-43.31v-91.87
				c25.36,20.88,56.79,32.85,89.51,32.85c80.91,0,146.74-70.53,146.74-157.22c0-55.03-27.33-106.21-70.73-134.48
				c0.96-8.26,1.45-16.62,1.45-24.96c0-110.27-83.73-199.99-186.65-199.99c-18.14,0-35.68,2.79-52.27,7.99V21.09
				C699.79,9.44,690.98,0,680.1,0H97.35C86.49,0,77.67,9.44,77.67,21.09V405c0,11.65,8.82,21.09,19.69,21.09
				c10.87,0,19.69-9.44,19.69-21.09V42.19h543.38v323.9c-20.32,12.33-38.28,28.61-52.97,47.88v-93.35
				c0-11.65-8.81-21.09-19.69-21.09h-78.75c-10.87,0-19.69,9.44-19.69,21.09v101.25c0,11.65,8.82,21.09,19.69,21.09h78.75
				c0.45,0,0.88-0.04,1.32-0.07c-6.91,13.24-12.47,27.4-16.46,42.26h-63.61c-10.87,0-19.69,9.44-19.69,21.09V607.5
				c0,11.65,8.82,21.09,19.69,21.09h3.13c-9.81,20.66-15.44,43.67-15.96,67.5h-267.8c-10.87,0-19.69,9.44-19.69,21.09v219.38h-91.64
				V573.75c0-11.65-8.82-21.09-19.69-21.09c-10.87,0-19.69,9.44-19.69,21.09v362.81H19.69C8.81,936.56,0,946.01,0,957.66v101.25
				c0,11.65,8.81,21.09,19.69,21.09h941.06c10.87,0,19.69-9.44,19.69-21.09C980.44,1000.75,936.28,953.44,882,953.44z
				 M568.08,400.78H528.7v-59.06h39.38V400.78z M523.69,791.25v145.31H405.56V738.28h95.05
				C505.18,757.61,513.12,775.51,523.69,791.25z M563.06,831.54c22.99,16.03,50.39,25.39,79.8,25.39c5.91,0,11.76-0.43,17.56-1.19
				v80.83h-97.36V831.54z M699.8,844.43c11.61-5.27,22.56-12.11,32.58-20.36v91.89c-11.38,1.8-22.3,5.1-32.58,9.75V844.43z
				 M752.06,382.46c81.21,0,147.28,70.79,147.28,157.8c0,10.79-1.02,21.59-3.05,32.09c-1.85,9.53,2.65,19.17,10.85,23.33
				c37.34,18.95,61.48,59.78,61.48,104.01c0,63.43-48.17,115.04-107.37,115.04c-35.89,0-69.71-19.63-89.51-51.56v-56.36l72.54-77.72
				c7.69-8.24,7.69-21.6,0-29.84c-7.69-8.23-20.15-8.23-27.84,0l-44.7,47.89v-97.03c0-11.65-8.81-21.09-19.69-21.09
				c-10.87,0-19.69,9.44-19.69,21.09v51.29l-33.59-35.99c-7.69-8.24-20.15-8.24-27.84,0s-7.69,21.6,0,29.84l61.43,65.82v36.99v0.02
				v65.09c-19.8,31.93-53.62,51.56-89.51,51.56c-59.2,0-107.37-51.61-107.37-115.04c0-44.23,24.13-85.06,61.48-104.01
				c8.21-4.17,12.69-13.8,10.86-23.33c-2.02-10.5-3.05-21.3-3.05-32.09C604.78,453.25,670.85,382.46,752.06,382.46z M528.7,527.34
				h37.11c-0.25,4.28-0.4,8.58-0.4,12.92c0,8.35,0.48,16.69,1.45,24.96c-9.31,6.06-17.88,13.19-25.6,21.18H528.7V527.34z
				 M248.06,738.28h118.13v198.28H248.06V738.28z M39.38,978.75h600.55c-10.87,17.4-18.3,37.46-21.26,59.06H39.38V978.75z
				 M752.06,1037.81h-93.45c9.11-46.32,47.54-81.21,93.45-81.21c30.32,0,58.16,14.92,76.4,40.94c5.88,8.39,16.63,10.88,25.21,5.83
				c8.63-5.07,18.43-7.75,28.33-7.75c25.66,0,47.57,17.63,55.69,42.19H752.06z"/>
		</g>
	</g>
	<g>
		<path class="st6" d="M97.35,510.47c5.18,0,10.26-2.26,13.92-6.18s5.77-9.37,5.77-14.91s-2.11-10.99-5.77-14.91
			s-8.74-6.18-13.92-6.18s-10.26,2.26-13.92,6.18s-5.77,9.37-5.77,14.91s2.11,10.99,5.77,14.91
			C87.1,508.21,92.18,510.47,97.35,510.47z"/>
	</g>
</g>
</svg>
