<svg xmlns="http://www.w3.org/2000/svg" viewBox="0 0 949 1421"><defs><style>.cls-1{fill:#1c1c1c;}</style></defs><title>Background Illustration</title><g id="Layer_2" data-name="Layer 2"><g id="Layer_1-2" data-name="Layer 1"><circle class="cls-1" cx="631.5" cy="1065.5" r="137.5"/><circle class="cls-1" cx="341.5" cy="1217.5" r="203.5"/><circle class="cls-1" cx="621.5" cy="669.5" r="77.5"/><circle class="cls-1" cx="77.5" cy="1142.5" r="77.5"/><circle class="cls-1" cx="42" cy="987" r="29"/><circle class="cls-1" cx="169.5" cy="1030.5" r="14.5"/><circle class="cls-1" cx="103.5" cy="908.5" r="14.5"/><circle class="cls-1" cx="13" cy="845" r="10"/><circle class="cls-1" cx="489.5" cy="507.5" r="46.5"/><circle class="cls-1" cx="734.5" cy="555.5" r="11.5"/><circle class="cls-1" cx="666" cy="513" r="6"/><circle class="cls-1" cx="632" cy="583" r="42"/><circle class="cls-1" cx="8" cy="923" r="5"/><circle class="cls-1" cx="915" cy="488" r="5"/><circle class="cls-1" cx="918.5" cy="545.5" r="13.5"/><circle class="cls-1" cx="60" cy="209" r="11"/><circle class="cls-1" cx="44.5" cy="106.5" r="4.5"/><circle class="cls-1" cx="99" cy="231" r="41"/><circle class="cls-1" cx="17.5" cy="102.5" r="16.5"/><circle class="cls-1" cx="854" cy="51" r="51"/><circle class="cls-1" cx="890" cy="106" r="30"/><circle class="cls-1" cx="942.5" cy="76.5" r="6.5"/></g></g></svg>