<svg xmlns="http://www.w3.org/2000/svg" viewBox="0 0 340.6 130.21"><defs><style>.cls-1{fill:red;}.cls-2{fill:#fff;}</style></defs><title>BETA_1</title><g id="Layer_2" data-name="Layer 2"><g id="Layer_1-2" data-name="Layer 1"><rect class="cls-1" width="340.6" height="130.21"/><path class="cls-2" d="M88.28,70.05q3.94,4.73,4,12.62A21.19,21.19,0,0,1,88,96.17q-4.28,5.44-13.89,8.31t-25.28,2.86q-5.28,0-12.51-.53T23.66,105.5V26.15a131.55,131.55,0,0,1,14.2-2.36,128.41,128.41,0,0,1,14.69-.91q19.4,0,28.43,5.8t9,17.76a18.22,18.22,0,0,1-3.37,10.92,17.1,17.1,0,0,1-8.86,6.47A18.64,18.64,0,0,1,88.28,70.05ZM47.22,41V55.44h8.84c4.18,0,7.13-.61,8.83-1.84s2.56-3.16,2.56-5.83-.87-4.6-2.62-5.81-4.72-1.8-8.94-1.8A49.31,49.31,0,0,0,47.22,41Zm17,48.18a7,7,0,0,0,5.81-7.56q0-4.5-2.78-6.47t-9.39-2H47.22V89.72q4,.34,8.33.34A33.46,33.46,0,0,0,64.25,89.17Z"/><path class="cls-2" d="M124.29,87.17h39.12v19.06h-63V24h62.4V43.05H124.29V54.77H157v19H124.29Z"/><path class="cls-2" d="M192.42,106.23V43.88H167.47V24h74.12V43.88h-25v62.35Z"/><path class="cls-2" d="M293.32,106.23,288.1,87.39H260.87l-5.16,18.84h-23.4L256.87,24h35.51l24.56,82.24ZM266.1,68.5h16.78l-8.45-30.4Z"/></g></g></svg>