<?xml version="1.0" encoding="utf-8"?>
<!-- Generator: Adobe Illustrator 22.0.0, SVG Export Plug-In . SVG Version: 6.00 Build 0)  -->
<svg version="1.1" xmlns="http://www.w3.org/2000/svg" xmlns:xlink="http://www.w3.org/1999/xlink" x="0px" y="0px"
	 viewBox="0 0 400 400" style="enable-background:new 0 0 400 400;" xml:space="preserve">
<style type="text/css">
	.st0{fill:#262626;}
	.st1{fill:#FFFFFF;}
</style>
<g id="Capa_1">
	<rect x="-54" y="-58" class="st0" width="515.9" height="521"/>
	<path class="st1" d="M309.6,197l-50.3,21.6v-29.2h-16.8c10.3-7.9,16.8-19.5,16.8-32.4c0-23.9-22.2-43.3-49.5-43.3
		c-22.6,0-41.8,13.3-47.6,31.5c-6.7-6.1-16.2-9.9-26.6-9.9c-20.5,0-37.1,14.6-37.1,32.4c0,8.3,3.6,15.9,9.5,21.6h-9.5v97.3h160.9
		v-29.2l50.3,21.6V197z M209.7,124.6c20.5,0,37.1,14.6,37.1,32.4c0,17.9-16.6,32.4-37.1,32.4c-20.5,0-37.1-14.6-37.1-32.4
		C172.6,139.1,189.2,124.6,209.7,124.6z M177,189.5h-13.9c2.4-2.3,4.4-5,5.9-7.8C171.3,184.5,174,187.1,177,189.5z M110.7,167.8
		c0-11.9,11.1-21.6,24.8-21.6c13.6,0,24.7,9.7,24.7,21.6c0,11.9-11.1,21.6-24.7,21.6C121.8,189.5,110.7,179.8,110.7,167.8z
		 M246.8,276H110.7v-75.7h136.1V276z M297.2,261.9l-38-16.3v-14.9l38-16.3V261.9z"/>
</g>
<g id="Capa_2">
</g>
</svg>
