<svg height="512pt" viewBox="-78 0 512 512" width="512pt" xmlns="http://www.w3.org/2000/svg"><path d="m178.164062 512c-98.242187 0-178.164062-80.367188-178.164062-179.152344 0-43.050781 14.664062-72.320312 31.648438-106.210937 9.425781-18.820313 19.175781-38.277344 28.179687-63.105469l9.367187-25.832031c13.8125 3.382812 9.132813 2.238281 22.941407 5.621093l-3.632813 27.238282c-2.972656 22.257812 1.089844 47.503906 11.140625 69.261718 4.261719 9.230469 9.40625 17.421876 15.117188 24.230469-1.980469-36.140625 1.722656-70.976562 11.074219-103.9375 9.804687-34.550781 25.535156-66.40625 46.757812-94.6875 26.414062-35.191406 56.75-58.175781 70.816406-60.066406l39.867188-5.359375-26.828125 29.976562c-12.1875 13.613282-18.898438 31.1875-18.898438 49.484376 0 35.367187 21.695313 60.464843 46.8125 89.527343 16.105469 18.628907 34.355469 39.746094 48.179688 65.6875 16.003906 30.03125 23.78125 62.140625 23.78125 98.171875 0 98.785156-79.921875 179.152344-178.160157 179.152344zm-114.269531-283.5c-1.9375 3.925781-3.84375 7.730469-5.699219 11.4375-15.925781 31.78125-28.5 56.882812-28.5 92.910156 0 82.410156 66.601563 149.457032 148.46875 149.457032 81.863282 0 148.46875-67.046876 148.46875-149.457032 0-69.550781-32.910156-107.621094-64.734374-144.441406-27.792969-32.152344-54.042969-62.523438-54.042969-108.945312 0-3.703126.195312-7.382813.585937-11.03125-8.375 9.476562-17.167968 20.964843-25.480468 34.523437-23.464844 38.28125-48.636719 102.519531-35.273438 191.183594l3.90625 25.945312-24.253906-10.007812c-22.273438-9.195313-41.683594-29.722657-54.65625-57.804688-3.554688-7.699219-6.492188-15.664062-8.789063-23.769531zm0 0"/></svg>