<?xml version="1.0" encoding="utf-8"?>
<!-- Generator: Adobe Illustrator 16.0.3, SVG Export Plug-In . SVG Version: 6.00 Build 0)  -->
<!DOCTYPE svg PUBLIC "-//W3C//DTD SVG 1.1//EN" "http://www.w3.org/Graphics/SVG/1.1/DTD/svg11.dtd">
<svg version="1.1" id="Capa_1" xmlns="http://www.w3.org/2000/svg" xmlns:xlink="http://www.w3.org/1999/xlink" x="0px" y="0px"
	 width="1.42px" height="1.42px" viewBox="0 0 1.42 1.42" enable-background="new 0 0 1.42 1.42" xml:space="preserve">
<g>
	<path fill="#545454" d="M0.469,0.279c0.093,0,0.177,0.073,0.225,0.176l0.114-0.18C0.74,0.138,0.608,0.028,0.469,0.028
		c-0.244,0-0.444,0.309-0.444,0.688c0,0.38,0.2,0.689,0.444,0.689c0.203,0,0.373-0.211,0.425-0.501
		C0.905,0.846,0.91,0.782,0.91,0.717V0.654h-0.4v0.251h0.212c-0.044,0.147-0.141,0.25-0.253,0.25c-0.154,0-0.283-0.196-0.283-0.438
		C0.186,0.476,0.314,0.279,0.469,0.279"/>
	<polygon fill="#545454" points="1.272,0.404 1.112,0.404 1.112,0.592 0.991,0.592 0.991,0.842 1.112,0.842 1.112,1.03 1.272,1.03 
		1.272,0.842 1.396,0.842 1.396,0.592 1.272,0.592 	"/>
</g>
</svg>
