<?xml version="1.0" encoding="utf-8"?>
<!-- Generator: Adobe Illustrator 22.0.0, SVG Export Plug-In . SVG Version: 6.00 Build 0)  -->
<svg version="1.1" id="Capa_2" xmlns="http://www.w3.org/2000/svg" xmlns:xlink="http://www.w3.org/1999/xlink" x="0px" y="0px"
	 viewBox="0 0 800 800" style="enable-background:new 0 0 800 800;" xml:space="preserve">
<style type="text/css">
	.st0{fill:#FFFFFF;}
	.st1{fill:#0D0D0D;}
</style>
<g>
	<circle class="st0" cx="398.5" cy="415.6" r="378"/>
	<g>
		<path class="st1" d="M440.4,507.7c-8.6-3.7-8.6-7.1-8.6-7.1s0,0,0-4.5c0-4.5-1.9-5.2-1.9-5.2h-4.1v-20.2
			c5.1-5.6,7.8-14.6,9.3-23.5c1.6,0.2,2.4-2.6,2.4-2.6s2.4-11.6,2.4-15.8c0-2.2-1.4-2.7-2.7-2.6c0.5-13.9-0.3-35.7-0.3-35.7
			c-4.1-22.4-26.1-26.1-37.5-26.2c-11.9,0-35.5,3.8-39.6,26.2c0,0-0.8,21.9-0.3,35.7c-1.3-0.1-2.7,0.4-2.7,2.6
			c0,4.2,2.4,15.8,2.4,15.8s0.8,2.9,2.4,2.6c1.5,8.9,4.2,17.9,9.3,23.5v20.2H367c0,0-1.9,0.7-1.9,5.2c0,4.5,0,4.5,0,4.5
			s0,3.4-8.6,7.1c-8.6,3.7-55.6,24.7-55.6,43v29.1h80.8h13.7h6h16.1h78.4v-29.1C496.1,532.3,449,511.4,440.4,507.7z"/>
		<g>
			<path class="st1" d="M522.8,530.2c-3,0-5.9-1.1-8.3-3.2c-5-4.6-5.4-12.4-0.8-17.4c26-28.7,40.4-65.8,40.4-104.5
				c0-85.7-69.8-155.5-155.5-155.5S243,319.3,243,405.1c0,38.7,14.3,75.9,40.4,104.5c4.6,5,4.2,12.8-0.8,17.4
				c-5,4.6-12.8,4.2-17.4-0.8c-30.2-33.2-46.8-76.2-46.8-121.1c0-99.3,80.8-180.2,180.2-180.2s180.2,80.8,180.2,180.2
				c0,44.9-16.6,87.9-46.8,121.1C529.5,528.9,526.1,530.2,522.8,530.2z"/>
		</g>
		<g>
			<path class="st1" d="M485,496.2c-2.9,0-5.9-1-8.2-3.2c-5.1-4.6-5.5-12.3-0.9-17.4c17.2-19.1,26.7-43.8,26.7-69.5
				c0-57.3-46.7-104-104-104c-57.3,0-104,46.7-104,104c0,25.7,9.5,50.4,26.7,69.5c4.6,5.1,4.1,12.9-0.9,17.4
				c-5.1,4.6-12.9,4.1-17.4-0.9c-21.3-23.7-33-54.2-33-86c0-70.9,57.7-128.7,128.7-128.7s128.7,57.7,128.7,128.7
				c0,31.8-11.7,62.4-33,86C491.7,494.9,488.3,496.2,485,496.2z"/>
		</g>
	</g>
</g>
</svg>
