<?xml version="1.0" encoding="utf-8"?>
<!-- Generator: Adobe Illustrator 22.0.0, SVG Export Plug-In . SVG Version: 6.00 Build 0)  -->
<svg version="1.1" xmlns="http://www.w3.org/2000/svg" xmlns:xlink="http://www.w3.org/1999/xlink" x="0px" y="0px"
	 viewBox="0 0 1920 622" style="enable-background:new 0 0 1920 622;" xml:space="preserve">
<style type="text/css">
	.st0{fill:none;stroke:#B70B14;stroke-width:5;}
	.st1{fill:#303029;}
	.st2{fill:#B70B14;}
	.st3{font-family:'Calibri-Light';}
	.st4{font-size:108.4758px;}
	.st5{display:none;}
	.st6{display:inline;}
	.st7{fill:#FBFCFC;}
	.st8{display:inline;fill:#B70B14;}
	.st9{display:inline;fill:#FBFCFC;}
	.st10{font-size:108.6402px;}
</style>
<g id="Capa_1">
	<g>
		<g>
			<path class="st0" d="M220.5,453.9c25.7,0,45.3,5.8,58.7,17.5c13.4,11.7,20.1,29.4,20.1,53c0,13.1-1.7,24.9-5,35.5
				c-3.4,10.5-8.7,19.4-16,26.6c-7.3,7.2-16.7,12.7-28.1,16.6c-11.4,3.9-25,5.8-40.9,5.8H13.8l41.7-66.3h158.7
				c7.7,0,13.4-1.5,16.9-4.4c3.6-2.9,5.3-7.8,5.3-14.4c0-6.7-1.8-11.4-5.3-14.3c-3.6-2.8-9.2-4.2-16.9-4.2H100.1
				c-13.6,0-25.3-1.8-35.1-5.4s-18-8.6-24.5-15s-11.3-14.2-14.4-23.3c-3.1-9.1-4.7-19.2-4.7-30.3c0-12.1,1.7-23.1,5.2-33
				s8.8-18.3,16-25.2c7.2-6.9,16.5-12.3,27.9-16.2c11.4-3.9,25-5.8,40.9-5.8h182.3L252,418.2H106.4c-7.5,0-13.1,1.3-16.8,3.9
				s-5.5,7.2-5.5,13.9c0,6.7,1.8,11.4,5.5,14.1s9.3,4,16.8,4h114.1V453.9z"/>
			<path class="st0" d="M582.9,608.8h-64.6v-99.4H393.4v99.4h-65.3V351h65.3v91.3h124.9V351h64.6L582.9,608.8L582.9,608.8z"/>
			<path class="st0" d="M711.5,608.8l39.2-66.3h52.7c6.3,0,12.8,0,19.6,0s12.7,0.3,17.7,0.8c-2.9-4.6-6.3-10.5-10.2-17.5
				c-3.9-7.1-7.6-13.7-11.1-19.9l-37.6-68.2l-98.5,171.1h-76.9L741,375.7c4.4-7.4,9.9-14.1,16.6-20c6.7-5.9,15.2-8.9,25.4-8.9
				c9.8,0,18,2.8,24.6,8.3s12.2,12.4,16.8,20.6l131.1,233.2h-244V608.8z"/>
			<path class="st0" d="M1276.5,608.8h-86.9l-46.7-68.2h-99.8v68.2h-64.9V477h182.6c10,0,18.5-2.6,25.4-7.7s10.4-12.2,10.4-21.2
				c0-10-3.1-17.5-9.4-22.5s-15.1-7.5-26.4-7.5H978.1l42.3-67.1h134.9c11.9,0,24.3,1.3,37,4c12.8,2.7,24.4,7.5,34.8,14.5
				c10.5,6.9,19.1,16.3,25.9,28.1c6.8,11.8,10.2,27,10.2,45.5c0,10-1.3,19.5-3.8,28.5s-6.1,17.1-10.8,24.3
				c-4.7,7.2-10.5,13.3-17.2,18.3c-6.8,5-14.5,8.5-23.1,10.6c3.6,3.3,7.5,7.6,11.9,12.7c4.4,5.1,10.2,12.2,17.6,21.2L1276.5,608.8z"
				/>
			<path class="st0" d="M1564.5,608.8h-98.2l-63.4-67.8c-10.9-11.6-19.2-20.5-24.9-27c-5.8-6.4-10.4-11.8-14-16.2
				c0.2,5.9,0.4,12,0.6,18.3s0.3,12.5,0.3,18.7v74h-65.3V351h65.3v59.7c0,8-0.1,15.8-0.3,23.5c-0.2,7.7-0.5,14.9-0.9,21.6
				c4.2-4.6,9.3-10.3,15.2-17.1c6-6.8,13.8-15.1,23.4-24.9l60.5-62.8h94.1l-80.3,74c-6.9,6.4-13,12.1-18.3,16.9
				c-5.3,4.9-10.1,9.1-14.3,12.7c-4.2,3.6-8,6.8-11.5,9.6c-3.4,2.8-6.8,5.5-10.2,8.1c6.1,5.1,13.4,11.6,22,19.3
				c8.6,7.7,19.7,18.4,33.2,32L1564.5,608.8z"/>
			<path class="st0" d="M1780.3,453.9c25.7,0,45.3,5.8,58.7,17.5c13.4,11.7,20.1,29.4,20.1,53c0,13.1-1.7,24.9-5,35.5
				c-3.3,10.5-8.7,19.4-16,26.6c-7.3,7.2-16.7,12.7-28.1,16.6c-11.4,3.9-25.1,5.8-40.9,5.8h-195.4l41.7-66.3H1774
				c7.7,0,13.4-1.5,16.9-4.4c3.6-2.9,5.3-7.8,5.3-14.4c0-6.7-1.8-11.4-5.3-14.3c-3.6-2.8-9.2-4.2-16.9-4.2h-114.2
				c-13.6,0-25.3-1.8-35.1-5.4c-9.8-3.6-18-8.6-24.5-15s-11.3-14.2-14.4-23.3c-3.1-9.1-4.7-19.2-4.7-30.3c0-12.1,1.7-23.1,5.2-33
				c3.4-9.9,8.8-18.3,16-25.2c7.2-6.9,16.5-12.3,27.9-16.2c11.4-3.9,25-5.8,40.9-5.8h182.3l-41.7,67.1h-145.6
				c-7.5,0-13.1,1.3-16.8,3.9c-3.7,2.6-5.5,7.2-5.5,13.9c0,6.7,1.8,11.4,5.5,14.1s9.2,4,16.8,4h114.2V453.9z"/>
		</g>
		<g>
			<path class="st1" d="M220.5,453.9c25.7,0,45.3,5.8,58.7,17.5c13.4,11.7,20.1,29.4,20.1,53c0,13.1-1.7,24.9-5,35.5
				c-3.4,10.5-8.7,19.4-16,26.6c-7.3,7.2-16.7,12.7-28.1,16.6c-11.4,3.9-25,5.8-40.9,5.8H13.8l41.7-66.3h158.7
				c7.7,0,13.4-1.5,16.9-4.4c3.6-2.9,5.3-7.8,5.3-14.4c0-6.7-1.8-11.4-5.3-14.3c-3.6-2.8-9.2-4.2-16.9-4.2H100.1
				c-13.6,0-25.3-1.8-35.1-5.4s-18-8.6-24.5-15s-11.3-14.2-14.4-23.3c-3.1-9.1-4.7-19.2-4.7-30.3c0-12.1,1.7-23.1,5.2-33
				s8.8-18.3,16-25.2c7.2-6.9,16.5-12.3,27.9-16.2c11.4-3.9,25-5.8,40.9-5.8h182.3L252,418.2H106.4c-7.5,0-13.1,1.3-16.8,3.9
				s-5.5,7.2-5.5,13.9c0,6.7,1.8,11.4,5.5,14.1s9.3,4,16.8,4h114.1V453.9z"/>
			<path class="st1" d="M582.9,608.8h-64.6v-99.4H393.4v99.4h-65.3V351h65.3v91.3h124.9V351h64.6L582.9,608.8L582.9,608.8z"/>
			<path class="st1" d="M711.5,608.8l39.2-66.3h52.7c6.3,0,12.8,0,19.6,0s12.7,0.3,17.7,0.8c-2.9-4.6-6.3-10.5-10.2-17.5
				c-3.9-7.1-7.6-13.7-11.1-19.9l-37.6-68.2l-98.5,171.1h-76.9L741,375.7c4.4-7.4,9.9-14.1,16.6-20c6.7-5.9,15.2-8.9,25.4-8.9
				c9.8,0,18,2.8,24.6,8.3s12.2,12.4,16.8,20.6l131.1,233.2h-244V608.8z"/>
			<path class="st1" d="M1276.5,608.8h-86.9l-46.7-68.2h-99.8v68.2h-64.9V477h182.6c10,0,18.5-2.6,25.4-7.7s10.4-12.2,10.4-21.2
				c0-10-3.1-17.5-9.4-22.5s-15.1-7.5-26.4-7.5H978.1l42.3-67.1h134.9c11.9,0,24.3,1.3,37,4c12.8,2.7,24.4,7.5,34.8,14.5
				c10.5,6.9,19.1,16.3,25.9,28.1c6.8,11.8,10.2,27,10.2,45.5c0,10-1.3,19.5-3.8,28.5s-6.1,17.1-10.8,24.3
				c-4.7,7.2-10.5,13.3-17.2,18.3c-6.8,5-14.5,8.5-23.1,10.6c3.6,3.3,7.5,7.6,11.9,12.7c4.4,5.1,10.2,12.2,17.6,21.2L1276.5,608.8z"
				/>
			<path class="st1" d="M1564.5,608.8h-98.2l-63.4-67.8c-10.9-11.6-19.2-20.5-24.9-27c-5.8-6.4-10.4-11.8-14-16.2
				c0.2,5.9,0.4,12,0.6,18.3s0.3,12.5,0.3,18.7v74h-65.3V351h65.3v59.7c0,8-0.1,15.8-0.3,23.5c-0.2,7.7-0.5,14.9-0.9,21.6
				c4.2-4.6,9.3-10.3,15.2-17.1c6-6.8,13.8-15.1,23.4-24.9l60.5-62.8h94.1l-80.3,74c-6.9,6.4-13,12.1-18.3,16.9
				c-5.3,4.9-10.1,9.1-14.3,12.7c-4.2,3.6-8,6.8-11.5,9.6c-3.4,2.8-6.8,5.5-10.2,8.1c6.1,5.1,13.4,11.6,22,19.3
				c8.6,7.7,19.7,18.4,33.2,32L1564.5,608.8z"/>
			<path class="st1" d="M1780.3,453.9c25.7,0,45.3,5.8,58.7,17.5c13.4,11.7,20.1,29.4,20.1,53c0,13.1-1.7,24.9-5,35.5
				c-3.3,10.5-8.7,19.4-16,26.6c-7.3,7.2-16.7,12.7-28.1,16.6c-11.4,3.9-25.1,5.8-40.9,5.8h-195.4l41.7-66.3H1774
				c7.7,0,13.4-1.5,16.9-4.4c3.6-2.9,5.3-7.8,5.3-14.4c0-6.7-1.8-11.4-5.3-14.3c-3.6-2.8-9.2-4.2-16.9-4.2h-114.2
				c-13.6,0-25.3-1.8-35.1-5.4c-9.8-3.6-18-8.6-24.5-15s-11.3-14.2-14.4-23.3c-3.1-9.1-4.7-19.2-4.7-30.3c0-12.1,1.7-23.1,5.2-33
				c3.4-9.9,8.8-18.3,16-25.2c7.2-6.9,16.5-12.3,27.9-16.2c11.4-3.9,25-5.8,40.9-5.8h182.3l-41.7,67.1h-145.6
				c-7.5,0-13.1,1.3-16.8,3.9c-3.7,2.6-5.5,7.2-5.5,13.9c0,6.7,1.8,11.4,5.5,14.1s9.2,4,16.8,4h114.2V453.9z"/>
		</g>
		<g>
			<path class="st1" d="M220.5,453.9c25.7,0,45.3,5.8,58.7,17.5c13.4,11.7,20.1,29.4,20.1,53c0,13.1-1.7,24.9-5,35.5
				c-3.4,10.5-8.7,19.4-16,26.6c-7.3,7.2-16.7,12.7-28.1,16.6c-11.4,3.9-25,5.8-40.9,5.8H13.8l41.7-66.3h158.7
				c7.7,0,13.4-1.5,16.9-4.4c3.6-2.9,5.3-7.8,5.3-14.4c0-6.7-1.8-11.4-5.3-14.3c-3.6-2.8-9.2-4.2-16.9-4.2H100.1
				c-13.6,0-25.3-1.8-35.1-5.4s-18-8.6-24.5-15s-11.3-14.2-14.4-23.3c-3.1-9.1-4.7-19.2-4.7-30.3c0-12.1,1.7-23.1,5.2-33
				s8.8-18.3,16-25.2c7.2-6.9,16.5-12.3,27.9-16.2c11.4-3.9,25-5.8,40.9-5.8h182.3L252,418.2H106.4c-7.5,0-13.1,1.3-16.8,3.9
				s-5.5,7.2-5.5,13.9c0,6.7,1.8,11.4,5.5,14.1s9.3,4,16.8,4h114.1V453.9z"/>
			<path class="st1" d="M582.9,608.8h-64.6v-99.4H393.4v99.4h-65.3V351h65.3v91.3h124.9V351h64.6L582.9,608.8L582.9,608.8z"/>
			<path class="st1" d="M711.5,608.8l39.2-66.3h52.7c6.3,0,12.8,0,19.6,0s12.7,0.3,17.7,0.8c-2.9-4.6-6.3-10.5-10.2-17.5
				c-3.9-7.1-7.6-13.7-11.1-19.9l-37.6-68.2l-98.5,171.1h-76.9L741,375.7c4.4-7.4,9.9-14.1,16.6-20c6.7-5.9,15.2-8.9,25.4-8.9
				c9.8,0,18,2.8,24.6,8.3s12.2,12.4,16.8,20.6l131.1,233.2h-244V608.8z"/>
			<path class="st1" d="M1276.5,608.8h-86.9l-46.7-68.2h-99.8v68.2h-64.9V477h182.6c10,0,18.5-2.6,25.4-7.7s10.4-12.2,10.4-21.2
				c0-10-3.1-17.5-9.4-22.5s-15.1-7.5-26.4-7.5H978.1l42.3-67.1h134.9c11.9,0,24.3,1.3,37,4c12.8,2.7,24.4,7.5,34.8,14.5
				c10.5,6.9,19.1,16.3,25.9,28.1c6.8,11.8,10.2,27,10.2,45.5c0,10-1.3,19.5-3.8,28.5s-6.1,17.1-10.8,24.3
				c-4.7,7.2-10.5,13.3-17.2,18.3c-6.8,5-14.5,8.5-23.1,10.6c3.6,3.3,7.5,7.6,11.9,12.7c4.4,5.1,10.2,12.2,17.6,21.2L1276.5,608.8z"
				/>
			<path class="st1" d="M1564.5,608.8h-98.2l-63.4-67.8c-10.9-11.6-19.2-20.5-24.9-27c-5.8-6.4-10.4-11.8-14-16.2
				c0.2,5.9,0.4,12,0.6,18.3s0.3,12.5,0.3,18.7v74h-65.3V351h65.3v59.7c0,8-0.1,15.8-0.3,23.5c-0.2,7.7-0.5,14.9-0.9,21.6
				c4.2-4.6,9.3-10.3,15.2-17.1c6-6.8,13.8-15.1,23.4-24.9l60.5-62.8h94.1l-80.3,74c-6.9,6.4-13,12.1-18.3,16.9
				c-5.3,4.9-10.1,9.1-14.3,12.7c-4.2,3.6-8,6.8-11.5,9.6c-3.4,2.8-6.8,5.5-10.2,8.1c6.1,5.1,13.4,11.6,22,19.3
				c8.6,7.7,19.7,18.4,33.2,32L1564.5,608.8z"/>
			<path class="st1" d="M1780.3,453.9c25.7,0,45.3,5.8,58.7,17.5c13.4,11.7,20.1,29.4,20.1,53c0,13.1-1.7,24.9-5,35.5
				c-3.3,10.5-8.7,19.4-16,26.6c-7.3,7.2-16.7,12.7-28.1,16.6c-11.4,3.9-25.1,5.8-40.9,5.8h-195.4l41.7-66.3H1774
				c7.7,0,13.4-1.5,16.9-4.4c3.6-2.9,5.3-7.8,5.3-14.4c0-6.7-1.8-11.4-5.3-14.3c-3.6-2.8-9.2-4.2-16.9-4.2h-114.2
				c-13.6,0-25.3-1.8-35.1-5.4c-9.8-3.6-18-8.6-24.5-15s-11.3-14.2-14.4-23.3c-3.1-9.1-4.7-19.2-4.7-30.3c0-12.1,1.7-23.1,5.2-33
				c3.4-9.9,8.8-18.3,16-25.2c7.2-6.9,16.5-12.3,27.9-16.2c11.4-3.9,25-5.8,40.9-5.8h182.3l-41.7,67.1h-145.6
				c-7.5,0-13.1,1.3-16.8,3.9c-3.7,2.6-5.5,7.2-5.5,13.9c0,6.7,1.8,11.4,5.5,14.1s9.2,4,16.8,4h114.2V453.9z"/>
		</g>
	</g>
	<g>
		<g>
			<path class="st1" d="M124.1,331c-1.7,0-3.4-0.3-5.1-1s-3.5-2.2-5.6-4.7l-52.7-58.1v62.1H36.6v-87.6c0-3.5,0.4-6.5,1.2-9
				s1.9-4.6,3.2-6.2c1.3-1.6,2.9-2.7,4.6-3.5c1.8-0.7,3.6-1.1,5.5-1.1c1.6,0,3.3,0.3,4.9,1c1.7,0.7,3.6,2.2,5.7,4.7l52.7,58.1v-62.1
				h24.3v87.5c0,3.5-0.4,6.5-1.2,9s-1.9,4.6-3.2,6.2s-2.9,2.8-4.7,3.6C127.9,330.6,126,331,124.1,331z"/>
			<path class="st1" d="M214.6,221.9c20.9,0,36.6,4.4,47.1,13.1c10.5,8.7,15.7,22.5,15.7,41.4s-5.2,32.8-15.7,41.5
				S235.5,331,214.5,331c-21.1,0-36.8-4.4-47.2-13.1s-15.6-22.6-15.6-41.5c0-18.8,5.2-32.6,15.7-41.4
				C177.9,226.2,193.6,221.9,214.6,221.9z M214.6,303.5c6.7,0,12.3-0.3,17-1c4.6-0.7,8.4-2,11.2-4c2.9-2,4.9-4.8,6.2-8.3
				s1.9-8.1,1.9-13.8c0-5.7-0.6-10.3-1.9-13.8c-1.3-3.5-3.4-6.3-6.2-8.2c-2.9-1.9-6.6-3.3-11.2-3.9c-4.6-0.7-10.3-1-17-1
				s-12.3,0.3-17,1c-4.6,0.7-8.4,2-11.3,3.9c-2.9,1.9-4.9,4.7-6.2,8.2s-1.9,8.1-1.9,13.8c0,5.7,0.6,10.3,1.9,13.8
				c1.3,3.5,3.4,6.3,6.2,8.3c2.9,2,6.6,3.3,11.3,4S207.9,303.5,214.6,303.5z"/>
			<path class="st1" d="M318,329.2h-26.6V223.6H318V329.2z"/>
			<path class="st1" d="M414.2,265.8c10.5,0,18.5,2.4,24,7.2c5.5,4.8,8.2,12,8.2,21.7c0,5.4-0.7,10.2-2.1,14.5s-3.6,7.9-6.6,10.9
				c-3,2.9-6.8,5.2-11.5,6.8c-4.7,1.6-10.3,2.4-16.8,2.4h-80.1l17.1-27.2h65c3.2,0,5.5-0.6,6.9-1.8c1.5-1.2,2.2-3.2,2.2-5.9
				c0-2.7-0.7-4.7-2.2-5.8c-1.5-1.2-3.8-1.7-6.9-1.7h-46.8c-5.6,0-10.4-0.7-14.4-2.2s-7.4-3.5-10-6.2c-2.7-2.6-4.6-5.8-5.9-9.6
				c-1.3-3.7-1.9-7.9-1.9-12.4c0-4.9,0.7-9.4,2.1-13.5s3.6-7.5,6.6-10.3s6.8-5.1,11.4-6.6c4.7-1.6,10.3-2.4,16.8-2.4H444l-17.1,27.5
				h-59.6c-3.1,0-5.4,0.5-6.9,1.6s-2.2,2.9-2.2,5.7c0,2.7,0.7,4.7,2.2,5.8c1.5,1.1,3.8,1.7,6.9,1.7h46.9V265.8z"/>
			<path class="st1" d="M558.2,302.1l-17.1,27.2h-82.8V223.6h99.6l-17.2,27.5H485v12.6h68.1l-15.3,24H485v14.4H558.2z"/>
		</g>
	</g>
	<path class="st2" d="M1853,271.9l-92.7-1.9h-0.8l-0.6,0.7l-17.5,19.1l-22.1-37.5l-3.3-5.6l-2.5,6.1l-8.3,20.4l-7-8.2l-3.3-3.9
		l-3,4.3l-11.7,16.9l-6.4-11l-4.3-7.4l-4.1,7.7l-6.2,11.7l-19.1-30.8l-4.5-7.3l-5.3,7.1l-25,33.3c-13.3-0.2-26.6-0.5-40-0.6
		c-13.9-0.1-27.9,0-41.8,0.1c-1.7-0.7-3.8-1.9-5.6-3c-2.3-1.4-4.5-3.1-6.7-4.7c-4.3-3.5-8.2-7.5-11.7-11.9
		c-7-8.7-12.3-18.9-16.2-29.7c-1-2.7-1.8-5.5-2.7-8.2l-2.1-8.4c-1.2-5.7-2.2-11.4-2.8-17.2c-0.5-2.9-0.5-5.8-0.8-8.7
		s-0.4-5.8-0.4-8.8c-0.2-5.9-0.1-11.8,0.1-17.6c0.2-5.9,0.8-11.8,1.3-17.7c0.8-5.9,1.3-11.8,2.4-17.6c1-5.9,1.9-11.7,3.2-17.6
		c1.2-5.8,2.4-11.7,3.9-17.5c1.4-5.8,2.8-11.6,4.5-17.3c1.6-5.8,3.2-11.5,5.1-17.2s3.5-11.4,5.6-17.1l6-17l4.8-13.6l-13.5,4.1
		c-8.4,2.5-16,5.4-23.8,8.5c-7.7,3.1-15.3,6.4-22.8,10c-7.5,3.5-14.9,7.3-22.2,11.2c-7.3,4-14.5,8.1-21.6,12.4l-10.5,6.6l-10.3,6.9
		c-6.8,4.8-13.5,9.6-20.1,14.7c-3.3,2.5-6.5,5.1-9.7,7.8c-3.2,2.6-6.4,5.3-9.5,8c-6.3,5.4-12.3,11.1-18.3,16.9
		c-5.8,5.9-11.7,11.8-17.2,18c-5.7,6.1-10.8,12.6-16.2,19c-5,6.7-10.2,13.2-14.8,20.1c-4.8,6.8-9.2,13.9-13.5,21
		c-2.3,3.5-4.1,7.2-6.2,10.8c-2,3.7-4.1,7.2-5.9,11c-3.7,7.5-7.4,14.9-10.6,22.6c-3.5,7.6-6.3,15.4-9.2,23.2
		c-2.3,6.1-4.1,12.3-6,18.5h-138.2L990.5,107.7L977,83.9v27.4l0.1,205.7L851.5,115.9l-13.4-21.4v25.3l0.4,208.3l-45-62.1l-5.1-7
		l-5.9,6.3c-11.7,12.3-23.6,24.2-35.2,36.6l-35.7-62.6l-5-8.8l-4,9.1l-22.3,50.6L670,271l-0.8-1.6h-1.6l-98.7,2.8l97,2.7l11.9,24.6
		l3.1,6.3l3.2-6.4l23.4-46.7l32.5,64.2l4.3,8.5l7.1-6.9c12.3-12.1,24-24.7,35.9-37.2l53,73.1l13.1,18.1v-22.3L853,144.8L978.2,346
		l13.3,21.4v-25.2l-0.1-203.5l89.3,158l2.1,3.7h4.2h147.7h5.2l1.7-5.2c2.5-7.6,4.6-15.4,7.4-22.9s5.5-15.1,8.8-22.3
		c3-7.4,6.6-14.6,10.2-21.7c1.7-3.6,3.8-7.1,5.7-10.6c2-3.5,3.8-7.1,6-10.4c4.2-6.8,8.4-13.7,13-20.2c4.4-6.7,9.4-12.9,14.2-19.4
		c5.1-6.1,10.1-12.5,15.6-18.3c5.3-6,11-11.7,16.6-17.4c5.8-5.5,11.6-11.1,17.7-16.3c3-2.7,6.1-5.2,9.2-7.8c3.1-2.5,6.2-5.1,9.4-7.5
		c6.3-4.9,12.8-9.6,19.4-14.2l10-6.7l10.2-6.4c6.9-4.2,13.8-8.2,20.9-12c7.1-3.8,14.2-7.5,21.5-10.9c7.2-3.5,14.6-6.7,22-9.7
		c2.8-1.1,5.7-2.2,8.6-3.3l-1.1,3.1c-2.1,5.7-3.8,11.6-5.7,17.5c-1.9,5.8-3.6,11.7-5.2,17.6c-1.7,5.9-3.2,11.8-4.7,17.8
		c-1.5,5.9-2.8,12-4,18c-1.3,6-2.3,12.1-3.3,18.2c-1.1,6.1-1.6,12.3-2.5,18.4c-0.6,6.2-1.1,12.3-1.4,18.6
		c-0.2,6.2-0.4,12.4-0.1,18.7c0,3.1,0.2,6.2,0.5,9.4c0.3,3.1,0.4,6.3,0.8,9.4c0.7,6.2,1.8,12.5,3.1,18.7l2.3,9.2
		c1,3,1.9,6.1,2.9,9.1c4.4,12,10.4,23.6,18.6,33.8c4.1,5.1,8.6,9.8,13.8,14c2.6,2.1,5.2,4.1,8.1,5.9c3,1.8,5.6,3.4,9.5,4.9l1,0.4
		h1.4c14.4,0.1,28.9,0.2,43.3,0.1s28.9-0.4,43.3-0.6l3.5-0.1l1.9-2.7l20.9-30l20.2,30.2l5.1,7.6l3.9-8l6.1-12.4l5.8,9.3l3.8,6
		l3.8-5.9l12.2-18.9l7.8,8.5l4.2,4.5l2.1-5.7l7.5-20.4l21.6,33.9l1.8,2.8l2.1-2.5l18.4-21.7L1853,271.9z"/>
	<text transform="matrix(1 0 0 1 1859.0195 417.5566)" class="st1 st3 st4">®</text>
</g>
<g id="Capa_2" class="st5">
	<g class="st6">
		<g>
			<path class="st1" d="M224.1,449.1c25.8,0,45.3,5.9,58.7,17.6c13.4,11.7,20.1,29.4,20.1,53.1c0,13.1-1.7,25-5,35.5
				c-3.4,10.6-8.7,19.4-16,26.6c-7.3,7.2-16.7,12.7-28.1,16.6c-11.4,3.9-25.1,5.8-41,5.8H17.1l41.8-66.4h159c7.7,0,13.4-1.5,17-4.4
				c3.6-2.9,5.3-7.8,5.3-14.5c0-6.7-1.8-11.4-5.3-14.3c-3.6-2.8-9.2-4.3-17-4.3H103.5c-13.6,0-25.3-1.8-35.2-5.4
				c-9.8-3.6-18-8.6-24.5-15.1c-6.5-6.4-11.3-14.2-14.5-23.4c-3.1-9.1-4.7-19.2-4.7-30.3c0-12.1,1.7-23.1,5.2-33
				c3.5-9.9,8.8-18.3,16-25.3c7.2-6.9,16.5-12.3,28-16.2c11.4-3.9,25.1-5.8,41-5.8h182.5l-41.8,67.2H109.7c-7.5,0-13.1,1.3-16.8,3.9
				c-3.7,2.6-5.5,7.2-5.5,13.9c0,6.7,1.8,11.4,5.5,14.1c3.7,2.7,9.3,4.1,16.8,4.1H224.1z"/>
			<path class="st1" d="M587,604.3h-64.7v-99.6h-125v99.6h-65.4V346.1h65.4v91.5h125v-91.5H587V604.3z"/>
			<path class="st1" d="M715.8,604.3l39.3-66.4h52.8c6.3,0,12.8,0,19.6,0c6.8,0,12.7,0.3,17.8,0.8c-2.9-4.6-6.3-10.5-10.2-17.6
				c-3.9-7.1-7.6-13.7-11.2-19.9l-37.7-68.3l-98.7,171.4h-77l134.8-233.5c4.4-7.5,9.9-14.1,16.7-20.1c6.7-5.9,15.2-8.9,25.4-8.9
				c9.8,0,18.1,2.8,24.7,8.3c6.6,5.5,12.2,12.4,16.8,20.7l131.3,233.5H715.8z"/>
			<path class="st1" d="M1281.6,604.3h-87l-46.8-68.3h-99.9v68.3h-65v-132h182.8c10.1,0,18.5-2.6,25.5-7.7
				c6.9-5.1,10.4-12.2,10.4-21.2c0-10-3.1-17.6-9.4-22.6c-6.3-5-15.1-7.5-26.4-7.5H982.8l42.4-67.2h135.1c11.9,0,24.3,1.3,37.1,4
				c12.8,2.7,24.4,7.5,34.9,14.5c10.5,6.9,19.1,16.3,25.9,28.2c6.8,11.8,10.2,27,10.2,45.5c0,10-1.3,19.6-3.8,28.6
				c-2.5,9-6.1,17.1-10.8,24.3c-4.7,7.2-10.5,13.3-17.3,18.3c-6.8,5-14.5,8.6-23.1,10.6c3.6,3.3,7.5,7.6,11.9,12.7
				c4.4,5.2,10.3,12.2,17.6,21.2L1281.6,604.3z"/>
			<path class="st1" d="M1570,604.3h-98.3l-63.5-67.9c-10.9-11.6-19.2-20.6-25-27c-5.8-6.4-10.4-11.8-14-16.2
				c0.2,5.9,0.4,12,0.6,18.3c0.2,6.3,0.3,12.5,0.3,18.7v74.1h-65.4V346.1h65.4v59.8c0,8-0.1,15.8-0.3,23.5
				c-0.2,7.7-0.5,14.9-0.9,21.6c4.2-4.6,9.3-10.4,15.2-17.2c6-6.8,13.8-15.1,23.4-24.9l60.6-62.9h94.3l-80.4,74.1
				c-6.9,6.4-13,12.1-18.4,17c-5.3,4.9-10.1,9.1-14.3,12.7c-4.2,3.6-8,6.8-11.5,9.6c-3.4,2.8-6.9,5.5-10.2,8.1
				c6.1,5.1,13.4,11.6,22,19.3c8.6,7.7,19.7,18.4,33.3,32L1570,604.3z"/>
			<path class="st1" d="M1786.2,449.1c25.8,0,45.3,5.9,58.7,17.6c13.4,11.7,20.1,29.4,20.1,53.1c0,13.1-1.7,25-5,35.5
				c-3.4,10.6-8.7,19.4-16,26.6c-7.3,7.2-16.7,12.7-28.1,16.6c-11.4,3.9-25.1,5.8-41,5.8h-195.7l41.8-66.4h159
				c7.7,0,13.4-1.5,17-4.4c3.6-2.9,5.3-7.8,5.3-14.5c0-6.7-1.8-11.4-5.3-14.3c-3.6-2.8-9.2-4.3-17-4.3h-114.4
				c-13.6,0-25.3-1.8-35.2-5.4c-9.8-3.6-18-8.6-24.5-15.1c-6.5-6.4-11.3-14.2-14.4-23.4c-3.1-9.1-4.7-19.2-4.7-30.3
				c0-12.1,1.7-23.1,5.2-33c3.4-9.9,8.8-18.3,16-25.3c7.2-6.9,16.5-12.3,28-16.2c11.4-3.9,25.1-5.8,41-5.8h182.5l-41.8,67.2h-145.8
				c-7.5,0-13.1,1.3-16.8,3.9c-3.7,2.6-5.5,7.2-5.5,13.9c0,6.7,1.8,11.4,5.5,14.1c3.7,2.7,9.3,4.1,16.8,4.1H1786.2z"/>
		</g>
		<g>
			<path class="st7" d="M224.1,449.1c25.8,0,45.3,5.9,58.7,17.6c13.4,11.7,20.1,29.4,20.1,53.1c0,13.1-1.7,25-5,35.5
				c-3.4,10.6-8.7,19.4-16,26.6c-7.3,7.2-16.7,12.7-28.1,16.6c-11.4,3.9-25.1,5.8-41,5.8H17.1l41.8-66.4h159c7.7,0,13.4-1.5,17-4.4
				c3.6-2.9,5.3-7.8,5.3-14.5c0-6.7-1.8-11.4-5.3-14.3c-3.6-2.8-9.2-4.3-17-4.3H103.5c-13.6,0-25.3-1.8-35.2-5.4
				c-9.8-3.6-18-8.6-24.5-15.1c-6.5-6.4-11.3-14.2-14.5-23.4c-3.1-9.1-4.7-19.2-4.7-30.3c0-12.1,1.7-23.1,5.2-33
				c3.5-9.9,8.8-18.3,16-25.3c7.2-6.9,16.5-12.3,28-16.2c11.4-3.9,25.1-5.8,41-5.8h182.5l-41.8,67.2H109.7c-7.5,0-13.1,1.3-16.8,3.9
				c-3.7,2.6-5.5,7.2-5.5,13.9c0,6.7,1.8,11.4,5.5,14.1c3.7,2.7,9.3,4.1,16.8,4.1H224.1z"/>
			<path class="st7" d="M587,604.3h-64.7v-99.6h-125v99.6h-65.4V346.1h65.4v91.5h125v-91.5H587V604.3z"/>
			<path class="st7" d="M715.8,604.3l39.3-66.4h52.8c6.3,0,12.8,0,19.6,0c6.8,0,12.7,0.3,17.8,0.8c-2.9-4.6-6.3-10.5-10.2-17.6
				c-3.9-7.1-7.6-13.7-11.2-19.9l-37.7-68.3l-98.7,171.4h-77l134.8-233.5c4.4-7.5,9.9-14.1,16.7-20.1c6.7-5.9,15.2-8.9,25.4-8.9
				c9.8,0,18.1,2.8,24.7,8.3c6.6,5.5,12.2,12.4,16.8,20.7l131.3,233.5H715.8z"/>
			<path class="st7" d="M1281.6,604.3h-87l-46.8-68.3h-99.9v68.3h-65v-132h182.8c10.1,0,18.5-2.6,25.5-7.7
				c6.9-5.1,10.4-12.2,10.4-21.2c0-10-3.1-17.6-9.4-22.6c-6.3-5-15.1-7.5-26.4-7.5H982.8l42.4-67.2h135.1c11.9,0,24.3,1.3,37.1,4
				c12.8,2.7,24.4,7.5,34.9,14.5c10.5,6.9,19.1,16.3,25.9,28.2c6.8,11.8,10.2,27,10.2,45.5c0,10-1.3,19.6-3.8,28.6
				c-2.5,9-6.1,17.1-10.8,24.3c-4.7,7.2-10.5,13.3-17.3,18.3c-6.8,5-14.5,8.6-23.1,10.6c3.6,3.3,7.5,7.6,11.9,12.7
				c4.4,5.2,10.3,12.2,17.6,21.2L1281.6,604.3z"/>
			<path class="st7" d="M1570,604.3h-98.3l-63.5-67.9c-10.9-11.6-19.2-20.6-25-27c-5.8-6.4-10.4-11.8-14-16.2
				c0.2,5.9,0.4,12,0.6,18.3c0.2,6.3,0.3,12.5,0.3,18.7v74.1h-65.4V346.1h65.4v59.8c0,8-0.1,15.8-0.3,23.5
				c-0.2,7.7-0.5,14.9-0.9,21.6c4.2-4.6,9.3-10.4,15.2-17.2c6-6.8,13.8-15.1,23.4-24.9l60.6-62.9h94.3l-80.4,74.1
				c-6.9,6.4-13,12.1-18.4,17c-5.3,4.9-10.1,9.1-14.3,12.7c-4.2,3.6-8,6.8-11.5,9.6c-3.4,2.8-6.9,5.5-10.2,8.1
				c6.1,5.1,13.4,11.6,22,19.3c8.6,7.7,19.7,18.4,33.3,32L1570,604.3z"/>
			<path class="st7" d="M1786.2,449.1c25.8,0,45.3,5.9,58.7,17.6c13.4,11.7,20.1,29.4,20.1,53.1c0,13.1-1.7,25-5,35.5
				c-3.4,10.6-8.7,19.4-16,26.6c-7.3,7.2-16.7,12.7-28.1,16.6c-11.4,3.9-25.1,5.8-41,5.8h-195.7l41.8-66.4h159
				c7.7,0,13.4-1.5,17-4.4c3.6-2.9,5.3-7.8,5.3-14.5c0-6.7-1.8-11.4-5.3-14.3c-3.6-2.8-9.2-4.3-17-4.3h-114.4
				c-13.6,0-25.3-1.8-35.2-5.4c-9.8-3.6-18-8.6-24.5-15.1c-6.5-6.4-11.3-14.2-14.4-23.4c-3.1-9.1-4.7-19.2-4.7-30.3
				c0-12.1,1.7-23.1,5.2-33c3.4-9.9,8.8-18.3,16-25.3c7.2-6.9,16.5-12.3,28-16.2c11.4-3.9,25.1-5.8,41-5.8h182.5l-41.8,67.2h-145.8
				c-7.5,0-13.1,1.3-16.8,3.9c-3.7,2.6-5.5,7.2-5.5,13.9c0,6.7,1.8,11.4,5.5,14.1c3.7,2.7,9.3,4.1,16.8,4.1H1786.2z"/>
		</g>
	</g>
	<g class="st6">
		<g>
			<path class="st7" d="M127.5,326c-1.7,0-3.4-0.3-5.1-1c-1.7-0.7-3.5-2.2-5.6-4.7l-52.8-58.2v62.1H39.9v-87.8c0-3.5,0.4-6.5,1.2-9
				c0.8-2.5,1.9-4.6,3.2-6.2c1.3-1.6,2.9-2.7,4.6-3.5c1.8-0.7,3.6-1.1,5.5-1.1c1.6,0,3.3,0.3,5,1c1.7,0.7,3.6,2.2,5.7,4.7l52.8,58.2
				v-62.1h24.3v87.6c0,3.5-0.4,6.5-1.2,9c-0.8,2.5-1.9,4.6-3.2,6.2c-1.3,1.6-2.9,2.8-4.7,3.6C131.3,325.7,129.4,326,127.5,326z"/>
			<path class="st7" d="M218.2,216.8c20.9,0,36.7,4.4,47.2,13.1c10.5,8.7,15.8,22.6,15.8,41.4c0,19-5.2,32.8-15.7,41.6
				c-10.5,8.7-26.2,13.1-47.2,13.1c-21.1,0-36.9-4.4-47.3-13.1c-10.4-8.8-15.6-22.6-15.6-41.6c0-18.9,5.2-32.7,15.7-41.4
				C181.4,221.1,197.1,216.8,218.2,216.8z M218.2,298.5c6.7,0,12.4-0.3,17-1c4.6-0.7,8.4-2,11.3-4c2.9-2,5-4.8,6.2-8.3
				c1.3-3.5,1.9-8.1,1.9-13.8c0-5.7-0.6-10.3-1.9-13.8c-1.3-3.5-3.4-6.3-6.2-8.2c-2.9-1.9-6.6-3.3-11.3-4c-4.6-0.7-10.3-1-17-1
				c-6.7,0-12.4,0.3-17,1c-4.6,0.7-8.4,2-11.3,4c-2.9,2-5,4.7-6.2,8.2c-1.3,3.5-1.9,8.1-1.9,13.8c0,5.7,0.6,10.3,1.9,13.8
				c1.3,3.5,3.4,6.3,6.2,8.3c2.9,2,6.6,3.3,11.3,4C205.8,298.2,211.5,298.5,218.2,298.5z"/>
			<path class="st7" d="M321.7,324.3H295V218.5h26.6V324.3z"/>
			<path class="st7" d="M418.1,260.7c10.6,0,18.6,2.4,24.1,7.2c5.5,4.8,8.2,12,8.2,21.7c0,5.4-0.7,10.2-2.1,14.6
				c-1.4,4.3-3.6,8-6.6,10.9c-3,2.9-6.8,5.2-11.5,6.8c-4.7,1.6-10.3,2.4-16.8,2.4h-80.2l17.1-27.2h65.1c3.2,0,5.5-0.6,6.9-1.8
				c1.5-1.2,2.2-3.2,2.2-5.9c0-2.7-0.7-4.7-2.2-5.9c-1.5-1.2-3.8-1.7-6.9-1.7h-46.9c-5.6,0-10.4-0.7-14.4-2.2c-4-1.5-7.4-3.5-10-6.2
				c-2.7-2.6-4.6-5.8-5.9-9.6c-1.3-3.7-1.9-7.9-1.9-12.4c0-5,0.7-9.5,2.1-13.5c1.4-4.1,3.6-7.5,6.6-10.4c3-2.8,6.8-5.1,11.5-6.6
				c4.7-1.6,10.3-2.4,16.8-2.4h74.8L430.9,246h-59.7c-3.1,0-5.4,0.5-6.9,1.6c-1.5,1.1-2.3,3-2.3,5.7c0,2.7,0.7,4.7,2.3,5.8
				c1.5,1.1,3.8,1.7,6.9,1.7H418.1z"/>
			<path class="st7" d="M562.2,297.1l-17.1,27.2h-82.9V218.5H562L544.7,246H489v12.6h68.2l-15.3,24H489v14.4H562.2z"/>
		</g>
	</g>
	<path class="st8" d="M1859,266.9l-92.8-1.9l-0.8,0l-0.6,0.7l-17.5,19.1l-22.1-37.5l-3.3-5.6l-2.5,6.1l-8.3,20.4l-7.1-8.2l-3.3-3.9
		l-3,4.3l-11.7,16.9l-6.4-11l-4.3-7.4l-4.1,7.7l-6.2,11.7l-19.1-30.8l-4.6-7.3l-5.3,7.1l-25,33.3c-13.3-0.2-26.7-0.5-40-0.6
		c-14-0.1-27.9,0-41.9,0.1c-1.7-0.7-3.8-1.9-5.7-3c-2.3-1.4-4.5-3.1-6.7-4.7c-4.3-3.5-8.2-7.5-11.7-11.9c-7-8.7-12.3-19-16.3-29.7
		c-1-2.7-1.8-5.5-2.7-8.2l-2.1-8.4c-1.2-5.7-2.2-11.4-2.8-17.2c-0.5-2.9-0.5-5.8-0.8-8.7c-0.3-2.9-0.4-5.8-0.4-8.8
		c-0.2-5.9-0.1-11.8,0.1-17.7c0.2-5.9,0.8-11.8,1.3-17.7c0.8-5.9,1.3-11.8,2.4-17.7c1-5.9,1.9-11.8,3.2-17.6
		c1.2-5.9,2.4-11.7,3.9-17.5c1.4-5.8,2.8-11.6,4.6-17.4c1.6-5.8,3.2-11.5,5.1-17.2c1.9-5.7,3.5-11.5,5.6-17.1l6-17l4.8-13.6
		l-13.6,4.1c-8.4,2.5-16,5.4-23.8,8.5c-7.7,3.1-15.3,6.4-22.8,10c-7.5,3.5-14.9,7.3-22.2,11.2c-7.3,4-14.5,8.1-21.6,12.4l-10.5,6.7
		l-10.3,6.9c-6.8,4.8-13.6,9.6-20.1,14.7c-3.3,2.5-6.5,5.1-9.7,7.8c-3.2,2.6-6.4,5.3-9.5,8.1c-6.3,5.4-12.3,11.2-18.4,16.9
		c-5.8,5.9-11.8,11.8-17.2,18.1c-5.7,6.1-10.8,12.6-16.2,19c-5,6.7-10.2,13.2-14.8,20.1c-4.9,6.8-9.2,13.9-13.6,21
		c-2.3,3.5-4.1,7.2-6.2,10.9c-2,3.7-4.2,7.2-5.9,11c-3.7,7.5-7.5,14.9-10.6,22.6c-3.5,7.6-6.3,15.4-9.2,23.2
		c-2.3,6.1-4.1,12.3-6,18.5h-138.5L995.2,102.4l-13.5-23.9l0,27.5l0.1,206.1L856,110.6l-13.4-21.5l0,25.3l0.4,208.6l-45-62.2l-5.1-7
		l-6,6.3c-11.7,12.3-23.7,24.3-35.2,36.7L716,234.1l-5-8.8l-4,9.1l-22.3,50.7l-10.4-19.1l-0.8-1.6l-1.6,0l-98.9,2.8l97.1,2.7
		l11.9,24.7l3.1,6.3l3.2-6.5l23.4-46.7l32.5,64.3l4.3,8.5l7.1-6.9c12.3-12.1,24-24.8,35.9-37.2l53.1,73.3l13.1,18.1l0-22.4
		l-0.4-205.7l125.7,201.4l13.4,21.4l0-25.2l-0.1-203.8l89.5,158.2l2.1,3.7h4.2h148h5.2l1.7-5.2c2.5-7.6,4.6-15.4,7.4-22.9
		c2.8-7.5,5.5-15.1,8.8-22.4c3-7.4,6.6-14.6,10.2-21.8c1.7-3.6,3.8-7.1,5.7-10.6c2-3.5,3.8-7.1,6-10.4c4.2-6.8,8.4-13.7,13-20.2
		c4.4-6.7,9.5-12.9,14.2-19.4c5.2-6.2,10.1-12.5,15.6-18.3c5.3-6.1,11-11.7,16.6-17.4c5.8-5.5,11.6-11.1,17.7-16.3
		c3-2.7,6.1-5.3,9.2-7.8c3.1-2.5,6.2-5.1,9.4-7.5c6.3-5,12.9-9.6,19.5-14.3l10-6.7l10.2-6.4c6.9-4.2,13.9-8.2,20.9-12
		c7.1-3.8,14.2-7.5,21.5-10.9c7.3-3.5,14.6-6.7,22.1-9.7c2.8-1.1,5.7-2.2,8.6-3.3l-1.1,3.1c-2.1,5.8-3.8,11.7-5.7,17.5
		c-1.9,5.8-3.6,11.7-5.2,17.7c-1.8,5.9-3.3,11.9-4.7,17.8c-1.5,6-2.8,12-4,18c-1.3,6-2.3,12.1-3.3,18.2c-1.1,6.1-1.6,12.3-2.5,18.4
		c-0.6,6.2-1.1,12.4-1.4,18.6c-0.2,6.2-0.4,12.5-0.1,18.7c0,3.1,0.2,6.3,0.5,9.4c0.3,3.1,0.4,6.3,0.8,9.4c0.7,6.3,1.8,12.5,3.1,18.7
		l2.3,9.2c1,3,1.9,6.1,2.9,9.1c4.4,12,10.4,23.7,18.6,33.8c4.1,5.1,8.7,9.9,13.8,14.1c2.6,2.1,5.2,4.1,8.1,5.9
		c3,1.8,5.6,3.4,9.5,4.9l1,0.4l1.4,0c14.4,0.1,28.9,0.2,43.3,0.1c14.4-0.1,28.9-0.4,43.3-0.6l3.6-0.1l1.9-2.7l21-30l20.2,30.2
		l5.1,7.6l3.9-8l6.1-12.4l5.8,9.3l3.8,6l3.8-5.9l12.2-19l7.9,8.5l4.2,4.5l2.1-5.7l7.5-20.4l21.6,33.9l1.8,2.8l2.1-2.5l18.5-21.7
		L1859,266.9z"/>
	<text transform="matrix(1 0 0 1 1856.7391 420.8807)" class="st9 st3 st10">®</text>
</g>
</svg>
