<?xml version="1.0" encoding="utf-8"?>
<!-- Generator: Adobe Illustrator 22.0.0, SVG Export Plug-In . SVG Version: 6.00 Build 0)  -->
<svg version="1.1" id="Capa_1" xmlns="http://www.w3.org/2000/svg" xmlns:xlink="http://www.w3.org/1999/xlink" x="0px" y="0px"
	 viewBox="0 0 1920 676" style="enable-background:new 0 0 1920 676;" xml:space="preserve">
<style type="text/css">
	.st0{fill:#303029;}
	.st1{fill:#FBFCFC;}
	.st2{fill:#B70B14;}
	.st3{font-family:'Calibri-Light';}
	.st4{font-size:106.4906px;}
</style>
<g>
	<g>
		<path class="st0" d="M229.7,480.3c25.3,0,44.5,5.7,57.6,17.2c13.1,11.5,19.7,28.8,19.7,52c0,12.9-1.6,24.5-4.9,34.8
			c-3.3,10.3-8.5,19.1-15.7,26.1c-7.2,7.1-16.4,12.5-27.6,16.3c-11.2,3.8-24.6,5.7-40.2,5.7H26.7l41-65.1h155.8
			c7.6,0,13.1-1.4,16.6-4.4c3.5-2.9,5.2-7.6,5.2-14.2c0-6.6-1.7-11.2-5.2-14c-3.5-2.8-9-4.2-16.6-4.2H111.4
			c-13.3,0-24.8-1.8-34.5-5.3c-9.7-3.5-17.7-8.5-24-14.8c-6.4-6.3-11.1-13.9-14.2-22.9c-3.1-9-4.6-18.9-4.6-29.7
			c0-11.9,1.7-22.6,5.1-32.3c3.4-9.7,8.6-18,15.7-24.8C62,394,71.1,388.7,82.3,385c11.2-3.8,24.6-5.7,40.2-5.7h178.9l-41,65.8H117.6
			c-7.4,0-12.9,1.3-16.5,3.8c-3.6,2.5-5.4,7.1-5.4,13.6c0,6.6,1.8,11.2,5.4,13.8c3.6,2.6,9.1,4,16.5,4H229.7z"/>
		<path class="st0" d="M585.4,632.4H522v-97.6H399.4v97.6h-64.1V379.3h64.1V469H522v-89.7h63.4V632.4z"/>
		<path class="st0" d="M711.7,632.4l38.5-65.1h51.7c6.2,0,12.6,0,19.2,0c6.7,0,12.5,0.3,17.4,0.8c-2.9-4.5-6.2-10.3-10-17.2
			c-3.8-6.9-7.4-13.4-10.9-19.5l-37-67l-96.7,168h-75.5l132.1-228.9c4.3-7.3,9.7-13.9,16.3-19.7c6.6-5.8,14.9-8.7,24.9-8.7
			c9.6,0,17.7,2.7,24.2,8.1c6.5,5.4,12,12.2,16.5,20.2l128.7,228.9H711.7z"/>
		<path class="st0" d="M1266.3,632.4H1181l-45.9-67h-97.9v67h-63.7V503h179.2c9.9,0,18.2-2.5,24.9-7.6c6.8-5,10.2-12,10.2-20.8
			c0-9.8-3.1-17.2-9.2-22.1c-6.2-4.9-14.8-7.4-25.9-7.4H973.4l41.6-65.8h132.4c11.7,0,23.8,1.3,36.3,4c12.5,2.7,23.9,7.4,34.2,14.2
			c10.3,6.8,18.7,16,25.4,27.6c6.7,11.6,10,26.5,10,44.6c0,9.8-1.2,19.2-3.7,28c-2.5,8.8-6,16.8-10.6,23.8
			c-4.6,7.1-10.3,13.1-16.9,18c-6.7,4.9-14.2,8.4-22.6,10.4c3.5,3.3,7.4,7.4,11.7,12.5c4.3,5.1,10.1,12,17.2,20.8L1266.3,632.4z"/>
		<path class="st0" d="M1549,632.4h-96.4l-62.2-66.6c-10.7-11.3-18.8-20.2-24.5-26.5c-5.6-6.3-10.2-11.6-13.7-15.9
			c0.2,5.8,0.4,11.8,0.6,18c0.2,6.2,0.3,12.3,0.3,18.3v72.6h-64.1V379.3h64.1v58.6c0,7.8-0.1,15.5-0.3,23.1
			c-0.2,7.6-0.5,14.6-0.9,21.2c4.1-4.5,9.1-10.1,14.9-16.8c5.8-6.7,13.5-14.8,22.9-24.4l59.4-61.7h92.4l-78.8,72.6
			c-6.8,6.3-12.8,11.9-18,16.6c-5.2,4.8-9.9,9-14,12.5c-4.1,3.5-7.9,6.7-11.2,9.5c-3.4,2.8-6.7,5.4-10,7.9
			c5.9,5,13.1,11.3,21.6,18.9c8.4,7.6,19.3,18,32.6,31.4L1549,632.4z"/>
		<path class="st0" d="M1760.9,480.3c25.3,0,44.4,5.7,57.6,17.2c13.1,11.5,19.7,28.8,19.7,52c0,12.9-1.6,24.5-4.9,34.8
			c-3.3,10.3-8.5,19.1-15.7,26.1c-7.2,7.1-16.4,12.5-27.6,16.3c-11.2,3.8-24.6,5.7-40.2,5.7h-191.9l41-65.1h155.8
			c7.6,0,13.1-1.4,16.6-4.4c3.5-2.9,5.2-7.6,5.2-14.2c0-6.6-1.7-11.2-5.2-14c-3.5-2.8-9-4.2-16.6-4.2h-112.1
			c-13.3,0-24.8-1.8-34.5-5.3c-9.7-3.5-17.7-8.5-24-14.8c-6.4-6.3-11.1-13.9-14.2-22.9c-3.1-9-4.6-18.9-4.6-29.7
			c0-11.9,1.7-22.6,5.1-32.3c3.4-9.7,8.6-18,15.7-24.8c7.1-6.8,16.2-12.1,27.4-15.9c11.2-3.8,24.6-5.7,40.2-5.7h178.9l-41,65.8
			h-142.9c-7.4,0-12.9,1.3-16.5,3.8c-3.6,2.5-5.4,7.1-5.4,13.6c0,6.6,1.8,11.2,5.4,13.8c3.6,2.6,9.1,4,16.5,4H1760.9z"/>
	</g>
	<g>
		<path class="st1" d="M229.7,480.3c25.3,0,44.5,5.7,57.6,17.2c13.1,11.5,19.7,28.8,19.7,52c0,12.9-1.6,24.5-4.9,34.8
			c-3.3,10.3-8.5,19.1-15.7,26.1c-7.2,7.1-16.4,12.5-27.6,16.3c-11.2,3.8-24.6,5.7-40.2,5.7H26.7l41-65.1h155.8
			c7.6,0,13.1-1.4,16.6-4.4c3.5-2.9,5.2-7.6,5.2-14.2c0-6.6-1.7-11.2-5.2-14c-3.5-2.8-9-4.2-16.6-4.2H111.4
			c-13.3,0-24.8-1.8-34.5-5.3c-9.7-3.5-17.7-8.5-24-14.8c-6.4-6.3-11.1-13.9-14.2-22.9c-3.1-9-4.6-18.9-4.6-29.7
			c0-11.9,1.7-22.6,5.1-32.3c3.4-9.7,8.6-18,15.7-24.8C62,394,71.1,388.7,82.3,385c11.2-3.8,24.6-5.7,40.2-5.7h178.9l-41,65.8H117.6
			c-7.4,0-12.9,1.3-16.5,3.8c-3.6,2.5-5.4,7.1-5.4,13.6c0,6.6,1.8,11.2,5.4,13.8c3.6,2.6,9.1,4,16.5,4H229.7z"/>
		<path class="st1" d="M585.4,632.4H522v-97.6H399.4v97.6h-64.1V379.3h64.1V469H522v-89.7h63.4V632.4z"/>
		<path class="st1" d="M711.7,632.4l38.5-65.1h51.7c6.2,0,12.6,0,19.2,0c6.7,0,12.5,0.3,17.4,0.8c-2.9-4.5-6.2-10.3-10-17.2
			c-3.8-6.9-7.4-13.4-10.9-19.5l-37-67l-96.7,168h-75.5l132.1-228.9c4.3-7.3,9.7-13.9,16.3-19.7c6.6-5.8,14.9-8.7,24.9-8.7
			c9.6,0,17.7,2.7,24.2,8.1c6.5,5.4,12,12.2,16.5,20.2l128.7,228.9H711.7z"/>
		<path class="st1" d="M1266.3,632.4H1181l-45.9-67h-97.9v67h-63.7V503h179.2c9.9,0,18.2-2.5,24.9-7.6c6.8-5,10.2-12,10.2-20.8
			c0-9.8-3.1-17.2-9.2-22.1c-6.2-4.9-14.8-7.4-25.9-7.4H973.4l41.6-65.8h132.4c11.7,0,23.8,1.3,36.3,4c12.5,2.7,23.9,7.4,34.2,14.2
			c10.3,6.8,18.7,16,25.4,27.6c6.7,11.6,10,26.5,10,44.6c0,9.8-1.2,19.2-3.7,28c-2.5,8.8-6,16.8-10.6,23.8
			c-4.6,7.1-10.3,13.1-16.9,18c-6.7,4.9-14.2,8.4-22.6,10.4c3.5,3.3,7.4,7.4,11.7,12.5c4.3,5.1,10.1,12,17.2,20.8L1266.3,632.4z"/>
		<path class="st1" d="M1549,632.4h-96.4l-62.2-66.6c-10.7-11.3-18.8-20.2-24.5-26.5c-5.6-6.3-10.2-11.6-13.7-15.9
			c0.2,5.8,0.4,11.8,0.6,18c0.2,6.2,0.3,12.3,0.3,18.3v72.6h-64.1V379.3h64.1v58.6c0,7.8-0.1,15.5-0.3,23.1
			c-0.2,7.6-0.5,14.6-0.9,21.2c4.1-4.5,9.1-10.1,14.9-16.8c5.8-6.7,13.5-14.8,22.9-24.4l59.4-61.7h92.4l-78.8,72.6
			c-6.8,6.3-12.8,11.9-18,16.6c-5.2,4.8-9.9,9-14,12.5c-4.1,3.5-7.9,6.7-11.2,9.5c-3.4,2.8-6.7,5.4-10,7.9
			c5.9,5,13.1,11.3,21.6,18.9c8.4,7.6,19.3,18,32.6,31.4L1549,632.4z"/>
		<path class="st1" d="M1760.9,480.3c25.3,0,44.4,5.7,57.6,17.2c13.1,11.5,19.7,28.8,19.7,52c0,12.9-1.6,24.5-4.9,34.8
			c-3.3,10.3-8.5,19.1-15.7,26.1c-7.2,7.1-16.4,12.5-27.6,16.3c-11.2,3.8-24.6,5.7-40.2,5.7h-191.9l41-65.1h155.8
			c7.6,0,13.1-1.4,16.6-4.4c3.5-2.9,5.2-7.6,5.2-14.2c0-6.6-1.7-11.2-5.2-14c-3.5-2.8-9-4.2-16.6-4.2h-112.1
			c-13.3,0-24.8-1.8-34.5-5.3c-9.7-3.5-17.7-8.5-24-14.8c-6.4-6.3-11.1-13.9-14.2-22.9c-3.1-9-4.6-18.9-4.6-29.7
			c0-11.9,1.7-22.6,5.1-32.3c3.4-9.7,8.6-18,15.7-24.8c7.1-6.8,16.2-12.1,27.4-15.9c11.2-3.8,24.6-5.7,40.2-5.7h178.9l-41,65.8
			h-142.9c-7.4,0-12.9,1.3-16.5,3.8c-3.6,2.5-5.4,7.1-5.4,13.6c0,6.6,1.8,11.2,5.4,13.8c3.6,2.6,9.1,4,16.5,4H1760.9z"/>
	</g>
</g>
<g>
	<g>
		<path class="st1" d="M135.1,359.6c-1.7,0-3.3-0.3-5-1c-1.6-0.7-3.5-2.2-5.5-4.6l-51.7-57v60.9H49.1v-86c0-3.4,0.4-6.4,1.2-8.8
			c0.8-2.5,1.9-4.5,3.2-6c1.3-1.5,2.8-2.7,4.5-3.4c1.7-0.7,3.5-1.1,5.4-1.1c1.6,0,3.2,0.3,4.9,1c1.6,0.7,3.5,2.2,5.6,4.6l51.7,57
			v-60.9h23.8v85.9c0,3.4-0.4,6.4-1.2,8.8c-0.8,2.5-1.9,4.5-3.2,6.1c-1.3,1.6-2.8,2.8-4.6,3.5C138.7,359.3,136.9,359.6,135.1,359.6z
			"/>
		<path class="st1" d="M223.9,252.5c20.5,0,35.9,4.3,46.2,12.9c10.3,8.6,15.5,22.1,15.5,40.6c0,18.6-5.1,32.2-15.4,40.8
			c-10.3,8.6-25.7,12.9-46.3,12.9c-20.7,0-36.2-4.3-46.4-12.9c-10.2-8.6-15.3-22.2-15.3-40.8c0-18.5,5.1-32,15.4-40.6
			C187.8,256.8,203.3,252.5,223.9,252.5z M223.9,332.7c6.6,0,12.1-0.3,16.7-1c4.5-0.7,8.2-2,11-3.9c2.8-2,4.9-4.7,6.1-8.1
			c1.3-3.5,1.9-8,1.9-13.6c0-5.6-0.6-10.1-1.9-13.6c-1.3-3.5-3.3-6.1-6.1-8.1c-2.8-1.9-6.5-3.2-11-3.9c-4.5-0.7-10.1-1-16.7-1
			c-6.6,0-12.1,0.3-16.7,1c-4.5,0.7-8.2,2-11,3.9c-2.8,1.9-4.9,4.6-6.1,8.1c-1.3,3.5-1.9,8-1.9,13.6c0,5.6,0.6,10.1,1.9,13.6
			c1.3,3.5,3.3,6.2,6.1,8.1c2.8,2,6.5,3.3,11,3.9C211.8,332.3,217.3,332.7,223.9,332.7z"/>
		<path class="st1" d="M325.3,357.9h-26.1V254.2h26.1V357.9z"/>
		<path class="st1" d="M419.8,295.6c10.3,0,18.2,2.4,23.6,7.1c5.4,4.7,8.1,11.8,8.1,21.3c0,5.3-0.7,10-2,14.3
			c-1.3,4.2-3.5,7.8-6.4,10.7c-2.9,2.9-6.7,5.1-11.3,6.7c-4.6,1.5-10.1,2.3-16.5,2.3h-78.6l16.8-26.7h63.8c3.1,0,5.4-0.6,6.8-1.8
			c1.4-1.2,2.1-3.1,2.1-5.8c0-2.7-0.7-4.6-2.1-5.7c-1.4-1.1-3.7-1.7-6.8-1.7h-45.9c-5.5,0-10.2-0.7-14.1-2.2c-4-1.4-7.2-3.5-9.8-6
			c-2.6-2.6-4.5-5.7-5.8-9.4c-1.3-3.7-1.9-7.7-1.9-12.2c0-4.9,0.7-9.3,2.1-13.3c1.4-4,3.5-7.4,6.4-10.2c2.9-2.8,6.6-5,11.2-6.5
			c4.6-1.5,10.1-2.3,16.5-2.3h73.3l-16.8,27h-58.5c-3,0-5.3,0.5-6.8,1.5c-1.5,1-2.2,2.9-2.2,5.6c0,2.7,0.7,4.6,2.2,5.7
			c1.5,1.1,3.7,1.6,6.8,1.6H419.8z"/>
		<path class="st1" d="M561.1,331.3l-16.8,26.7h-81.3V254.2h97.8l-16.9,27h-54.6v12.4h66.9l-15,23.6h-51.9v14.1H561.1z"/>
	</g>
</g>
<path class="st2" d="M1832.2,301.6l-91-1.9l-0.8,0l-0.6,0.7l-17.2,18.8l-21.7-36.8l-3.2-5.5l-2.4,6l-8.1,20l-6.9-8l-3.3-3.8
	l-2.9,4.2l-11.4,16.6l-6.3-10.8l-4.2-7.3l-4,7.6L1642,313l-18.7-30.2l-4.5-7.2l-5.2,6.9l-24.5,32.7c-13.1-0.2-26.2-0.5-39.2-0.6
	c-13.7-0.1-27.4,0-41.1,0.1c-1.6-0.7-3.8-1.9-5.5-3c-2.3-1.4-4.4-3-6.5-4.7c-4.2-3.4-8-7.3-11.4-11.6c-6.9-8.6-12.1-18.6-15.9-29.1
	c-0.9-2.6-1.7-5.4-2.6-8l-2.1-8.2c-1.1-5.6-2.1-11.2-2.8-16.9c-0.4-2.8-0.5-5.7-0.8-8.6c-0.2-2.9-0.4-5.7-0.4-8.6
	c-0.2-5.8-0.1-11.5,0.1-17.3c0.2-5.8,0.8-11.6,1.3-17.4c0.8-5.8,1.2-11.6,2.3-17.3c0.9-5.8,1.8-11.5,3.1-17.2
	c1.1-5.7,2.4-11.5,3.8-17.1c1.4-5.7,2.8-11.4,4.5-17c1.6-5.6,3.1-11.3,5-16.9c1.8-5.6,3.5-11.2,5.5-16.8l5.9-16.7l4.7-13.3l-13.3,4
	c-8.2,2.5-15.7,5.3-23.3,8.4c-7.6,3.1-15,6.3-22.4,9.8c-7.4,3.5-14.6,7.2-21.8,11c-7.2,3.9-14.2,8-21.2,12.2l-10.3,6.5l-10.1,6.8
	c-6.7,4.7-13.3,9.4-19.7,14.4c-3.3,2.4-6.4,5-9.5,7.6c-3.2,2.6-6.3,5.2-9.3,7.9c-6.2,5.3-12.1,10.9-18,16.6
	c-5.7,5.8-11.5,11.6-16.9,17.7c-5.6,6-10.6,12.4-15.9,18.6c-4.9,6.5-10,12.9-14.5,19.7c-4.8,6.6-9,13.6-13.3,20.6
	c-2.2,3.4-4,7.1-6.1,10.6c-1.9,3.6-4.1,7.1-5.8,10.8c-3.6,7.3-7.3,14.6-10.4,22.2c-3.4,7.4-6.2,15.1-9,22.8c-2.2,6-4,12.1-5.9,18.2
	h-135.7l-98.9-175L972.3,117l0,26.9l0.1,202L849.1,148.4l-13.1-21l0,24.8l0.4,204.5l-44.1-60.9l-5-6.9l-5.8,6.2
	c-11.4,12-23.2,23.8-34.5,35.9l-35-61.4l-4.9-8.7l-3.9,8.9l-21.9,49.7l-10.2-18.8l-0.8-1.5l-1.6,0l-96.9,2.7l95.2,2.7l11.7,24.2
	l3,6.2l3.2-6.3l22.9-45.8l31.9,63l4.2,8.3l6.9-6.8c12.1-11.8,23.5-24.3,35.2-36.5l52,71.8l12.8,17.8l0-21.9L850.2,177l123.2,197.4
	l13.1,21l0-24.7l-0.1-199.8l87.7,155.1l2,3.6h4.1h145h5.1l1.7-5.1c2.4-7.5,4.5-15.1,7.3-22.4c2.7-7.4,5.4-14.8,8.7-21.9
	c3-7.3,6.5-14.3,10-21.3c1.6-3.6,3.7-6.9,5.6-10.4c2-3.4,3.7-6.9,5.8-10.2c4.1-6.7,8.2-13.4,12.8-19.8c4.3-6.6,9.3-12.7,14-19
	c5-6,9.9-12.2,15.3-18c5.2-5.9,10.8-11.5,16.3-17.1c5.7-5.4,11.4-10.9,17.4-16c2.9-2.6,6-5.1,9-7.6c3-2.5,6.1-5,9.2-7.4
	c6.2-4.9,12.6-9.5,19.1-14l9.8-6.6l10-6.3c6.8-4.1,13.6-8,20.5-11.8c7-3.7,14-7.3,21.1-10.7c7.1-3.4,14.3-6.5,21.6-9.5
	c2.8-1.1,5.6-2.2,8.4-3.2l-1.1,3.1c-2.1,5.6-3.7,11.4-5.6,17.1c-1.9,5.7-3.5,11.5-5.1,17.3c-1.7,5.8-3.2,11.6-4.6,17.5
	c-1.5,5.8-2.8,11.7-4,17.7c-1.3,5.9-2.3,11.9-3.2,17.9c-1.1,6-1.6,12-2.4,18c-0.6,6.1-1.1,12.1-1.3,18.2c-0.2,6.1-0.4,12.2-0.1,18.3
	c0,3.1,0.2,6.1,0.5,9.2c0.3,3.1,0.4,6.1,0.8,9.2c0.7,6.1,1.7,12.2,3,18.3l2.3,9.1c1,3,1.8,6,2.9,8.9c4.3,11.8,10.2,23.2,18.2,33.2
	c4,5,8.5,9.7,13.5,13.8c2.5,2,5.1,4,8,5.7c2.9,1.8,5.4,3.3,9.3,4.8l1,0.4l1.4,0c14.2,0.1,28.3,0.2,42.5,0.1
	c14.2-0.1,28.3-0.4,42.5-0.6l3.5-0.1l1.9-2.7l20.5-29.4l19.8,29.6l5,7.4l3.9-7.9l6-12.2l5.7,9.1l3.7,5.9l3.7-5.8l11.9-18.6l7.7,8.3
	l4.1,4.4l2-5.6l7.3-20l21.2,33.3l1.8,2.8l2.1-2.4l18.1-21.3L1832.2,301.6z"/>
<text transform="matrix(1 0 0 1 1830.0273 452.6055)" class="st1 st3 st4">®</text>
</svg>
