<?xml version="1.0" encoding="utf-8"?>
<!-- Generator: Adobe Illustrator 22.0.0, SVG Export Plug-In . SVG Version: 6.00 Build 0)  -->
<svg version="1.1" xmlns="http://www.w3.org/2000/svg" xmlns:xlink="http://www.w3.org/1999/xlink" x="0px" y="0px"
	 viewBox="0 0 1920 622" style="enable-background:new 0 0 1920 622;" xml:space="preserve">
<style type="text/css">
	.st0{display:none;}
	.st1{display:inline;}
	.st2{fill:none;stroke:#B70B14;stroke-width:5;}
	.st3{fill:#303029;}
	.st4{fill:#B70B14;}
	.st5{font-family:'Calibri-Light';}
	.st6{font-size:108.4758px;}
	.st7{fill:#FBFCFC;}
	.st8{display:inline;fill:#B70B14;}
	.st9{display:inline;fill:#FBFCFC;}
	.st10{font-size:108.6402px;}
	.st11{font-size:108.7844px;}
	.st12{fill:#ECE984;}
	.st13{font-size:109.5229px;}
</style>
<g id="Capa_1" class="st0">
	<g id="Capa_1_1_" class="st1">
		<g>
			<g>
				<path class="st2" d="M220.5,453.9c25.7,0,45.3,5.8,58.7,17.5c13.4,11.7,20.1,29.4,20.1,53c0,13.1-1.7,24.9-5,35.5
					c-3.4,10.5-8.7,19.4-16,26.6c-7.3,7.2-16.7,12.7-28.1,16.6c-11.4,3.9-25,5.8-40.9,5.8H13.8l41.7-66.3h158.7
					c7.7,0,13.4-1.5,16.9-4.4c3.6-2.9,5.3-7.8,5.3-14.4c0-6.7-1.8-11.4-5.3-14.3c-3.6-2.8-9.2-4.2-16.9-4.2H100.1
					c-13.6,0-25.3-1.8-35.1-5.4s-18-8.6-24.5-15s-11.3-14.2-14.4-23.3c-3.1-9.1-4.7-19.2-4.7-30.3c0-12.1,1.7-23.1,5.2-33
					s8.8-18.3,16-25.2c7.2-6.9,16.5-12.3,27.9-16.2c11.4-3.9,25-5.8,40.9-5.8h182.3L252,418.2H106.4c-7.5,0-13.1,1.3-16.8,3.9
					s-5.5,7.2-5.5,13.9c0,6.7,1.8,11.4,5.5,14.1s9.3,4,16.8,4h114.1V453.9z"/>
				<path class="st2" d="M582.9,608.8h-64.6v-99.4H393.4v99.4h-65.3V351h65.3v91.3h124.9V351h64.6L582.9,608.8L582.9,608.8z"/>
				<path class="st2" d="M711.5,608.8l39.2-66.3h52.7c6.3,0,12.8,0,19.6,0s12.7,0.3,17.7,0.8c-2.9-4.6-6.3-10.5-10.2-17.5
					c-3.9-7.1-7.6-13.7-11.1-19.9l-37.6-68.2l-98.5,171.1h-76.9L741,375.7c4.4-7.4,9.9-14.1,16.6-20c6.7-5.9,15.2-8.9,25.4-8.9
					c9.8,0,18,2.8,24.6,8.3s12.2,12.4,16.8,20.6l131.1,233.2h-244V608.8z"/>
				<path class="st2" d="M1276.5,608.8h-86.9l-46.7-68.2h-99.8v68.2h-64.9V477h182.6c10,0,18.5-2.6,25.4-7.7s10.4-12.2,10.4-21.2
					c0-10-3.1-17.5-9.4-22.5s-15.1-7.5-26.4-7.5H978.1l42.3-67.1h134.9c11.9,0,24.3,1.3,37,4c12.8,2.7,24.4,7.5,34.8,14.5
					c10.5,6.9,19.1,16.3,25.9,28.1c6.8,11.8,10.2,27,10.2,45.5c0,10-1.3,19.5-3.8,28.5s-6.1,17.1-10.8,24.3
					c-4.7,7.2-10.5,13.3-17.2,18.3c-6.8,5-14.5,8.5-23.1,10.6c3.6,3.3,7.5,7.6,11.9,12.7c4.4,5.1,10.2,12.2,17.6,21.2L1276.5,608.8z
					"/>
				<path class="st2" d="M1564.5,608.8h-98.2l-63.4-67.8c-10.9-11.6-19.2-20.5-24.9-27c-5.8-6.4-10.4-11.8-14-16.2
					c0.2,5.9,0.4,12,0.6,18.3s0.3,12.5,0.3,18.7v74h-65.3V351h65.3v59.7c0,8-0.1,15.8-0.3,23.5c-0.2,7.7-0.5,14.9-0.9,21.6
					c4.2-4.6,9.3-10.3,15.2-17.1c6-6.8,13.8-15.1,23.4-24.9l60.5-62.8h94.1l-80.3,74c-6.9,6.4-13,12.1-18.3,16.9
					c-5.3,4.9-10.1,9.1-14.3,12.7c-4.2,3.6-8,6.8-11.5,9.6c-3.4,2.8-6.8,5.5-10.2,8.1c6.1,5.1,13.4,11.6,22,19.3
					c8.6,7.7,19.7,18.4,33.2,32L1564.5,608.8z"/>
				<path class="st2" d="M1780.3,453.9c25.7,0,45.3,5.8,58.7,17.5c13.4,11.7,20.1,29.4,20.1,53c0,13.1-1.7,24.9-5,35.5
					c-3.3,10.5-8.7,19.4-16,26.6c-7.3,7.2-16.7,12.7-28.1,16.6c-11.4,3.9-25.1,5.8-40.9,5.8h-195.4l41.7-66.3H1774
					c7.7,0,13.4-1.5,16.9-4.4c3.6-2.9,5.3-7.8,5.3-14.4c0-6.7-1.8-11.4-5.3-14.3c-3.6-2.8-9.2-4.2-16.9-4.2h-114.2
					c-13.6,0-25.3-1.8-35.1-5.4c-9.8-3.6-18-8.6-24.5-15s-11.3-14.2-14.4-23.3c-3.1-9.1-4.7-19.2-4.7-30.3c0-12.1,1.7-23.1,5.2-33
					c3.4-9.9,8.8-18.3,16-25.2c7.2-6.9,16.5-12.3,27.9-16.2c11.4-3.9,25-5.8,40.9-5.8h182.3l-41.7,67.1h-145.6
					c-7.5,0-13.1,1.3-16.8,3.9c-3.7,2.6-5.5,7.2-5.5,13.9c0,6.7,1.8,11.4,5.5,14.1s9.2,4,16.8,4h114.2L1780.3,453.9L1780.3,453.9z"
					/>
			</g>
			<g>
				<path class="st3" d="M220.5,453.9c25.7,0,45.3,5.8,58.7,17.5c13.4,11.7,20.1,29.4,20.1,53c0,13.1-1.7,24.9-5,35.5
					c-3.4,10.5-8.7,19.4-16,26.6c-7.3,7.2-16.7,12.7-28.1,16.6c-11.4,3.9-25,5.8-40.9,5.8H13.8l41.7-66.3h158.7
					c7.7,0,13.4-1.5,16.9-4.4c3.6-2.9,5.3-7.8,5.3-14.4c0-6.7-1.8-11.4-5.3-14.3c-3.6-2.8-9.2-4.2-16.9-4.2H100.1
					c-13.6,0-25.3-1.8-35.1-5.4s-18-8.6-24.5-15s-11.3-14.2-14.4-23.3c-3.1-9.1-4.7-19.2-4.7-30.3c0-12.1,1.7-23.1,5.2-33
					s8.8-18.3,16-25.2c7.2-6.9,16.5-12.3,27.9-16.2c11.4-3.9,25-5.8,40.9-5.8h182.3L252,418.2H106.4c-7.5,0-13.1,1.3-16.8,3.9
					s-5.5,7.2-5.5,13.9c0,6.7,1.8,11.4,5.5,14.1s9.3,4,16.8,4h114.1V453.9z"/>
				<path class="st3" d="M582.9,608.8h-64.6v-99.4H393.4v99.4h-65.3V351h65.3v91.3h124.9V351h64.6L582.9,608.8L582.9,608.8z"/>
				<path class="st3" d="M711.5,608.8l39.2-66.3h52.7c6.3,0,12.8,0,19.6,0s12.7,0.3,17.7,0.8c-2.9-4.6-6.3-10.5-10.2-17.5
					c-3.9-7.1-7.6-13.7-11.1-19.9l-37.6-68.2l-98.5,171.1h-76.9L741,375.7c4.4-7.4,9.9-14.1,16.6-20c6.7-5.9,15.2-8.9,25.4-8.9
					c9.8,0,18,2.8,24.6,8.3s12.2,12.4,16.8,20.6l131.1,233.2h-244V608.8z"/>
				<path class="st3" d="M1276.5,608.8h-86.9l-46.7-68.2h-99.8v68.2h-64.9V477h182.6c10,0,18.5-2.6,25.4-7.7s10.4-12.2,10.4-21.2
					c0-10-3.1-17.5-9.4-22.5s-15.1-7.5-26.4-7.5H978.1l42.3-67.1h134.9c11.9,0,24.3,1.3,37,4c12.8,2.7,24.4,7.5,34.8,14.5
					c10.5,6.9,19.1,16.3,25.9,28.1c6.8,11.8,10.2,27,10.2,45.5c0,10-1.3,19.5-3.8,28.5s-6.1,17.1-10.8,24.3
					c-4.7,7.2-10.5,13.3-17.2,18.3c-6.8,5-14.5,8.5-23.1,10.6c3.6,3.3,7.5,7.6,11.9,12.7c4.4,5.1,10.2,12.2,17.6,21.2L1276.5,608.8z
					"/>
				<path class="st3" d="M1564.5,608.8h-98.2l-63.4-67.8c-10.9-11.6-19.2-20.5-24.9-27c-5.8-6.4-10.4-11.8-14-16.2
					c0.2,5.9,0.4,12,0.6,18.3s0.3,12.5,0.3,18.7v74h-65.3V351h65.3v59.7c0,8-0.1,15.8-0.3,23.5c-0.2,7.7-0.5,14.9-0.9,21.6
					c4.2-4.6,9.3-10.3,15.2-17.1c6-6.8,13.8-15.1,23.4-24.9l60.5-62.8h94.1l-80.3,74c-6.9,6.4-13,12.1-18.3,16.9
					c-5.3,4.9-10.1,9.1-14.3,12.7c-4.2,3.6-8,6.8-11.5,9.6c-3.4,2.8-6.8,5.5-10.2,8.1c6.1,5.1,13.4,11.6,22,19.3
					c8.6,7.7,19.7,18.4,33.2,32L1564.5,608.8z"/>
				<path class="st3" d="M1780.3,453.9c25.7,0,45.3,5.8,58.7,17.5c13.4,11.7,20.1,29.4,20.1,53c0,13.1-1.7,24.9-5,35.5
					c-3.3,10.5-8.7,19.4-16,26.6c-7.3,7.2-16.7,12.7-28.1,16.6c-11.4,3.9-25.1,5.8-40.9,5.8h-195.4l41.7-66.3H1774
					c7.7,0,13.4-1.5,16.9-4.4c3.6-2.9,5.3-7.8,5.3-14.4c0-6.7-1.8-11.4-5.3-14.3c-3.6-2.8-9.2-4.2-16.9-4.2h-114.2
					c-13.6,0-25.3-1.8-35.1-5.4c-9.8-3.6-18-8.6-24.5-15s-11.3-14.2-14.4-23.3c-3.1-9.1-4.7-19.2-4.7-30.3c0-12.1,1.7-23.1,5.2-33
					c3.4-9.9,8.8-18.3,16-25.2c7.2-6.9,16.5-12.3,27.9-16.2c11.4-3.9,25-5.8,40.9-5.8h182.3l-41.7,67.1h-145.6
					c-7.5,0-13.1,1.3-16.8,3.9c-3.7,2.6-5.5,7.2-5.5,13.9c0,6.7,1.8,11.4,5.5,14.1s9.2,4,16.8,4h114.2L1780.3,453.9L1780.3,453.9z"
					/>
			</g>
			<g>
				<path class="st3" d="M220.5,453.9c25.7,0,45.3,5.8,58.7,17.5c13.4,11.7,20.1,29.4,20.1,53c0,13.1-1.7,24.9-5,35.5
					c-3.4,10.5-8.7,19.4-16,26.6c-7.3,7.2-16.7,12.7-28.1,16.6c-11.4,3.9-25,5.8-40.9,5.8H13.8l41.7-66.3h158.7
					c7.7,0,13.4-1.5,16.9-4.4c3.6-2.9,5.3-7.8,5.3-14.4c0-6.7-1.8-11.4-5.3-14.3c-3.6-2.8-9.2-4.2-16.9-4.2H100.1
					c-13.6,0-25.3-1.8-35.1-5.4s-18-8.6-24.5-15s-11.3-14.2-14.4-23.3c-3.1-9.1-4.7-19.2-4.7-30.3c0-12.1,1.7-23.1,5.2-33
					s8.8-18.3,16-25.2c7.2-6.9,16.5-12.3,27.9-16.2c11.4-3.9,25-5.8,40.9-5.8h182.3L252,418.2H106.4c-7.5,0-13.1,1.3-16.8,3.9
					s-5.5,7.2-5.5,13.9c0,6.7,1.8,11.4,5.5,14.1s9.3,4,16.8,4h114.1V453.9z"/>
				<path class="st3" d="M582.9,608.8h-64.6v-99.4H393.4v99.4h-65.3V351h65.3v91.3h124.9V351h64.6L582.9,608.8L582.9,608.8z"/>
				<path class="st3" d="M711.5,608.8l39.2-66.3h52.7c6.3,0,12.8,0,19.6,0s12.7,0.3,17.7,0.8c-2.9-4.6-6.3-10.5-10.2-17.5
					c-3.9-7.1-7.6-13.7-11.1-19.9l-37.6-68.2l-98.5,171.1h-76.9L741,375.7c4.4-7.4,9.9-14.1,16.6-20c6.7-5.9,15.2-8.9,25.4-8.9
					c9.8,0,18,2.8,24.6,8.3s12.2,12.4,16.8,20.6l131.1,233.2h-244V608.8z"/>
				<path class="st3" d="M1276.5,608.8h-86.9l-46.7-68.2h-99.8v68.2h-64.9V477h182.6c10,0,18.5-2.6,25.4-7.7s10.4-12.2,10.4-21.2
					c0-10-3.1-17.5-9.4-22.5s-15.1-7.5-26.4-7.5H978.1l42.3-67.1h134.9c11.9,0,24.3,1.3,37,4c12.8,2.7,24.4,7.5,34.8,14.5
					c10.5,6.9,19.1,16.3,25.9,28.1c6.8,11.8,10.2,27,10.2,45.5c0,10-1.3,19.5-3.8,28.5s-6.1,17.1-10.8,24.3
					c-4.7,7.2-10.5,13.3-17.2,18.3c-6.8,5-14.5,8.5-23.1,10.6c3.6,3.3,7.5,7.6,11.9,12.7c4.4,5.1,10.2,12.2,17.6,21.2L1276.5,608.8z
					"/>
				<path class="st3" d="M1564.5,608.8h-98.2l-63.4-67.8c-10.9-11.6-19.2-20.5-24.9-27c-5.8-6.4-10.4-11.8-14-16.2
					c0.2,5.9,0.4,12,0.6,18.3s0.3,12.5,0.3,18.7v74h-65.3V351h65.3v59.7c0,8-0.1,15.8-0.3,23.5c-0.2,7.7-0.5,14.9-0.9,21.6
					c4.2-4.6,9.3-10.3,15.2-17.1c6-6.8,13.8-15.1,23.4-24.9l60.5-62.8h94.1l-80.3,74c-6.9,6.4-13,12.1-18.3,16.9
					c-5.3,4.9-10.1,9.1-14.3,12.7c-4.2,3.6-8,6.8-11.5,9.6c-3.4,2.8-6.8,5.5-10.2,8.1c6.1,5.1,13.4,11.6,22,19.3
					c8.6,7.7,19.7,18.4,33.2,32L1564.5,608.8z"/>
				<path class="st3" d="M1780.3,453.9c25.7,0,45.3,5.8,58.7,17.5c13.4,11.7,20.1,29.4,20.1,53c0,13.1-1.7,24.9-5,35.5
					c-3.3,10.5-8.7,19.4-16,26.6c-7.3,7.2-16.7,12.7-28.1,16.6c-11.4,3.9-25.1,5.8-40.9,5.8h-195.4l41.7-66.3H1774
					c7.7,0,13.4-1.5,16.9-4.4c3.6-2.9,5.3-7.8,5.3-14.4c0-6.7-1.8-11.4-5.3-14.3c-3.6-2.8-9.2-4.2-16.9-4.2h-114.2
					c-13.6,0-25.3-1.8-35.1-5.4c-9.8-3.6-18-8.6-24.5-15s-11.3-14.2-14.4-23.3c-3.1-9.1-4.7-19.2-4.7-30.3c0-12.1,1.7-23.1,5.2-33
					c3.4-9.9,8.8-18.3,16-25.2c7.2-6.9,16.5-12.3,27.9-16.2c11.4-3.9,25-5.8,40.9-5.8h182.3l-41.7,67.1h-145.6
					c-7.5,0-13.1,1.3-16.8,3.9c-3.7,2.6-5.5,7.2-5.5,13.9c0,6.7,1.8,11.4,5.5,14.1s9.2,4,16.8,4h114.2L1780.3,453.9L1780.3,453.9z"
					/>
			</g>
		</g>
		<g>
			<g>
				<path class="st3" d="M124.1,331c-1.7,0-3.4-0.3-5.1-1s-3.5-2.2-5.6-4.7l-52.7-58.1v62.1H36.6v-87.6c0-3.5,0.4-6.5,1.2-9
					s1.9-4.6,3.2-6.2c1.3-1.6,2.9-2.7,4.6-3.5c1.8-0.7,3.6-1.1,5.5-1.1c1.6,0,3.3,0.3,4.9,1c1.7,0.7,3.6,2.2,5.7,4.7l52.7,58.1
					v-62.1h24.3v87.5c0,3.5-0.4,6.5-1.2,9s-1.9,4.6-3.2,6.2s-2.9,2.8-4.7,3.6C127.9,330.6,126,331,124.1,331z"/>
				<path class="st3" d="M214.6,221.9c20.9,0,36.6,4.4,47.1,13.1c10.5,8.7,15.7,22.5,15.7,41.4s-5.2,32.8-15.7,41.5
					S235.5,331,214.5,331c-21.1,0-36.8-4.4-47.2-13.1s-15.6-22.6-15.6-41.5c0-18.8,5.2-32.6,15.7-41.4
					C177.9,226.2,193.6,221.9,214.6,221.9z M214.6,303.5c6.7,0,12.3-0.3,17-1c4.6-0.7,8.4-2,11.2-4c2.9-2,4.9-4.8,6.2-8.3
					s1.9-8.1,1.9-13.8c0-5.7-0.6-10.3-1.9-13.8c-1.3-3.5-3.4-6.3-6.2-8.2c-2.9-1.9-6.6-3.3-11.2-3.9c-4.6-0.7-10.3-1-17-1
					s-12.3,0.3-17,1c-4.6,0.7-8.4,2-11.3,3.9c-2.9,1.9-4.9,4.7-6.2,8.2s-1.9,8.1-1.9,13.8c0,5.7,0.6,10.3,1.9,13.8
					c1.3,3.5,3.4,6.3,6.2,8.3c2.9,2,6.6,3.3,11.3,4S207.9,303.5,214.6,303.5z"/>
				<path class="st3" d="M318,329.2h-26.6V223.6H318V329.2z"/>
				<path class="st3" d="M414.2,265.8c10.5,0,18.5,2.4,24,7.2c5.5,4.8,8.2,12,8.2,21.7c0,5.4-0.7,10.2-2.1,14.5s-3.6,7.9-6.6,10.9
					c-3,2.9-6.8,5.2-11.5,6.8c-4.7,1.6-10.3,2.4-16.8,2.4h-80.1l17.1-27.2h65c3.2,0,5.5-0.6,6.9-1.8c1.5-1.2,2.2-3.2,2.2-5.9
					c0-2.7-0.7-4.7-2.2-5.8c-1.5-1.2-3.8-1.7-6.9-1.7h-46.8c-5.6,0-10.4-0.7-14.4-2.2s-7.4-3.5-10-6.2c-2.7-2.6-4.6-5.8-5.9-9.6
					c-1.3-3.7-1.9-7.9-1.9-12.4c0-4.9,0.7-9.4,2.1-13.5s3.6-7.5,6.6-10.3s6.8-5.1,11.4-6.6c4.7-1.6,10.3-2.4,16.8-2.4H444
					l-17.1,27.5h-59.6c-3.1,0-5.4,0.5-6.9,1.6s-2.2,2.9-2.2,5.7c0,2.7,0.7,4.7,2.2,5.8c1.5,1.1,3.8,1.7,6.9,1.7h46.9L414.2,265.8
					L414.2,265.8z"/>
				<path class="st3" d="M558.2,302.1l-17.1,27.2h-82.8V223.6h99.6l-17.2,27.5H485v12.6h68.1l-15.3,24H485v14.4H558.2z"/>
			</g>
		</g>
		<path class="st4" d="M1853,271.9l-92.7-1.9h-0.8l-0.6,0.7l-17.5,19.1l-22.1-37.5l-3.3-5.6l-2.5,6.1l-8.3,20.4l-7-8.2l-3.3-3.9
			l-3,4.3l-11.7,16.9l-6.4-11l-4.3-7.4l-4.1,7.7l-6.2,11.7l-19.1-30.8l-4.5-7.3l-5.3,7.1l-25,33.3c-13.3-0.2-26.6-0.5-40-0.6
			c-13.9-0.1-27.9,0-41.8,0.1c-1.7-0.7-3.8-1.9-5.6-3c-2.3-1.4-4.5-3.1-6.7-4.7c-4.3-3.5-8.2-7.5-11.7-11.9
			c-7-8.7-12.3-18.9-16.2-29.7c-1-2.7-1.8-5.5-2.7-8.2l-2.1-8.4c-1.2-5.7-2.2-11.4-2.8-17.2c-0.5-2.9-0.5-5.8-0.8-8.7
			s-0.4-5.8-0.4-8.8c-0.2-5.9-0.1-11.8,0.1-17.6c0.2-5.9,0.8-11.8,1.3-17.7c0.8-5.9,1.3-11.8,2.4-17.6c1-5.9,1.9-11.7,3.2-17.6
			c1.2-5.8,2.4-11.7,3.9-17.5c1.4-5.8,2.8-11.6,4.5-17.3c1.6-5.8,3.2-11.5,5.1-17.2s3.5-11.4,5.6-17.1l6-17l4.8-13.6l-13.5,4.1
			c-8.4,2.5-16,5.4-23.8,8.5c-7.7,3.1-15.3,6.4-22.8,10c-7.5,3.5-14.9,7.3-22.2,11.2c-7.3,4-14.5,8.1-21.6,12.4l-10.5,6.6l-10.3,6.9
			c-6.8,4.8-13.5,9.6-20.1,14.7c-3.3,2.5-6.5,5.1-9.7,7.8c-3.2,2.6-6.4,5.3-9.5,8c-6.3,5.4-12.3,11.1-18.3,16.9
			c-5.8,5.9-11.7,11.8-17.2,18c-5.7,6.1-10.8,12.6-16.2,19c-5,6.7-10.2,13.2-14.8,20.1c-4.8,6.8-9.2,13.9-13.5,21
			c-2.3,3.5-4.1,7.2-6.2,10.8c-2,3.7-4.1,7.2-5.9,11c-3.7,7.5-7.4,14.9-10.6,22.6c-3.5,7.6-6.3,15.4-9.2,23.2
			c-2.3,6.1-4.1,12.3-6,18.5h-138.2L990.5,107.7L977,83.9v27.4l0.1,205.7L851.5,115.9l-13.4-21.4v25.3l0.4,208.3l-45-62.1l-5.1-7
			l-5.9,6.3c-11.7,12.3-23.6,24.2-35.2,36.6l-35.7-62.6l-5-8.8l-4,9.1l-22.3,50.6L670,271l-0.8-1.6h-1.6l-98.7,2.8l97,2.7l11.9,24.6
			l3.1,6.3l3.2-6.4l23.4-46.7l32.5,64.2l4.3,8.5l7.1-6.9c12.3-12.1,24-24.7,35.9-37.2l53,73.1l13.1,18.1v-22.3L853,144.8L978.2,346
			l13.3,21.4v-25.2l-0.1-203.5l89.3,158l2.1,3.7h4.2h147.7h5.2l1.7-5.2c2.5-7.6,4.6-15.4,7.4-22.9s5.5-15.1,8.8-22.3
			c3-7.4,6.6-14.6,10.2-21.7c1.7-3.6,3.8-7.1,5.7-10.6c2-3.5,3.8-7.1,6-10.4c4.2-6.8,8.4-13.7,13-20.2c4.4-6.7,9.4-12.9,14.2-19.4
			c5.1-6.1,10.1-12.5,15.6-18.3c5.3-6,11-11.7,16.6-17.4c5.8-5.5,11.6-11.1,17.7-16.3c3-2.7,6.1-5.2,9.2-7.8
			c3.1-2.5,6.2-5.1,9.4-7.5c6.3-4.9,12.8-9.6,19.4-14.2l10-6.7l10.2-6.4c6.9-4.2,13.8-8.2,20.9-12c7.1-3.8,14.2-7.5,21.5-10.9
			c7.2-3.5,14.6-6.7,22-9.7c2.8-1.1,5.7-2.2,8.6-3.3l-1.1,3.1c-2.1,5.7-3.8,11.6-5.7,17.5c-1.9,5.8-3.6,11.7-5.2,17.6
			c-1.7,5.9-3.2,11.8-4.7,17.8c-1.5,5.9-2.8,12-4,18c-1.3,6-2.3,12.1-3.3,18.2c-1.1,6.1-1.6,12.3-2.5,18.4
			c-0.6,6.2-1.1,12.3-1.4,18.6c-0.2,6.2-0.4,12.4-0.1,18.7c0,3.1,0.2,6.2,0.5,9.4c0.3,3.1,0.4,6.3,0.8,9.4
			c0.7,6.2,1.8,12.5,3.1,18.7l2.3,9.2c1,3,1.9,6.1,2.9,9.1c4.4,12,10.4,23.6,18.6,33.8c4.1,5.1,8.6,9.8,13.8,14
			c2.6,2.1,5.2,4.1,8.1,5.9c3,1.8,5.6,3.4,9.5,4.9l1,0.4h1.4c14.4,0.1,28.9,0.2,43.3,0.1s28.9-0.4,43.3-0.6l3.5-0.1l1.9-2.7l20.9-30
			l20.2,30.2l5.1,7.6l3.9-8l6.1-12.4l5.8,9.3l3.8,6l3.8-5.9l12.2-18.9l7.8,8.5l4.2,4.5l2.1-5.7l7.5-20.4l21.6,33.9l1.8,2.8l2.1-2.5
			l18.4-21.7L1853,271.9z"/>
		<text transform="matrix(1 0 0 1 1859.0195 417.5566)" class="st3 st5 st6">速</text>
	</g>
	<g id="Capa_2_1_">
		<g class="st1">
			<g>
				<path class="st3" d="M224.1,449.1c25.8,0,45.3,5.9,58.7,17.6c13.4,11.7,20.1,29.4,20.1,53.1c0,13.1-1.7,25-5,35.5
					c-3.4,10.6-8.7,19.4-16,26.6c-7.3,7.2-16.7,12.7-28.1,16.6c-11.4,3.9-25.1,5.8-41,5.8H17.1l41.8-66.4h159c7.7,0,13.4-1.5,17-4.4
					s5.3-7.8,5.3-14.5s-1.8-11.4-5.3-14.3c-3.6-2.8-9.2-4.3-17-4.3H103.5c-13.6,0-25.3-1.8-35.2-5.4c-9.8-3.6-18-8.6-24.5-15.1
					c-6.5-6.4-11.3-14.2-14.5-23.4c-3.1-9.1-4.7-19.2-4.7-30.3c0-12.1,1.7-23.1,5.2-33s8.8-18.3,16-25.3c7.2-6.9,16.5-12.3,28-16.2
					c11.4-3.9,25.1-5.8,41-5.8h182.5l-41.8,67.2H109.7c-7.5,0-13.1,1.3-16.8,3.9c-3.7,2.6-5.5,7.2-5.5,13.9c0,6.7,1.8,11.4,5.5,14.1
					s9.3,4.1,16.8,4.1L224.1,449.1L224.1,449.1z"/>
				<path class="st3" d="M587,604.3h-64.7v-99.6h-125v99.6h-65.4V346.1h65.4v91.5h125v-91.5H587V604.3z"/>
				<path class="st3" d="M715.8,604.3l39.3-66.4h52.8c6.3,0,12.8,0,19.6,0s12.7,0.3,17.8,0.8c-2.9-4.6-6.3-10.5-10.2-17.6
					s-7.6-13.7-11.2-19.9l-37.7-68.3l-98.7,171.4h-77l134.8-233.5c4.4-7.5,9.9-14.1,16.7-20.1c6.7-5.9,15.2-8.9,25.4-8.9
					c9.8,0,18.1,2.8,24.7,8.3c6.6,5.5,12.2,12.4,16.8,20.7l131.3,233.5L715.8,604.3L715.8,604.3z"/>
				<path class="st3" d="M1281.6,604.3h-87l-46.8-68.3h-99.9v68.3h-65v-132h182.8c10.1,0,18.5-2.6,25.5-7.7
					c6.9-5.1,10.4-12.2,10.4-21.2c0-10-3.1-17.6-9.4-22.6s-15.1-7.5-26.4-7.5h-183l42.4-67.2h135.1c11.9,0,24.3,1.3,37.1,4
					c12.8,2.7,24.4,7.5,34.9,14.5c10.5,6.9,19.1,16.3,25.9,28.2c6.8,11.8,10.2,27,10.2,45.5c0,10-1.3,19.6-3.8,28.6
					s-6.1,17.1-10.8,24.3c-4.7,7.2-10.5,13.3-17.3,18.3c-6.8,5-14.5,8.6-23.1,10.6c3.6,3.3,7.5,7.6,11.9,12.7
					c4.4,5.2,10.3,12.2,17.6,21.2L1281.6,604.3z"/>
				<path class="st3" d="M1570,604.3h-98.3l-63.5-67.9c-10.9-11.6-19.2-20.6-25-27c-5.8-6.4-10.4-11.8-14-16.2
					c0.2,5.9,0.4,12,0.6,18.3s0.3,12.5,0.3,18.7v74.1h-65.4V346.1h65.4v59.8c0,8-0.1,15.8-0.3,23.5c-0.2,7.7-0.5,14.9-0.9,21.6
					c4.2-4.6,9.3-10.4,15.2-17.2c6-6.8,13.8-15.1,23.4-24.9l60.6-62.9h94.3l-80.4,74.1c-6.9,6.4-13,12.1-18.4,17
					c-5.3,4.9-10.1,9.1-14.3,12.7c-4.2,3.6-8,6.8-11.5,9.6c-3.4,2.8-6.9,5.5-10.2,8.1c6.1,5.1,13.4,11.6,22,19.3
					c8.6,7.7,19.7,18.4,33.3,32L1570,604.3z"/>
				<path class="st3" d="M1786.2,449.1c25.8,0,45.3,5.9,58.7,17.6c13.4,11.7,20.1,29.4,20.1,53.1c0,13.1-1.7,25-5,35.5
					c-3.4,10.6-8.7,19.4-16,26.6c-7.3,7.2-16.7,12.7-28.1,16.6c-11.4,3.9-25.1,5.8-41,5.8h-195.7l41.8-66.4h159
					c7.7,0,13.4-1.5,17-4.4s5.3-7.8,5.3-14.5s-1.8-11.4-5.3-14.3c-3.6-2.8-9.2-4.3-17-4.3h-114.4c-13.6,0-25.3-1.8-35.2-5.4
					c-9.8-3.6-18-8.6-24.5-15.1c-6.5-6.4-11.3-14.2-14.4-23.4c-3.1-9.1-4.7-19.2-4.7-30.3c0-12.1,1.7-23.1,5.2-33
					c3.4-9.9,8.8-18.3,16-25.3c7.2-6.9,16.5-12.3,28-16.2c11.4-3.9,25.1-5.8,41-5.8h182.5l-41.8,67.2h-145.8
					c-7.5,0-13.1,1.3-16.8,3.9c-3.7,2.6-5.5,7.2-5.5,13.9c0,6.7,1.8,11.4,5.5,14.1s9.3,4.1,16.8,4.1L1786.2,449.1L1786.2,449.1z"/>
			</g>
			<g>
				<path class="st7" d="M224.1,449.1c25.8,0,45.3,5.9,58.7,17.6c13.4,11.7,20.1,29.4,20.1,53.1c0,13.1-1.7,25-5,35.5
					c-3.4,10.6-8.7,19.4-16,26.6c-7.3,7.2-16.7,12.7-28.1,16.6c-11.4,3.9-25.1,5.8-41,5.8H17.1l41.8-66.4h159c7.7,0,13.4-1.5,17-4.4
					s5.3-7.8,5.3-14.5s-1.8-11.4-5.3-14.3c-3.6-2.8-9.2-4.3-17-4.3H103.5c-13.6,0-25.3-1.8-35.2-5.4c-9.8-3.6-18-8.6-24.5-15.1
					c-6.5-6.4-11.3-14.2-14.5-23.4c-3.1-9.1-4.7-19.2-4.7-30.3c0-12.1,1.7-23.1,5.2-33s8.8-18.3,16-25.3c7.2-6.9,16.5-12.3,28-16.2
					c11.4-3.9,25.1-5.8,41-5.8h182.5l-41.8,67.2H109.7c-7.5,0-13.1,1.3-16.8,3.9c-3.7,2.6-5.5,7.2-5.5,13.9c0,6.7,1.8,11.4,5.5,14.1
					s9.3,4.1,16.8,4.1L224.1,449.1L224.1,449.1z"/>
				<path class="st7" d="M587,604.3h-64.7v-99.6h-125v99.6h-65.4V346.1h65.4v91.5h125v-91.5H587V604.3z"/>
				<path class="st7" d="M715.8,604.3l39.3-66.4h52.8c6.3,0,12.8,0,19.6,0s12.7,0.3,17.8,0.8c-2.9-4.6-6.3-10.5-10.2-17.6
					s-7.6-13.7-11.2-19.9l-37.7-68.3l-98.7,171.4h-77l134.8-233.5c4.4-7.5,9.9-14.1,16.7-20.1c6.7-5.9,15.2-8.9,25.4-8.9
					c9.8,0,18.1,2.8,24.7,8.3c6.6,5.5,12.2,12.4,16.8,20.7l131.3,233.5L715.8,604.3L715.8,604.3z"/>
				<path class="st7" d="M1281.6,604.3h-87l-46.8-68.3h-99.9v68.3h-65v-132h182.8c10.1,0,18.5-2.6,25.5-7.7
					c6.9-5.1,10.4-12.2,10.4-21.2c0-10-3.1-17.6-9.4-22.6s-15.1-7.5-26.4-7.5h-183l42.4-67.2h135.1c11.9,0,24.3,1.3,37.1,4
					c12.8,2.7,24.4,7.5,34.9,14.5c10.5,6.9,19.1,16.3,25.9,28.2c6.8,11.8,10.2,27,10.2,45.5c0,10-1.3,19.6-3.8,28.6
					s-6.1,17.1-10.8,24.3c-4.7,7.2-10.5,13.3-17.3,18.3c-6.8,5-14.5,8.6-23.1,10.6c3.6,3.3,7.5,7.6,11.9,12.7
					c4.4,5.2,10.3,12.2,17.6,21.2L1281.6,604.3z"/>
				<path class="st7" d="M1570,604.3h-98.3l-63.5-67.9c-10.9-11.6-19.2-20.6-25-27c-5.8-6.4-10.4-11.8-14-16.2
					c0.2,5.9,0.4,12,0.6,18.3s0.3,12.5,0.3,18.7v74.1h-65.4V346.1h65.4v59.8c0,8-0.1,15.8-0.3,23.5c-0.2,7.7-0.5,14.9-0.9,21.6
					c4.2-4.6,9.3-10.4,15.2-17.2c6-6.8,13.8-15.1,23.4-24.9l60.6-62.9h94.3l-80.4,74.1c-6.9,6.4-13,12.1-18.4,17
					c-5.3,4.9-10.1,9.1-14.3,12.7c-4.2,3.6-8,6.8-11.5,9.6c-3.4,2.8-6.9,5.5-10.2,8.1c6.1,5.1,13.4,11.6,22,19.3
					c8.6,7.7,19.7,18.4,33.3,32L1570,604.3z"/>
				<path class="st7" d="M1786.2,449.1c25.8,0,45.3,5.9,58.7,17.6c13.4,11.7,20.1,29.4,20.1,53.1c0,13.1-1.7,25-5,35.5
					c-3.4,10.6-8.7,19.4-16,26.6c-7.3,7.2-16.7,12.7-28.1,16.6c-11.4,3.9-25.1,5.8-41,5.8h-195.7l41.8-66.4h159
					c7.7,0,13.4-1.5,17-4.4s5.3-7.8,5.3-14.5s-1.8-11.4-5.3-14.3c-3.6-2.8-9.2-4.3-17-4.3h-114.4c-13.6,0-25.3-1.8-35.2-5.4
					c-9.8-3.6-18-8.6-24.5-15.1c-6.5-6.4-11.3-14.2-14.4-23.4c-3.1-9.1-4.7-19.2-4.7-30.3c0-12.1,1.7-23.1,5.2-33
					c3.4-9.9,8.8-18.3,16-25.3c7.2-6.9,16.5-12.3,28-16.2c11.4-3.9,25.1-5.8,41-5.8h182.5l-41.8,67.2h-145.8
					c-7.5,0-13.1,1.3-16.8,3.9c-3.7,2.6-5.5,7.2-5.5,13.9c0,6.7,1.8,11.4,5.5,14.1s9.3,4.1,16.8,4.1L1786.2,449.1L1786.2,449.1z"/>
			</g>
		</g>
		<g class="st1">
			<g>
				<path class="st7" d="M127.5,326c-1.7,0-3.4-0.3-5.1-1s-3.5-2.2-5.6-4.7L64,262.1v62.1H39.9v-87.8c0-3.5,0.4-6.5,1.2-9
					s1.9-4.6,3.2-6.2c1.3-1.6,2.9-2.7,4.6-3.5c1.8-0.7,3.6-1.1,5.5-1.1c1.6,0,3.3,0.3,5,1s3.6,2.2,5.7,4.7l52.8,58.2v-62.1h24.3V306
					c0,3.5-0.4,6.5-1.2,9s-1.9,4.6-3.2,6.2s-2.9,2.8-4.7,3.6C131.3,325.7,129.4,326,127.5,326z"/>
				<path class="st7" d="M218.2,216.8c20.9,0,36.7,4.4,47.2,13.1c10.5,8.7,15.8,22.6,15.8,41.4c0,19-5.2,32.8-15.7,41.6
					c-10.5,8.7-26.2,13.1-47.2,13.1c-21.1,0-36.9-4.4-47.3-13.1c-10.4-8.8-15.6-22.6-15.6-41.6c0-18.9,5.2-32.7,15.7-41.4
					C181.4,221.1,197.1,216.8,218.2,216.8z M218.2,298.5c6.7,0,12.4-0.3,17-1s8.4-2,11.3-4c2.9-2,5-4.8,6.2-8.3
					c1.3-3.5,1.9-8.1,1.9-13.8c0-5.7-0.6-10.3-1.9-13.8c-1.3-3.5-3.4-6.3-6.2-8.2c-2.9-1.9-6.6-3.3-11.3-4c-4.6-0.7-10.3-1-17-1
					s-12.4,0.3-17,1s-8.4,2-11.3,4c-2.9,2-5,4.7-6.2,8.2c-1.3,3.5-1.9,8.1-1.9,13.8c0,5.7,0.6,10.3,1.9,13.8
					c1.3,3.5,3.4,6.3,6.2,8.3c2.9,2,6.6,3.3,11.3,4C205.8,298.2,211.5,298.5,218.2,298.5z"/>
				<path class="st7" d="M321.7,324.3H295V218.5h26.6v105.8H321.7z"/>
				<path class="st7" d="M418.1,260.7c10.6,0,18.6,2.4,24.1,7.2c5.5,4.8,8.2,12,8.2,21.7c0,5.4-0.7,10.2-2.1,14.6
					c-1.4,4.3-3.6,8-6.6,10.9s-6.8,5.2-11.5,6.8c-4.7,1.6-10.3,2.4-16.8,2.4h-80.2l17.1-27.2h65.1c3.2,0,5.5-0.6,6.9-1.8
					c1.5-1.2,2.2-3.2,2.2-5.9c0-2.7-0.7-4.7-2.2-5.9c-1.5-1.2-3.8-1.7-6.9-1.7h-46.9c-5.6,0-10.4-0.7-14.4-2.2s-7.4-3.5-10-6.2
					c-2.7-2.6-4.6-5.8-5.9-9.6c-1.3-3.7-1.9-7.9-1.9-12.4c0-5,0.7-9.5,2.1-13.5c1.4-4.1,3.6-7.5,6.6-10.4c3-2.8,6.8-5.1,11.5-6.6
					c4.7-1.6,10.3-2.4,16.8-2.4h74.8L430.9,246h-59.7c-3.1,0-5.4,0.5-6.9,1.6s-2.3,3-2.3,5.7s0.7,4.7,2.3,5.8
					c1.5,1.1,3.8,1.7,6.9,1.7h46.9V260.7z"/>
				<path class="st7" d="M562.2,297.1l-17.1,27.2h-82.9V218.5H562L544.7,246H489v12.6h68.2l-15.3,24H489V297h73.2V297.1z"/>
			</g>
		</g>
		<path class="st8" d="M1859,266.9l-92.8-1.9h-0.8l-0.6,0.7l-17.5,19.1l-22.1-37.5l-3.3-5.6l-2.5,6.1l-8.3,20.4l-7.1-8.2l-3.3-3.9
			l-3,4.3l-11.7,16.9l-6.4-11l-4.3-7.4l-4.1,7.7l-6.2,11.7l-19.1-30.8l-4.6-7.3l-5.3,7.1l-25,33.3c-13.3-0.2-26.7-0.5-40-0.6
			c-14-0.1-27.9,0-41.9,0.1c-1.7-0.7-3.8-1.9-5.7-3c-2.3-1.4-4.5-3.1-6.7-4.7c-4.3-3.5-8.2-7.5-11.7-11.9c-7-8.7-12.3-19-16.3-29.7
			c-1-2.7-1.8-5.5-2.7-8.2l-2.1-8.4c-1.2-5.7-2.2-11.4-2.8-17.2c-0.5-2.9-0.5-5.8-0.8-8.7s-0.4-5.8-0.4-8.8
			c-0.2-5.9-0.1-11.8,0.1-17.7s0.8-11.8,1.3-17.7c0.8-5.9,1.3-11.8,2.4-17.7c1-5.9,1.9-11.8,3.2-17.6c1.2-5.9,2.4-11.7,3.9-17.5
			c1.4-5.8,2.8-11.6,4.6-17.4c1.6-5.8,3.2-11.5,5.1-17.2s3.5-11.5,5.6-17.1l6-17l4.8-13.6l-13.6,4.1c-8.4,2.5-16,5.4-23.8,8.5
			c-7.7,3.1-15.3,6.4-22.8,10c-7.5,3.5-14.9,7.3-22.2,11.2c-7.3,4-14.5,8.1-21.6,12.4l-10.5,6.7l-10.3,6.9
			c-6.8,4.8-13.6,9.6-20.1,14.7c-3.3,2.5-6.5,5.1-9.7,7.8c-3.2,2.6-6.4,5.3-9.5,8.1c-6.3,5.4-12.3,11.2-18.4,16.9
			c-5.8,5.9-11.8,11.8-17.2,18.1c-5.7,6.1-10.8,12.6-16.2,19c-5,6.7-10.2,13.2-14.8,20.1c-4.9,6.8-9.2,13.9-13.6,21
			c-2.3,3.5-4.1,7.2-6.2,10.9c-2,3.7-4.2,7.2-5.9,11c-3.7,7.5-7.5,14.9-10.6,22.6c-3.5,7.6-6.3,15.4-9.2,23.2
			c-2.3,6.1-4.1,12.3-6,18.5h-138.5l-101-178.3l-13.5-23.9V106l0.1,206.1L856,110.6l-13.4-21.5v25.3L843,323l-45-62.2l-5.1-7l-6,6.3
			c-11.7,12.3-23.7,24.3-35.2,36.7L716,234.1l-5-8.8l-4,9.1l-22.3,50.7L674.3,266l-0.8-1.6h-1.6l-98.9,2.8l97.1,2.7l11.9,24.7
			l3.1,6.3l3.2-6.5l23.4-46.7l32.5,64.3l4.3,8.5l7.1-6.9c12.3-12.1,24-24.8,35.9-37.2l53.1,73.3l13.1,18.1v-22.4l-0.4-205.7
			L983,341.1l13.4,21.4v-25.2l-0.1-203.8l89.5,158.2l2.1,3.7h4.2h148h5.2l1.7-5.2c2.5-7.6,4.6-15.4,7.4-22.9s5.5-15.1,8.8-22.4
			c3-7.4,6.6-14.6,10.2-21.8c1.7-3.6,3.8-7.1,5.7-10.6c2-3.5,3.8-7.1,6-10.4c4.2-6.8,8.4-13.7,13-20.2c4.4-6.7,9.5-12.9,14.2-19.4
			c5.2-6.2,10.1-12.5,15.6-18.3c5.3-6.1,11-11.7,16.6-17.4c5.8-5.5,11.6-11.1,17.7-16.3c3-2.7,6.1-5.3,9.2-7.8s6.2-5.1,9.4-7.5
			c6.3-5,12.9-9.6,19.5-14.3l10-6.7l10.2-6.4c6.9-4.2,13.9-8.2,20.9-12c7.1-3.8,14.2-7.5,21.5-10.9c7.3-3.5,14.6-6.7,22.1-9.7
			c2.8-1.1,5.7-2.2,8.6-3.3l-1.1,3.1c-2.1,5.8-3.8,11.7-5.7,17.5c-1.9,5.8-3.6,11.7-5.2,17.7c-1.8,5.9-3.3,11.9-4.7,17.8
			c-1.5,6-2.8,12-4,18c-1.3,6-2.3,12.1-3.3,18.2c-1.1,6.1-1.6,12.3-2.5,18.4c-0.6,6.2-1.1,12.4-1.4,18.6c-0.2,6.2-0.4,12.5-0.1,18.7
			c0,3.1,0.2,6.3,0.5,9.4c0.3,3.1,0.4,6.3,0.8,9.4c0.7,6.3,1.8,12.5,3.1,18.7l2.3,9.2c1,3,1.9,6.1,2.9,9.1
			c4.4,12,10.4,23.7,18.6,33.8c4.1,5.1,8.7,9.9,13.8,14.1c2.6,2.1,5.2,4.1,8.1,5.9c3,1.8,5.6,3.4,9.5,4.9l1,0.4h1.4
			c14.4,0.1,28.9,0.2,43.3,0.1s28.9-0.4,43.3-0.6l3.6-0.1l1.9-2.7l21-30l20.2,30.2l5.1,7.6l3.9-8l6.1-12.4l5.8,9.3l3.8,6l3.8-5.9
			l12.2-19l7.9,8.5l4.2,4.5l2.1-5.7l7.5-20.4l21.6,33.9l1.8,2.8l2.1-2.5l18.5-21.7L1859,266.9z"/>
		<text transform="matrix(1 0 0 1 1856.7391 420.8807)" class="st9 st5 st10">速</text>
	</g>
</g>
<g id="Capa_2" class="st0">
	<g class="st1">
		<g>
			<path class="st3" d="M218.1,456.2c25.8,0,45.4,5.9,58.8,17.6c13.4,11.7,20.1,29.4,20.1,53.1c0,13.1-1.7,25-5,35.6
				c-3.4,10.6-8.7,19.5-16,26.7c-7.3,7.2-16.7,12.8-28.2,16.6c-11.4,3.9-25.1,5.8-41.1,5.8h-196l41.8-66.5h159.2
				c7.8,0,13.4-1.5,17-4.4c3.6-3,5.3-7.8,5.3-14.5c0-6.7-1.8-11.5-5.3-14.3c-3.6-2.8-9.2-4.3-17-4.3H97.3c-13.6,0-25.4-1.8-35.2-5.4
				c-9.9-3.6-18-8.6-24.5-15.1c-6.5-6.4-11.3-14.2-14.5-23.4c-3.1-9.1-4.7-19.3-4.7-30.3c0-12.1,1.7-23.1,5.2-33
				c3.5-9.9,8.8-18.4,16-25.3c7.2-7,16.6-12.4,28-16.2C79,355,92.6,353,108.6,353h182.8l-41.8,67.2h-146c-7.6,0-13.2,1.3-16.8,3.9
				c-3.7,2.6-5.5,7.2-5.5,13.9c0,6.7,1.8,11.4,5.5,14.1c3.7,2.7,9.3,4.1,16.8,4.1H218.1z"/>
			<path class="st3" d="M581.4,611.6h-64.8v-99.7H391.4v99.7H326V353h65.4v91.6h125.2V353h64.8V611.6z"/>
			<path class="st3" d="M710.4,611.6l39.3-66.5h52.9c6.3,0,12.8,0,19.7,0c6.8,0,12.7,0.3,17.8,0.8c-2.9-4.6-6.3-10.5-10.2-17.6
				c-3.9-7.1-7.6-13.7-11.2-19.9L780.9,440l-98.8,171.6H605l135-233.8c4.4-7.5,10-14.2,16.7-20.1c6.7-5.9,15.2-8.9,25.5-8.9
				c9.9,0,18.1,2.8,24.7,8.3c6.6,5.5,12.2,12.4,16.8,20.7l131.5,233.8H710.4z"/>
			<path class="st3" d="M1277,611.6h-87.1l-46.9-68.4h-100v68.4h-65.1V479.4h183.1c10.1,0,18.6-2.6,25.5-7.7
				c6.9-5.2,10.4-12.2,10.4-21.3c0-10-3.1-17.6-9.4-22.6c-6.3-5-15.1-7.5-26.4-7.5H977.8l42.5-67.2h135.3c12,0,24.3,1.3,37.1,4
				c12.8,2.7,24.4,7.5,34.9,14.5c10.5,6.9,19.1,16.4,26,28.2c6.8,11.9,10.2,27.1,10.2,45.6c0,10-1.3,19.6-3.8,28.6
				c-2.5,9-6.1,17.1-10.9,24.3c-4.7,7.2-10.5,13.3-17.3,18.4c-6.8,5-14.5,8.6-23.1,10.6c3.6,3.4,7.5,7.6,12,12.8
				c4.4,5.2,10.3,12.2,17.6,21.3L1277,611.6z"/>
			<path class="st3" d="M1565.8,611.6h-98.5l-63.5-68c-10.9-11.6-19.2-20.6-25-27.1c-5.8-6.4-10.4-11.8-14-16.2
				c0.2,5.9,0.4,12,0.6,18.4c0.2,6.3,0.3,12.6,0.3,18.7v74.2h-65.4V353h65.4v59.9c0,8-0.1,15.8-0.3,23.6c-0.2,7.7-0.5,14.9-0.9,21.6
				c4.2-4.6,9.3-10.4,15.3-17.2c6-6.8,13.8-15.1,23.4-24.9l60.7-63h94.4l-80.5,74.2c-6.9,6.4-13.1,12.1-18.4,17
				c-5.3,4.9-10.1,9.2-14.3,12.8c-4.2,3.6-8,6.8-11.5,9.7c-3.5,2.8-6.9,5.5-10.2,8.1c6.1,5.2,13.4,11.6,22,19.3
				c8.6,7.7,19.7,18.4,33.3,32.1L1565.8,611.6z"/>
			<path class="st3" d="M1782.2,456.2c25.8,0,45.4,5.9,58.8,17.6c13.4,11.7,20.1,29.4,20.1,53.1c0,13.1-1.7,25-5,35.6
				c-3.4,10.6-8.7,19.5-16,26.7c-7.3,7.2-16.7,12.8-28.2,16.6c-11.4,3.9-25.1,5.8-41.1,5.8h-196l41.8-66.5h159.2
				c7.8,0,13.4-1.5,17-4.4c3.6-3,5.3-7.8,5.3-14.5c0-6.7-1.8-11.5-5.3-14.3c-3.6-2.8-9.2-4.3-17-4.3h-114.5
				c-13.6,0-25.4-1.8-35.2-5.4c-9.9-3.6-18-8.6-24.5-15.1c-6.5-6.4-11.3-14.2-14.5-23.4c-3.1-9.1-4.7-19.3-4.7-30.3
				c0-12.1,1.7-23.1,5.2-33c3.5-9.9,8.8-18.4,16-25.3c7.2-7,16.6-12.4,28-16.2c11.4-3.9,25.1-5.8,41.1-5.8h182.8l-41.8,67.2h-146
				c-7.6,0-13.2,1.3-16.8,3.9c-3.7,2.6-5.5,7.2-5.5,13.9c0,6.7,1.8,11.4,5.5,14.1c3.7,2.7,9.3,4.1,16.8,4.1H1782.2z"/>
		</g>
		<g>
			<path class="st7" d="M218.1,456.2c25.8,0,45.4,5.9,58.8,17.6c13.4,11.7,20.1,29.4,20.1,53.1c0,13.1-1.7,25-5,35.6
				c-3.4,10.6-8.7,19.5-16,26.7c-7.3,7.2-16.7,12.8-28.2,16.6c-11.4,3.9-25.1,5.8-41.1,5.8h-196l41.8-66.5h159.2
				c7.8,0,13.4-1.5,17-4.4c3.6-3,5.3-7.8,5.3-14.5c0-6.7-1.8-11.5-5.3-14.3c-3.6-2.8-9.2-4.3-17-4.3H97.3c-13.6,0-25.4-1.8-35.2-5.4
				c-9.9-3.6-18-8.6-24.5-15.1c-6.5-6.4-11.3-14.2-14.5-23.4c-3.1-9.1-4.7-19.3-4.7-30.3c0-12.1,1.7-23.1,5.2-33
				c3.5-9.9,8.8-18.4,16-25.3c7.2-7,16.6-12.4,28-16.2C79,355,92.6,353,108.6,353h182.8l-41.8,67.2h-146c-7.6,0-13.2,1.3-16.8,3.9
				c-3.7,2.6-5.5,7.2-5.5,13.9c0,6.7,1.8,11.4,5.5,14.1c3.7,2.7,9.3,4.1,16.8,4.1H218.1z"/>
			<path class="st7" d="M581.4,611.6h-64.8v-99.7H391.4v99.7H326V353h65.4v91.6h125.2V353h64.8V611.6z"/>
			<path class="st7" d="M710.4,611.6l39.3-66.5h52.9c6.3,0,12.8,0,19.7,0c6.8,0,12.7,0.3,17.8,0.8c-2.9-4.6-6.3-10.5-10.2-17.6
				c-3.9-7.1-7.6-13.7-11.2-19.9L780.9,440l-98.8,171.6H605l135-233.8c4.4-7.5,10-14.2,16.7-20.1c6.7-5.9,15.2-8.9,25.5-8.9
				c9.9,0,18.1,2.8,24.7,8.3c6.6,5.5,12.2,12.4,16.8,20.7l131.5,233.8H710.4z"/>
			<path class="st7" d="M1277,611.6h-87.1l-46.9-68.4h-100v68.4h-65.1V479.4h183.1c10.1,0,18.6-2.6,25.5-7.7
				c6.9-5.2,10.4-12.2,10.4-21.3c0-10-3.1-17.6-9.4-22.6c-6.3-5-15.1-7.5-26.4-7.5H977.8l42.5-67.2h135.3c12,0,24.3,1.3,37.1,4
				c12.8,2.7,24.4,7.5,34.9,14.5c10.5,6.9,19.1,16.4,26,28.2c6.8,11.9,10.2,27.1,10.2,45.6c0,10-1.3,19.6-3.8,28.6
				c-2.5,9-6.1,17.1-10.9,24.3c-4.7,7.2-10.5,13.3-17.3,18.4c-6.8,5-14.5,8.6-23.1,10.6c3.6,3.4,7.5,7.6,12,12.8
				c4.4,5.2,10.3,12.2,17.6,21.3L1277,611.6z"/>
			<path class="st7" d="M1565.8,611.6h-98.5l-63.5-68c-10.9-11.6-19.2-20.6-25-27.1c-5.8-6.4-10.4-11.8-14-16.2
				c0.2,5.9,0.4,12,0.6,18.4c0.2,6.3,0.3,12.6,0.3,18.7v74.2h-65.4V353h65.4v59.9c0,8-0.1,15.8-0.3,23.6c-0.2,7.7-0.5,14.9-0.9,21.6
				c4.2-4.6,9.3-10.4,15.3-17.2c6-6.8,13.8-15.1,23.4-24.9l60.7-63h94.4l-80.5,74.2c-6.9,6.4-13.1,12.1-18.4,17
				c-5.3,4.9-10.1,9.2-14.3,12.8c-4.2,3.6-8,6.8-11.5,9.7c-3.5,2.8-6.9,5.5-10.2,8.1c6.1,5.2,13.4,11.6,22,19.3
				c8.6,7.7,19.7,18.4,33.3,32.1L1565.8,611.6z"/>
			<path class="st7" d="M1782.2,456.2c25.8,0,45.4,5.9,58.8,17.6c13.4,11.7,20.1,29.4,20.1,53.1c0,13.1-1.7,25-5,35.6
				c-3.4,10.6-8.7,19.5-16,26.7c-7.3,7.2-16.7,12.8-28.2,16.6c-11.4,3.9-25.1,5.8-41.1,5.8h-196l41.8-66.5h159.2
				c7.8,0,13.4-1.5,17-4.4c3.6-3,5.3-7.8,5.3-14.5c0-6.7-1.8-11.5-5.3-14.3c-3.6-2.8-9.2-4.3-17-4.3h-114.5
				c-13.6,0-25.4-1.8-35.2-5.4c-9.9-3.6-18-8.6-24.5-15.1c-6.5-6.4-11.3-14.2-14.5-23.4c-3.1-9.1-4.7-19.3-4.7-30.3
				c0-12.1,1.7-23.1,5.2-33c3.5-9.9,8.8-18.4,16-25.3c7.2-7,16.6-12.4,28-16.2c11.4-3.9,25.1-5.8,41.1-5.8h182.8l-41.8,67.2h-146
				c-7.6,0-13.2,1.3-16.8,3.9c-3.7,2.6-5.5,7.2-5.5,13.9c0,6.7,1.8,11.4,5.5,14.1c3.7,2.7,9.3,4.1,16.8,4.1H1782.2z"/>
		</g>
	</g>
	<g class="st1">
		<g>
			<path class="st7" d="M121.4,333c-1.7,0-3.4-0.3-5.1-1c-1.7-0.7-3.5-2.2-5.6-4.7L57.8,269v62.2H33.6v-87.9c0-3.5,0.4-6.5,1.2-9
				c0.8-2.5,1.9-4.6,3.2-6.2c1.3-1.6,2.9-2.7,4.6-3.5c1.8-0.7,3.6-1.1,5.5-1.1c1.6,0,3.3,0.3,5,1c1.7,0.7,3.6,2.2,5.7,4.7l52.8,58.3
				v-62.2h24.4V313c0,3.5-0.4,6.5-1.2,9c-0.8,2.5-1.9,4.6-3.2,6.3c-1.3,1.6-2.9,2.8-4.7,3.6C125.1,332.6,123.3,333,121.4,333z"/>
			<path class="st7" d="M212.1,223.5c21,0,36.7,4.4,47.2,13.1c10.5,8.8,15.8,22.6,15.8,41.5c0,19-5.2,32.9-15.7,41.7
				c-10.5,8.8-26.3,13.1-47.3,13.1c-21.1,0-36.9-4.4-47.4-13.1c-10.4-8.8-15.7-22.6-15.7-41.7c0-18.9,5.2-32.7,15.7-41.5
				C175.3,227.9,191.1,223.5,212.1,223.5z M212.1,305.4c6.7,0,12.4-0.3,17-1c4.6-0.7,8.4-2,11.3-4c2.9-2,5-4.8,6.3-8.3
				c1.3-3.5,1.9-8.2,1.9-13.9c0-5.7-0.6-10.3-1.9-13.9c-1.3-3.5-3.4-6.3-6.3-8.2c-2.9-2-6.6-3.3-11.3-4c-4.6-0.7-10.3-1-17-1
				c-6.7,0-12.4,0.3-17,1c-4.6,0.7-8.4,2-11.3,4c-2.9,2-5,4.7-6.2,8.2c-1.3,3.5-1.9,8.2-1.9,13.9c0,5.7,0.6,10.3,1.9,13.9
				c1.3,3.5,3.4,6.3,6.2,8.3c2.9,2,6.6,3.4,11.3,4C199.7,305.1,205.4,305.4,212.1,305.4z"/>
			<path class="st7" d="M315.8,331.2h-26.7V225.3h26.7V331.2z"/>
			<path class="st7" d="M412.3,267.6c10.6,0,18.6,2.4,24.1,7.2c5.5,4.8,8.3,12.1,8.3,21.8c0,5.4-0.7,10.2-2.1,14.6
				c-1.4,4.3-3.6,8-6.6,10.9c-3,3-6.9,5.2-11.5,6.8c-4.7,1.6-10.3,2.4-16.8,2.4h-80.3l17.1-27.2h65.2c3.2,0,5.5-0.6,7-1.8
				c1.5-1.2,2.2-3.2,2.2-5.9c0-2.7-0.7-4.7-2.2-5.9c-1.5-1.2-3.8-1.7-7-1.7h-46.9c-5.6,0-10.4-0.7-14.4-2.2c-4-1.5-7.4-3.5-10.1-6.2
				c-2.7-2.6-4.6-5.8-5.9-9.6c-1.3-3.7-1.9-7.9-1.9-12.4c0-5,0.7-9.5,2.1-13.5c1.4-4.1,3.6-7.5,6.6-10.4c3-2.8,6.8-5.1,11.5-6.7
				c4.7-1.6,10.3-2.4,16.8-2.4h74.9l-17.1,27.6h-59.8c-3.1,0-5.4,0.5-6.9,1.6c-1.5,1.1-2.3,3-2.3,5.7c0,2.7,0.7,4.7,2.3,5.8
				c1.5,1.1,3.8,1.7,6.9,1.7H412.3z"/>
			<path class="st7" d="M556.7,304l-17.1,27.2h-83V225.3h99.9l-17.3,27.6h-55.8v12.7h68.3l-15.3,24.1h-53V304H556.7z"/>
		</g>
	</g>
	<path class="st9" d="M1855.1,273.7l-93-1.9l-0.8,0l-0.6,0.7l-17.5,19.2L1721,254l-3.3-5.6l-2.5,6.1l-8.3,20.5l-7.1-8.2l-3.3-3.9
		l-3,4.3l-11.7,16.9l-6.4-11l-4.3-7.4l-4.1,7.7l-6.2,11.7l-19.1-30.9l-4.6-7.3l-5.3,7.1l-25.1,33.4c-13.4-0.2-26.7-0.5-40.1-0.6
		c-14-0.1-28,0-42,0.1c-1.7-0.7-3.9-1.9-5.7-3.1c-2.3-1.4-4.5-3.1-6.7-4.8c-4.3-3.5-8.2-7.5-11.7-11.9c-7.1-8.7-12.3-19-16.3-29.7
		c-1-2.7-1.8-5.5-2.7-8.2l-2.1-8.4c-1.2-5.7-2.2-11.4-2.8-17.2c-0.5-2.9-0.5-5.8-0.8-8.7c-0.3-2.9-0.4-5.9-0.4-8.8
		c-0.2-5.9-0.1-11.8,0.1-17.7c0.2-5.9,0.8-11.8,1.3-17.7c0.8-5.9,1.3-11.8,2.4-17.7c1-5.9,1.9-11.8,3.2-17.6
		c1.2-5.9,2.4-11.7,3.9-17.5c1.4-5.8,2.8-11.6,4.6-17.4c1.6-5.8,3.2-11.6,5.1-17.3c1.9-5.7,3.5-11.5,5.6-17.1l6-17l4.8-13.6
		l-13.6,4.1c-8.4,2.5-16,5.4-23.8,8.5c-7.7,3.1-15.4,6.4-22.9,10c-7.5,3.5-14.9,7.3-22.3,11.3c-7.3,4-14.5,8.1-21.6,12.4l-10.5,6.7
		l-10.4,7c-6.8,4.8-13.6,9.6-20.1,14.8c-3.3,2.5-6.5,5.2-9.8,7.8c-3.2,2.6-6.4,5.3-9.5,8.1c-6.3,5.4-12.3,11.2-18.4,16.9
		c-5.8,6-11.8,11.8-17.2,18.1c-5.7,6.1-10.9,12.7-16.2,19.1c-5,6.7-10.2,13.2-14.8,20.2c-4.9,6.8-9.2,13.9-13.6,21
		c-2.3,3.5-4.1,7.3-6.2,10.9c-2,3.7-4.2,7.2-5.9,11c-3.7,7.5-7.5,14.9-10.6,22.7c-3.5,7.6-6.3,15.5-9.2,23.3
		c-2.3,6.1-4.1,12.3-6.1,18.5h-138.6L990.2,109.1l-13.5-23.9l0,27.5l0.1,206.3L850.8,117.2l-13.4-21.5l0,25.3l0.4,208.9l-45.1-62.2
		l-5.1-7.1l-6,6.3c-11.7,12.3-23.7,24.3-35.3,36.7l-35.8-62.7l-5-8.8l-4,9.1L679.3,292l-10.4-19.2l-0.8-1.6l-1.6,0l-99,2.8l97.2,2.7
		l11.9,24.7l3.1,6.3l3.2-6.5l23.4-46.8l32.6,64.4l4.3,8.5l7.1-6.9c12.3-12.1,24-24.8,36-37.3l53.1,73.4l13.1,18.1l0-22.4l-0.4-206
		L977.8,348l13.4,21.4l0-25.3l-0.1-204.1l89.6,158.5l2.1,3.7h4.2h148.2h5.2l1.7-5.2c2.5-7.6,4.6-15.4,7.4-22.9
		c2.8-7.5,5.5-15.1,8.8-22.4c3-7.4,6.7-14.6,10.2-21.8c1.7-3.6,3.8-7.1,5.7-10.6c2-3.5,3.8-7.1,6-10.5c4.2-6.8,8.4-13.7,13.1-20.2
		c4.4-6.7,9.5-13,14.3-19.4c5.2-6.2,10.1-12.5,15.6-18.4c5.3-6.1,11-11.7,16.6-17.5c5.8-5.5,11.6-11.1,17.8-16.3
		c3-2.7,6.1-5.3,9.2-7.8c3.1-2.6,6.2-5.1,9.4-7.5c6.3-5,12.9-9.7,19.5-14.3l10-6.7l10.2-6.5c6.9-4.2,13.9-8.2,21-12.1
		c7.1-3.8,14.3-7.5,21.6-10.9c7.3-3.5,14.7-6.7,22.1-9.7c2.8-1.1,5.7-2.2,8.6-3.3l-1.1,3.1c-2.1,5.8-3.8,11.7-5.7,17.5
		c-1.9,5.8-3.6,11.8-5.2,17.7c-1.8,5.9-3.3,11.9-4.7,17.9c-1.6,6-2.8,12-4,18.1c-1.3,6-2.3,12.1-3.3,18.2
		c-1.1,6.1-1.6,12.3-2.5,18.4c-0.6,6.2-1.1,12.4-1.4,18.6c-0.2,6.2-0.4,12.5-0.1,18.7c0,3.1,0.2,6.3,0.5,9.4
		c0.3,3.1,0.4,6.3,0.8,9.4c0.7,6.3,1.8,12.5,3.1,18.7l2.3,9.3c1,3,1.9,6.1,2.9,9.1c4.4,12,10.4,23.7,18.6,33.9
		c4.1,5.1,8.7,9.9,13.8,14.1c2.6,2.1,5.2,4.1,8.1,5.9c3,1.8,5.6,3.4,9.5,4.9l1,0.4l1.4,0c14.5,0.1,28.9,0.2,43.4,0.1
		c14.5-0.1,28.9-0.4,43.4-0.6l3.6-0.1l1.9-2.7l21-30l20.2,30.3l5.1,7.6l3.9-8.1l6.1-12.5l5.8,9.3l3.8,6l3.8-5.9l12.2-19l7.9,8.5
		l4.2,4.5l2.1-5.7l7.5-20.4l21.6,34l1.8,2.8l2.1-2.5l18.5-21.7L1855.1,273.7z"/>
	<text transform="matrix(1 0 0 1 1852.8643 427.0225)" class="st9 st5 st11">速</text>
</g>
<g id="Capa_3">
	<g>
		<g>
			<path class="st3" d="M216.3,456.3c26,0,45.7,5.9,59.2,17.7c13.5,11.8,20.3,29.6,20.3,53.5c0,13.2-1.7,25.2-5.1,35.8
				c-3.4,10.6-8.8,19.6-16.2,26.8c-7.4,7.3-16.8,12.8-28.3,16.7c-11.5,3.9-25.3,5.8-41.3,5.8H7.6l42.1-66.9H210
				c7.8,0,13.5-1.5,17.1-4.5c3.6-3,5.4-7.8,5.4-14.6c0-6.7-1.8-11.5-5.4-14.4c-3.6-2.9-9.3-4.3-17.1-4.3H94.7
				c-13.7,0-25.6-1.8-35.5-5.4c-9.9-3.6-18.2-8.7-24.7-15.2c-6.6-6.5-11.4-14.3-14.6-23.5c-3.2-9.2-4.8-19.4-4.8-30.5
				c0-12.2,1.7-23.3,5.2-33.3c3.5-10,8.9-18.5,16.2-25.5c7.3-7,16.7-12.4,28.2-16.3c11.5-3.9,25.3-5.8,41.3-5.8h184L248,420.1H101
				c-7.6,0-13.3,1.3-16.9,3.9c-3.7,2.6-5.5,7.3-5.5,14c0,6.7,1.8,11.5,5.5,14.2c3.7,2.7,9.3,4.1,16.9,4.1H216.3z"/>
			<path class="st3" d="M582.1,612.7h-65.2V512.3H390.8v100.4h-65.9V352.4h65.9v92.2h126.1v-92.2h65.2V612.7z"/>
			<path class="st3" d="M712,612.7l39.6-66.9h53.2c6.3,0,12.9,0,19.8,0c6.9,0,12.8,0.3,17.9,0.8c-3-4.7-6.4-10.6-10.3-17.7
				c-3.9-7.1-7.7-13.8-11.2-20l-38-68.9l-99.5,172.8h-77.6l135.9-235.4c4.4-7.5,10-14.3,16.8-20.2c6.8-6,15.3-9,25.7-9
				c9.9,0,18.2,2.8,24.9,8.4c6.6,5.6,12.3,12.5,16.9,20.8l132.4,235.4H712z"/>
			<path class="st3" d="M1282.4,612.7h-87.7l-47.2-68.9h-100.7v68.9h-65.6V479.6h184.3c10.1,0,18.7-2.6,25.7-7.8
				c7-5.2,10.5-12.3,10.5-21.4c0-10.1-3.2-17.7-9.5-22.8c-6.3-5.1-15.2-7.6-26.6-7.6H981.2l42.8-67.7h136.2c12,0,24.5,1.4,37.4,4.1
				c12.9,2.7,24.6,7.6,35.2,14.6c10.6,7,19.3,16.5,26.1,28.4c6.9,11.9,10.3,27.2,10.3,45.9c0,10.1-1.3,19.7-3.8,28.8
				c-2.5,9.1-6.2,17.3-10.9,24.5c-4.7,7.3-10.6,13.4-17.4,18.5c-6.9,5.1-14.6,8.6-23.3,10.7c3.6,3.4,7.6,7.7,12,12.8
				c4.4,5.2,10.3,12.3,17.7,21.4L1282.4,612.7z"/>
			<path class="st3" d="M1573.2,612.7H1474l-64-68.5c-11-11.7-19.4-20.7-25.2-27.2c-5.8-6.5-10.5-11.9-14.1-16.3
				c0.2,6,0.4,12.1,0.6,18.5c0.2,6.4,0.3,12.6,0.3,18.9v74.7h-65.9V352.4h65.9v60.3c0,8-0.1,16-0.3,23.7c-0.2,7.8-0.5,15-1,21.8
				c4.2-4.7,9.3-10.4,15.4-17.3c6-6.9,13.9-15.2,23.6-25.1l61.1-63.4h95l-81.1,74.7c-7,6.5-13.1,12.2-18.5,17.1
				c-5.4,4.9-10.2,9.2-14.4,12.8c-4.2,3.6-8.1,6.9-11.6,9.7c-3.5,2.9-6.9,5.6-10.3,8.2c6.1,5.2,13.5,11.7,22.2,19.5
				c8.7,7.8,19.8,18.5,33.6,32.3L1573.2,612.7z"/>
			<path class="st3" d="M1791.1,456.3c26,0,45.7,5.9,59.2,17.7c13.5,11.8,20.3,29.6,20.3,53.5c0,13.2-1.7,25.2-5.1,35.8
				c-3.4,10.6-8.8,19.6-16.2,26.8c-7.4,7.3-16.8,12.8-28.3,16.7c-11.5,3.9-25.3,5.8-41.3,5.8h-197.3l42.1-66.9h160.3
				c7.8,0,13.5-1.5,17.1-4.5c3.6-3,5.4-7.8,5.4-14.6c0-6.7-1.8-11.5-5.4-14.4c-3.6-2.9-9.3-4.3-17.1-4.3h-115.3
				c-13.7,0-25.6-1.8-35.5-5.4c-9.9-3.6-18.2-8.7-24.7-15.2c-6.5-6.5-11.4-14.3-14.6-23.5c-3.2-9.2-4.8-19.4-4.8-30.5
				c0-12.2,1.7-23.3,5.2-33.3c3.5-10,8.9-18.5,16.2-25.5c7.3-7,16.7-12.4,28.2-16.3c11.5-3.9,25.3-5.8,41.3-5.8h184l-42.1,67.7h-147
				c-7.6,0-13.3,1.3-16.9,3.9c-3.7,2.6-5.5,7.3-5.5,14c0,6.7,1.9,11.5,5.5,14.2c3.7,2.7,9.3,4.1,16.9,4.1H1791.1z"/>
		</g>
		<g>
			<path class="st7" d="M216.3,456.3c26,0,45.7,5.9,59.2,17.7c13.5,11.8,20.3,29.6,20.3,53.5c0,13.2-1.7,25.2-5.1,35.8
				c-3.4,10.6-8.8,19.6-16.2,26.8c-7.4,7.3-16.8,12.8-28.3,16.7c-11.5,3.9-25.3,5.8-41.3,5.8H7.6l42.1-66.9H210
				c7.8,0,13.5-1.5,17.1-4.5c3.6-3,5.4-7.8,5.4-14.6c0-6.7-1.8-11.5-5.4-14.4c-3.6-2.9-9.3-4.3-17.1-4.3H94.7
				c-13.7,0-25.6-1.8-35.5-5.4c-9.9-3.6-18.2-8.7-24.7-15.2c-6.6-6.5-11.4-14.3-14.6-23.5c-3.2-9.2-4.8-19.4-4.8-30.5
				c0-12.2,1.7-23.3,5.2-33.3c3.5-10,8.9-18.5,16.2-25.5c7.3-7,16.7-12.4,28.2-16.3c11.5-3.9,25.3-5.8,41.3-5.8h184L248,420.1H101
				c-7.6,0-13.3,1.3-16.9,3.9c-3.7,2.6-5.5,7.3-5.5,14c0,6.7,1.8,11.5,5.5,14.2c3.7,2.7,9.3,4.1,16.9,4.1H216.3z"/>
			<path class="st7" d="M582.1,612.7h-65.2V512.3H390.8v100.4h-65.9V352.4h65.9v92.2h126.1v-92.2h65.2V612.7z"/>
			<path class="st7" d="M712,612.7l39.6-66.9h53.2c6.3,0,12.9,0,19.8,0c6.9,0,12.8,0.3,17.9,0.8c-3-4.7-6.4-10.6-10.3-17.7
				c-3.9-7.1-7.7-13.8-11.2-20l-38-68.9l-99.5,172.8h-77.6l135.9-235.4c4.4-7.5,10-14.3,16.8-20.2c6.8-6,15.3-9,25.7-9
				c9.9,0,18.2,2.8,24.9,8.4c6.6,5.6,12.3,12.5,16.9,20.8l132.4,235.4H712z"/>
			<path class="st7" d="M1282.4,612.7h-87.7l-47.2-68.9h-100.7v68.9h-65.6V479.6h184.3c10.1,0,18.7-2.6,25.7-7.8
				c7-5.2,10.5-12.3,10.5-21.4c0-10.1-3.2-17.7-9.5-22.8c-6.3-5.1-15.2-7.6-26.6-7.6H981.2l42.8-67.7h136.2c12,0,24.5,1.4,37.4,4.1
				c12.9,2.7,24.6,7.6,35.2,14.6c10.6,7,19.3,16.5,26.1,28.4c6.9,11.9,10.3,27.2,10.3,45.9c0,10.1-1.3,19.7-3.8,28.8
				c-2.5,9.1-6.2,17.3-10.9,24.5c-4.7,7.3-10.6,13.4-17.4,18.5c-6.9,5.1-14.6,8.6-23.3,10.7c3.6,3.4,7.6,7.7,12,12.8
				c4.4,5.2,10.3,12.3,17.7,21.4L1282.4,612.7z"/>
			<path class="st7" d="M1573.2,612.7H1474l-64-68.5c-11-11.7-19.4-20.7-25.2-27.2c-5.8-6.5-10.5-11.9-14.1-16.3
				c0.2,6,0.4,12.1,0.6,18.5c0.2,6.4,0.3,12.6,0.3,18.9v74.7h-65.9V352.4h65.9v60.3c0,8-0.1,16-0.3,23.7c-0.2,7.8-0.5,15-1,21.8
				c4.2-4.7,9.3-10.4,15.4-17.3c6-6.9,13.9-15.2,23.6-25.1l61.1-63.4h95l-81.1,74.7c-7,6.5-13.1,12.2-18.5,17.1
				c-5.4,4.9-10.2,9.2-14.4,12.8c-4.2,3.6-8.1,6.9-11.6,9.7c-3.5,2.9-6.9,5.6-10.3,8.2c6.1,5.2,13.5,11.7,22.2,19.5
				c8.7,7.8,19.8,18.5,33.6,32.3L1573.2,612.7z"/>
			<path class="st7" d="M1791.1,456.3c26,0,45.7,5.9,59.2,17.7c13.5,11.8,20.3,29.6,20.3,53.5c0,13.2-1.7,25.2-5.1,35.8
				c-3.4,10.6-8.8,19.6-16.2,26.8c-7.4,7.3-16.8,12.8-28.3,16.7c-11.5,3.9-25.3,5.8-41.3,5.8h-197.3l42.1-66.9h160.3
				c7.8,0,13.5-1.5,17.1-4.5c3.6-3,5.4-7.8,5.4-14.6c0-6.7-1.8-11.5-5.4-14.4c-3.6-2.9-9.3-4.3-17.1-4.3h-115.3
				c-13.7,0-25.6-1.8-35.5-5.4c-9.9-3.6-18.2-8.7-24.7-15.2c-6.5-6.5-11.4-14.3-14.6-23.5c-3.2-9.2-4.8-19.4-4.8-30.5
				c0-12.2,1.7-23.3,5.2-33.3c3.5-10,8.9-18.5,16.2-25.5c7.3-7,16.7-12.4,28.2-16.3c11.5-3.9,25.3-5.8,41.3-5.8h184l-42.1,67.7h-147
				c-7.6,0-13.3,1.3-16.9,3.9c-3.7,2.6-5.5,7.3-5.5,14c0,6.7,1.9,11.5,5.5,14.2c3.7,2.7,9.3,4.1,16.9,4.1H1791.1z"/>
		</g>
	</g>
	<g>
		<g>
			<path class="st7" d="M119,332.2c-1.7,0-3.4-0.3-5.1-1c-1.7-0.7-3.6-2.3-5.6-4.7L55,267.8v62.6H30.6v-88.5c0-3.5,0.4-6.5,1.2-9.1
				c0.8-2.6,1.9-4.6,3.2-6.2c1.3-1.6,2.9-2.8,4.7-3.5c1.8-0.7,3.6-1.1,5.5-1.1c1.6,0,3.3,0.3,5,1c1.7,0.7,3.6,2.3,5.8,4.7l53.2,58.7
				v-62.7h24.5v88.3c0,3.5-0.4,6.5-1.2,9.1c-0.8,2.5-1.9,4.7-3.2,6.3c-1.3,1.6-2.9,2.8-4.7,3.6C122.7,331.8,120.9,332.2,119,332.2z"
				/>
			<path class="st7" d="M210.3,222c21.1,0,37,4.4,47.6,13.2c10.6,8.8,15.9,22.7,15.9,41.8c0,19.1-5.3,33.1-15.8,41.9
				c-10.6,8.8-26.4,13.2-47.6,13.2c-21.3,0-37.2-4.4-47.7-13.2c-10.5-8.8-15.8-22.8-15.8-41.9c0-19,5.3-32.9,15.8-41.8
				C173.3,226.4,189.1,222,210.3,222z M210.3,304.4c6.7,0,12.5-0.3,17.1-1c4.7-0.7,8.5-2,11.4-4.1c2.9-2,5-4.8,6.3-8.4
				c1.3-3.6,1.9-8.2,1.9-14c0-5.7-0.6-10.4-1.9-13.9c-1.3-3.6-3.4-6.3-6.3-8.3c-2.9-2-6.7-3.3-11.4-4c-4.7-0.7-10.4-1-17.1-1
				c-6.7,0-12.5,0.3-17.1,1c-4.7,0.7-8.5,2-11.4,4c-2.9,2-5,4.7-6.3,8.3c-1.3,3.6-1.9,8.2-1.9,13.9c0,5.7,0.7,10.4,1.9,14
				c1.3,3.6,3.4,6.4,6.3,8.4c2.9,2,6.7,3.4,11.4,4.1C197.9,304.1,203.6,304.4,210.3,304.4z"/>
			<path class="st7" d="M314.7,330.4h-26.9V223.8h26.9V330.4z"/>
			<path class="st7" d="M411.9,266.3c10.6,0,18.7,2.4,24.3,7.3c5.5,4.8,8.3,12.1,8.3,21.9c0,5.4-0.7,10.3-2.1,14.7
				c-1.4,4.4-3.6,8-6.6,11c-3,3-6.9,5.3-11.6,6.9c-4.7,1.6-10.4,2.4-16.9,2.4h-80.8l17.3-27.4h65.7c3.2,0,5.5-0.6,7-1.8
				c1.5-1.2,2.2-3.2,2.2-6c0-2.8-0.7-4.7-2.2-5.9c-1.5-1.2-3.8-1.8-7-1.8H362c-5.6,0-10.5-0.7-14.5-2.2c-4.1-1.5-7.4-3.6-10.1-6.2
				c-2.7-2.7-4.7-5.9-6-9.6c-1.3-3.8-1.9-7.9-1.9-12.5c0-5,0.7-9.5,2.1-13.6c1.4-4.1,3.6-7.6,6.6-10.4c3-2.9,6.8-5.1,11.5-6.7
				c4.7-1.6,10.4-2.4,16.9-2.4h75.4l-17.3,27.7h-60.2c-3.1,0-5.4,0.5-6.9,1.6c-1.5,1.1-2.3,3-2.3,5.7c0,2.8,0.8,4.7,2.3,5.8
				c1.5,1.1,3.8,1.7,6.9,1.7H411.9z"/>
			<path class="st7" d="M557.2,303l-17.3,27.4h-83.6V223.8h100.6l-17.4,27.7h-56.2v12.8h68.8l-15.4,24.2h-53.3V303H557.2z"/>
		</g>
	</g>
	<path class="st12" d="M1864.5,272.5l-93.6-1.9l-0.8,0l-0.6,0.7l-17.7,19.3l-22.3-37.8l-3.3-5.7l-2.5,6.2l-8.4,20.6l-7.1-8.2
		l-3.4-3.9l-3,4.4l-11.8,17l-6.4-11.1l-4.4-7.5l-4.1,7.8l-6.3,11.8l-19.2-31.1l-4.6-7.4l-5.3,7.1l-25.2,33.6
		c-13.5-0.2-26.9-0.5-40.3-0.6c-14.1-0.1-28.2,0-42.2,0.1c-1.7-0.7-3.9-1.9-5.7-3.1c-2.3-1.4-4.5-3.1-6.7-4.8
		c-4.3-3.5-8.3-7.5-11.8-12c-7.1-8.8-12.4-19.1-16.4-29.9c-1-2.7-1.8-5.5-2.7-8.3l-2.1-8.5c-1.2-5.7-2.2-11.5-2.9-17.4
		c-0.5-2.9-0.5-5.9-0.8-8.8c-0.3-2.9-0.4-5.9-0.4-8.9c-0.2-5.9-0.1-11.9,0.1-17.8c0.2-6,0.8-11.9,1.3-17.9
		c0.8-5.9,1.3-11.9,2.4-17.8c1-5.9,1.9-11.9,3.2-17.7c1.2-5.9,2.4-11.8,4-17.6c1.4-5.9,2.9-11.7,4.6-17.5c1.6-5.8,3.2-11.6,5.2-17.4
		c1.9-5.7,3.6-11.6,5.6-17.3l6.1-17.1l4.8-13.7l-13.7,4.2c-8.4,2.6-16.1,5.5-24,8.6c-7.8,3.2-15.5,6.5-23,10.1
		c-7.6,3.5-15,7.4-22.4,11.3c-7.4,4-14.6,8.2-21.8,12.5l-10.6,6.7l-10.4,7c-6.9,4.8-13.7,9.7-20.3,14.9c-3.4,2.5-6.6,5.2-9.8,7.8
		c-3.3,2.6-6.5,5.3-9.6,8.1c-6.4,5.4-12.4,11.3-18.5,17c-5.9,6-11.8,11.9-17.4,18.2c-5.7,6.1-10.9,12.7-16.3,19.2
		c-5,6.7-10.3,13.3-14.9,20.3c-4.9,6.8-9.3,14-13.7,21.2c-2.3,3.5-4.2,7.3-6.2,10.9c-2,3.7-4.2,7.3-6,11.1
		c-3.7,7.5-7.5,15-10.7,22.8c-3.5,7.7-6.3,15.6-9.2,23.4c-2.3,6.1-4.2,12.4-6.1,18.7h-139.6L993.7,106.8L980,82.7l0,27.7l0.1,207.7
		L853.3,115l-13.5-21.6l0,25.5l0.4,210.3l-45.4-62.7l-5.1-7.1l-6,6.3c-11.8,12.4-23.9,24.5-35.5,37l-36-63.2l-5.1-8.9l-4,9.2
		l-22.5,51.1l-10.5-19.3l-0.9-1.6l-1.6,0l-99.7,2.8l97.9,2.8l12,24.9l3.1,6.4l3.3-6.5l23.6-47.1l32.8,64.8l4.3,8.6l7.1-7
		c12.4-12.2,24.2-25,36.2-37.5l53.5,73.9l13.2,18.3l0-22.5l-0.4-207.4l126.8,203l13.5,21.6l0-25.4L994.6,138l90.2,159.5l2.1,3.7h4.2
		h149.2h5.3l1.7-5.3c2.5-7.7,4.6-15.5,7.5-23.1c2.8-7.6,5.5-15.2,8.9-22.6c3-7.5,6.7-14.7,10.3-22c1.7-3.7,3.8-7.1,5.7-10.7
		c2-3.5,3.8-7.1,6-10.5c4.2-6.9,8.4-13.8,13.2-20.4c4.4-6.8,9.5-13.1,14.4-19.5c5.2-6.2,10.2-12.6,15.7-18.5
		c5.3-6.1,11.1-11.8,16.7-17.6c5.9-5.6,11.7-11.2,17.9-16.4c3-2.7,6.1-5.3,9.3-7.8c3.1-2.6,6.2-5.2,9.5-7.6c6.4-5,13-9.7,19.6-14.4
		l10.1-6.8l10.3-6.5c6.9-4.2,14-8.3,21.1-12.1c7.1-3.8,14.4-7.5,21.7-11c7.3-3.5,14.7-6.7,22.2-9.8c2.8-1.1,5.7-2.2,8.6-3.3
		l-1.1,3.1c-2.1,5.8-3.8,11.8-5.8,17.6c-2,5.9-3.6,11.8-5.3,17.8c-1.8,5.9-3.3,11.9-4.7,18c-1.6,6-2.9,12.1-4.1,18.2
		c-1.3,6.1-2.3,12.2-3.3,18.4c-1.1,6.1-1.6,12.4-2.5,18.6c-0.6,6.2-1.1,12.5-1.4,18.7c-0.2,6.3-0.4,12.6-0.1,18.9
		c0,3.1,0.2,6.3,0.5,9.5c0.3,3.2,0.4,6.3,0.9,9.5c0.7,6.3,1.8,12.6,3.1,18.8l2.4,9.3c1,3.1,1.9,6.1,3,9.2
		c4.4,12.1,10.5,23.9,18.7,34.1c4.1,5.2,8.7,9.9,13.9,14.2c2.6,2.1,5.3,4.1,8.2,5.9c3,1.8,5.6,3.4,9.6,5l1,0.4l1.4,0
		c14.6,0.1,29.1,0.2,43.7,0.1c14.6-0.1,29.1-0.4,43.7-0.6l3.6-0.1l1.9-2.7l21.1-30.2l20.4,30.5l5.1,7.7l4-8.1l6.1-12.5l5.9,9.3
		l3.8,6.1l3.8-5.9l12.3-19.1l7.9,8.6l4.2,4.6l2.1-5.7l7.5-20.6l21.8,34.2l1.8,2.9l2.1-2.5l18.6-21.9L1864.5,272.5z"/>
	<text transform="matrix(1 0 0 1 1864.4902 427.3389)" class="st7 st5 st13">速</text>
</g>
</svg>
