<?xml version="1.0" encoding="utf-8"?>
<!-- Generator: Adobe Illustrator 24.0.2, SVG Export Plug-In . SVG Version: 6.00 Build 0)  -->
<svg version="1.1" baseProfile="tiny" id="Capa_1" xmlns="http://www.w3.org/2000/svg" xmlns:xlink="http://www.w3.org/1999/xlink"
	 x="0px" y="0px" viewBox="0 0 1920 594" xml:space="preserve">
<g id="Layer_2">
	<g>
		<path fill="#322F2D" d="M217.89,439.09c25.71,0,45.25,5.84,58.62,17.52c13.37,11.68,20.06,29.32,20.07,52.94
			c0.16,12-1.54,23.96-5.03,35.44c-3.04,10.04-8.54,19.17-15.98,26.57c-7.96,7.58-17.56,13.25-28.04,16.56
			c-13.23,4.11-27.03,6.07-40.88,5.78H11.33l41.67-66.24h158.63c7.73,0,13.37-1.48,16.92-4.44c3.54-2.94,5.33-7.75,5.33-14.43
			s-1.8-11.43-5.33-14.31c-3.54-2.88-9.2-4.25-16.92-4.25H97.52c-11.92,0.29-23.8-1.51-35.09-5.31
			c-9.17-3.16-17.54-8.29-24.53-15.02c-6.53-6.54-11.43-14.52-14.31-23.3c-3.23-9.75-4.82-19.96-4.7-30.23
			c-0.14-11.19,1.61-22.32,5.17-32.93c3.23-9.54,8.67-18.19,15.88-25.22c7.99-7.38,17.52-12.9,27.9-16.17
			c13.23-4.11,27.03-6.06,40.88-5.76h182.21l-41.7,67H103.8c-7.52,0-13.12,1.29-16.76,3.84c-3.64,2.55-5.5,7.19-5.5,13.88
			s1.82,11.34,5.5,14.04c3.68,2.7,9.24,4.09,16.76,4.09L217.89,439.09z"/>
		<path fill="#322F2D" d="M579.92,593.9h-64.57v-99.29H390.68v99.35h-65.26V336.43h65.18v91.24h124.68v-91.38h64.57L579.92,593.9z"
			/>
		<path fill="#322F2D" d="M708.44,593.9l39.18-66.24h72.25c5.91-0.04,11.82,0.22,17.7,0.78c-2.92-4.62-6.32-10.46-10.22-17.52
			c-3.9-7.06-7.6-13.67-11.12-19.85l-37.63-68.14L680.19,593.9h-76.75l134.47-233c4.44-7.51,10.04-14.26,16.6-20.01
			c14.57-11.6,35.15-11.85,49.99-0.59c6.8,5.79,12.48,12.77,16.78,20.6l131.01,233L708.44,593.9z"/>
		<path fill="#322F2D" d="M1272.96,593.9h-86.82l-46.7-68.16h-99.68v68.16h-64.89V462.19h182.44c9.08,0.3,18-2.41,25.39-7.71
			c6.78-4.89,10.66-12.84,10.34-21.2c0-10.02-3.13-17.51-9.4-22.48c-6.27-4.97-15.04-7.47-26.33-7.5H974.86l42.33-67h134.77
			c12.44,0.07,24.84,1.44,36.99,4.09c12.39,2.57,24.19,7.47,34.75,14.45c10.71,7.21,19.57,16.83,25.86,28.1
			c6.81,11.81,10.22,26.96,10.22,45.44c0.05,9.6-1.2,19.17-3.72,28.43c-2.34,8.59-6,16.77-10.83,24.24
			c-4.6,7.08-10.43,13.28-17.23,18.29c-6.88,5.05-14.72,8.66-23.03,10.59c4.19,4.03,8.17,8.27,11.92,12.71
			c4.37,5.15,10.23,12.21,17.56,21.17L1272.96,593.9z"/>
		<path fill="#322F2D" d="M1560.7,593.9h-98.11l-63.36-67.78c-10.9-11.55-19.21-20.54-24.91-26.96
			c-5.71-6.42-10.36-11.81-13.96-16.17c0.2,5.91,0.43,12,0.63,18.39s0.33,12.51,0.33,18.66V594h-65.2V336.47h65.2v59.68
			c0,7.95-0.12,15.78-0.33,23.48c-0.2,7.71-0.53,14.9-0.94,21.56c4.2-4.62,9.27-10.33,15.21-17.13c5.94-6.8,13.72-15.08,23.34-24.85
			l60.5-62.75h94.02l-80.24,73.93c-6.88,6.42-13.01,12.07-18.39,16.94c-5.38,4.88-10.15,9.12-14.31,12.71
			c-4.09,3.58-7.99,6.79-11.45,9.63s-6.85,5.52-10.22,8.07c6.05,5.12,13.36,11.54,21.93,19.25c8.57,7.71,19.65,18.37,33.23,31.97
			L1560.7,593.9z"/>
		<path fill="#322F2D" d="M1776.35,439.09c25.71,0,45.25,5.84,58.62,17.52c13.37,11.68,20.05,29.32,20.05,52.94
			c0.16,12-1.53,23.95-5.01,35.44c-3.06,10.04-8.55,19.17-15.98,26.57c-7.97,7.58-17.57,13.25-28.06,16.56
			c-13.22,4.12-27.03,6.07-40.88,5.78h-195.29l41.67-66.24h158.61c7.73,0,13.37-1.48,16.92-4.44c3.56-2.96,5.33-7.77,5.33-14.43
			c0-6.69-1.78-11.46-5.33-14.31c-3.56-2.82-9.2-4.25-16.92-4.25h-114.09c-11.93,0.27-23.81-1.55-35.11-5.38
			c-9.17-3.17-17.54-8.29-24.53-15.02c-6.52-6.55-11.42-14.52-14.31-23.3c-3.24-9.74-4.83-19.96-4.7-30.23
			c-0.14-11.19,1.61-22.32,5.17-32.93c3.24-9.56,8.72-18.21,15.98-25.22c7.99-7.39,17.52-12.91,27.9-16.17
			c13.23-4.11,27.03-6.06,40.88-5.76h182.11l-41.67,67.06h-145.44c-7.54,0-13.12,1.29-16.78,3.84c-3.66,2.55-5.48,7.19-5.48,13.88
			s1.82,11.34,5.48,14.04c3.66,2.7,9.24,4.09,16.78,4.09L1776.35,439.09z"/>
		<path d="M217.89,439.09c25.71,0,45.25,5.84,58.62,17.52c13.37,11.68,20.06,29.32,20.07,52.94c0.16,12-1.54,23.96-5.03,35.44
			c-3.04,10.04-8.54,19.17-15.98,26.57c-7.96,7.58-17.56,13.25-28.04,16.56c-13.23,4.11-27.03,6.07-40.88,5.78H11.33l41.67-66.24
			h158.63c7.73,0,13.37-1.48,16.92-4.44c3.54-2.94,5.33-7.75,5.33-14.43s-1.8-11.43-5.33-14.31c-3.54-2.88-9.2-4.25-16.92-4.25
			H97.52c-11.92,0.29-23.8-1.51-35.09-5.31c-9.17-3.16-17.54-8.29-24.53-15.02c-6.53-6.54-11.43-14.52-14.31-23.3
			c-3.23-9.75-4.82-19.96-4.7-30.23c-0.14-11.19,1.61-22.32,5.17-32.93c3.23-9.54,8.67-18.19,15.88-25.22
			c7.99-7.38,17.52-12.9,27.9-16.17c13.23-4.11,27.03-6.06,40.88-5.76h182.21l-41.7,67H103.8c-7.52,0-13.12,1.29-16.76,3.84
			c-3.64,2.55-5.5,7.19-5.5,13.88s1.82,11.34,5.5,14.04c3.68,2.7,9.24,4.09,16.76,4.09L217.89,439.09z"/>
		<path d="M579.92,593.9h-64.57v-99.29H390.68v99.35h-65.26V336.43h65.18v91.24h124.68v-91.38h64.57L579.92,593.9z"/>
		<path d="M708.44,593.9l39.18-66.24h72.25c5.91-0.04,11.82,0.22,17.7,0.78c-2.92-4.62-6.32-10.46-10.22-17.52
			c-3.9-7.06-7.6-13.67-11.12-19.85l-37.63-68.14L680.19,593.9h-76.75l134.47-233c4.44-7.51,10.04-14.26,16.6-20.01
			c14.57-11.6,35.15-11.85,49.99-0.59c6.8,5.79,12.48,12.77,16.78,20.6l131.01,233L708.44,593.9z"/>
		<path d="M1272.96,593.9h-86.82l-46.7-68.16h-99.68v68.16h-64.89V462.19h182.44c9.08,0.3,18-2.41,25.39-7.71
			c6.78-4.89,10.66-12.84,10.34-21.2c0-10.02-3.13-17.51-9.4-22.48c-6.27-4.97-15.04-7.47-26.33-7.5H974.86l42.33-67h134.77
			c12.44,0.07,24.84,1.44,36.99,4.09c12.39,2.57,24.19,7.47,34.75,14.45c10.71,7.21,19.57,16.83,25.86,28.1
			c6.81,11.81,10.22,26.96,10.22,45.44c0.05,9.6-1.2,19.17-3.72,28.43c-2.34,8.59-6,16.77-10.83,24.24
			c-4.6,7.08-10.43,13.28-17.23,18.29c-6.88,5.05-14.72,8.66-23.03,10.59c4.19,4.03,8.17,8.27,11.92,12.71
			c4.37,5.15,10.23,12.21,17.56,21.17L1272.96,593.9z"/>
		<path d="M1560.7,593.9h-98.11l-63.36-67.78c-10.9-11.55-19.21-20.54-24.91-26.96c-5.71-6.42-10.36-11.81-13.96-16.17
			c0.2,5.91,0.43,12,0.63,18.39s0.33,12.51,0.33,18.66V594h-65.2V336.47h65.2v59.68c0,7.95-0.12,15.78-0.33,23.48
			c-0.2,7.71-0.53,14.9-0.94,21.56c4.2-4.62,9.27-10.33,15.21-17.13c5.94-6.8,13.72-15.08,23.34-24.85l60.5-62.75h94.02
			l-80.24,73.93c-6.88,6.42-13.01,12.07-18.39,16.94c-5.38,4.88-10.15,9.12-14.31,12.71c-4.09,3.58-7.99,6.79-11.45,9.63
			s-6.85,5.52-10.22,8.07c6.05,5.12,13.36,11.54,21.93,19.25c8.57,7.71,19.65,18.37,33.23,31.97L1560.7,593.9z"/>
		<path d="M1776.35,439.09c25.71,0,45.25,5.84,58.62,17.52c13.37,11.68,20.05,29.32,20.05,52.94c0.16,12-1.53,23.95-5.01,35.44
			c-3.06,10.04-8.55,19.17-15.98,26.57c-7.97,7.58-17.57,13.25-28.06,16.56c-13.22,4.12-27.03,6.07-40.88,5.78h-195.29l41.67-66.24
			h158.61c7.73,0,13.37-1.48,16.92-4.44c3.56-2.96,5.33-7.77,5.33-14.43c0-6.69-1.78-11.46-5.33-14.31
			c-3.56-2.82-9.2-4.25-16.92-4.25h-114.09c-11.93,0.27-23.81-1.55-35.11-5.38c-9.17-3.17-17.54-8.29-24.53-15.02
			c-6.52-6.55-11.42-14.52-14.31-23.3c-3.24-9.74-4.83-19.96-4.7-30.23c-0.14-11.19,1.61-22.32,5.17-32.93
			c3.24-9.56,8.72-18.21,15.98-25.22c7.99-7.39,17.52-12.91,27.9-16.17c13.23-4.11,27.03-6.06,40.88-5.76h182.11l-41.67,67.06
			h-145.44c-7.54,0-13.12,1.29-16.78,3.84c-3.66,2.55-5.48,7.19-5.48,13.88s1.82,11.34,5.48,14.04c3.66,2.7,9.24,4.09,16.78,4.09
			L1776.35,439.09z"/>
		<path d="M121.56,316.28c-1.74-0.01-3.46-0.36-5.07-1.02c-2.18-1.09-4.09-2.66-5.58-4.6l-52.57-58.13v62.01H34.1v-87.56
			c-0.06-3.04,0.35-6.08,1.23-8.99c0.66-2.23,1.75-4.32,3.21-6.13c1.23-1.52,2.82-2.71,4.62-3.47c1.73-0.73,3.58-1.1,5.46-1.1
			c1.7,0.02,3.38,0.36,4.95,1.02c2.22,1.11,4.18,2.69,5.72,4.64L111.93,271v-62.01h24.26v87.36c0.07,3.04-0.34,6.08-1.21,8.99
			c-0.68,2.26-1.77,4.37-3.21,6.23c-1.24,1.57-2.86,2.79-4.7,3.56C125.33,315.87,123.46,316.26,121.56,316.28z"/>
		<path d="M211.98,207.26c20.89,0,36.56,4.37,47.01,13.1c10.45,8.73,15.7,22.51,15.74,41.33c0,18.93-5.22,32.76-15.66,41.49
			c-10.44,8.73-26.15,13.1-47.13,13.1c-21.08,0-36.81-4.37-47.19-13.1c-10.38-8.73-15.57-22.59-15.57-41.57
			c0-18.82,5.23-32.59,15.68-41.33C175.3,211.54,191.01,207.2,211.98,207.26z M211.98,288.83c5.67,0.07,11.33-0.28,16.94-1.04
			c4.01-0.48,7.86-1.88,11.24-4.09c2.9-2.04,5.08-4.95,6.23-8.3c2.56-9.03,2.56-18.59,0-27.61c-1.14-3.32-3.33-6.19-6.23-8.18
			c-3.41-2.14-7.25-3.49-11.24-3.94c-5.62-0.74-11.28-1.08-16.94-1.02c-5.67-0.06-11.34,0.28-16.96,1.02
			c-3.99,0.46-7.84,1.81-11.24,3.94c-2.86,2-5.01,4.87-6.13,8.18c-2.59,9.02-2.59,18.59,0,27.61c1.12,3.34,3.26,6.25,6.13,8.3
			c3.38,2.21,7.23,3.61,11.24,4.09C200.64,288.54,206.31,288.89,211.98,288.83z"/>
		<path d="M315.24,314.54h-26.57V208.99h26.57V314.54z"/>
		<path d="M411.42,251.12c10.53,0,18.53,2.39,24,7.17c5.46,4.78,8.19,12.01,8.18,21.69c0.07,4.92-0.62,9.82-2.04,14.53
			c-1.25,4.11-3.5,7.84-6.54,10.87c-3.27,3.11-7.2,5.43-11.51,6.79c-5.42,1.69-11.08,2.49-16.76,2.37h-79.96l17.09-27.14h64.98
			c2.45,0.21,4.9-0.43,6.93-1.82c1.59-1.53,2.4-3.71,2.19-5.91c0.22-2.18-0.59-4.34-2.19-5.85c-2.06-1.32-4.49-1.93-6.93-1.74H362.1
			c-4.86,0.1-9.7-0.65-14.31-2.21c-3.74-1.29-7.16-3.38-10.02-6.13c-2.69-2.68-4.71-5.94-5.91-9.54c-1.33-3.99-1.98-8.18-1.92-12.39
			c-0.08-4.58,0.61-9.14,2.04-13.49c1.34-3.88,3.59-7.38,6.56-10.22c3.27-3.04,7.17-5.3,11.43-6.64c5.42-1.68,11.08-2.47,16.76-2.35
			h74.62l-17.17,27.33h-59.54c-2.39-0.16-4.78,0.39-6.87,1.57c-1.65,1.4-2.5,3.53-2.25,5.68c-0.23,2.17,0.61,4.32,2.25,5.76
			c2.06,1.25,4.46,1.83,6.87,1.66L411.42,251.12z"/>
		<path d="M555.25,287.4l-17.09,27.14h-82.7V208.99h99.54l-17.21,27.45H482.2v12.61h68.06l-15.29,24h-52.79v14.31L555.25,287.4z"/>
		<path fill="#FF0000" d="M1848.97,257.25l-92.61-1.92h-0.82l-0.61,0.65l-17.48,19.11l-22.09-37.46l-3.29-5.58l-2.49,6.13
			l-8.18,20.44l-7.03-8.18l-3.33-3.86l-2.98,4.31l-11.65,16.84l-6.38-10.96l-4.41-7.44l-4.09,7.71l-6.13,11.71l-19.05-30.66
			l-4.56-7.32l-5.27,7.05L1601.47,271c-13.31-0.22-26.57-0.49-39.92-0.57c-13.94,0-27.88,0-41.8,0c-1.95-0.87-3.84-1.89-5.64-3.05
			c-2.32-1.44-4.54-3.03-6.66-4.74c-4.31-3.5-8.21-7.48-11.63-11.85c-6.99-8.92-12.47-18.92-16.23-29.62
			c-0.96-2.7-1.76-5.46-2.66-8.18l-2.04-8.4c-1.19-5.66-2.19-11.36-2.82-17.17c-0.45-2.86-0.53-5.8-0.78-8.71s-0.45-5.85-0.45-8.79
			c-0.22-5.85,0-11.73,0.14-17.62s0.76-11.79,1.29-17.68c0.53-5.89,1.27-11.77,2.37-17.62s1.88-11.73,3.17-17.56
			c1.29-5.83,2.41-11.67,3.92-17.43c1.51-5.76,2.82-11.61,4.54-17.33s3.19-11.53,5.11-17.21s3.52-11.43,5.58-17.07l5.99-16.96
			l4.7-13.47l-13.53,4.09c-8.34,2.53-15.94,5.4-23.73,8.52c-7.79,3.13-15.31,6.42-22.79,9.99s-14.86,7.32-22.18,11.22
			s-14.45,8.18-21.54,12.39l-10.51,6.64l-10.32,6.93c-6.79,4.76-13.53,9.59-20.05,14.7c-3.33,2.47-6.5,5.13-9.73,7.77
			c-3.23,2.64-6.4,5.25-9.48,8.03c-6.32,5.4-12.26,11.14-18.39,16.86c-6.13,5.72-11.71,11.77-17.19,18.03
			c-5.48,6.25-10.81,12.61-16.15,18.99c-4.97,6.66-10.22,13.14-14.76,20.09c-4.54,6.95-9.18,13.86-13.55,20.95
			c-2.25,3.5-4.09,7.21-6.13,10.81c-2.04,3.6-4.09,7.21-5.91,11c-3.68,7.46-7.42,14.88-10.57,22.48c-3.45,7.56-6.25,15.39-9.16,23.2
			c-2.29,6.13-4.09,12.26-6.13,18.39h-137.98L987.18,93.19L973.7,69.33v27.41v205.57l-125.37-201l-13.31-21.4v25.24l0.41,208.15
			l-44.97-62.01l-5.09-7.03l-5.95,6.25c-11.65,12.26-23.61,24.22-35.13,36.59l-35.65-62.52l-5.03-8.81l-3.94,9.03l-22.26,50.59
			l-10.4-19.09l-0.86-1.55h-1.61l-98.66,2.76l96.88,2.72l11.87,24.53l3.07,6.32l3.21-6.44l23.3-46.44l32.46,64.16l4.29,8.46
			l7.05-6.93c12.26-12.04,23.95-24.69,35.83-37.14l52.94,73.09l13.08,18.07v-22.32l-0.41-205.23L974.9,331.3l13.41,21.36v-25.18
			V124.15l89.09,157.89l2.04,3.66h157.01l1.72-5.23c2.49-7.6,4.58-15.35,7.4-22.83c2.82-7.48,5.5-15.04,8.81-22.32
			c3.31-7.28,6.64-14.55,10.22-21.73c1.68-3.62,3.78-7.05,5.68-10.57c1.9-3.52,3.76-7.05,5.95-10.4
			c4.09-6.81,8.34-13.65,13.02-20.15s9.42-12.92,14.31-19.34c5.13-6.13,10.08-12.45,15.55-18.39c5.48-5.95,10.98-11.65,16.58-17.39
			c5.6-5.74,11.59-11.06,17.68-16.35c2.96-2.7,6.13-5.23,9.18-7.77c3.05-2.53,6.13-5.11,9.4-7.52c6.32-4.93,12.84-9.61,19.42-14.31
			l9.81-6.46l10.22-6.42c6.89-4.09,13.82-8.18,20.89-12.02c7.07-3.84,14.2-7.48,21.48-10.87c7.28-3.39,14.59-6.64,22.01-9.65
			c2.82-1.14,5.68-2.23,8.54-3.29l-1.08,3.11c-2.04,5.74-3.8,11.65-5.7,17.45c-1.9,5.8-3.56,11.71-5.23,17.62s-3.25,11.81-4.66,17.8
			s-2.84,11.96-4.09,17.99s-2.29,12.1-3.29,18.19c-1,6.09-1.64,12.26-2.45,18.39s-1.1,12.26-1.37,18.56s-0.39,12.41-0.14,18.66
			c0,3.11,0.2,6.13,0.47,9.36c0.27,3.23,0.37,6.25,0.84,9.36c0.69,6.25,1.78,12.47,3.07,18.64l2.35,9.24
			c0.98,3.02,1.86,6.13,2.94,9.07c4.29,12.2,10.55,23.61,18.54,33.79c4.07,5.14,8.68,9.84,13.73,14.02
			c2.61,2.11,5.34,4.06,8.18,5.85c2.99,1.94,6.17,3.58,9.48,4.91l1.02,0.41h1.39c14.41,0,28.82,0.16,43.25,0
			c14.43-0.16,28.82-0.39,43.25-0.61h3.54l1.9-2.74l20.91-29.92l20.13,30.21l5.07,7.58l3.92-8.03l6.13-12.43l5.82,9.26l3.78,6.01
			l3.76-5.85l12.26-18.93l7.83,8.48l4.19,4.5l2.04-5.64l7.44-20.44l21.56,33.85l1.8,2.82l2.04-2.49l18.39-21.64L1848.97,257.25z"/>
		<text transform="matrix(1 0 0 1 1847.1699 410.438)" font-family="'Calibri-Light'" font-size="108.3872px">®</text>
	</g>
</g>
</svg>
