<?xml version="1.0" encoding="utf-8"?>
<!-- Generator: Adobe Illustrator 24.0.2, SVG Export Plug-In . SVG Version: 6.00 Build 0)  -->
<svg version="1.1" baseProfile="tiny" id="Capa_1" xmlns="http://www.w3.org/2000/svg" xmlns:xlink="http://www.w3.org/1999/xlink"
	 x="0px" y="0px" viewBox="0 0 763 1080" xml:space="preserve">
<g>
	<g>
		<g>
			<path fill="#FFFFFF" d="M381.44-0.32c-141,0-255.31,114.31-255.31,255.31s0,187.79,0,187.79h126.6c0,0,0-116.71,0-187.79
				s57.63-128.71,128.71-128.71s128.71,57.63,128.71,128.71s0,187.79,0,187.79h126.6c0,0,0-46.79,0-187.79S522.44-0.32,381.44-0.32z
				"/>
		</g>
	</g>
	<g>
		<g>
			<path fill="#FFFFFF" d="M-0.47,506.08V1080h763.82V506.08H-0.47z M413.09,800.35v103.47h-63.3V800.35
				c-18.9-10.96-31.65-31.41-31.65-54.78c0-34.9,28.4-63.3,63.3-63.3s63.3,28.4,63.3,63.3
				C444.74,768.95,431.99,789.39,413.09,800.35z"/>
		</g>
	</g>
</g>
</svg>
