<?xml version="1.0" encoding="iso-8859-1"?>
<!-- Generator: Adobe Illustrator 19.0.0, SVG Export Plug-In . SVG Version: 6.00 Build 0)  -->
<svg xmlns="http://www.w3.org/2000/svg" xmlns:xlink="http://www.w3.org/1999/xlink" version="1.1" id="Layer_1" x="0px" y="0px" viewBox="0 0 513.265 513.265" style="enable-background:new 0 0 513.265 513.265;" xml:space="preserve" width="512" height="512">
<g>
	<g>
		<path d="M403.896,495.84H109.369V300.835H0L256.632,17.426l256.633,283.409H403.896V495.84z M139.369,465.84h234.528V270.835    h71.731L256.632,62.121L67.638,270.835h71.731V465.84z"/>
	</g>
	<g>
		<g>
			<path d="M240.754,265.814c7.629-7.628,11.498-17.184,11.498-28.4c0-11.23-3.761-20.45-11.498-28.185     c-7.775-7.775-17.332-11.718-28.403-11.718c-11.073,0-20.628,3.942-28.401,11.717c-7.738,7.734-11.5,16.954-11.5,28.186     c0,11.218,3.869,20.773,11.499,28.399c7.629,7.631,17.185,11.5,28.402,11.5C223.568,277.313,233.124,273.444,240.754,265.814z      M202.087,226.822c2.624-2.758,5.888-4.043,10.264-4.043c4.361,0,7.63,1.303,9.994,3.981l0.109,0.119     c2.644,2.809,3.875,6.156,3.875,10.534c0,4.4-1.304,8.017-3.875,10.749l-0.109,0.119c-2.264,2.567-5.439,3.763-9.993,3.763     c-4.515,0-7.779-1.216-10.264-3.824c-2.464-2.823-3.713-6.458-3.713-10.807C198.374,233.147,199.589,229.681,202.087,226.822z"/>
		</g>
		<g>
			<polygon points="308.693,190.854 185.377,355.427 204.1,370.402 327.485,205.509    "/>
		</g>
		<g>
			<path d="M329.314,295.605c-7.776-7.772-17.332-11.714-28.402-11.714c-11.069,0-20.625,3.941-28.402,11.715     c-7.736,7.738-11.497,16.957-11.497,28.185c0,11.216,3.868,20.771,11.498,28.402c7.631,7.631,17.187,11.5,28.402,11.5     c11.216,0,20.772-3.869,28.403-11.5c7.63-7.632,11.499-17.188,11.499-28.402C340.814,312.564,337.053,303.345,329.314,295.605z      M311.015,334.542l-0.11,0.12c-2.262,2.565-5.437,3.76-9.993,3.76c-4.517,0-7.782-1.215-10.265-3.821     c-2.463-2.82-3.712-6.457-3.712-10.81c0-4.265,1.214-7.73,3.711-10.592c2.625-2.756,5.889-4.04,10.265-4.04     c4.361,0,7.63,1.302,9.995,3.98l0.106,0.117c2.645,2.811,3.876,6.158,3.876,10.534     C314.89,328.195,313.586,331.811,311.015,334.542z"/>
		</g>
	</g>
</g>















</svg>
