<?xml version="1.0" encoding="utf-8"?>
<!-- Generator: Adobe Illustrator 22.0.0, SVG Export Plug-In . SVG Version: 6.00 Build 0)  -->
<svg version="1.1" id="Capa_1" xmlns="http://www.w3.org/2000/svg" xmlns:xlink="http://www.w3.org/1999/xlink" x="0px" y="0px"
	 viewBox="0 0 800 800" style="enable-background:new 0 0 800 800;" xml:space="preserve">
<style type="text/css">
	.st0{fill:#FFFFFF;}
	.st1{fill:#FCFCFC;}
	.st2{fill:#0D0D0D;stroke:#0D0D0D;stroke-miterlimit:10;}
	.st3{fill:none;}
</style>
<g>
	<path class="st0" d="M262.2,699.1h-54.5c-9.9,0-17.8-8-17.8-17.8l-15-102.6c0-9.9,8-17.8,17.8-17.8h84.6c9.9,0,17.8,8,17.8,17.8
		l-15,102.6C280.1,691.1,272.1,699.1,262.2,699.1z"/>
	<path class="st1" d="M629.8,699.1h-54.5c-9.9,0-17.8-8-17.8-17.8l-15-102.6c0-9.9,8-17.8,17.8-17.8h84.6c9.9,0,17.8,8,17.8,17.8
		l-15,102.6C647.6,691.1,639.6,699.1,629.8,699.1z"/>
	<path class="st0" d="M737.5,405.9c0,152.8-145.7,276.6-325.5,276.6S86.6,558.7,86.6,405.9c0-152.8,111.2-285.6,325.5-285.6
		C626.5,120.3,737.5,253.2,737.5,405.9z"/>
	<path class="st0" d="M174.9,547.2l-50.1-0.2c-43.4,2-62.6-9.9-70.9-40.6L26.4,405.5c-5.6-20.6,6.6-42,27.2-47.6l62.3-16.9
		c30.7-8.3,62.6,9.9,70.9,40.6l25.5,88.6C220.5,500.8,205.5,538.9,174.9,547.2z"/>
	<path class="st0" d="M279.4,176.1c-0.9-0.7-88.1-72.2-186.8-36.1c-1.1,0.4-1.8,1.4-2,2.5c-0.1,1.1-11.3,113.3,97,169.8
		c0.4,0.2,0.9,0.3,1.4,0.3c1,0,1.9-0.5,2.5-1.3L280,180.1C280.9,178.8,280.6,177.1,279.4,176.1z"/>
	<path class="st0" d="M776.2,271.5c-6.8-2.1-13.9,0.6-17.6,6.7c-19,31.5-53,37.6-67.5,40.2c-5.4,1-7.8,1.4-10.2,3.4
		c-2.9,2.4-3.9,6.3-2.7,9.8l23.8,69.5c0.8,2.3,2.5,4.3,4.8,5.3c1.2,0.5,2.5,0.8,3.7,0.8c1.1,0,2.3-0.2,3.4-0.7
		c58.8-23.8,71-85.1,73-119.5C787.4,279.9,783.1,273.6,776.2,271.5z"/>
	<g>
		<path class="st2" d="M506.2,199.3c-96.5-32.7-183.9-0.5-184.8-0.2l-9.5-25.3c3.9-1.5,97.4-35.9,203-0.2L506.2,199.3z"/>
	</g>
	<path class="st0" d="M178.9,598.9c59.1,51.6,141.7,83.6,233.1,83.6c176.4,0,320-119.3,325.3-268.2
		C558.9,652.8,295.1,623.6,178.9,598.9z"/>
	<path class="st0" d="M38.4,414.4c0,0-17.7-44.5,51.9-56C90.3,358.4,50.5,378,38.4,414.4z"/>
	<path class="st0" d="M100.8,149.8c0,0,25.5-14.2,46.3-10.4c0,0-32.1,26.5-18.9,105.8C128.2,245.2,100.8,201.8,100.8,149.8z"/>
	<path class="st3" d="M404.1,184.9c29.8-1,65.3,2,102.1,14.4l8.7-25.6L404.1,184.9L404.1,184.9z"/>
</g>
</svg>
