<?xml version="1.0"?>
<svg xmlns="http://www.w3.org/2000/svg" id="Capa_1" enable-background="new 0 0 510.928 510.928" height="512px" viewBox="0 0 510.928 510.928" width="512px" class=""><g><path d="m90.743 390.879c-2.624-3.207-7.35-3.681-10.554-1.06-3.207 2.622-3.681 7.348-1.06 10.554 4.775 5.841 9.905 11.514 15.247 16.862 1.465 1.466 3.386 2.199 5.307 2.199 1.918 0 3.836-.731 5.3-2.193 2.931-2.928 2.934-7.677.007-10.607-4.992-4.997-9.786-10.298-14.247-15.755z" data-original="#000000" class="active-path" data-old_color="#000000" fill="#FFFFFF"/><path d="m78.131 373.789c-3.901-5.877-7.55-12.02-10.845-18.257-1.936-3.661-6.472-5.063-10.136-3.128-3.662 1.936-5.063 6.473-3.128 10.136 3.528 6.677 7.435 13.253 11.61 19.544 1.444 2.176 3.827 3.354 6.256 3.354 1.425 0 2.865-.405 4.141-1.252 3.451-2.291 4.392-6.946 2.102-10.397z" data-original="#000000" class="active-path" data-old_color="#000000" fill="#FFFFFF"/><path d="m58.321 336.283c-2.654-6.539-5.005-13.284-6.984-20.048-1.164-3.975-5.33-6.255-9.306-5.091-3.975 1.164-6.254 5.33-5.091 9.306 2.121 7.245 4.639 14.471 7.482 21.476 1.183 2.914 3.989 4.681 6.952 4.681.938 0 1.895-.178 2.818-.553 3.839-1.558 5.687-5.933 4.129-9.771z" data-original="#000000" class="active-path" data-old_color="#000000" fill="#FFFFFF"/><path d="m137.808 433.532c-5.873-3.908-11.619-8.158-17.077-12.633-3.206-2.625-7.931-2.158-10.556 1.046-2.626 3.204-2.157 7.93 1.047 10.556 5.842 4.788 11.991 9.337 18.277 13.52 1.277.85 2.72 1.257 4.147 1.257 2.426 0 4.807-1.176 6.251-3.347 2.295-3.449 1.36-8.104-2.089-10.399z" data-original="#000000" class="active-path" data-old_color="#000000" fill="#FFFFFF"/><path d="m40.403 304.335c4.072-.76 6.758-4.677 5.998-8.748-1.291-6.918-2.248-13.998-2.845-21.044-.351-4.128-3.991-7.185-8.107-6.84-4.127.351-7.189 3.979-6.84 8.107.64 7.541 1.665 15.12 3.046 22.526.673 3.607 3.823 6.126 7.364 6.126.457.001.92-.04 1.384-.127z" data-original="#000000" class="active-path" data-old_color="#000000" fill="#FFFFFF"/><path d="m35.208 260.704c.035.001.07.001.106.001 4.093 0 7.44-3.289 7.497-7.396.099-7.077.552-14.212 1.345-21.205.467-4.116-2.491-7.831-6.606-8.298-4.118-.467-7.831 2.49-8.298 6.606-.849 7.484-1.333 15.117-1.438 22.688-.059 4.142 3.252 7.546 7.394 7.604z" data-original="#000000" class="active-path" data-old_color="#000000" fill="#FFFFFF"/><path d="m215.979 465.35c-6.934-1.301-13.879-2.969-20.643-4.958-3.981-1.173-8.144 1.105-9.312 5.079-1.169 3.975 1.105 8.143 5.079 9.312 7.245 2.13 14.684 3.917 22.109 5.31.468.088.933.13 1.392.13 3.537 0 6.687-2.515 7.362-6.118.765-4.073-1.915-7.992-5.987-8.755z" data-original="#000000" class="active-path" data-old_color="#000000" fill="#FFFFFF"/><path d="m175.296 453.384c-6.527-2.658-13-5.681-19.24-8.985-3.661-1.938-8.199-.542-10.138 3.118s-.543 8.199 3.118 10.138c6.681 3.538 13.612 6.775 20.602 9.622.927.377 1.884.556 2.826.556 2.96 0 5.764-1.764 6.949-4.673 1.563-3.838-.281-8.214-4.117-9.776z" data-original="#000000" class="active-path" data-old_color="#000000" fill="#FFFFFF"/><path d="m300.417 464.238c-6.889 1.483-13.94 2.635-20.961 3.423-4.116.462-7.078 4.174-6.616 8.29.431 3.832 3.677 6.664 7.443 6.664.28 0 .563-.016.847-.048 7.517-.844 15.067-2.077 22.443-3.665 4.05-.872 6.626-4.861 5.754-8.91-.872-4.05-4.87-6.623-8.91-5.754z" data-original="#000000" class="active-path" data-old_color="#000000" fill="#FFFFFF"/><path d="m258.348 468.982c-.033 0-.067 0-.101.001-7.096.089-14.217-.166-21.229-.769-4.13-.344-7.76 2.705-8.113 6.832s2.704 7.759 6.832 8.113c6.511.559 13.141.842 19.711.842 1.001-.001 2-.007 2.997-.021 4.142-.054 7.455-3.456 7.4-7.598-.054-4.107-3.401-7.4-7.497-7.4z" data-original="#000000" class="active-path" data-old_color="#000000" fill="#FFFFFF"/><path d="m339.704 61.05c6.475 2.798 12.882 5.957 19.046 9.39 1.155.645 2.407.949 3.643.949 2.633 0 5.187-1.389 6.559-3.852 2.016-3.618.717-8.186-2.902-10.201-6.6-3.677-13.462-7.061-20.396-10.056-3.802-1.642-8.217.108-9.859 3.91-1.644 3.803.106 8.217 3.909 9.86z" data-original="#000000" class="active-path" data-old_color="#000000" fill="#FFFFFF"/><path d="m376.768 81.688c5.786 4.027 11.441 8.396 16.809 12.987 1.414 1.208 3.146 1.8 4.871 1.8 2.116 0 4.221-.891 5.704-2.625 2.691-3.148 2.322-7.883-.825-10.575-5.744-4.912-11.797-9.588-17.99-13.899-3.4-2.365-8.074-1.528-10.44 1.872-2.368 3.399-1.53 8.074 1.871 10.44z" data-original="#000000" class="active-path" data-old_color="#000000" fill="#FFFFFF"/><path d="m435.182 142.665c3.779 5.963 7.298 12.181 10.457 18.479 1.315 2.623 3.962 4.14 6.71 4.14 1.13 0 2.277-.257 3.356-.798 3.702-1.856 5.198-6.363 3.342-10.066-3.383-6.744-7.149-13.401-11.197-19.786-2.217-3.498-6.852-4.537-10.35-2.318-3.498 2.217-4.536 6.851-2.318 10.349z" data-original="#000000" class="active-path" data-old_color="#000000" fill="#FFFFFF"/><path d="m422.931 125.316c1.479 1.888 3.683 2.874 5.908 2.874 1.618 0 3.249-.521 4.621-1.597 3.261-2.555 3.832-7.269 1.277-10.529-4.656-5.942-9.666-11.721-14.891-17.175-2.864-2.989-7.612-3.094-10.604-.228-2.991 2.865-3.093 7.613-.228 10.604 4.883 5.098 9.565 10.498 13.917 16.051z" data-original="#000000" class="active-path" data-old_color="#000000" fill="#FFFFFF"/><path d="m454.194 180.578c2.514 6.589 4.72 13.382 6.558 20.19.903 3.345 3.931 5.547 7.236 5.547.647 0 1.306-.085 1.96-.261 3.999-1.08 6.365-5.197 5.286-9.196-1.97-7.293-4.333-14.57-7.026-21.628-1.477-3.87-5.811-5.811-9.681-4.333-3.87 1.477-5.809 5.811-4.333 9.681z" data-original="#000000" class="active-path" data-old_color="#000000" fill="#FFFFFF"/><path d="m475.714 256.631c-4.15-.171-7.611 3.096-7.755 7.235-.246 7.074-.847 14.197-1.787 21.171-.554 4.104 2.325 7.881 6.431 8.435.34.046.678.068 1.012.068 3.696 0 6.915-2.733 7.423-6.499 1.007-7.464 1.649-15.086 1.912-22.655.143-4.14-3.096-7.612-7.236-7.755z" data-original="#000000" class="active-path" data-old_color="#000000" fill="#FFFFFF"/><path d="m213.406 47.71c.472 0 .95-.044 1.431-.137 6.921-1.338 13.996-2.341 21.029-2.981 4.125-.375 7.165-4.023 6.789-8.148-.375-4.126-4.034-7.178-8.148-6.789-7.53.686-15.105 1.759-22.516 3.191-4.067.785-6.727 4.72-5.94 8.786.692 3.587 3.834 6.078 7.355 6.078z" data-original="#000000" class="active-path" data-old_color="#000000" fill="#FFFFFF"/><path d="m471.433 212.897c-4.087.673-6.854 4.532-6.182 8.619 1.145 6.949 1.952 14.048 2.402 21.1.253 3.972 3.553 7.023 7.478 7.023.16 0 .321-.005.483-.016 4.134-.263 7.271-3.828 7.008-7.961-.48-7.547-1.346-15.146-2.57-22.584-.674-4.086-4.534-6.848-8.619-6.181z" data-original="#000000" class="active-path" data-old_color="#000000" fill="#FFFFFF"/><path d="m299.28 48.226c6.904 1.446 13.813 3.261 20.534 5.394.755.239 1.519.354 2.271.354 3.181 0 6.134-2.04 7.146-5.233 1.253-3.948-.932-8.164-4.88-9.417-7.199-2.285-14.6-4.229-21.995-5.778-4.052-.847-8.028 1.749-8.879 5.803-.849 4.051 1.75 8.027 5.803 8.877z" data-original="#000000" class="active-path" data-old_color="#000000" fill="#FFFFFF"/><path d="m257.101 43.71c7.072.054 14.207.46 21.207 1.208.271.028.539.043.805.043 3.785 0 7.038-2.856 7.449-6.705.439-4.118-2.543-7.813-6.662-8.254-7.487-.799-15.12-1.234-22.684-1.292-4.167-.051-7.525 3.301-7.558 7.442-.031 4.143 3.301 7.526 7.443 7.558z" data-original="#000000" class="active-path" data-old_color="#000000" fill="#FFFFFF"/><path d="m165.8 148.867c2.429-3.355 1.678-8.044-1.677-10.474-3.354-2.428-8.044-1.678-10.474 1.677-.379.524-.786 1.022-1.181 1.531-4.279-10.71-12.659-19.192-23.146-23.666 3.169-4.13 5.273-9.114 5.899-14.544h6.37c7.71 0 13.982-6.272 13.982-13.981v-15.51c0-.593-.017-1.183-.04-1.77 6.047 9.406 9.571 20.58 9.571 32.568 0 2.574-.184 5.269-.547 8.008-.543 4.106 2.345 7.876 6.451 8.42 4.102.541 7.875-2.345 8.42-6.451.448-3.39.676-6.746.676-9.977 0-41.58-33.828-75.408-75.408-75.408-41.579 0-75.406 33.828-75.406 75.408s33.827 75.407 75.406 75.407c24.1 0 46.942-11.677 61.104-31.238zm-25.555 4.603c-10.225 7.442-22.657 11.635-35.548 11.635-12.938 0-24.929-4.102-34.769-11.055 1.819-14.006 13.653-24.598 28.105-24.598h14.192c14.124 0 25.925 10.229 28.02 24.018zm-19.824-53.482c0 7.502-5.71 13.694-13.012 14.464h-5.422c-7.302-.77-13.012-6.961-13.012-14.464v-16.898h31.446zm20.153-11.596h-5.153v-12.802c0-4.143-3.357-7.5-7.5-7.5h-46.446c-4.143 0-7.5 3.357-7.5 7.5v12.802h-5.153v-14.492c0-12.881 8.481-23.816 20.151-27.521 1.545-.417 3.115-.769 4.705-1.063 1.313-.183 2.651-.285 4.014-.285h14.013c1.362 0 2.699.102 4.011.285 1.592.295 3.164.647 4.71 1.065 11.669 3.706 20.149 14.64 20.149 27.521v14.49zm-96.283 16.306c0-11.993 3.527-23.171 9.578-32.579-.024.592-.048 1.183-.048 1.781v15.51c0 7.709 6.272 13.981 13.982 13.981h6.369c.64 5.548 2.83 10.625 6.116 14.806-10.473 4.652-18.714 13.317-22.794 24.131-8.252-10.33-13.203-23.409-13.203-37.63z" data-original="#000000" class="active-path" data-old_color="#000000" fill="#FFFFFF"/><path d="m427.637 303.736c4.229-15.39 6.377-31.288 6.377-47.383 0-23.677-4.706-46.897-13.624-68.405-.145-.488-.341-.961-.584-1.413-7.295-17.177-17.293-33.233-29.753-47.516-22.849-26.189-52.684-45.028-85.668-54.425-.271-.091-.547-.167-.826-.226-5.284-1.478-10.649-2.711-16.077-3.697-2.24-15.403-15.529-27.272-31.542-27.272-15.952 0-29.203 11.776-31.52 27.092-5.728 1.005-11.416 2.288-17.018 3.849-9.503-48.02-51.939-84.34-102.705-84.34-57.73 0-104.697 46.968-104.697 104.698 0 50.545 36.004 92.838 83.712 102.583-4.54 15.906-6.847 32.371-6.847 49.071 0 24.203 4.849 47.292 13.612 68.359.155.534.372 1.05.644 1.54 20.986 49.145 63.394 87.039 115.426 101.87.249.082.5.151.755.207 15.32 4.294 31.464 6.598 48.137 6.598 16.448 0 32.671-2.237 48.353-6.64.027-.007.054-.009.081-.016 10.15 47.182 52.185 82.657 102.356 82.657 57.73 0 104.698-46.968 104.698-104.698.001-50.395-35.792-92.585-83.29-102.493zm-21.408-2.204c-25.617 0-49.11 9.253-67.325 24.585 1.671-11.447 2.916-23.24 3.739-35.285 14.126-2.308 25.427-13.113 28.473-26.98h47.721c-.583 12.87-2.663 25.561-6.216 37.881-2.115-.128-4.245-.201-6.392-.201zm-104.688 103.942c-1.486 3.204-3.014 6.256-4.564 9.123-11.104 2.908-22.494 4.633-34.037 5.155v-49.325c15.733-.3 31.243-1.551 46.346-3.722-4.904 11.982-7.648 25.066-7.745 38.769zm-87.631 9.105c-4.729-8.726-9.055-18.776-12.906-30.002 6.425-3.44 11.407-9.227 13.806-16.207 10.883 1.157 21.975 1.845 33.13 2.059v49.319c-11.703-.531-23.088-2.295-34.03-5.169zm-121.866-150.726h75.083c.347 24.116 2.372 47.522 6.03 69.775-4.159 2.338-7.684 5.67-10.256 9.672-22.629-6.4-42.91-15.201-59.109-25.656-6.792-16.742-10.889-34.851-11.748-53.791zm117.32-156.655c1.481-3.189 2.998-6.233 4.537-9.079 3.913-1.024 7.867-1.904 11.844-2.634 3.425 10.105 11.78 17.955 22.195 20.656v26.139c-16.006.304-31.764 1.586-47.086 3.82 5.179-11.983 8.185-25.116 8.51-38.902zm76.712-11.541c3.669.696 7.306 1.515 10.903 2.458 7.33 13.529 13.602 30.116 18.594 48.823-16.909-2.732-34.571-4.318-52.633-4.663v-25.901c10.816-2.433 19.564-10.375 23.136-20.717zm132.765 153.196h-47.724c-3.045-13.865-14.343-24.668-28.465-26.978-1.334-19.448-3.811-38.228-7.292-55.788 27.543 6.461 52.117 16.295 71.747 28.987 6.877 17.026 10.883 35.198 11.734 53.779zm-100.979 101.285c-17.731 3.134-36.153 4.917-54.923 5.289v-91.574h39.927c2.777 12.641 12.414 22.734 24.798 26.169-1.363 19.835-3.924 38.923-7.634 56.855-.741 1.073-1.466 2.159-2.168 3.261zm19.13-73.842c-10.997 0-19.944-8.946-19.944-19.943s8.947-19.943 19.944-19.943 19.943 8.946 19.943 19.943-8.946 19.943-19.943 19.943zm-9.321-53.614c-12.387 3.434-22.027 13.528-24.804 26.171h-39.927v-91.574c19.507.384 38.487 2.26 56.45 5.505 4.007 18.576 6.827 38.799 8.281 59.898zm-136.318-59.289c.137-.202.272-.405.407-.608 18.097-3.271 36.941-5.125 56.179-5.505v91.573h-65.827c.456-29.865 3.626-59.229 9.241-85.46zm56.586 100.46v91.574c-10.814-.215-21.561-.896-32.096-2.033-2.578-13.233-14.167-23.277-28.098-23.469-3.397-21.076-5.281-43.234-5.62-66.072zm-64.476 81.618c.059-.016.119-.029.177-.046 1.182-.324 2.419-.511 3.702-.511 7.743 0 14.041 6.299 14.042 14.041-.003.098-.011.196-.018.294l-.031.492c-.003.066.001.13-.001.196-.507 7.286-6.58 13.063-13.992 13.063-7.743 0-14.043-6.3-14.043-14.043 0-6.396 4.303-11.797 10.164-13.486zm195.287-196.591c6.092 6.983 11.533 14.433 16.307 22.25-18.664-9.12-40.084-16.262-63.256-21.169-4.073-16.637-9.095-31.897-14.935-45.227 23.596 9.573 44.857 24.629 61.884 44.146zm-122.811-80.482c9.308 0 16.88 7.572 16.88 16.88s-7.572 16.88-16.88 16.88-16.88-7.572-16.88-16.88 7.573-16.88 16.88-16.88zm-240.939 36.3c0-49.46 40.238-89.698 89.697-89.698 49.46 0 89.698 40.238 89.698 89.698 0 .188-.006.374-.007.561-.001.025 0 .05-.001.075-.344 49.167-40.443 89.061-89.69 89.061-49.459.001-89.697-40.238-89.697-89.697zm89.697 104.698c25.738 0 49.331-9.341 67.582-24.803-3.084 20.53-4.843 42.275-5.169 64.26h-75.07c.61-13.489 2.865-26.768 6.73-39.628 1.963.109 3.938.171 5.927.171zm11.166 132.164c12.873 6.268 27.187 11.68 42.471 16.033-.021.452-.035.907-.035 1.364 0 15.668 12.473 28.47 28.01 29.017 2.383 7.079 4.959 13.734 7.698 19.97-32.58-13.252-59.96-36.706-78.144-66.384zm290.366 154.368c-49.182 0-89.24-39.79-89.688-88.868 0-.009.001-.018.001-.026l-.012-.804c0-49.459 40.238-89.697 89.698-89.697s89.698 40.238 89.698 89.697c.002 49.459-40.237 89.698-89.697 89.698z" data-original="#000000" class="active-path" data-old_color="#000000" fill="#FFFFFF"/><path d="m473.991 414.879c-4.025-.967-8.077 1.511-9.047 5.537-1.507 6.261-3.954 12.08-7.156 17.34v-62.156c0-.271-.021-.536-.026-.805 3.454 5.617 6.026 11.852 7.48 18.538.88 4.047 4.867 6.608 8.923 5.735 4.048-.881 6.615-4.875 5.735-8.923-3.602-16.561-12.853-31.61-26.051-42.378-13.394-10.928-30.306-16.945-47.62-16.945-41.58 0-75.407 33.827-75.407 75.407s33.827 75.407 75.407 75.407c34.979 0 65.121-23.731 73.299-57.711.969-4.027-1.509-8.076-5.537-9.046zm-51.355-13.191c0 7.5-5.707 13.691-13.006 14.464h-5.435c-7.299-.773-13.006-6.963-13.006-14.464v-16.898h31.446v16.898zm7.5-31.898h-46.446c-4.143 0-7.5 3.357-7.5 7.5v24.398c0 6.869 2.37 13.185 6.317 18.207-4.23 1.879-8.095 4.41-11.471 7.476v-51.771c0-15.919 12.951-28.87 28.87-28.87h14.013c1.454 0 2.882.111 4.278.319 1.911.392 3.795.867 5.643 1.438 11.046 4.055 18.948 14.679 18.948 27.113v51.051c-3.348-2.886-7.138-5.262-11.257-7.018 3.821-4.979 6.105-11.198 6.105-17.945v-24.398c0-4.143-3.358-7.5-7.5-7.5zm-84.314 36.439c0-12.489 3.81-24.105 10.328-33.747-.073 1.03-.115 2.069-.115 3.118v64.198c-6.445-9.607-10.213-21.155-10.213-33.569zm26.289 49.815c1.69-14.151 13.584-24.892 28.137-24.892h14.192c13.956 0 25.639 9.99 27.935 23.532-10.146 7.564-22.696 11.952-36.146 11.952-12.652.001-24.403-3.917-34.118-10.592z" data-original="#000000" class="active-path" data-old_color="#000000" fill="#FFFFFF"/></g> </svg>
