<?xml version="1.0" encoding="utf-8"?>
<!-- Generator: Adobe Illustrator 22.0.0, SVG Export Plug-In . SVG Version: 6.00 Build 0)  -->
<svg version="1.1" id="Capa_1" xmlns="http://www.w3.org/2000/svg" xmlns:xlink="http://www.w3.org/1999/xlink" x="0px" y="0px"
	 viewBox="0 0 409.7 409.7" style="enable-background:new 0 0 409.7 409.7;" xml:space="preserve">
<style type="text/css">
	.st0{fill:#B70B14;}
</style>
<g>
	<path class="st0" d="M130,273c14.5,36.4,74.2,63,110.7,44c13.6,32.1,17.3,105.8-54.6,83.9c-0.2,0.1-3.1-1.1-6-3.4
		c16.1,3.7,32.2-8.6,32.2-25.6c0-14.5-11.8-26.3-26.3-26.3c-37.5,0-33.4,58,6.3,63.3c16.4,2.2,29-0.1,38.4-5.2
		c33.8-18.3,22.6-58.4,15.3-88.4c5.5-3.8,31.9-15.7,37.1-42.4c6.3-47-24.3-65.5-60.9-61.8l-10.4-47.1c11.7-10,23.4-20.7,31.8-33.7
		c25.8-39.5,20.6-90.4-8.4-127.6c-2.9-3.7-7.9-3.6-10.8,0c-32.3,40.1-33,72.2-29.3,97.3c1.6,9.7,4,19.4,5.2,29.1
		c-9.4,8.2-19.6,17-29.3,26.8C141.9,186.4,115,229.2,130,273z M243.8,308.8c-5.7-26.1-10.9-49.4-16.5-75
		C274,233.2,278.9,288.1,243.8,308.8z M214.1,46.7c5.3-10.9,11.7-23.5,22.4-20.8c15.3,3.9,18.7,28.2,10.8,49.6
		c-7.4,20-22.4,32-25.5,36c-6,7.5-12.1,13.3-17.7,14.9C200.9,109.7,202.4,70.6,214.1,46.7z M207.1,168.1l9.5,43.1
		c-38.8,6.8-58,59.3-20.9,77c4.2,2,4.6,0.9,1.6-2.6c-15.8-18.5-4.1-50.2,24.3-51.8c5.9,26.9,11.2,50.9,17.1,77.6
		c-35,16.3-79.6,2.2-91.3-37.1c-1.5-2.2-1.6-4.6-1.7-7.1C137.9,218.9,175.5,194.6,207.1,168.1z"/>
</g>
</svg>
