<?xml version="1.0" encoding="utf-8"?>
<!-- Generator: Adobe Illustrator 16.0.3, SVG Export Plug-In . SVG Version: 6.00 Build 0)  -->
<!DOCTYPE svg PUBLIC "-//W3C//DTD SVG 1.1//EN" "http://www.w3.org/Graphics/SVG/1.1/DTD/svg11.dtd">
<svg version="1.1" id="Capa_1" xmlns="http://www.w3.org/2000/svg" xmlns:xlink="http://www.w3.org/1999/xlink" x="0px" y="0px"
	 width="1.42px" height="1.42px" viewBox="0 0 1.42 1.42" enable-background="new 0 0 1.42 1.42" xml:space="preserve">
<path fill="#45A2DA" d="M0.5,1.36c-0.058,0-0.118-0.005-0.178-0.015C0.216,1.327,0.11,1.267,0.079,1.249L0,1.202l0.085-0.031
	C0.18,1.138,0.237,1.117,0.308,1.084C0.237,1.047,0.183,0.979,0.156,0.894l-0.02-0.066L0.152,0.83
	C0.137,0.813,0.125,0.796,0.116,0.78C0.082,0.724,0.063,0.656,0.067,0.597L0.071,0.54l0.032,0.013
	C0.089,0.526,0.079,0.496,0.074,0.466C0.06,0.391,0.071,0.312,0.106,0.242l0.028-0.055l0.038,0.048
	c0.116,0.152,0.264,0.243,0.44,0.27C0.604,0.451,0.61,0.398,0.628,0.352c0.021-0.054,0.058-0.1,0.106-0.133
	C0.789,0.184,0.855,0.166,0.92,0.17C0.99,0.175,1.053,0.203,1.103,0.252C1.127,0.245,1.146,0.238,1.17,0.228
	c0.015-0.006,0.031-0.012,0.052-0.021l0.077-0.028l-0.05,0.155c0.003,0,0.006,0,0.01,0L1.34,0.329L1.292,0.4
	C1.289,0.404,1.289,0.405,1.288,0.408C1.284,0.414,1.279,0.421,1.213,0.517C1.196,0.542,1.188,0.573,1.189,0.605
	c0.006,0.125-0.008,0.238-0.042,0.336C1.116,1.035,1.066,1.114,1,1.178C0.919,1.258,0.815,1.312,0.692,1.34
	C0.632,1.354,0.567,1.36,0.5,1.36"/>
</svg>
