<svg xmlns="http://www.w3.org/2000/svg" viewBox="0 0 925.86 291.07"><defs><style>.cls-1,.cls-3{fill:#fff;}.cls-2{fill:#ff0035;}.cls-3{font-size:53.03px;font-family:Calibri-Light, Calibri;font-weight:300;}</style></defs><title>white logo</title><g id="Layer_2" data-name="Layer 2"><g id="Layer_1-2" data-name="Layer 1"><path class="cls-1" d="M54.71,154.75a6.63,6.63,0,0,1-2.49-.5A8,8,0,0,1,49.49,152L23.73,123.56V153.9H11.91V111.06a14.31,14.31,0,0,1,.6-4.4,8.79,8.79,0,0,1,1.57-3,5.93,5.93,0,0,1,2.26-1.7,6.85,6.85,0,0,1,2.67-.54,6.39,6.39,0,0,1,2.42.5,8.32,8.32,0,0,1,2.8,2.27L50,132.59V102.26H61.87V145a14.31,14.31,0,0,1-.6,4.4,9.41,9.41,0,0,1-1.57,3.05,5.72,5.72,0,0,1-2.29,1.74A7.11,7.11,0,0,1,54.71,154.75Z"/><path class="cls-1" d="M98.94,101.41q15.33,0,23,6.41T129.66,128q0,13.89-7.66,20.3t-23.06,6.41q-15.47,0-23.09-6.41T68.21,128q0-13.81,7.67-20.22T98.94,101.41Zm0,39.91a56.91,56.91,0,0,0,8.29-.51,12.89,12.89,0,0,0,5.5-2,8.26,8.26,0,0,0,3-4.06,20,20,0,0,0,.94-6.75,20.13,20.13,0,0,0-.94-6.76,8,8,0,0,0-3-4,13.16,13.16,0,0,0-5.5-1.93,58.53,58.53,0,0,0-8.29-.5,58.53,58.53,0,0,0-8.29.5,13.06,13.06,0,0,0-5.5,1.93,8,8,0,0,0-3.05,4,20.13,20.13,0,0,0-.94,6.76,20,20,0,0,0,.94,6.75,8.2,8.2,0,0,0,3.05,4.06,12.79,12.79,0,0,0,5.5,2A56.91,56.91,0,0,0,98.94,141.32Z"/><path class="cls-1" d="M149.46,153.9h-13V102.26h13Z"/><path class="cls-1" d="M196.52,122.87q7.72,0,11.75,3.51t4,10.61a23.44,23.44,0,0,1-1,7.11,12.75,12.75,0,0,1-3.2,5.32,14.45,14.45,0,0,1-5.62,3.32,25.81,25.81,0,0,1-8.2,1.16H155.11l8.36-13.28h31.79a5.21,5.21,0,0,0,3.39-.89,3.52,3.52,0,0,0,1.07-2.89,3.43,3.43,0,0,0-1.07-2.86,5.48,5.48,0,0,0-3.39-.85H172.39a20.55,20.55,0,0,1-7-1.08,13.32,13.32,0,0,1-4.9-3,11.86,11.86,0,0,1-2.89-4.67,18.43,18.43,0,0,1-.94-6.06,19.7,19.7,0,0,1,1-6.6,12.73,12.73,0,0,1,3.2-5,14.77,14.77,0,0,1,5.59-3.25,25.83,25.83,0,0,1,8.2-1.15h36.51l-8.36,13.43H173.65a5.91,5.91,0,0,0-3.36.77,3.14,3.14,0,0,0-1.1,2.78,3.26,3.26,0,0,0,1.1,2.82,5.66,5.66,0,0,0,3.36.81Z"/><path class="cls-1" d="M266.89,140.62l-8.35,13.28H218.07V102.26h48.7l-8.42,13.43H231.14v6.17h33.3L257,133.6H231.14v7Z"/><path class="cls-2" d="M899.87,125.87l-45.31-.94h-.41l-.29.32-8.56,9.35-10.81-18.33-1.61-2.73-1.22,3-4,10-3.44-4-1.63-1.89-1.46,2.11-5.7,8.24-3.12-5.36L810.15,122l-2,3.77-3,5.73-9.32-15-2.22-3.58L791,116.33,778.77,132.6c-6.52-.11-13-.24-19.54-.28-6.82,0-13.63,0-20.45,0a21,21,0,0,1-2.76-1.49,34,34,0,0,1-3.26-2.32,36.75,36.75,0,0,1-5.69-5.8,51,51,0,0,1-7.94-14.49c-.47-1.32-.86-2.67-1.29-4l-1-4.11c-.57-2.77-1.07-5.56-1.38-8.4-.22-1.4-.26-2.84-.38-4.26s-.21-2.86-.21-4.3c-.12-2.86-.05-5.74.06-8.62s.38-5.77.64-8.65.61-5.76,1.15-8.62.92-5.74,1.56-8.59,1.17-5.71,1.91-8.53,1.39-5.68,2.22-8.48,1.57-5.64,2.5-8.42,1.72-5.59,2.73-8.35l2.94-8.3L732.88,0l-6.62,2c-4.09,1.24-7.81,2.64-11.61,4.17s-7.49,3.14-11.15,4.89-7.28,3.58-10.85,5.49-7.07,4-10.55,6.06L677,25.87l-5,3.39c-3.33,2.33-6.62,4.69-9.82,7.19-1.62,1.21-3.18,2.51-4.75,3.8s-3.14,2.57-4.65,3.93c-3.09,2.64-6,5.45-9,8.25s-5.73,5.76-8.4,8.82-5.3,6.17-7.9,9.29c-2.44,3.26-5,6.43-7.23,9.83s-4.49,6.78-6.62,10.25c-1.11,1.71-2,3.53-3,5.29s-2,3.53-2.88,5.38c-1.81,3.65-3.64,7.28-5.18,11-1.69,3.7-3.06,7.53-4.47,11.35-1.12,3-2,6-3,9H527.49L478.22,45.6l-6.6-11.67V47.34l0,100.58L410.28,49.58l-6.54-10.47,0,12.35L404,153.3,382,123l-2.49-3.44-2.91,3.06c-5.69,6-11.55,11.85-17.19,17.9L342,109.89l-2.46-4.31L337.55,110l-10.89,24.75-5.09-9.34-.41-.76-.8,0L272.09,126l47.41,1.33,5.8,12,1.5,3.09,1.57-3.15,11.42-22.81,15.88,31.39,2.1,4.14,3.45-3.39c6-5.89,11.72-12.08,17.53-18.17l25.9,35.76,6.4,8.84,0-10.92-.19-100.41,61.37,98.31,6.52,10.45V160.23l0-99.48L522.37,138l1,1.79h76.83l.84-2.56c1.22-3.72,2.24-7.51,3.62-11.17s2.68-7.36,4.31-10.92c1.47-3.63,3.24-7.12,5-10.63.82-1.77,1.84-3.45,2.77-5.17s1.84-3.45,2.91-5.09c2.06-3.33,4.09-6.68,6.37-9.86s4.62-6.32,7-9.46c2.52-3,4.93-6.09,7.61-9s5.37-5.7,8.11-8.51,5.67-5.41,8.65-8c1.46-1.32,3-2.56,4.49-3.8s3-2.5,4.6-3.68c3.09-2.41,6.28-4.7,9.5-7l4.89-3.28,5-3.14c3.36-2,6.76-4,10.21-5.88s7-3.66,10.51-5.32,7.14-3.25,10.77-4.72c1.38-.56,2.78-1.09,4.19-1.61l-.54,1.52c-1,2.81-1.85,5.7-2.79,8.54s-1.74,5.73-2.56,8.62S714,35.57,713.3,38.5s-1.39,5.85-2,8.8-1.13,5.92-1.62,8.9-.79,6-1.2,9-.54,6-.66,9.08-.19,6.07-.07,9.13c0,1.52.09,3,.22,4.58s.18,3.06.41,4.58c.34,3.06.87,6.1,1.51,9.12l1.14,4.52c.48,1.48.92,3,1.44,4.44a57.83,57.83,0,0,0,9.07,16.53,46.33,46.33,0,0,0,6.72,6.86,42,42,0,0,0,4,2.86,27.44,27.44,0,0,0,4.64,2.4l.5.2h.68c7,0,14.11.08,21.16,0s14.11-.19,21.16-.3l1.73,0,.93-1.34,10.23-14.64L803.14,138l2.48,3.71,1.92-3.93,3-6.08,2.85,4.53,1.86,2.94,1.84-2.86L823,127l3.84,4.15,2,2.2,1-2.76,3.65-10,10.54,16.56.88,1.38,1-1.22,9-10.59Z"/><text class="cls-3" transform="translate(898.98 200.82)">®</text><path class="cls-1" d="M101.15,215.06q18.88,0,28.71,8.61t9.82,26a57.71,57.71,0,0,1-2.45,17.39,31.25,31.25,0,0,1-7.83,13.05,35.36,35.36,0,0,1-13.74,8.13,62.73,62.73,0,0,1-20,2.83H0l20.42-32.52H98.08q5.69,0,8.29-2.17t2.61-7.09q0-4.92-2.61-7c-1.74-1.38-4.5-2.08-8.29-2.08H42.21A49.84,49.84,0,0,1,25,237.56a32.58,32.58,0,0,1-12-7.37A29,29,0,0,1,6,218.75a45.34,45.34,0,0,1-2.31-14.84,49,49,0,0,1,2.54-16.17A31,31,0,0,1,14,175.36a36.11,36.11,0,0,1,13.67-7.94,62.63,62.63,0,0,1,20-2.84h89.18l-20.42,32.9H45.28q-5.52,0-8.21,1.89t-2.69,6.81q0,4.92,2.69,6.9t8.21,2Z"/><path class="cls-1" d="M278.44,291.07H246.82V242.29H185.73v48.78H153.8V164.58h31.93v44.81h61.09V164.58h31.62Z"/><path class="cls-1" d="M341.38,291.07l19.18-32.52H396q5,0,8.67.38-2.16-3.4-5-8.6t-5.45-9.74l-18.42-33.47-48.2,83.95H290l65.85-114.39a40.7,40.7,0,0,1,8.13-9.83,19.9,19.9,0,0,1,24.48-.28,36,36,0,0,1,8.22,10.11L460.8,291.07Z"/><path class="cls-1" d="M617.83,291.07H575.31l-22.87-33.46H503.63v33.46H471.85V226.41h89.34a20.2,20.2,0,0,0,12.43-3.78,12.26,12.26,0,0,0,5.07-10.4q0-7.38-4.61-11.06t-12.89-3.69H471.85l20.72-32.9h66a86.82,86.82,0,0,1,18.11,2,48.55,48.55,0,0,1,17,7.09,40.37,40.37,0,0,1,12.66,13.8q5,8.7,5,22.31a51.83,51.83,0,0,1-1.84,14,42.39,42.39,0,0,1-5.3,11.91,34.61,34.61,0,0,1-8.44,9,31,31,0,0,1-11.28,5.19,80.24,80.24,0,0,1,5.83,6.24q3.23,3.8,8.6,10.4Z"/><path class="cls-1" d="M758.74,291.07h-48l-31-33.27q-8-8.52-12.2-13.24t-6.83-7.94q.15,4.35.31,9t.15,9.17v36.3H629.18V164.58h31.93v29.31q0,5.87-.15,11.53T660.5,216c2-2.27,4.53-5.07,7.44-8.41s6.73-7.41,11.44-12.2L709,164.58h46l-39.29,36.3q-5.07,4.74-9,8.32t-7,6.24c-2,1.77-3.91,3.34-5.6,4.73s-3.35,2.71-5,4q4.45,3.78,10.75,9.45t16.27,15.7Z"/><path class="cls-1" d="M864.34,215.06q18.88,0,28.7,8.61t9.83,26a57.39,57.39,0,0,1-2.46,17.39,31.15,31.15,0,0,1-7.83,13.05,35.39,35.39,0,0,1-13.73,8.13,62.73,62.73,0,0,1-20,2.83H763.19l20.41-32.52h77.67q5.68,0,8.29-2.17t2.61-7.09q0-4.92-2.61-7c-1.74-1.38-4.5-2.08-8.29-2.08H805.4a49.77,49.77,0,0,1-17.19-2.65,32.54,32.54,0,0,1-12-7.37,29.27,29.27,0,0,1-7.06-11.44,45.61,45.61,0,0,1-2.3-14.84,49,49,0,0,1,2.53-16.17,31.13,31.13,0,0,1,7.83-12.38,36,36,0,0,1,13.66-7.94,62.72,62.72,0,0,1,20-2.84h89.19l-20.42,32.9H808.47q-5.54,0-8.21,1.89c-1.8,1.26-2.69,3.53-2.69,6.81s.89,5.58,2.69,6.9,4.52,2,8.21,2Z"/></g></g></svg>