<svg xmlns="http://www.w3.org/2000/svg" viewBox="0 0 24.57 20.11"><defs><style>.cls-1{fill:#0af;}</style></defs><title>Twitter (Blue)</title><g id="Layer_2" data-name="Layer 2"><g id="Layer_2-2" data-name="Layer 2"><path class="cls-1" d="M9.17,20.11a21.47,21.47,0,0,1-3.26-.26,15.15,15.15,0,0,1-4.45-1.62L0,17.43l1.58-.51c1.72-.57,2.77-.92,4.07-1.47a5.44,5.44,0,0,1-2.79-3.23L2.5,11.11l.3.05a5.48,5.48,0,0,1-.69-.85,5.17,5.17,0,0,1-.88-3.08l.07-1,.58.22A5.48,5.48,0,0,1,1.36,5,5.55,5.55,0,0,1,2,1.22l.5-.93.68.82a12.45,12.45,0,0,0,8.08,4.54,4.89,4.89,0,0,1,.29-2.56,4.82,4.82,0,0,1,2-2.24A5.91,5.91,0,0,1,16.87,0a5.48,5.48,0,0,1,3.35,1.38A10.93,10.93,0,0,0,21.44,1l1-.35L23.8.15l-.92,2.62.19,0,1.5-.07L23.69,3.9,23.6,4c-.07.11-.16.24-1.37,1.87a2.28,2.28,0,0,0-.43,1.49A14,14,0,0,1,21,13a10,10,0,0,1-2.69,4,12,12,0,0,1-5.65,2.73A17.3,17.3,0,0,1,9.17,20.11Z"/></g></g></svg>