<svg xmlns="http://www.w3.org/2000/svg" xmlns:xlink="http://www.w3.org/1999/xlink" viewBox="0 0 26.98 26.6"><defs><style>.cls-1{font-size:13px;font-family:EncodeSans-Regular, Encode Sans;}.cls-1,.cls-2{fill:#535353;}</style><symbol id="_10_sec_Forward" data-name="10 sec Forward" viewBox="0 0 26.98 26.6"><text class="cls-1" transform="translate(5.99 17.77)">10</text><path class="cls-2" d="M12.82,0A12.53,12.53,0,0,1,23.88,6.72L27,3.5v9.1H18.21L22,8.68A10.23,10.23,0,0,0,12.82,2.8,10.39,10.39,0,0,0,2.7,13.3,10.39,10.39,0,0,0,12.82,23.8a10.28,10.28,0,0,0,9.58-7h2.83a13,13,0,0,1-12.41,9.8A13.06,13.06,0,0,1,0,13.3C0,6,5.8,0,12.82,0Z"/></symbol></defs><title>Forward 10sec (Grey)</title><g id="Layer_2" data-name="Layer 2"><g id="Layer"><use width="26.98" height="26.6" xlink:href="#_10_sec_Forward"/></g></g></svg>