<?xml version="1.0" encoding="utf-8"?>
<!-- Generator: Adobe Illustrator 23.0.1, SVG Export Plug-In . SVG Version: 6.00 Build 0)  -->
<svg version="1.1" baseProfile="tiny" id="Layer_1" xmlns="http://www.w3.org/2000/svg" xmlns:xlink="http://www.w3.org/1999/xlink"
	 x="0px" y="0px" viewBox="0 0 24 24" xml:space="preserve">
<g>
	<path fill="#999999" d="M15.5,15.6c0.3,0.3,0.7,0.3,0.9,0l2.7-2.7l2.7,2.7c0.3,0.3,0.7,0.3,0.9,0c0.3-0.3,0.3-0.7,0-0.9L20.1,12
		l2.7-2.7c0.3-0.3,0.3-0.7,0-0.9c-0.3-0.3-0.7-0.3-0.9,0l-2.7,2.7l-2.7-2.7c-0.3-0.3-0.7-0.3-0.9,0c-0.3,0.3-0.3,0.7,0,0.9l2.7,2.7
		l-2.7,2.7C15.3,15,15.3,15.4,15.5,15.6z"/>
	<path fill="#999999" d="M1.6,7.3h2.6v9.4H1.6c-0.4,0-0.6-0.3-0.6-0.6V7.9C1,7.6,1.3,7.3,1.6,7.3z"/>
	<path fill="#999999" d="M14.1,4.4v15.2c0,0.9-1,1.5-1.8,1.1L5.5,17V7l6.7-3.7C13.1,2.9,14.1,3.5,14.1,4.4L14.1,4.4z"/>
</g>
</svg>
