<?xml version="1.0" encoding="utf-8"?>
<!-- Generator: Adobe Illustrator 23.0.1, SVG Export Plug-In . SVG Version: 6.00 Build 0)  -->
<svg version="1.1" baseProfile="tiny" id="Layer_1" xmlns="http://www.w3.org/2000/svg" xmlns:xlink="http://www.w3.org/1999/xlink"
	 x="0px" y="0px" viewBox="0 0 24 24" xml:space="preserve">
<g>
	<path fill="#999999" d="M19.3,5.2c-0.3,0.3-0.3,0.7,0,0.9c1.6,1.6,2.5,3.7,2.5,5.9c0,2.2-0.9,4.3-2.5,5.9c-0.4,0.4-0.1,1.1,0.5,1.1
		c0.2,0,0.3-0.1,0.5-0.2C22,17,23,14.6,23,12c0-2.6-1-5-2.8-6.8C19.9,4.9,19.5,4.9,19.3,5.2L19.3,5.2z"/>
	<path fill="#999999" d="M17.4,16.1c-0.3,0.3-0.3,0.7,0,0.9c0.3,0.3,0.7,0.3,0.9,0c1.3-1.3,2.1-3.1,2.1-5s-0.7-3.7-2.1-5
		c-0.3-0.3-0.7-0.3-0.9,0c-0.3,0.3-0.3,0.7,0,0.9c1.1,1.1,1.7,2.5,1.7,4.1S18.5,15,17.4,16.1z"/>
	<path fill="#999999" d="M15.6,15.2c0.3,0.3,0.7,0.3,0.9,0c0.9-0.8,1.3-2,1.3-3.2s-0.5-2.3-1.3-3.2c-0.3-0.3-0.7-0.3-0.9,0
		c-0.3,0.3-0.3,0.7,0,0.9c0.6,0.6,0.9,1.4,0.9,2.3c0,0.9-0.3,1.7-0.9,2.3C15.4,14.5,15.4,14.9,15.6,15.2L15.6,15.2z"/>
	<path fill="#999999" d="M1.6,7.3h2.6v9.4H1.6c-0.4,0-0.6-0.3-0.6-0.6V7.9C1,7.6,1.3,7.3,1.6,7.3z"/>
	<path fill="#999999" d="M14.1,4.4v15.2c0,0.9-1,1.5-1.8,1.1L5.5,17V7l6.7-3.7C13.1,2.9,14.1,3.5,14.1,4.4L14.1,4.4z"/>
</g>
</svg>
