<?xml version="1.0" encoding="utf-8"?>
<!-- Generator: Adobe Illustrator 16.0.3, SVG Export Plug-In . SVG Version: 6.00 Build 0)  -->
<!DOCTYPE svg PUBLIC "-//W3C//DTD SVG 1.1//EN" "http://www.w3.org/Graphics/SVG/1.1/DTD/svg11.dtd">
<svg version="1.1" id="Capa_1" xmlns="http://www.w3.org/2000/svg" xmlns:xlink="http://www.w3.org/1999/xlink" x="0px" y="0px"
	 width="1.42px" height="1.42px" viewBox="0 0 1.42 1.42" enable-background="new 0 0 1.42 1.42" xml:space="preserve">
<g>
	<path fill="#7F7D7D" d="M0.661,1.404c-0.204,0-0.37-0.164-0.37-0.366v-0.76h0.087v0.76c0,0.154,0.126,0.28,0.283,0.28
		c0.157,0,0.284-0.126,0.284-0.28v-0.76c0-0.098-0.082-0.179-0.183-0.179c-0.099,0-0.181,0.081-0.181,0.179v0.76
		c0,0.043,0.036,0.079,0.08,0.079c0.044,0,0.081-0.036,0.081-0.079v-0.76h0.086v0.76c0,0.091-0.075,0.165-0.167,0.165
		c-0.091,0-0.166-0.074-0.166-0.165v-0.76c0-0.146,0.12-0.265,0.267-0.265c0.149,0,0.27,0.119,0.27,0.265v0.76
		C1.031,1.24,0.865,1.404,0.661,1.404z"/>
</g>
</svg>
