<?xml version="1.0" encoding="utf-8"?>
<!-- Generator: Adobe Illustrator 24.0.2, SVG Export Plug-In . SVG Version: 6.00 Build 0)  -->
<svg version="1.1" baseProfile="tiny" id="Capa_1" xmlns="http://www.w3.org/2000/svg" xmlns:xlink="http://www.w3.org/1999/xlink"
	 x="0px" y="0px" viewBox="0 0 1079.81 822.32" xml:space="preserve">
<g id="Layer_2">
	<g id="Layer_1-2">
		<rect x="0.75" y="0.37" fill="#565656" width="1079.22" height="126.6"/>
		<path fill="#565656" d="M696.23,506.11c-35.05,0-63.46,28.41-63.46,63.46c0,35.05,28.41,63.46,63.46,63.46
			s63.46-28.41,63.46-63.46l0,0C759.69,534.52,731.28,506.11,696.23,506.11z"/>
		<rect x="0.75" y="190.1" fill="#565656" width="1079.22" height="63.14"/>
		<rect x="190.49" y="569.57" fill="#565656" width="126.6" height="63.14"/>
		<path fill="#565656" d="M0.75,316.7v505.74h1079.22V316.7H0.75z M380.22,695.84H127.35V506.11h252.87V695.84z M506.49,442.97
			H127.35v-63.14h379.14V442.97z M822.82,695.84c-22.3,0.07-44.21-5.84-63.46-17.1c-19.22,11.05-40.97,16.94-63.14,17.1
			c-69.91,1.13-127.5-54.63-128.63-124.54c-1.13-69.91,54.63-127.5,124.54-128.63c23.66-0.38,46.94,5.87,67.23,18.05
			c19.19-11.48,41.1-17.61,63.46-17.76c69.83-3.56,129.32,50.16,132.88,119.98s-50.16,129.32-119.98,132.88
			C831.43,696.06,827.12,696.06,822.82,695.84z"/>
		<path fill="#565656" d="M822.82,506.11c-5.47,0.31-10.89,1.31-16.11,2.96c10.38,18.49,15.92,39.3,16.11,60.5
			c-0.19,21.1-5.73,41.8-16.11,60.18c5.23,1.65,10.64,2.65,16.11,2.96c34.96-2.52,61.26-32.91,58.73-67.86
			C879.29,533.39,854.28,508.37,822.82,506.11z"/>
	</g>
</g>
</svg>
