<?xml version="1.0" encoding="utf-8"?>
<!-- Generator: Adobe Illustrator 16.0.3, SVG Export Plug-In . SVG Version: 6.00 Build 0)  -->
<!DOCTYPE svg PUBLIC "-//W3C//DTD SVG 1.1//EN" "http://www.w3.org/Graphics/SVG/1.1/DTD/svg11.dtd">
<svg version="1.1" id="Capa_1" xmlns="http://www.w3.org/2000/svg" xmlns:xlink="http://www.w3.org/1999/xlink" x="0px" y="0px"
	 width="1.42px" height="1.42px" viewBox="0 0 1.42 1.42" enable-background="new 0 0 1.42 1.42" xml:space="preserve">
<g>
	<path fill="#FFFFFF" d="M0.446,0.346c0-0.109,0.118-0.198,0.264-0.198c0.145,0,0.264,0.089,0.264,0.198v0.158h0.108V0.346
		c0-0.154-0.167-0.28-0.372-0.28s-0.373,0.126-0.373,0.28v0.158h0.109V0.346z"/>
	<path fill="#FFFFFF" d="M0.138,1.354h1.145V0.586H0.138V1.354z M0.764,0.993v0.146H0.656V0.993
		C0.612,0.977,0.583,0.944,0.583,0.906c0-0.053,0.057-0.096,0.127-0.096s0.127,0.043,0.127,0.096
		C0.837,0.944,0.807,0.977,0.764,0.993"/>
</g>
</svg>
