<svg xmlns="http://www.w3.org/2000/svg" xmlns:xlink="http://www.w3.org/1999/xlink" viewBox="0 0 17 17"><defs><style>.cls-1{fill:red;}.cls-2{fill:none;}</style><symbol id="Verified" data-name="Verified" viewBox="0 0 26.58 26.58"><g id="check_alt" data-name="check alt"><path class="cls-1" d="M13.29,26.58A13.29,13.29,0,1,1,26.58,13.29h0A13.29,13.29,0,0,1,13.29,26.58ZM11.23,7.17,5.12,13.28l2.35,2.3,3.76-3.77,8,8,2.35-2.35Z"/></g></symbol></defs><title>Verifed</title><g id="Layer_2" data-name="Layer 2"><g id="Layer_1-2" data-name="Layer 1"><use width="26.58" height="26.58" transform="matrix(0.52, 0, 0, -0.52, 1.59, 15.41)" xlink:href="#Verified"/><path class="cls-2" d="M9.49,2.61a6,6,0,0,0-6.61,8,5.9,5.9,0,0,0,5.62,4h.05A6,6,0,0,0,9.49,2.61Z"/><path class="cls-1" d="M17,7h0L15,5.94h0l.74-2.21h0l-2.33-.17h0L13.2,1.24h0L11,2h0L9.81,0h0L8.13,1.61h0L6.26.22h0L5.37,2.38h0L3.1,1.87h0L3.17,4.2h0L.89,4.66h0l1,2.09h0L0,8.1H0L1.78,9.6h0l-1.19,2h0l2.24.65h0l-.27,2.31h0l2.31-.31h0l.7,2.22h0l2-1.23h0L9.09,17h0l1.31-1.93h0l2.12,1h0l.41-2.29h2.34l-.56-2.26h0l2.14-.93h0L15.42,8.75h0ZM8.55,14.54H8.5a5.9,5.9,0,0,1-5.62-4,6,6,0,1,1,5.67,4Z"/></g></g></svg>