<?xml version="1.0" encoding="utf-8"?>
<!-- Generator: Adobe Illustrator 16.0.3, SVG Export Plug-In . SVG Version: 6.00 Build 0)  -->
<!DOCTYPE svg PUBLIC "-//W3C//DTD SVG 1.1//EN" "http://www.w3.org/Graphics/SVG/1.1/DTD/svg11.dtd">
<svg version="1.1" id="Capa_1" xmlns="http://www.w3.org/2000/svg" xmlns:xlink="http://www.w3.org/1999/xlink" x="0px" y="0px"
	 width="1.42px" height="1.42px" viewBox="0 0 1.42 1.42" enable-background="new 0 0 1.42 1.42" xml:space="preserve">
<path fill="#545454" d="M0.061,1.307c0,0.049,0.045,0.09,0.103,0.09H1.29c0.057,0,0.103-0.041,0.103-0.09V1.24
	c0-0.005-0.002-0.01-0.004-0.014L1.265,1.074V0.607c0-0.038-0.035-0.067-0.078-0.067H1.139C1.143,0.53,1.146,0.522,1.15,0.513
	c0.064-0.033,0.112-0.086,0.131-0.15c0.038-0.129-0.051-0.26-0.055-0.265C1.222,0.089,1.21,0.085,1.199,0.087
	c-0.011,0.002-0.018,0.011-0.02,0.02C1.174,0.152,1.145,0.192,1.016,0.25C0.978,0.266,0.949,0.294,0.934,0.33
	C0.919,0.363,0.921,0.401,0.939,0.435c-0.02,0.03-0.038,0.06-0.054,0.089c-0.011,0.021-0.021,0.04-0.03,0.06V0.313
	C0.854,0.31,0.854,0.307,0.854,0.304L0.785,0.081C0.777,0.058,0.753,0.042,0.727,0.042c-0.026,0-0.05,0.016-0.057,0.039L0.6,0.307
	c0,0.002,0,0.004,0,0.006v0.2L0.475,0.249C0.463,0.226,0.434,0.215,0.408,0.225L0.195,0.302c-0.026,0.01-0.039,0.036-0.028,0.06
	L0.251,0.54C0.214,0.546,0.188,0.575,0.188,0.607v0.467L0.065,1.227C0.063,1.23,0.061,1.235,0.061,1.24V1.307z M1.341,1.307
	c0,0.025-0.022,0.046-0.051,0.046H0.164c-0.029,0-0.051-0.021-0.051-0.046V1.261h0.373L0.53,1.3
	c0.004,0.005,0.011,0.007,0.018,0.007h0.359c0.007,0,0.013-0.001,0.018-0.007l0.044-0.039h0.373V1.307z M0.727,1.261H0.558
	L0.525,1.233l0.015-0.04h0.374l0.015,0.04L0.896,1.261H0.727z M0.978,0.465l0.041,0.016c0.026,0.01,0.052,0.021,0.077,0.031
	C1.091,0.526,1.085,0.54,1.079,0.554C1.076,0.56,1.073,0.565,1.07,0.572c-0.042-0.01-0.081-0.025-0.118-0.044
	C0.949,0.526,0.946,0.524,0.943,0.524C0.955,0.504,0.966,0.485,0.978,0.465 M1.04,0.291c0.089-0.041,0.143-0.077,0.17-0.12
	c0.028,0.057,0.035,0.12,0.022,0.181C1.215,0.403,1.177,0.446,1.125,0.473C1.096,0.462,1.068,0.451,1.04,0.439L0.987,0.418
	C0.974,0.396,0.973,0.369,0.982,0.345C0.992,0.321,1.014,0.301,1.04,0.291L1.04,0.291z M0.921,0.564
	c0.002,0.001,0.004,0.002,0.007,0.003c0.039,0.019,0.08,0.034,0.122,0.046C1.014,0.681,0.973,0.747,0.927,0.811H0.854V0.719
	C0.872,0.665,0.895,0.614,0.921,0.564 M0.752,0.811V0.584c0-0.013-0.012-0.022-0.026-0.022c-0.014,0-0.025,0.01-0.025,0.022v0.227
	H0.65v-0.43c0.015,0.011,0.033,0.018,0.051,0.021v0.069c0,0.013,0.012,0.023,0.025,0.023c0.014,0,0.026-0.011,0.026-0.023V0.401
	c0.019-0.003,0.036-0.01,0.051-0.021v0.335l0,0v0.001v0.093H0.752z M0.802,0.312C0.79,0.339,0.76,0.356,0.727,0.358
	c-0.033-0.002-0.063-0.02-0.075-0.046l0.024-0.078c0.032,0.014,0.071,0.014,0.103,0L0.802,0.312z M0.735,0.093l0.03,0.098
	C0.753,0.196,0.74,0.199,0.727,0.199c-0.013,0-0.025-0.003-0.037-0.008l0.03-0.098c0.001-0.003,0.005-0.005,0.007-0.005
	C0.73,0.087,0.733,0.089,0.735,0.093 M0.427,0.266l0.02,0.042L0.352,0.343C0.343,0.346,0.337,0.352,0.336,0.361
	c-0.001,0.007,0.003,0.016,0.01,0.02c0.008,0.005,0.017,0.006,0.026,0.003L0.467,0.35l0.02,0.042L0.438,0.409
	C0.427,0.413,0.421,0.423,0.423,0.434c0.002,0.01,0.013,0.018,0.025,0.018c0.003,0,0.006,0,0.009-0.002l0.048-0.017l0.02,0.042
	L0.43,0.51c-0.01,0.003-0.018,0.015-0.014,0.024c0.002,0.011,0.012,0.02,0.024,0.02c0.003-0.001,0.007-0.001,0.01-0.002l0.094-0.035
	l0.03,0.063l0.024,0.049v0.182H0.434l-0.22-0.467L0.427,0.266z M0.241,0.607c0-0.013,0.011-0.023,0.026-0.023h0.005l0.106,0.227
	h-0.01c-0.014,0-0.025,0.01-0.025,0.022c0,0.013,0.011,0.023,0.025,0.023h0.717c0.014,0,0.025-0.01,0.025-0.023
	c0-0.012-0.011-0.022-0.025-0.022H0.987C1.038,0.738,1.083,0.663,1.12,0.584h0.067c0.015,0,0.026,0.01,0.026,0.023v0.452H0.241
	V0.607z M0.228,1.104h0.998l0.092,0.113H0.976L0.957,1.164C0.953,1.155,0.942,1.149,0.932,1.149H0.521
	c-0.01,0-0.021,0.006-0.023,0.015l-0.02,0.053H0.136L0.228,1.104z"/>
</svg>
