<?xml version="1.0" encoding="utf-8"?>
<!-- Generator: Adobe Illustrator 24.0.2, SVG Export Plug-In . SVG Version: 6.00 Build 0)  -->
<svg version="1.1" baseProfile="tiny" id="Capa_1" xmlns="http://www.w3.org/2000/svg" xmlns:xlink="http://www.w3.org/1999/xlink"
	 x="0px" y="0px" viewBox="0 0 1682 1080" xml:space="preserve">
<g id="Layer_2">
	<g id="Layer_2-2">
		<path fill="#535353" d="M539.43,193.97c109.16,0.63,211.78,52.14,277.51,139.3l140.38-141.47
			C764.89-37.49,423.01-67.38,193.71,125.05s-259.19,534.31-66.75,763.61s534.31,259.19,763.61,66.75
			c122.69-102.97,193.56-254.93,193.59-415.1V491H587.13v197.84h262.88c-56.62,121.3-178.34,198.85-312.2,198.92
			c-192.2-0.29-348.36-155.24-350.14-347.43C189.75,347.79,346.89,193.07,539.43,193.97z"/>
		<path fill="#535353" d="M1530.24,293.16h-198.38v148.51h-148.51v197.84h148.51v149.05h198.38V639.51H1682V441.67h-151.76V293.16z"
			/>
	</g>
</g>
</svg>
