<?xml version="1.0" encoding="utf-8"?>
<!-- Generator: Adobe Illustrator 16.0.3, SVG Export Plug-In . SVG Version: 6.00 Build 0)  -->
<!DOCTYPE svg PUBLIC "-//W3C//DTD SVG 1.1//EN" "http://www.w3.org/Graphics/SVG/1.1/DTD/svg11.dtd">
<svg version="1.1" id="Capa_1" xmlns="http://www.w3.org/2000/svg" xmlns:xlink="http://www.w3.org/1999/xlink" x="0px" y="0px"
	 width="1.42px" height="1.42px" viewBox="0 0 1.42 1.42" enable-background="new 0 0 1.42 1.42" xml:space="preserve">
<g>
	<path fill="#E52620" d="M1.045-0.023c-0.122,0-0.236,0.059-0.312,0.159c-0.075-0.1-0.189-0.159-0.312-0.159
		c-0.221,0-0.4,0.191-0.4,0.425c0,0.184,0.104,0.397,0.308,0.634c0.158,0.181,0.329,0.323,0.378,0.362l0.026,0.021L0.76,1.397
		c0.049-0.039,0.22-0.181,0.378-0.362c0.205-0.237,0.308-0.45,0.308-0.634C1.446,0.167,1.267-0.023,1.045-0.023z M1.074,0.972
		c-0.132,0.152-0.273,0.273-0.34,0.329c-0.067-0.056-0.208-0.177-0.34-0.329C0.208,0.756,0.109,0.559,0.109,0.401
		c0-0.183,0.141-0.331,0.313-0.331c0.114,0,0.218,0.065,0.273,0.17l0.039,0.074l0.039-0.074c0.055-0.105,0.16-0.17,0.273-0.17
		c0.172,0,0.313,0.148,0.313,0.331C1.358,0.56,1.259,0.756,1.074,0.972z"/>
</g>
</svg>
