<?xml version="1.0" encoding="utf-8"?>
<!-- Generator: Adobe Illustrator 16.0.3, SVG Export Plug-In . SVG Version: 6.00 Build 0)  -->
<!DOCTYPE svg PUBLIC "-//W3C//DTD SVG 1.1//EN" "http://www.w3.org/Graphics/SVG/1.1/DTD/svg11.dtd">
<svg version="1.1" id="Capa_1" xmlns="http://www.w3.org/2000/svg" xmlns:xlink="http://www.w3.org/1999/xlink" x="0px" y="0px"
	 width="1.42px" height="1.42px" viewBox="0 0 1.42 1.42" enable-background="new 0 0 1.42 1.42" xml:space="preserve">
<g>
	<g>
		<g>
			<path fill="#545454" d="M0,0v1.42h1.42V0H0z M1.32,1.298H0.1V1.141l0.28-0.344L0.644,1.12l0.396-0.486l0.28,0.344V1.298z
				 M1.32,0.807l-0.28-0.345L0.644,0.948L0.379,0.625L0.1,0.969V0.122H1.32V0.807z"/>
		</g>
	</g>
	<g>
		<g>
			<path fill="#545454" d="M0.644,0.243c-0.082,0-0.149,0.083-0.149,0.183c0,0.101,0.067,0.183,0.149,0.183s0.148-0.082,0.148-0.183
				C0.792,0.326,0.726,0.243,0.644,0.243z M0.644,0.487c-0.028,0-0.05-0.028-0.05-0.062c0-0.033,0.022-0.061,0.05-0.061
				c0.027,0,0.05,0.028,0.05,0.061C0.694,0.459,0.671,0.487,0.644,0.487z"/>
		</g>
	</g>
</g>
</svg>
