<?xml version="1.0" encoding="utf-8"?>
<!-- Generator: Adobe Illustrator 24.0.2, SVG Export Plug-In . SVG Version: 6.00 Build 0)  -->
<svg version="1.1" id="Capa_1" xmlns="http://www.w3.org/2000/svg" xmlns:xlink="http://www.w3.org/1999/xlink" x="0px" y="0px"
	 viewBox="0 0 1430 1080" style="enable-background:new 0 0 1430 1080;" xml:space="preserve">
<style type="text/css">
	.st0{fill:#535353;}
</style>
<g>
	<g>
		<g>
			<path class="st0" d="M0,0v1080h1430V0H0z M1330.23,987.43H99.77V867.78l282.67-262.33l266.02,246.83l399.09-370.24l282.67,262.28
				V987.43z M1330.23,613.41l-282.67-262.28L648.47,721.38L382.44,474.55L99.77,736.82V92.57h1230.45V613.41z"/>
		</g>
	</g>
	<g>
		<g>
			<path class="st0" d="M648.47,185.15c-82.51,0-149.66,62.3-149.66,138.86c0,76.56,67.15,138.86,149.66,138.86
				c82.51,0,149.66-62.31,149.66-138.86C798.12,247.45,730.98,185.15,648.47,185.15z M648.47,370.3c-27.5,0-49.89-20.77-49.89-46.29
				c0-25.52,22.38-46.29,49.89-46.29s49.89,20.76,49.89,46.29C698.35,349.53,675.97,370.3,648.47,370.3z"/>
		</g>
	</g>
</g>
</svg>
