<?xml version="1.0" encoding="utf-8"?>
<!-- Generator: Adobe Illustrator 16.0.3, SVG Export Plug-In . SVG Version: 6.00 Build 0)  -->
<!DOCTYPE svg PUBLIC "-//W3C//DTD SVG 1.1//EN" "http://www.w3.org/Graphics/SVG/1.1/DTD/svg11.dtd">
<svg version="1.1" id="Capa_1" xmlns="http://www.w3.org/2000/svg" xmlns:xlink="http://www.w3.org/1999/xlink" x="0px" y="0px"
	 width="1.42px" height="1.42px" viewBox="0 0 1.42 1.42" enable-background="new 0 0 1.42 1.42" xml:space="preserve">
<g>
	<path fill="#545454" d="M1.094,0.793c0.025,0,0.044-0.02,0.044-0.044V0.197c0-0.024-0.02-0.044-0.044-0.044h-0.75
		c-0.024,0-0.044,0.02-0.044,0.044v0.551c0,0.024,0.02,0.044,0.044,0.044H1.094z M0.344,0.197h0.75v0.551h-0.75V0.197z"/>
	<path fill="#545454" d="M0.124,1.389h1.192c0.022,0,0.043-0.011,0.056-0.03C1.383,1.34,1.385,1.317,1.376,1.296L1.27,1.083
		C1.253,1.041,1.212,1.014,1.167,1.014H1.139V0.945C1.19,0.935,1.228,0.89,1.228,0.837V0.176c0-0.061-0.049-0.111-0.111-0.111H0.322
		c-0.061,0-0.11,0.05-0.11,0.111v0.661c0,0.053,0.037,0.098,0.088,0.108v0.068H0.272c-0.045,0-0.085,0.026-0.102,0.068L0.062,1.298
		C0.053,1.318,0.056,1.341,0.068,1.359C0.081,1.378,0.102,1.389,0.124,1.389 M0.255,0.837V0.176c0-0.038,0.03-0.066,0.066-0.066
		h0.795c0.037,0,0.066,0.029,0.066,0.066v0.661c0,0.037-0.03,0.066-0.066,0.066H0.322C0.286,0.903,0.255,0.874,0.255,0.837
		 M1.094,0.948v0.066h-0.75V0.948h0.044c0,0.011,0.01,0.021,0.022,0.021s0.022-0.01,0.022-0.021h0.043
		c0,0.011,0.01,0.021,0.022,0.021c0.013,0,0.022-0.01,0.022-0.021h0.044c0,0.011,0.01,0.021,0.021,0.021
		c0.013,0,0.023-0.01,0.023-0.021h0.044c0,0.011,0.01,0.021,0.022,0.021c0.011,0,0.022-0.01,0.022-0.021h0.043
		c0,0.011,0.01,0.021,0.022,0.021s0.022-0.01,0.022-0.021H0.83c0,0.011,0.01,0.021,0.022,0.021c0.012,0,0.022-0.01,0.022-0.021
		h0.044c0,0.011,0.01,0.021,0.022,0.021c0.012,0,0.022-0.01,0.022-0.021h0.043c0,0.011,0.01,0.021,0.022,0.021
		S1.05,0.959,1.05,0.948H1.094z M0.102,1.316L0.21,1.1c0.009-0.025,0.034-0.042,0.062-0.042h0.896c0.027,0,0.053,0.017,0.062,0.043
		l0.106,0.214c0.002,0.007,0.001,0.014-0.002,0.02C1.33,1.341,1.323,1.344,1.315,1.344H0.124c-0.008,0-0.014-0.003-0.018-0.008
		C0.102,1.331,0.1,1.323,0.102,1.316"/>
	<path fill="#545454" d="M0.25,1.3h0.603c0.024,0,0.044-0.019,0.044-0.044v-0.11c0-0.024-0.02-0.044-0.044-0.044H0.3
		c-0.017,0-0.031,0.01-0.04,0.024L0.211,1.234c-0.008,0.014-0.008,0.031,0,0.044C0.219,1.292,0.233,1.3,0.25,1.3 M0.3,1.146h0.552
		v0.11L0.25,1.255L0.3,1.146z"/>
	<path fill="#545454" d="M0.984,1.3h0.205c0.016,0,0.03-0.008,0.038-0.021C1.235,1.267,1.235,1.25,1.228,1.236L1.177,1.124
		C1.169,1.11,1.154,1.102,1.139,1.102H0.984c-0.024,0-0.043,0.02-0.043,0.044v0.11C0.94,1.281,0.959,1.3,0.984,1.3 M0.984,1.146
		l0.154-0.002l0.051,0.112H0.984V1.146z"/>
	<path fill="#545454" d="M0.424,0.246C0.417,0.241,0.409,0.24,0.402,0.244c-0.008,0.002-0.013,0.01-0.014,0.017
		c0,0.008,0.002,0.016,0.009,0.021L0.461,0.33L0.397,0.378C0.389,0.383,0.386,0.394,0.389,0.403C0.393,0.412,0.401,0.418,0.41,0.418
		c0.01,0,0.005,0.001,0.102-0.071C0.518,0.343,0.521,0.337,0.521,0.33c0-0.007-0.003-0.014-0.009-0.018L0.424,0.246z"/>
	<path fill="#545454" d="M0.631,0.374H0.565c-0.012,0-0.022,0.009-0.022,0.022s0.01,0.022,0.022,0.022h0.066
		c0.012,0,0.022-0.01,0.022-0.022S0.644,0.374,0.631,0.374"/>
</g>
</svg>
