<?xml version="1.0" encoding="utf-8"?>
<!-- Generator: Adobe Illustrator 16.0.3, SVG Export Plug-In . SVG Version: 6.00 Build 0)  -->
<!DOCTYPE svg PUBLIC "-//W3C//DTD SVG 1.1//EN" "http://www.w3.org/Graphics/SVG/1.1/DTD/svg11.dtd">
<svg version="1.1" id="Capa_1" xmlns="http://www.w3.org/2000/svg" xmlns:xlink="http://www.w3.org/1999/xlink" x="0px" y="0px"
	 width="1.42px" height="1.42px" viewBox="0 0 1.42 1.42" enable-background="new 0 0 1.42 1.42" xml:space="preserve">
<g>
	<path fill="#FFFFFF" d="M1.105,1.01C1.1,1.009,1.095,1.005,1.093,0.999L1.032,0.716L0.966,0.871
		C0.964,0.875,0.96,0.878,0.955,0.879c-0.004,0-0.009-0.002-0.011-0.007l-0.045-0.09L0.778,0.779c-0.007,0-0.013-0.007-0.013-0.016
		c0-0.009,0.006-0.016,0.013-0.016L0.906,0.75c0.004,0,0.008,0.003,0.011,0.007l0.038,0.074l0.07-0.166
		c0.002-0.006,0.007-0.01,0.013-0.009c0.005,0.001,0.01,0.005,0.011,0.012l0.057,0.26L1.18,0.513C1.181,0.505,1.187,0.5,1.193,0.5
		c0.006,0,0.011,0.007,0.011,0.015L1.223,0.78l0.035-0.021C1.26,0.758,1.262,0.757,1.264,0.757L1.366,0.76
		c0.007,0,0.013,0.007,0.012,0.016c0,0.009-0.006,0.016-0.014,0.016L1.266,0.79L1.217,0.819c-0.004,0.002-0.008,0.002-0.012,0
		C1.201,0.816,1.199,0.811,1.199,0.805L1.186,0.62L1.118,0.998C1.117,1.005,1.112,1.01,1.105,1.01L1.105,1.01z"/>
	<path fill="#FFFFFF" d="M0.504,0.1C0.635,0.102,0.737,0.237,0.734,0.4C0.73,0.564,0.622,0.695,0.492,0.692
		C0.36,0.69,0.257,0.554,0.26,0.391C0.264,0.227,0.374,0.097,0.504,0.1"/>
	<path fill="#FFFFFF" d="M0.489,0.84C0.251,0.835,0.054,1.072,0.047,1.369l0.858,0.018C0.912,1.09,0.725,0.845,0.489,0.84"/>
</g>
</svg>
