<?xml version="1.0" encoding="utf-8"?>
<!-- Generator: Adobe Illustrator 16.0.3, SVG Export Plug-In . SVG Version: 6.00 Build 0)  -->
<!DOCTYPE svg PUBLIC "-//W3C//DTD SVG 1.1//EN" "http://www.w3.org/Graphics/SVG/1.1/DTD/svg11.dtd">
<svg version="1.1" id="Capa_1" xmlns="http://www.w3.org/2000/svg" xmlns:xlink="http://www.w3.org/1999/xlink" x="0px" y="0px"
	 width="1.42px" height="1.42px" viewBox="0 0 1.42 1.42" enable-background="new 0 0 1.42 1.42" xml:space="preserve">
<g>
	<path fill="#FFFFFF" d="M1.02,1.182c-0.027,0-0.056-0.002-0.084-0.006c-0.05-0.008-0.101-0.035-0.116-0.042L0.781,1.112
		l0.041-0.013c0.045-0.015,0.072-0.024,0.106-0.038c-0.034-0.017-0.06-0.046-0.072-0.084l-0.01-0.029L0.854,0.95
		C0.847,0.942,0.841,0.935,0.836,0.927C0.82,0.903,0.811,0.874,0.813,0.848l0.002-0.025l0.016,0.005
		C0.824,0.816,0.819,0.803,0.816,0.79C0.81,0.757,0.815,0.722,0.833,0.691l0.013-0.024l0.018,0.021
		c0.055,0.067,0.126,0.106,0.209,0.118c-0.003-0.023,0-0.046,0.008-0.066c0.01-0.024,0.027-0.044,0.051-0.058
		C1.157,0.666,1.188,0.658,1.22,0.66c0.033,0.002,0.064,0.015,0.087,0.036c0.011-0.003,0.02-0.007,0.031-0.011
		C1.346,0.683,1.354,0.68,1.363,0.677L1.4,0.664L1.376,0.732c0.001,0,0.004,0,0.005,0L1.42,0.73L1.396,0.761
		C1.396,0.763,1.396,0.764,1.395,0.764C1.393,0.767,1.391,0.771,1.359,0.813C1.351,0.823,1.348,0.836,1.348,0.852
		c0.002,0.055-0.004,0.104-0.021,0.146C1.313,1.039,1.29,1.074,1.258,1.103C1.219,1.137,1.17,1.161,1.112,1.173
		C1.083,1.179,1.051,1.182,1.02,1.182"/>
	<path fill="#FFFFFF" d="M0.299,0.119c0.056,0,0.104,0.028,0.133,0.066l0.067-0.067c-0.04-0.052-0.118-0.094-0.2-0.094
		c-0.144,0-0.263,0.117-0.263,0.261s0.119,0.26,0.263,0.26c0.121,0,0.221-0.08,0.251-0.189C0.557,0.333,0.561,0.31,0.561,0.285
		V0.261H0.323v0.095h0.126c-0.027,0.056-0.083,0.095-0.15,0.095c-0.091,0-0.167-0.075-0.167-0.166
		C0.131,0.193,0.208,0.119,0.299,0.119"/>
	<polygon fill="#FFFFFF" points="0.774,0.167 0.679,0.167 0.679,0.237 0.608,0.237 0.608,0.333 0.679,0.333 0.679,0.403 
		0.774,0.403 0.774,0.333 0.847,0.333 0.847,0.237 0.774,0.237 	"/>
	<path fill="#FFFFFF" d="M0.273,1.373h0.108V1.112h0.072c0,0,0.007-0.042,0.01-0.088H0.381v-0.06c0-0.009,0.012-0.021,0.024-0.021
		h0.059V0.852h-0.08c-0.113,0-0.111,0.087-0.111,0.101v0.072H0.22v0.088h0.053V1.373z"/>
</g>
</svg>
