<?xml version="1.0" encoding="utf-8"?>
<!-- Generator: Adobe Illustrator 16.0.3, SVG Export Plug-In . SVG Version: 6.00 Build 0)  -->
<!DOCTYPE svg PUBLIC "-//W3C//DTD SVG 1.1//EN" "http://www.w3.org/Graphics/SVG/1.1/DTD/svg11.dtd">
<svg version="1.1" id="Capa_1" xmlns="http://www.w3.org/2000/svg" xmlns:xlink="http://www.w3.org/1999/xlink" x="0px" y="0px"
	 width="1.42px" height="1.42px" viewBox="0 0 1.42 1.42" enable-background="new 0 0 1.42 1.42" xml:space="preserve">
<g>
	<path fill="#545454" d="M0.918,1.184c-0.002,0-0.004,0-0.006-0.001L0.19,0.862C0.181,0.858,0.175,0.846,0.175,0.833V0.61
		c0-0.013,0.006-0.025,0.015-0.03l0.722-0.32c0.006-0.002,0.014-0.001,0.02,0.004C0.937,0.271,0.94,0.28,0.94,0.29v0.863
		c0,0.009-0.002,0.016-0.006,0.022C0.93,1.181,0.924,1.184,0.918,1.184 M0.219,0.81l0.677,0.301v-0.78L0.219,0.633V0.81z"/>
	<path fill="#545454" d="M0.568,1.184c-0.007,0-0.015-0.001-0.022-0.005H0.545L0.296,1.065c-0.025-0.012-0.044-0.042-0.05-0.078
		c-0.006-0.037,0.002-0.075,0.022-0.1c0.02-0.024,0.047-0.033,0.073-0.021l0.25,0.114c0.035,0.016,0.057,0.065,0.051,0.116
		C0.636,1.146,0.605,1.184,0.568,1.184 M0.559,1.12c0.016,0.008,0.033-0.005,0.039-0.027C0.603,1.07,0.594,1.046,0.578,1.038
		L0.329,0.924C0.312,0.917,0.295,0.93,0.29,0.952C0.285,0.975,0.293,0.999,0.31,1.006L0.559,1.12z"/>
	<path fill="#545454" d="M0.142,0.969C0.1,0.968,0.065,0.92,0.065,0.86V0.583c0-0.059,0.035-0.108,0.077-0.108
		s0.077,0.049,0.077,0.108V0.86C0.218,0.92,0.184,0.968,0.142,0.969 M0.142,0.536c-0.018,0-0.033,0.021-0.033,0.046V0.86
		c0,0.025,0.015,0.047,0.033,0.047S0.175,0.886,0.175,0.86V0.583C0.175,0.558,0.16,0.536,0.142,0.536"/>
	<path fill="#545454" d="M0.984,1.339c-0.048,0-0.088-0.056-0.088-0.124V0.228c0-0.068,0.04-0.124,0.088-0.124
		c0.048,0,0.087,0.055,0.087,0.124v0.987C1.071,1.283,1.032,1.339,0.984,1.339 M0.984,0.166c-0.024,0-0.044,0.028-0.044,0.062v0.987
		c0,0.034,0.02,0.062,0.044,0.062c0.024,0,0.043-0.028,0.043-0.062V0.228C1.027,0.194,1.008,0.166,0.984,0.166"/>
	<path fill="#545454" d="M1.355,0.752H1.159c-0.012,0-0.022-0.014-0.022-0.031c0-0.017,0.01-0.03,0.022-0.03h0.197
		c0.012,0,0.022,0.014,0.022,0.03C1.377,0.739,1.368,0.752,1.355,0.752"/>
	<path fill="#545454" d="M1.159,0.394c-0.009,0-0.017-0.008-0.02-0.02C1.135,0.363,1.137,0.349,1.143,0.341l0.14-0.197
		c0.005-0.008,0.014-0.011,0.021-0.008c0.007,0.003,0.014,0.011,0.015,0.022c0.002,0.011,0,0.022-0.006,0.029L1.174,0.384
		C1.17,0.391,1.164,0.394,1.159,0.394"/>
	<path fill="#545454" d="M1.159,0.579c-0.011,0-0.02-0.011-0.021-0.026C1.135,0.538,1.142,0.523,1.151,0.518l0.197-0.092
		C1.356,0.422,1.364,0.425,1.37,0.432c0.006,0.008,0.008,0.019,0.007,0.03C1.375,0.472,1.37,0.481,1.363,0.484L1.166,0.577
		C1.163,0.578,1.161,0.579,1.159,0.579"/>
	<path fill="#545454" d="M1.297,1.307c-0.005,0-0.011-0.003-0.015-0.008l-0.14-0.197c-0.005-0.007-0.007-0.02-0.005-0.03
		c0.002-0.011,0.008-0.02,0.016-0.022c0.008-0.003,0.016,0,0.021,0.008l0.139,0.197c0.006,0.008,0.009,0.021,0.005,0.033
		C1.314,1.301,1.306,1.307,1.297,1.307"/>
	<path fill="#545454" d="M1.355,1.019c-0.002,0-0.005,0-0.007-0.001L1.151,0.925C1.14,0.919,1.134,0.902,1.138,0.886
		c0.004-0.016,0.016-0.025,0.028-0.02l0.197,0.093c0.01,0.005,0.016,0.02,0.014,0.034S1.366,1.019,1.355,1.019"/>
</g>
</svg>
