<?xml version="1.0" encoding="utf-8"?>
<!-- Generator: Adobe Illustrator 22.0.0, SVG Export Plug-In . SVG Version: 6.00 Build 0)  -->
<svg version="1.1" id="Capa_1" xmlns="http://www.w3.org/2000/svg" xmlns:xlink="http://www.w3.org/1999/xlink" x="0px" y="0px"
	 viewBox="0 0 906 1002" style="enable-background:new 0 0 906 1002;" xml:space="preserve">
<style type="text/css">
	.st0{fill:#DA0100;}
</style>
<path class="st0" d="M279.3,159.9v578c-28.9-21-66-33.7-106.3-33.7c-92.2,0-167.2,65.9-167.2,146.8c0,81,75,146.9,167.2,146.9
	c92.1,0,167.1-65.9,167.1-146.9V349.3l496.3-122.8v373.6c-28.9-21-66-33.7-106.4-33.7c-92.2,0-167.1,65.9-167.1,146.9
	c0,80.9,75,146.8,167.1,146.8c92.2,0,167.1-65.9,167.1-146.8V7L279.3,159.9z M340.1,286.7v-79.2L836.4,84.6v79.3L340.1,286.7z"/>
</svg>
