<?xml version="1.0" encoding="utf-8"?>
<!-- Generator: Adobe Illustrator 24.0.2, SVG Export Plug-In . SVG Version: 6.00 Build 0)  -->
<svg version="1.1" id="Capa_1" xmlns="http://www.w3.org/2000/svg" xmlns:xlink="http://www.w3.org/1999/xlink" x="0px" y="0px"
	 viewBox="0 0 655 1080" style="enable-background:new 0 0 655 1080;" xml:space="preserve">
<style type="text/css">
	.st0{fill:#535353;stroke:#535353;stroke-width:0.25;stroke-miterlimit:10;}
</style>
<g>
	<path class="st0" d="M327.5,1080C146.91,1080,0,952.62,0,796.04V205.98h77.08v590.06c0,119.75,112.34,217.16,250.42,217.16
		s250.42-97.41,250.42-217.16V205.98c0-76.74-72-139.18-160.54-139.18c-88.51,0-160.53,62.44-160.53,139.18v590.06
		c0,33.79,31.7,61.25,70.65,61.25c38.96,0,70.61-27.46,70.61-61.25V205.98h77.06v590.06c0,70.64-66.23,128.06-147.67,128.06
		c-81.48,0-147.67-57.42-147.67-128.06V205.98C179.83,92.43,286.35,0,417.38,0C548.38,0,655,92.43,655,205.98v590.06
		C655,952.62,508.06,1080,327.5,1080z"/>
</g>
</svg>
