<?xml version="1.0" encoding="utf-8"?>
<!-- Generator: Adobe Illustrator 16.0.3, SVG Export Plug-In . SVG Version: 6.00 Build 0)  -->
<!DOCTYPE svg PUBLIC "-//W3C//DTD SVG 1.1//EN" "http://www.w3.org/Graphics/SVG/1.1/DTD/svg11.dtd">
<svg version="1.1" id="Capa_1" xmlns="http://www.w3.org/2000/svg" xmlns:xlink="http://www.w3.org/1999/xlink" x="0px" y="0px"
	 width="1.42px" height="1.42px" viewBox="0 0 1.42 1.42" enable-background="new 0 0 1.42 1.42" xml:space="preserve">
<g>
	<path fill="#FFFFFF" d="M1.064,0.176c0-0.029,0.03-0.052,0.066-0.052V0.048H0.536c-0.091,0-0.166,0.058-0.166,0.128v0.338h0.694
		V0.176z"/>
	<path fill="#FFFFFF" d="M1.229,0.074v0.127c-0.036,0-0.066,0.023-0.066,0.051v0.033h0.132v-0.11
		C1.295,0.134,1.27,0.097,1.229,0.074"/>
	<path fill="#FFFFFF" d="M1.164,0.37v0.222H0.271V0.37C0.213,0.386,0.172,0.428,0.172,0.479v0.766c0,0.064,0.067,0.115,0.149,0.115
		h0.792c0.082,0,0.149-0.051,0.149-0.115V0.479C1.262,0.428,1.221,0.386,1.164,0.37 M0.528,1.207H0.37V1.13h0.158V1.207z
		 M0.528,1.053H0.37V0.976h0.158V1.053z M0.528,0.899H0.37V0.822h0.158V0.899z M0.796,1.207H0.638V1.13h0.159V1.207z M0.796,1.053
		H0.638V0.976h0.159V1.053z M0.796,0.899H0.638V0.822h0.159V0.899z M1.064,1.207H0.906V1.13h0.158V1.207z M1.064,1.053H0.906V0.976
		h0.158V1.053z M1.064,0.899H0.906V0.822h0.158V0.899z M1.064,0.745H0.37V0.668h0.694V0.745z"/>
</g>
</svg>
