<?xml version="1.0" encoding="utf-8"?>
<!-- Generator: Adobe Illustrator 22.0.0, SVG Export Plug-In . SVG Version: 6.00 Build 0)  -->
<svg version="1.1" id="Capa_1" xmlns="http://www.w3.org/2000/svg" xmlns:xlink="http://www.w3.org/1999/xlink" x="0px" y="0px"
	 viewBox="0 0 1034.8 1037.9" style="enable-background:new 0 0 1034.8 1037.9;" xml:space="preserve">
<style type="text/css">
	.st0{fill:#FFFFFF;}
</style>
<g>
	<path class="st0" d="M987.6,261.8c58.6-58.6,58.6-154,0-212.5c-58.6-58.6-154-58.6-212.5,0L111.8,712.5L5.6,1031.4l318.8-106.3
		L987.6,261.8z M753.9,410.6L308.2,856.3L180.7,728.8l445.6-445.7L753.9,410.6z M668.8,240.6l42.6-42.5l127.5,127.5l-42.5,42.6
		L668.8,240.6z M817.6,91.8c35.2-35.2,92.4-35.2,127.6,0c35.2,35.2,35.2,92.4,0,127.6l-63.8,63.7L753.9,155.6L817.6,91.8z
		 M151.3,784.4l101.3,101.3l-151.9,50.6L151.3,784.4z"/>
</g>
</svg>
