<?xml version="1.0" encoding="utf-8"?>
<!-- Generator: Adobe Illustrator 16.0.3, SVG Export Plug-In . SVG Version: 6.00 Build 0)  -->
<!DOCTYPE svg PUBLIC "-//W3C//DTD SVG 1.1//EN" "http://www.w3.org/Graphics/SVG/1.1/DTD/svg11.dtd">
<svg version="1.1" id="Capa_1" xmlns="http://www.w3.org/2000/svg" xmlns:xlink="http://www.w3.org/1999/xlink" x="0px" y="0px"
	 width="830.747px" height="1080px" viewBox="0 0 830.747 1080" enable-background="new 0 0 830.747 1080" xml:space="preserve">
<g>
	<path fill="#010202" d="M795.178,270.722c47.425-61.531,47.425-161.651,0-223.182c-47.382-61.556-124.556-61.556-171.938,0
		L86.666,744.048L0.735,1078.873l257.91-111.644L795.178,270.722z M606.053,427.007L245.514,895.046l-103.158-133.95l360.5-468.042
		L606.053,427.007z M537.229,248.441l34.452-44.642l103.157,133.896l-34.414,44.67L537.229,248.441z M657.611,92.156
		c28.455-36.911,74.742-36.911,103.195,0c28.455,36.933,28.455,97.017,0,133.95l-51.597,66.948L606.053,159.158L657.611,92.156z
		 M118.564,819.494l81.917,106.382l-122.894,53.14L118.564,819.494z"/>
</g>
</svg>
