<svg xmlns="http://www.w3.org/2000/svg" viewBox="0 0 24.4 22.76"><defs><style>.cls-1{fill:#535353;}</style></defs><title>Down Vote (Grey)</title><g id="Layer_2" data-name="Layer 2"><g id="Layer_2-2" data-name="Layer 2"><path class="cls-1" d="M5.18,0l14,0V9.27h5.2L12.23,22.76,0,9.31H5.2ZM17.76,1.43l-11.15,0,0,9.27H3.22l9,9.9,9-9.93H17.78Z"/><path class="cls-1" d="M13,11a1.79,1.79,0,0,0-.54,1.35,1.86,1.86,0,0,0,1.9,1.89,1.82,1.82,0,0,0,1.34-.56,1.8,1.8,0,0,0,.55-1.34,1.86,1.86,0,0,0-1.9-1.89A1.8,1.8,0,0,0,13,11ZM14.8,12.8a.63.63,0,0,1-.49.19.58.58,0,0,1-.47-.19h0a.73.73,0,0,1-.18-.5.72.72,0,0,1,.18-.51h0a.58.58,0,0,1,.47-.18.66.66,0,0,1,.49.18.81.81,0,0,1,0,1Z"/><polygon class="cls-1" points="9.73 14.52 15.58 6.68 14.69 5.97 8.84 13.82 9.73 14.52"/><path class="cls-1" d="M8.75,9.54a1.83,1.83,0,0,0,1.35.55,1.86,1.86,0,0,0,1.35-.56A1.81,1.81,0,0,0,12,8.19a1.82,1.82,0,0,0-.55-1.35,1.85,1.85,0,0,0-1.35-.54,1.82,1.82,0,0,0-1.35.55A1.85,1.85,0,0,0,8.2,8.2,1.81,1.81,0,0,0,8.75,9.54Zm.86-1.85h0a.6.6,0,0,1,.47-.18.64.64,0,0,1,.49.18.81.81,0,0,1,0,1,.62.62,0,0,1-.48.19.59.59,0,0,1-.48-.19h0a.71.71,0,0,1-.18-.5A.72.72,0,0,1,9.61,7.69Z"/></g></g></svg>