<?xml version="1.0" encoding="utf-8"?>
<!-- Generator: Adobe Illustrator 16.0.3, SVG Export Plug-In . SVG Version: 6.00 Build 0)  -->
<!DOCTYPE svg PUBLIC "-//W3C//DTD SVG 1.1//EN" "http://www.w3.org/Graphics/SVG/1.1/DTD/svg11.dtd">
<svg version="1.1" id="Capa_1" xmlns="http://www.w3.org/2000/svg" xmlns:xlink="http://www.w3.org/1999/xlink" x="0px" y="0px"
	 width="1.42px" height="1.42px" viewBox="0 0 1.42 1.42" enable-background="new 0 0 1.42 1.42" xml:space="preserve">
<symbol  id="Arrow_Fill" viewBox="-12.202 -11.38 24.403 22.76">
	<g>
		<g>
			<path fill="#FFFFFF" d="M7.442-1.613c1.935,0,1.935,3,0,3S5.507-1.613,7.442-1.613L7.442-1.613z"/>
		</g>
	</g>
	<g>
		<g>
			<path fill="#FFFFFF" d="M7.942-1.113c1.935,0,1.935,3,0,3S6.007-1.113,7.942-1.113L7.942-1.113z"/>
		</g>
	</g>
	<g>
		<g>
			<path fill="#FFFFFF" d="M-7.559-1.53c1.936,0,1.936,3,0,3C-9.492,1.47-9.492-1.53-7.559-1.53L-7.559-1.53z"/>
		</g>
	</g>
	<g>
		<g>
			<path fill="#FFFFFF" d="M-7.975-1.446c1.935,0,1.935,3,0,3S-9.909-1.446-7.975-1.446L-7.975-1.446z"/>
		</g>
	</g>
	<g>
		<g>
			<path fill="#FFFFFF" d="M-0.308-9.03c1.935,0,1.935,3,0,3C-2.242-6.03-2.242-9.03-0.308-9.03L-0.308-9.03z"/>
		</g>
	</g>
	<g>
		<g>
			<path fill="#FFFFFF" d="M-0.141-9.28c1.935,0,1.935,3,0,3C-2.076-6.28-2.076-9.28-0.141-9.28L-0.141-9.28z"/>
		</g>
	</g>
	<g>
		<path fill="#FFFFFF" d="M-6.225,0.554c0.166-0.5,0.5-1,0.416-1.583c-0.082,0-0.332,0-0.416,0.083c1.084,0.75,2-1.667,2.584-2.333
			c0.666-0.833,3.25-2.5,2.916-3.5c0.833,0.5,1.75,0.917,2.5,1.5c-0.25-0.417-0.583-0.833-0.917-1.167c0.5,2,2.75,3.5,4.167,4.833
			c-0.083-1.25-2.167-2.75-3-3.667c0.583,1.5,2.667,2.833,3.833,3.917c-0.75,1-1.5,3-1.583,4.25c-0.083,0.917-0.167,2.083,0,2.917
			c0.25,1.583,1.167,2.916-0.917,3.25C2.025,9.22,0.692,8.72-0.558,8.72c1.583,0.584,3.25,0.5,4.833,1
			C2.859,9.97,1.442,9.054-0.058,9.137c-0.75,0.083-1.583,0.25-2.417,0.25c-1.166,0-1.5,0.25-1.916-0.75
			c-0.5-1.167-0.75-6.917,0.25-8.083c1.75,1.5,0.832,5.666,1.5,7.75c1-1.667,1-3.917,1-5.834c0.25,0.917,0.25,1.75,0.333,2.667
			c-0.583-1.75-0.667-3.667-0.583-5.5c1.083,1.583,0.667,4.917,2,6C0.525,4.72,0.442,3.554,0.942,2.804
			c1.083,0.916,1.5,3,2.083,4.333c0.25-0.417,0.333-1.083,0.167-1.583c-0.833,1.083-0.833,1.5-2.25,1.666
			c-0.5,0.084-1.667,0.167-2-0.25c-0.417-0.666,1.167-3.083,1.5-3.666c0.583-0.667,2-1.5,2.25-2.417
			c0.25-1.167-1.667-4.5-2.917-4.417c-2.084,0.167-0.083,2.917,0.417,3.917c-1.333,0.25-2.333-1.5-3.667-1.583
			c1,0.583,2.25,0.917,3.417,0.833"/>
		<g>
			<path fill="#E52620" d="M-7.671,0.155c0.266-0.494,0.405-1.022,0.417-1.583c0.614,0.615,1.229,1.23,1.845,1.845
				C-5.549,0.444-5.688,0.472-5.826,0.5c0-0.964,0-1.928,0-2.893C-6.364-2.561-2.225-6.78-2.225-6.78
				c0.053-1.133,1.235-1.873,2.257-1.295c0.853,0.482,1.688,0.953,2.5,1.5C1.848-5.891,1.164-5.207,0.48-4.523
				C0.253-4.811,0.025-5.098-0.202-5.386C0.634-5.872,1.47-6.358,2.305-6.845c0.684,1.801,2.408,2.941,3.781,4.171
				C5.25-2.188,4.415-1.701,3.579-1.214C3.21-2.439,1.833-3.355,0.965-4.219c0.785-0.606,1.57-1.212,2.356-1.817
				c0.848,1.538,2.302,2.489,3.599,3.613c0.493,0.427,0.574,1.28,0.235,1.817C6.042,1.159,5.72,2.824,5.683,4.881
				C5.657,6.303,6.339,7.385,6.024,8.813c-0.587,2.657-4.899,1.54-6.583,1.407c0.133-0.982,0.266-1.965,0.399-2.947
				c1.59,0.465,3.229,0.599,4.833,1c1.66,0.416,1.283,2.943-0.399,2.947c-1.511,0.004-2.825-0.46-4.333-0.584
				c-1.174-0.097-2.446,0.307-3.656,0.25C-4.938,10.83-5.6,9.766-5.94,8.719C-6.727,6.298-6.809,2.02-5.437-0.203
				c0.481-0.78,1.7-1.051,2.356-0.304c2.142,2.438,1.197,5.501,1.885,8.411c-0.914-0.119-1.828-0.238-2.742-0.357
				c0.782-1.63,0.787-3.316,0.796-5.076c0.008-1.656,2.607-2.095,2.946-0.399C0.01,3.096,0.113,4.094,0.192,5.137
				c0.13,1.722-2.508,1.996-2.946,0.398c-0.539-1.967-0.688-3.86-0.637-5.898c0.035-1.434,2.074-2.124,2.795-0.757
				c0.875,1.658,0.563,4.322,1.765,5.696C0.334,4.797-0.502,5.018-1.337,5.238c0.286-0.961,0.46-1.902,0.833-2.834
				c0.387-0.967,1.679-1.584,2.507-0.661c1.303,1.453,1.771,3.21,2.469,4.995c-0.964,0-1.928,0-2.893,0
				c0.038-0.395,0.075-0.79,0.113-1.185c0.932,0.253,1.863,0.505,2.795,0.757C3.49,7.678,2.72,8.547,0.942,8.721
				C-0.491,8.859-2.279,8.683-2.57,6.986c-0.264-1.537,0.975-3.195,1.717-4.439C-0.05,1.2,1.62,1.14,0.695-0.706
				c-1.119-2.231,0.23-0.686,0.792,0.335c0.528,0.959-0.124,2.302-1.295,2.257C-1.479,1.822-2.336,0.642-3.873,0.25
				c0.385-0.914,0.77-1.828,1.155-2.742c0.824,0.476,1.71,0.686,2.66,0.628c1.933,0.028,1.936,3.028,0,3
				C-1.587,1.114-2.862,0.77-4.231,0.099C-5.801-0.67-4.68-3.051-3.076-2.643c1.138,0.29,2.162,1.487,3.268,1.529
				C-0.24-0.361-0.671,0.392-1.104,1.144C-1.906-0.314-3.42-2.432-2.17-4.049c1.261-1.631,3.143-0.905,4.373,0.307
				C3.312-2.65,4.873,0.06,3.987,1.644c-0.632,1.13-1.826,1.706-2.46,2.769c-0.396,0.664-0.79,1.322-1.082,2.041
				C0.389,6.23,0.332,6.008,0.275,5.785c0.776-0.012,1.316-0.34,1.621-0.988C2.792,3.568,4.556,4.02,4.692,5.554
				c0.079,0.892,0.047,1.133-0.22,1.981c-0.473,1.5-2.364,1.352-2.893,0c-0.49-1.251-0.778-2.645-1.698-3.671
				c0.835-0.221,1.671-0.44,2.507-0.661C2.016,4.134,1.841,5.074,1.555,6.035C1.252,7.057-0.183,7.576-0.952,6.697
				c-1.621-1.852-1.142-4.234-2.235-6.304c0.933-0.252,1.864-0.504,2.795-0.757c-0.043,1.756,0.063,3.396,0.529,5.102
				c-0.982,0.133-1.964,0.266-2.947,0.398c-0.033-0.763-0.127-1.519-0.279-2.268c0.982-0.133,1.965-0.266,2.947-0.398
				c-0.011,2.352-0.178,4.451-1.205,6.59c-0.565,1.178-2.455,0.852-2.742-0.357C-4.57,6.66-3.774,3.238-5.201,1.614
				c0.785-0.101,1.57-0.202,2.355-0.304C-3.8,2.855-3.4,5.768-3.141,7.484c0.127,0.844,0.72,0.398,1.906,0.309
				c1.96-0.148,3.566,0.432,5.51,0.428c-0.133,0.981-0.266,1.964-0.399,2.945c-1.604-0.4-3.244-0.535-4.833-1
				c-1.578-0.461-1.335-3.084,0.399-2.945C0.037,7.268,3.249,8.014,2.993,6.97C2.739,5.936,2.682,4.928,2.701,3.865
				C2.74,1.721,3.428-0.317,4.563-2.12C4.642-1.515,4.72-0.909,4.798-0.303c-1.512-1.31-3.087-2.439-4.068-4.22
				C-0.089-6.01,1.861-7.559,3.086-6.34c1.35,1.342,2.82,2.449,3.386,4.328c0.455,1.51-1.435,2.419-2.507,1.459
				C2.089-2.232,0.324-3.646-0.587-6.047c-0.534-1.407,1.539-2.551,2.507-1.459c0.434,0.489,0.778,0.934,1.151,1.47
				c0.854,1.228-0.828,2.878-2.052,2.052c-0.812-0.548-1.648-1.019-2.5-1.5c0.752-0.432,1.504-0.864,2.257-1.295
				C0.669-4.5-1.43-3.807-2.615-2.144C-3.658-0.682-4.506,1.162-6.623,0.5c-1.332-0.417-1.531-2.586,0-2.893
				c0.139-0.028,0.277-0.056,0.416-0.083c1.214-0.244,2.006,0.691,1.846,1.845c-0.012,0.561-0.15,1.089-0.417,1.583
				C-5.483,2.729-8.386,1.955-7.671,0.155L-7.671,0.155z"/>
		</g>
	</g>
	<g>
		<g>
			<path fill="#E52620" d="M-4.141,7.221c1.934,0,1.934,3,0,3C-6.076,10.221-6.076,7.221-4.141,7.221L-4.141,7.221z"/>
		</g>
	</g>
	<g>
		<g>
			<path fill="#E52620" d="M-4.725,7.971c1.935,0,1.935,3,0,3S-6.659,7.971-4.725,7.971L-4.725,7.971z"/>
		</g>
	</g>
	<g>
		<path fill="#FFFFFF" d="M4.192-0.78"/>
		<g>
			<path fill="#E52620" d="M4.192-2.28c1.935,0,1.935,3,0,3S2.257-2.28,4.192-2.28L4.192-2.28z"/>
		</g>
	</g>
	<g>
		<g>
			<path fill="#E52620" d="M-0.391-3.613c1.935,0,1.935,3,0,3C-2.326-0.613-2.326-3.613-0.391-3.613L-0.391-3.613z"/>
		</g>
	</g>
	<g>
		<g>
			<path fill="#E52620" d="M-0.641-3.863c1.935,0,1.935,3,0,3C-2.576-0.863-2.576-3.863-0.641-3.863L-0.641-3.863z"/>
		</g>
	</g>
	<g>
		<g>
			<path fill="#E52620" d="M-3.225-3.446c1.935,0,1.935,3,0,3S-5.159-3.446-3.225-3.446L-3.225-3.446z"/>
		</g>
	</g>
	<g>
		<g>
			<path fill="#E52620" d="M-4.141-3.446c1.934,0,1.934,3,0,3C-6.076-0.446-6.076-3.446-4.141-3.446L-4.141-3.446z"/>
		</g>
	</g>
	<g>
		<g>
			<path fill="#E52620" d="M-4.975-3.613c1.935,0,1.935,3,0,3S-6.909-3.613-4.975-3.613L-4.975-3.613z"/>
		</g>
	</g>
	<g>
		<g>
			<path fill="#E52620" d="M-6.749,1.741c-0.464,0.024-0.876,0.103-1.337-0.054c-0.773-0.263-1.273-1.021-1.047-1.845
				c0.207-0.753,1.07-1.311,1.846-1.047c-0.052,0-0.103,0-0.153,0.001c0.095,0.002,0.188-0.003,0.283-0.015
				c0.137-0.013,0.271-0.033,0.408-0.04c0.817-0.042,1.5,0.714,1.5,1.5C-5.249,1.091-5.933,1.699-6.749,1.741L-6.749,1.741z"/>
		</g>
	</g>
	<g>
		<g>
			<path fill="#E52620" d="M-0.124-8.259c1.935,0,1.935,3,0,3S-2.059-8.259-0.124-8.259L-0.124-8.259z"/>
		</g>
	</g>
	<g>
		<g>
			<path fill="#E52620" d="M-0.124-8.915c1.935,0,1.935,3,0,3S-2.059-8.915-0.124-8.915L-0.124-8.915z"/>
		</g>
	</g>
	<g>
		<g>
			<path fill="#E52620" d="M-0.155-9.478c1.935,0,1.935,3,0,3S-2.09-9.478-0.155-9.478L-0.155-9.478z"/>
		</g>
	</g>
	<g>
		<g>
			<path fill="#E52620" d="M6.72-2.134c1.935,0,1.935,3,0,3S4.785-2.134,6.72-2.134L6.72-2.134z"/>
		</g>
	</g>
	<g>
		<g>
			<path fill="#E52620" d="M8.657-0.978c1.935,0,1.935,3,0,3S6.723-0.978,8.657-0.978L8.657-0.978z"/>
		</g>
	</g>
	<g>
		<g>
			<path fill="#E52620" d="M-8.562-1.009c1.935,0,1.935,3,0,3S-10.496-1.009-8.562-1.009L-8.562-1.009z"/>
		</g>
	</g>
	<g>
		<path fill="#E52620" d="M-6.982,11.38L7.02,11.352L7.001,2.081l5.2-0.011L-0.027-11.38L-12.202,2.119l5.2-0.011L-6.982,11.38z
			 M5.591,9.928L-5.56,9.951L-5.578,0.68l-3.41,0.007l8.965-9.941l9.006,9.904l-3.41,0.007L5.591,9.928z"/>
	</g>
	<g>
		<g>
			<path fill="#FFFFFF" d="M0.751,0.428C0.388,0.065,0.203-0.388,0.202-0.921C0.201-1.455,0.379-1.894,0.746-2.262
				c0.369-0.371,0.823-0.56,1.349-0.562c0.527,0,0.981,0.187,1.351,0.555C3.815-1.9,3.995-1.463,3.996-0.929
				C3.997-0.396,3.814,0.06,3.452,0.422C3.09,0.785,2.636,0.971,2.103,0.972C1.569,0.973,1.115,0.79,0.751,0.428z M2.586-1.43
				c-0.125-0.131-0.28-0.191-0.488-0.191s-0.363,0.063-0.475,0.19L1.618-1.426C1.492-1.291,1.434-1.132,1.435-0.924
				c0,0.209,0.063,0.381,0.185,0.511l0.005,0.005c0.108,0.123,0.26,0.179,0.476,0.179C2.315-0.23,2.47-0.288,2.588-0.412
				C2.705-0.546,2.764-0.72,2.764-0.927C2.763-1.13,2.705-1.293,2.586-1.43z"/>
		</g>
		<g>
			<polygon fill="#FFFFFF" points="-2.486,-3.13 3.393,4.684 2.504,5.396 -3.378,-2.432 			"/>
		</g>
		<g>
			<path fill="#FFFFFF" d="M-3.456,1.853c0.369-0.37,0.822-0.559,1.35-0.56c0.525-0.001,0.98,0.186,1.351,0.555
				c0.369,0.366,0.548,0.805,0.549,1.338C-0.206,3.72-0.388,4.175-0.75,4.537C-1.112,4.901-1.566,5.086-2.1,5.088
				c-0.533,0-0.988-0.183-1.351-0.544c-0.364-0.363-0.549-0.816-0.551-1.351C-4.001,2.66-3.823,2.223-3.456,1.853z M-2.583,3.702
				l0.005,0.006c0.108,0.122,0.26,0.178,0.477,0.178c0.214,0,0.369-0.06,0.488-0.183c0.117-0.135,0.175-0.308,0.175-0.514
				c0-0.203-0.058-0.368-0.177-0.504c-0.125-0.131-0.281-0.191-0.489-0.19c-0.207,0-0.363,0.062-0.475,0.189L-2.584,2.69
				C-2.71,2.824-2.769,2.983-2.769,3.191C-2.768,3.401-2.705,3.572-2.583,3.702z"/>
		</g>
	</g>
</symbol>
<use xlink:href="#Arrow_Fill"  width="24.403" height="22.76" x="-12.202" y="-11.38" transform="matrix(0.0561 0 0 -0.0605 0.7139 0.7104)" overflow="visible"/>
</svg>
