<?xml version="1.0" encoding="utf-8"?>
<!-- Generator: Adobe Illustrator 24.0.2, SVG Export Plug-In . SVG Version: 6.00 Build 0)  -->
<svg version="1.1" baseProfile="tiny" id="Capa_1" xmlns="http://www.w3.org/2000/svg" xmlns:xlink="http://www.w3.org/1999/xlink"
	 x="0px" y="0px" viewBox="0 0 800 1102" xml:space="preserve">
<g id="Layer_2">
	<g id="Layer_2-2">
		<path fill="#FF0000" d="M722.76,508.29c-28.61-49.97-62.78-96.54-101.87-138.83c-53.19-61.3-98.71-114.49-98.71-188.86
			c-0.45-38.45,13.36-75.71,38.76-104.57l57.7-63.55l-84.29,11.27C504.6,27.8,440.59,76.48,384.7,150.85
			c-44.92,60.08-78.38,127.92-98.71,200.13c-19.95,71.36-27.87,145.55-23.44,219.51c-12.87-15.65-23.63-32.93-32-51.38
			c-21.23-45.56-29.35-96.13-23.44-146.04l7.66-57.7l-48.68-12.17l-19.38,54.99c-17.4,45.44-37.42,89.84-59.95,132.97
			c-40.9,67.96-63.86,145.2-66.71,224.47c0,207.86,168.51,376.37,376.37,376.37s376.37-168.51,376.37-376.37
			C773.79,643.41,756.58,572.1,722.76,508.29z"/>
	</g>
</g>
</svg>
