<svg xmlns="http://www.w3.org/2000/svg" viewBox="0 0 16.7 24"><defs><style>.cls-1{fill:red;}</style></defs><title>Flame (Red)</title><g id="Layer_2" data-name="Layer 2"><g id="Layer_2-2" data-name="Layer 2"><path class="cls-1" d="M15.59,11a16.93,16.93,0,0,0-2.26-3.08c-1.18-1.36-2.19-2.54-2.19-4.19A3.45,3.45,0,0,1,12,1.41L13.28,0,11.41.25c-.66.09-2.08,1.17-3.32,2.82A13.55,13.55,0,0,0,5.9,7.51a14.8,14.8,0,0,0-.52,4.87,5.13,5.13,0,0,1-.71-1.14A6,6,0,0,1,4.15,8l.17-1.28L3.24,6.45,2.81,7.67a28,28,0,0,1-1.33,2.95A10.38,10.38,0,0,0,0,15.6a8.35,8.35,0,1,0,16.7,0A9.54,9.54,0,0,0,15.59,11Z"/></g></g></svg>