<?xml version="1.0" encoding="utf-8"?>
<!-- Generator: Adobe Illustrator 22.0.0, SVG Export Plug-In . SVG Version: 6.00 Build 0)  -->
<svg version="1.1" id="Capa_1" xmlns="http://www.w3.org/2000/svg" xmlns:xlink="http://www.w3.org/1999/xlink" x="0px" y="0px"
	 viewBox="0 0 1038.6 974.4" style="enable-background:new 0 0 1038.6 974.4;" xml:space="preserve">
<style type="text/css">
	.st0{fill:#FF0000;}
	.st1{fill:#FFFFFF;}
	.st2{display:none;}
</style>
<g id="Capa_1_1_">
	<g>
		<g>
			<path class="st0" d="M222.6,3.7l596,1.3l-0.8,395.2l221.2,0.6L518.5,974.2L0.4,398.6l221.3,0.5L222.6,3.7z M757.7,65.7
				l-474.5-1.2l-0.8,395.3l-145.2-0.3l381.5,424L902,461.4L756.9,461L757.7,65.7z"/>
			<polygon class="st0" points="283.2,64.6 757.7,65.7 756.9,461 902,461.4 518.7,883.6 137.1,459.6 282.3,459.9 			"/>
		</g>
		<g>
			<g>
				<path class="st1" d="M551.7,470.7c-15.5,15.4-23.3,34.8-23.3,57.5c-0.1,22.8,7.5,41.5,23.2,57.2c15.6,15.8,35,23.8,57.4,23.9
					c22.4,0,41.7-7.9,57.5-23.7c15.8-15.7,23.3-34.3,23.4-57.1c0.1-22.7-7.7-42.1-23.2-57.6c-15.4-15.5-34.7-23.4-57.4-23.4
					C586.6,447.6,567.1,455.3,551.7,470.7z M629.8,549.9c-5.3,5.6-11.9,8.2-20.7,8.2c-8.8,0-15.5-2.7-20.3-8.1l-0.2-0.3
					c-5.3-5.7-7.9-12.5-7.8-21.3c0-8.9,2.7-16.3,7.9-21.8l0.3-0.3c4.6-5.2,11.1-7.6,20.2-7.6c9.1,0,15.8,2.5,20.8,7.8
					c5,5.7,7.4,13.1,7.5,21.9C637.3,537.2,634.9,544.2,629.8,549.9z"/>
			</g>
			<g>
				<polygon class="st1" points="413.9,622.5 664.1,289.4 626.2,258.8 376,592.6 				"/>
			</g>
			<g>
				<path class="st1" d="M372.6,410c15.6,15.8,35,23.8,57.4,23.8c22.4,0.1,41.7-7.8,57.5-23.7c15.8-15.6,23.3-34.3,23.4-57
					c0.1-22.8-7.7-42.2-23.2-57.7c-15.3-15.6-34.7-23.4-57.4-23.5c-22.7,0-42,7.7-57.5,23.2c-15.5,15.4-23.3,34.8-23.3,57.6
					C349.4,375.5,357.1,394.2,372.6,410z M409.7,331.2l0.2-0.3c4.7-5.2,11-7.6,20.2-7.6c9.1,0,15.8,2.6,20.9,7.8
					c5,5.7,7.4,13.1,7.4,21.9c0,8.7-2.5,15.7-7.5,21.5c-5.3,5.7-12,8.2-20.8,8.1c-8.9,0.1-15.5-2.7-20.2-8.1l-0.2-0.2
					c-5.4-5.7-7.9-12.5-7.8-21.3C402,344,404.6,336.6,409.7,331.2z"/>
			</g>
		</g>
	</g>
</g>
<g id="Capa_2_1_" class="st2">
</g>
</svg>
