<?xml version="1.0" encoding="utf-8"?>
<!-- Generator: Adobe Illustrator 22.0.0, SVG Export Plug-In . SVG Version: 6.00 Build 0)  -->
<svg version="1.1" xmlns="http://www.w3.org/2000/svg" xmlns:xlink="http://www.w3.org/1999/xlink" x="0px" y="0px"
	 viewBox="0 0 1038.6 974.4" style="enable-background:new 0 0 1038.6 974.4;" xml:space="preserve">
<style type="text/css">
	.st0{display:none;}
	.st1{display:inline;}
	.st2{fill:#545454;}
</style>
<g id="Capa_1" class="st0">
	<g class="st1">
		<g>
			<path class="st2" d="M817.9,973.2l-596,1L221.2,579L0,579.3L518.2,3.9l520.4,573.6l-221.3,0.4L817.9,973.2z M282.6,913.3
				l474.5-0.7l-0.7-395.3l145.2-0.3L518.4,94.5L136.7,518.2l145.1-0.2L282.6,913.3z"/>
		</g>
		<g>
			<g>
				<path class="st2" d="M487,507.5c15.4-15.5,23.2-34.9,23.1-57.6c0-22.8-7.7-41.5-23.4-57.1c-15.7-15.7-35.1-23.7-57.5-23.7
					c-22.4,0.1-41.7,8.1-57.4,23.9c-15.7,15.8-23.2,34.4-23.2,57.2c0,22.7,7.9,42.1,23.4,57.5c15.5,15.4,34.8,23.3,57.5,23.2
					C452.2,530.8,471.6,523,487,507.5z M408.6,428.6c5.3-5.6,11.9-8.2,20.7-8.3c8.8,0,15.5,2.6,20.3,8l0.2,0.3
					c5.3,5.7,7.9,12.5,7.9,21.3c0,8.9-2.6,16.3-7.8,21.8l-0.3,0.3c-4.6,5.2-11.1,7.6-20.2,7.7c-9.1,0-15.8-2.4-20.8-7.7
					c-5-5.7-7.5-13.1-7.6-21.9C401.1,441.4,403.5,434.4,408.6,428.6z"/>
			</g>
			<g>
				<polygon class="st2" points="624.2,355.2 375.3,689.3 413.3,719.7 662.2,384.9 				"/>
			</g>
			<g>
				<path class="st2" d="M666.3,567.5c-15.7-15.7-35.1-23.7-57.5-23.6c-22.4,0-41.7,8-57.4,23.9c-15.7,15.7-23.2,34.4-23.2,57.1
					c0,22.8,7.9,42.2,23.4,57.6c15.4,15.5,34.8,23.3,57.5,23.3c22.7-0.1,42-7.9,57.4-23.4c15.4-15.5,23.2-34.9,23.1-57.7
					C689.6,601.9,681.9,583.3,666.3,567.5z M629.5,646.5l-0.2,0.3c-4.7,5.2-11,7.6-20.2,7.7c-9.1,0-15.8-2.5-20.9-7.7
					c-5-5.7-7.5-13.1-7.5-21.9c0-8.7,2.4-15.7,7.4-21.5c5.3-5.7,12-8.2,20.8-8.2c8.9-0.1,15.5,2.6,20.2,8l0.2,0.2
					c5.4,5.7,7.9,12.5,7.9,21.3C637.2,633.6,634.6,641,629.5,646.5z"/>
			</g>
		</g>
	</g>
</g>
<g id="Capa_2">
	<path class="st2" d="M519.5,956.6c-180.2,0-326.7-147.3-326.7-328.5c0-79,26.9-132.6,58.1-194.8c17.2-34.5,35.2-70.2,51.7-115.7
		l17.1-47.4c25.3,6.2,16.8,4.1,42.1,10.3l-6.6,50c-5.5,40.8,2,87.1,20.4,127c7.8,16.9,17.2,31.9,27.8,44.4
		c-3.7-66.3,3.1-130.2,20.2-190.6c18-63.3,46.8-121.8,85.7-173.6C557.7,73.2,613.4,31.1,639.1,27.6l73.2-9.9l-49.2,55
		c-22.4,24.9-34.6,57.1-34.6,90.7c0,64.8,39.7,110.9,85.8,164.2c29.5,34.2,63,72.9,88.2,120.4c29.5,55.1,43.7,114,43.7,180.1
		C846.2,809.3,699.6,956.6,519.5,956.6z M310,436.8c-3.6,7.3-7.1,14.2-10.5,21c-29.2,58.3-52.2,104.3-52.2,170.4
		c0,151.1,122.1,274,272.2,274c150.1,0,272.3-122.9,272.3-274c0-127.6-60.4-197.3-118.7-264.9c-51-59-99.2-114.6-99.2-199.8
		c0-6.8,0.4-13.6,1.1-20.2c-15.4,17.3-31.6,38.4-46.7,63.3c-43.1,70.2-89.2,188-64.7,350.6l7.1,47.6l-44.5-18.3
		c-40.8-16.8-76.4-54.5-100.1-106C319.6,466.3,314.1,451.7,310,436.8z"/>
</g>
</svg>
