<?xml version="1.0" encoding="utf-8"?>
<!-- Generator: Adobe Illustrator 16.0.3, SVG Export Plug-In . SVG Version: 6.00 Build 0)  -->
<!DOCTYPE svg PUBLIC "-//W3C//DTD SVG 1.1//EN" "http://www.w3.org/Graphics/SVG/1.1/DTD/svg11.dtd">
<svg version="1.1" id="Capa_1" xmlns="http://www.w3.org/2000/svg" xmlns:xlink="http://www.w3.org/1999/xlink" x="0px" y="0px"
	 width="765.076px" height="1080px" viewBox="569.28 0 765.076 1080" enable-background="new 569.28 0 765.076 1080"
	 xml:space="preserve">
<g id="Capa_1_1_" display="none">
	<g display="inline">
		<g>
			<path fill="#545454" d="M1290.961,1078.67l-660.592,1.108l-0.775-438.029l-245.172,0.332L958.781,4.323l576.798,635.763
				l-245.283,0.443L1290.961,1078.67z M697.647,1012.278l525.924-0.776l-0.775-438.14l160.936-0.333L959.002,104.741
				L535.936,574.359l160.825-0.222L697.647,1012.278z"/>
		</g>
		<g>
			<g>
				<path fill="#545454" d="M924.199,562.5c17.069-17.18,25.715-38.683,25.604-63.843c0-25.271-8.534-45.997-25.936-63.288
					c-17.401-17.401-38.904-26.269-63.731-26.269c-24.828,0.111-46.22,8.979-63.621,26.49
					c-17.401,17.513-25.714,38.128-25.714,63.399c0,25.16,8.756,46.662,25.936,63.731s38.571,25.825,63.731,25.714
					C885.628,588.325,907.131,579.68,924.199,562.5z M837.303,475.049c5.875-6.206,13.189-9.088,22.943-9.199
					c9.754,0,17.18,2.882,22.5,8.867l0.222,0.332c5.875,6.318,8.757,13.855,8.757,23.608c0,9.865-2.882,18.066-8.646,24.163
					l-0.333,0.332c-5.099,5.764-12.303,8.424-22.389,8.535c-10.086,0-17.513-2.66-23.055-8.535
					c-5.542-6.317-8.313-14.52-8.424-24.273C828.99,489.236,831.65,481.478,837.303,475.049z"/>
			</g>
			<g>
				<polygon fill="#545454" points="1076.269,393.694 800.395,764.002 842.513,797.697 1118.387,426.613 				"/>
			</g>
			<g>
				<path fill="#545454" d="M1122.931,629.002c-17.401-17.401-38.903-26.268-63.731-26.157c-24.827,0-46.219,8.867-63.62,26.49
					c-17.401,17.401-25.715,38.128-25.715,63.288c0,25.271,8.757,46.773,25.937,63.843c17.068,17.18,38.571,25.825,63.731,25.825
					c25.16-0.111,46.552-8.757,63.62-25.937c17.069-17.18,25.715-38.683,25.604-63.953
					C1148.756,667.131,1140.222,646.515,1122.931,629.002z M1082.143,716.564l-0.222,0.332c-5.209,5.764-12.192,8.424-22.389,8.534
					c-10.087,0-17.513-2.771-23.165-8.534c-5.542-6.317-8.313-14.52-8.313-24.273c0-9.643,2.659-17.401,8.201-23.83
					c5.875-6.317,13.301-9.089,23.055-9.089c9.864-0.11,17.18,2.882,22.389,8.867l0.222,0.222
					c5.985,6.317,8.757,13.854,8.757,23.608C1090.678,702.266,1087.796,710.468,1082.143,716.564z"/>
			</g>
		</g>
	</g>
</g>
<g id="Capa_2">
	<path fill="#545454" d="M960.222,1060.271c-199.729,0-362.106-163.263-362.106-364.101c0-87.562,29.815-146.971,64.397-215.911
		c19.063-38.239,39.015-77.808,57.303-128.239l18.953-52.537c28.042,6.872,18.62,4.544,46.662,11.417l-7.314,55.418
		c-6.097,45.222,2.216,96.54,22.61,140.764c8.646,18.731,19.064,35.357,30.813,49.212c-4.101-73.485,3.437-144.311,22.39-211.256
		c19.95-70.16,51.872-135,94.987-192.414c53.646-71.49,115.382-118.152,143.867-122.032l81.133-10.973l-54.532,60.96
		c-24.827,27.599-38.35,63.289-38.35,100.53c0,71.823,44.003,122.919,95.099,181.995c32.697,37.906,69.828,80.801,97.759,133.448
		c32.697,61.071,48.437,126.354,48.437,199.618C1322.328,897.008,1159.84,1060.271,960.222,1060.271z M728.018,484.138
		c-3.99,8.092-7.87,15.739-11.639,23.276c-32.364,64.618-57.856,115.604-57.856,188.866c0,167.476,135.332,303.695,301.699,303.695
		s301.811-136.22,301.811-303.695c0-141.428-66.946-218.682-131.564-293.608c-56.526-65.394-109.95-127.019-109.95-221.453
		c0-7.537,0.443-15.074,1.219-22.389c-17.069,19.175-35.024,42.562-51.761,70.16c-47.771,77.808-98.867,208.374-71.712,388.596
		l7.869,52.759l-49.322-20.283c-45.222-18.621-84.68-60.406-110.948-117.487C738.658,516.835,732.562,500.652,728.018,484.138z"/>
</g>
</svg>
