<?xml version="1.0" encoding="utf-8"?>
<!-- Generator: Adobe Illustrator 22.0.0, SVG Export Plug-In . SVG Version: 6.00 Build 0)  -->
<svg version="1.1" xmlns="http://www.w3.org/2000/svg" xmlns:xlink="http://www.w3.org/1999/xlink" x="0px" y="0px"
	 viewBox="0 0 1038.6 974.4" style="enable-background:new 0 0 1038.6 974.4;" xml:space="preserve">
<style type="text/css">
	.st0{display:none;}
	.st1{display:inline;}
	.st2{fill:#545454;}
</style>
<g id="Capa_1" class="st0">
	<g id="Capa_1_1_" class="st1">
		<g>
			<g>
				<path class="st2" d="M817.9,973.2l-596,1L221.2,579L0,579.3L518.2,3.9l520.4,573.6l-221.3,0.4L817.9,973.2z M282.6,913.3
					l474.5-0.7l-0.7-395.3l145.2-0.3L518.4,94.5L136.7,518.2l145.1-0.2L282.6,913.3z"/>
			</g>
			<g>
				<g>
					<path class="st2" d="M487,507.5c15.4-15.5,23.2-34.9,23.1-57.6c0-22.8-7.7-41.5-23.4-57.1c-15.7-15.7-35.1-23.7-57.5-23.7
						c-22.4,0.1-41.7,8.1-57.4,23.9c-15.7,15.8-23.2,34.4-23.2,57.2c0,22.7,7.9,42.1,23.4,57.5s34.8,23.3,57.5,23.2
						C452.2,530.8,471.6,523,487,507.5z M408.6,428.6c5.3-5.6,11.9-8.2,20.7-8.3c8.8,0,15.5,2.6,20.3,8l0.2,0.3
						c5.3,5.7,7.9,12.5,7.9,21.3c0,8.9-2.6,16.3-7.8,21.8l-0.3,0.3c-4.6,5.2-11.1,7.6-20.2,7.7c-9.1,0-15.8-2.4-20.8-7.7
						c-5-5.7-7.5-13.1-7.6-21.9C401.1,441.4,403.5,434.4,408.6,428.6z"/>
				</g>
				<g>
					<polygon class="st2" points="624.2,355.2 375.3,689.3 413.3,719.7 662.2,384.9 					"/>
				</g>
				<g>
					<path class="st2" d="M666.3,567.5c-15.7-15.7-35.1-23.7-57.5-23.6c-22.4,0-41.7,8-57.4,23.9c-15.7,15.7-23.2,34.4-23.2,57.1
						c0,22.8,7.9,42.2,23.4,57.6c15.4,15.5,34.8,23.3,57.5,23.3c22.7-0.1,42-7.9,57.4-23.4s23.2-34.9,23.1-57.7
						C689.6,601.9,681.9,583.3,666.3,567.5z M629.5,646.5l-0.2,0.3c-4.7,5.2-11,7.6-20.2,7.7c-9.1,0-15.8-2.5-20.9-7.7
						c-5-5.7-7.5-13.1-7.5-21.9c0-8.7,2.4-15.7,7.4-21.5c5.3-5.7,12-8.2,20.8-8.2c8.9-0.1,15.5,2.6,20.2,8l0.2,0.2
						c5.4,5.7,7.9,12.5,7.9,21.3C637.2,633.6,634.6,641,629.5,646.5z"/>
				</g>
			</g>
		</g>
	</g>
	<g id="Capa_2_1_">
	</g>
</g>
<g id="Capa_2">
	<g>
		<g>
			<g>
				<polygon class="st2" points="518.4,16.8 283.4,251.6 470,251.6 470,703.3 566.7,703.3 566.7,251.6 753.3,251.6 				"/>
			</g>
		</g>
		<g>
			<g>
				<polygon class="st2" points="921.2,468 921.2,870.8 115.5,870.8 115.5,468 18.8,468 18.8,967.5 1017.9,967.5 1017.9,468 				"/>
			</g>
		</g>
	</g>
</g>
</svg>
