<svg xmlns="http://www.w3.org/2000/svg" xmlns:xlink="http://www.w3.org/1999/xlink" viewBox="0 0 24.4 22.76"><defs><style>.cls-1{fill:#fff;}.cls-2{fill:red;}</style><symbol id="Arrow_Fill" data-name="Arrow Fill" viewBox="0 0 24.4 22.76"><path class="cls-1" d="M19.64,13a1.5,1.5,0,0,0,0-3,1.5,1.5,0,0,0,0,3Z"/><path class="cls-1" d="M20.14,12.49a1.5,1.5,0,0,0,0-3,1.5,1.5,0,0,0,0,3Z"/><path class="cls-1" d="M4.64,12.91a1.5,1.5,0,0,0,0-3,1.5,1.5,0,0,0,0,3Z"/><path class="cls-1" d="M4.23,12.83a1.5,1.5,0,0,0,0-3,1.5,1.5,0,0,0,0,3Z"/><path class="cls-1" d="M11.89,20.41a1.5,1.5,0,0,0,0-3,1.5,1.5,0,0,0,0,3Z"/><path class="cls-1" d="M12.06,20.66a1.5,1.5,0,0,0,0-3,1.5,1.5,0,0,0,0,3Z"/><path class="cls-1" d="M6,10.83a3.44,3.44,0,0,1,.41,1.58c-.08,0-.33,0-.41-.08,1.08-.75,2,1.66,2.58,2.33.67.83,3.25,2.5,2.92,3.5a25.83,25.83,0,0,0,2.5-1.5,6.59,6.59,0,0,1-.92,1.17c.5-2,2.75-3.5,4.17-4.84-.09,1.25-2.17,2.75-3,3.67.58-1.5,2.66-2.83,3.83-3.92a9.72,9.72,0,0,1-1.58-4.25,10.9,10.9,0,0,1,0-2.91c.25-1.59,1.16-2.92-.92-3.25-1.33-.17-2.67.33-3.92.33,1.59-.58,3.25-.5,4.84-1-1.42-.25-2.84.67-4.34.58A22.29,22.29,0,0,0,9.73,2c-1.17,0-1.5-.25-1.92.75-.5,1.17-.75,6.92.25,8.09,1.75-1.5.83-5.67,1.5-7.75,1,1.66,1,3.91,1,5.83a14.33,14.33,0,0,0,.33-2.67,15.46,15.46,0,0,0-.58,5.5c1.08-1.58.67-4.91,2-6,.42.92.33,2.09.83,2.84,1.09-.92,1.5-3,2.09-4.34a2.08,2.08,0,0,1,.16,1.59c-.83-1.09-.83-1.5-2.25-1.67-.5-.08-1.66-.17-2,.25-.41.67,1.17,3.08,1.5,3.67.59.66,2,1.5,2.25,2.41.25,1.17-1.66,4.5-2.91,4.42-2.09-.17-.09-2.92.41-3.92-1.33-.25-2.33,1.5-3.66,1.59a6.1,6.1,0,0,1,3.41-.84"/><path class="cls-2" d="M4.53,11.22A3.43,3.43,0,0,1,5,12.81L6.79,11l-.41-.08v2.89c-.52.16,3.6,4.44,3.6,4.39a1.51,1.51,0,0,0,2.25,1.29c.86-.48,1.69-.95,2.5-1.5l-2.05-2-.68.87,2.51,1.45c.67-1.77,2.42-2.95,3.78-4.17l-2.51-1.46c-.37,1.23-1.74,2.15-2.61,3l2.35,1.82c.84-1.53,2.31-2.5,3.6-3.62A1.5,1.5,0,0,0,19.36,12,9,9,0,0,1,18,5.85c.14-1,.65-2.22.24-3.28C17.21,0,13.68,1,11.64,1.16l.4,3c1.59-.47,3.23-.6,4.84-1a1.51,1.51,0,0,0-.4-2.95c-1.51,0-2.84.52-4.34.58C11,.79,9.67.2,8.49.49A2.8,2.8,0,0,0,6.26,2.66c-.76,2.45-.88,6.68.51,8.92a1.51,1.51,0,0,0,2.35.31c2.14-2.44,1.2-5.51,1.89-8.42l-2.74.36a11.43,11.43,0,0,1,.79,5.08c0,1.64,2.61,2.1,2.95.4a26.27,26.27,0,0,0,.38-3.07c.13-1.71-2.5-2-2.94-.4a19.87,19.87,0,0,0-.64,5.9,1.52,1.52,0,0,0,2.8.76c.87-1.66.56-4.32,1.76-5.7l-2.51-.66c.29,1,.46,1.9.84,2.83a1.51,1.51,0,0,0,2.5.67c1.31-1.46,1.78-3.21,2.47-5H13.78l.11,1.19,2.8-.76c-1-1.39-1.77-2.2-3.55-2.41-1.52-.18-3.35.13-3.54,1.93-.14,1.4,1,3.35,1.87,4.4.3.36.71.62,1,1,.9,1,.61,1,.41,2.13,0-.09-1,1.72-.11,1.3a9.36,9.36,0,0,0,.9-1.64,1.52,1.52,0,0,0-1.3-2.26c-1.69.07-2.5,1.24-4.06,1.64l1.15,2.74a4.77,4.77,0,0,1,2.66-.63c1.93,0,1.94-3,0-3a9.46,9.46,0,0,0-4.17,1c-1.56.77-.45,3.15,1.16,2.74,1.11-.28,2.18-1.49,3.26-1.53L11.1,10.24c-.82,1.48-2.29,3.55-1.07,5.19s3.2.93,4.37-.31,2.47-3.59,1.79-5.38c-.46-1.21-1.7-1.8-2.46-2.77a8,8,0,0,1-1.08-2l-.17.66a1.71,1.71,0,0,1,1.62,1,1.51,1.51,0,0,0,2.79-.75,3.65,3.65,0,0,0-.22-2,1.51,1.51,0,0,0-2.89,0,11.34,11.34,0,0,1-1.7,3.68l2.51.66c-.37-.94-.55-1.87-.83-2.84a1.52,1.52,0,0,0-2.51-.66C9.63,6.53,10.11,8.92,9,11l2.79.75a17.23,17.23,0,0,1,.53-5.1l-2.95-.4a13.29,13.29,0,0,1-.28,2.27l3,.4a14.7,14.7,0,0,0-1.2-6.59,1.52,1.52,0,0,0-2.75.36c-.47,2,.3,5.48-1.11,7.09l2.36.3a9.85,9.85,0,0,1-.3-6.17c.35-.71.56-.39,1.91-.31,1.94.11,3.58-.44,5.51-.43L16.08.21c-1.61.4-3.25.54-4.84,1s-1.34,3.09.4,3c1.11-.09,2.89-.9,3.55.25.19.33-.3,2.69-.29,3.1a11.93,11.93,0,0,0,1.87,6L17,11.68c-1.52,1.32-3.08,2.43-4.07,4.22a1.51,1.51,0,0,0,2.36,1.82c1.35-1.34,2.82-2.45,3.38-4.33a1.51,1.51,0,0,0-2.5-1.46c-1.87,1.68-3.65,3.11-4.56,5.5-.53,1.4,1.55,2.54,2.51,1.46a16.16,16.16,0,0,0,1.15-1.47,1.51,1.51,0,0,0-2-2.06c-.81.55-1.65,1-2.5,1.5L13,18.16c-.11-2.25-2.28-3.27-3.55-4.89-1.07-1.37-1.81-3-3.85-2.39-1.33.41-1.53,2.59,0,2.89l.41.09A1.53,1.53,0,0,0,7.84,12a3.36,3.36,0,0,0-.42-1.58c-.7-1.78-3.6-1-2.89.79Z"/><path class="cls-2" d="M8.06,4.16a1.5,1.5,0,0,0,0-3,1.5,1.5,0,0,0,0,3Z"/><path class="cls-2" d="M7.48,3.41a1.5,1.5,0,0,0,0-3,1.5,1.5,0,0,0,0,3Z"/><path class="cls-1" d="M16.39,12.16"/><path class="cls-2" d="M16.39,13.66a1.5,1.5,0,0,0,0-3,1.5,1.5,0,0,0,0,3Z"/><path class="cls-2" d="M11.81,15a1.5,1.5,0,0,0,0-3,1.5,1.5,0,0,0,0,3Z"/><path class="cls-2" d="M11.56,15.24a1.5,1.5,0,0,0,0-3,1.5,1.5,0,0,0,0,3Z"/><path class="cls-2" d="M9,14.83a1.5,1.5,0,0,0,0-3,1.5,1.5,0,0,0,0,3Z"/><path class="cls-2" d="M8.06,14.83a1.5,1.5,0,0,0,0-3,1.5,1.5,0,0,0,0,3Z"/><path class="cls-2" d="M7.23,15a1.5,1.5,0,0,0,0-3,1.5,1.5,0,0,0,0,3Z"/><path class="cls-2" d="M5.45,9.64a3.32,3.32,0,0,0-1.33,0,1.54,1.54,0,0,0-1.05,1.85,1.52,1.52,0,0,0,1.84,1.05H4.83a.74.74,0,0,1,.21,0l.41,0A1.5,1.5,0,0,0,7,11.14a1.53,1.53,0,0,0-1.5-1.5Z"/><path class="cls-2" d="M12.08,19.64a1.5,1.5,0,0,0,0-3,1.5,1.5,0,0,0,0,3Z"/><path class="cls-2" d="M12.08,20.29a1.5,1.5,0,0,0,0-3,1.5,1.5,0,0,0,0,3Z"/><path class="cls-2" d="M12.05,20.86a1.5,1.5,0,0,0,0-3,1.5,1.5,0,0,0,0,3Z"/><path class="cls-2" d="M18.92,13.51a1.5,1.5,0,0,0,0-3,1.5,1.5,0,0,0,0,3Z"/><path class="cls-2" d="M20.86,12.36a1.5,1.5,0,0,0,0-3,1.5,1.5,0,0,0,0,3Z"/><path class="cls-2" d="M3.64,12.39a1.5,1.5,0,0,0,0-3,1.5,1.5,0,0,0,0,3Z"/><path class="cls-2" d="M5.22,0l14,0,0,9.27h5.2L12.17,22.76,0,9.26H5.2ZM17.79,1.45l-11.15,0,0,9.27H3.21l9,9.94,9-9.9H17.77Z"/><path class="cls-1" d="M13,11a1.86,1.86,0,0,0-.55,1.35A1.81,1.81,0,0,0,13,13.64a1.92,1.92,0,0,0,2.7,0,1.92,1.92,0,0,0,0-2.69,1.8,1.8,0,0,0-1.35-.55A1.86,1.86,0,0,0,13,11Zm1.84,1.86a.64.64,0,0,1-.49.19.6.6,0,0,1-.48-.19h0a.7.7,0,0,1-.18-.51.72.72,0,0,1,.18-.51h0a.58.58,0,0,1,.47-.18.64.64,0,0,1,.49.18.77.77,0,0,1,.18.52A.78.78,0,0,1,14.79,12.81Z"/><polygon class="cls-1" points="9.72 14.51 15.59 6.7 14.71 5.98 8.82 13.81 9.72 14.51"/><path class="cls-1" d="M8.75,9.53a1.82,1.82,0,0,0,1.34.56,1.91,1.91,0,0,0,1.36-3.25,1.84,1.84,0,0,0-1.35-.55,1.82,1.82,0,0,0-1.35.55A1.84,1.84,0,0,0,8.2,8.19,1.81,1.81,0,0,0,8.75,9.53Zm.87-1.85h0a.6.6,0,0,1,.48-.18.63.63,0,0,1,.49.19.77.77,0,0,1,.17.51.76.76,0,0,1-.17.5.58.58,0,0,1-.49.19.62.62,0,0,1-.48-.18h0a.66.66,0,0,1-.19-.5A.73.73,0,0,1,9.62,7.68Z"/></symbol></defs><title>up vote (red)</title><g id="Layer_2" data-name="Layer 2"><g id="Layer_2-2" data-name="Layer 2"><use width="24.4" height="22.76" transform="translate(24.4 22.76) rotate(180)" xlink:href="#Arrow_Fill"/></g></g></svg>