<?xml version="1.0" encoding="utf-8"?>
<!-- Generator: Adobe Illustrator 24.0.2, SVG Export Plug-In . SVG Version: 6.00 Build 0)  -->
<svg version="1.1" baseProfile="tiny" id="Capa_1" xmlns="http://www.w3.org/2000/svg" xmlns:xlink="http://www.w3.org/1999/xlink"
	 x="0px" y="0px" viewBox="0 0 1418 1080" xml:space="preserve">
<g>
	<path fill="#FFFFFF" d="M817.09,20H514.77L177.82,494.63h210.01l-121.71,519.56l533-717.32H627.17L817.09,20z M514.75,438.13
		c-0.08-0.04-0.17-0.04-0.25-0.04c-0.08,0-0.15-0.04-0.23-0.04c0.93-1.66,1.87-3.36,2.78-5.13
		C516.27,434.69,515.5,436.39,514.75,438.13z M607.34,196.21c-3.96,0.15-7.69-0.43-11.24-1.74
		C599.67,195.25,603.42,195.78,607.34,196.21z"/>
	<g>
		<g>
			<path fill="#FFFFFF" d="M990.85,906.93c-3.01,1.59-6.14,3.09-9.43,4.56c-25.96,11.47-60.07,17.77-95.95,17.77
				c-9.5,0-18.81-0.46-27.93-1.31c-0.19,16.41-2.93,32.21-7.8,47.04c11.43,1.62,23.48,2.51,35.73,2.51
				c30.21,0,59.52-5.29,80.34-14.48c17.19-7.57,25.03-16.3,25.03-21.24V906.93L990.85,906.93z"/>
			<path fill="#FFFFFF" d="M885.48,581.85c-35.92,0-70.03-6.26-95.99-17.73c-3.28-1.47-6.41-2.97-9.39-4.6v34.88
				c0,4.9,7.8,13.63,24.99,21.24c20.82,9.19,50.14,14.48,80.38,14.48c30.21,0,59.52-5.29,80.34-14.48
				c17.19-7.61,25.03-16.34,25.03-21.24v-34.88c-3.01,1.62-6.14,3.13-9.43,4.6C955.47,575.6,921.36,581.85,885.48,581.85z"/>
			<path fill="#FFFFFF" d="M885.48,668.72c-35.92,0-70.03-6.3-95.99-17.73c-3.28-1.47-6.41-3.01-9.39-4.64v34.92
				c0,4.86,7.8,13.63,24.99,21.24c20.82,9.19,50.14,14.44,80.38,14.44c30.21,0,59.52-5.25,80.34-14.44
				c17.19-7.61,25.03-16.38,25.03-21.24v-34.92c-3.01,1.63-6.14,3.17-9.43,4.64C955.47,662.43,921.36,668.72,885.48,668.72z"/>
			<path fill="#FFFFFF" d="M981.43,737.82c-25.96,11.43-60.07,17.73-95.95,17.73c-35.92,0-70.03-6.3-95.99-17.73
				c-3.28-1.47-6.41-3.01-9.39-4.6v34.88c0,4.9,7.8,13.67,24.99,21.24c20.82,9.19,50.14,14.44,80.38,14.44
				c30.21,0,59.52-5.25,80.34-14.44c17.19-7.57,25.03-16.34,25.03-21.24v-4.33v-30.55C987.84,734.81,984.71,736.35,981.43,737.82z"
				/>
			<path fill="#FFFFFF" d="M885.48,890.63c30.21,0,59.52-5.25,80.34-14.44c17.19-7.57,25.03-16.3,25.03-21.24v-34.88
				c-3.01,1.59-6.14,3.13-9.43,4.6c-25.96,11.43-60.07,17.77-95.95,17.77c-19.43,0-38.28-1.86-55.62-5.37
				c10.66,15.41,18.62,32.83,23.22,51.57C863.5,889.93,874.35,890.63,885.48,890.63z"/>
			<path fill="#FFFFFF" d="M1230.76,993.99c-25.96,11.47-60.03,17.77-95.95,17.77c-35.92,0-69.99-6.3-95.95-17.77
				c-3.32-1.47-6.45-2.97-9.43-4.56v34.84c0,4.94,7.84,13.67,24.99,21.24c20.86,9.2,50.14,14.48,80.38,14.48
				c30.21,0,59.52-5.29,80.34-14.48c17.19-7.57,25.03-16.3,25.03-21.24v-34.84C1237.17,991.02,1234.04,992.52,1230.76,993.99z"/>
			<path fill="#FFFFFF" d="M1230.76,907.16c-25.96,11.43-60.03,17.77-95.95,17.77c-35.92,0-69.99-6.33-95.95-17.77
				c-3.32-1.47-6.45-3.01-9.43-4.6v34.88c0,4.94,7.84,13.67,24.99,21.24c20.86,9.19,50.14,14.45,80.38,14.45
				c30.21,0,59.52-5.26,80.34-14.45c17.19-7.57,25.03-16.3,25.03-21.24v-34.88C1237.17,904.15,1234.04,905.69,1230.76,907.16z"/>
			<path fill="#FFFFFF" d="M1230.76,820.33c-25.96,11.43-60.03,17.77-95.95,17.77c-35.92,0-69.99-6.34-95.95-17.77
				c-3.32-1.47-6.45-3.01-9.43-4.6v34.88c0,4.9,7.84,13.67,24.99,21.24c20.86,9.19,50.14,14.44,80.38,14.44
				c30.21,0,59.52-5.25,80.34-14.44c17.19-7.57,25.03-16.34,25.03-21.24v-34.88C1237.17,817.32,1234.04,818.86,1230.76,820.33z"/>
			<path fill="#FFFFFF" d="M805.1,528.78c20.82,9.19,50.14,14.48,80.38,14.48c30.21,0,59.52-5.29,80.34-14.48
				c17.19-7.57,25.03-16.3,25.03-21.21c0-4.9-7.84-13.67-25.03-21.24c-20.82-9.19-50.13-14.48-80.34-14.48
				c-30.24,0-59.56,5.29-80.38,14.48c-17.19,7.57-24.99,16.34-24.99,21.24C780.11,512.48,787.91,521.21,805.1,528.78z"/>
			<path fill="#FFFFFF" d="M1054.43,785.02c20.86,9.19,50.14,14.44,80.38,14.44c30.21,0,59.52-5.25,80.34-14.44
				c17.19-7.61,25.03-16.34,25.03-21.24c0-4.94-7.84-13.67-25.03-21.24c-20.82-9.19-50.14-14.45-80.34-14.45
				c-30.24,0-59.52,5.26-80.38,14.45c-17.15,7.57-24.99,16.3-24.99,21.24C1029.44,768.68,1037.28,777.41,1054.43,785.02z"/>
			<path fill="#FFFFFF" d="M818.97,926.01c0-65.28-53.11-118.39-118.39-118.39c-65.24,0-118.35,53.11-118.35,118.39
				c0,65.27,53.11,118.35,118.35,118.35C765.86,1044.36,818.97,991.28,818.97,926.01z M715.8,990.36v15.68h-27.77v-15.6
				c-15.41-4.94-27.11-18.08-30.63-35l-1-5.02l25.07-15.22l2.63,9.15c4.68,16.42,10.28,19.74,17.85,19.74
				c5.95,0,8.58-2.16,10.2-4.09c1.78-2.2,2.7-5.17,2.7-9.04c0-4.86-2.82-8.84-17.69-15.91c-9.85-4.48-14.83-7.53-21.13-12.98
				c-7.53-6.68-11.12-15.14-11.12-25.88c0-15.68,9.27-29.08,23.13-34.38v-15.88h27.77v15.96c9.08,3.32,16.26,10.04,21.4,20.12
				l2.93,5.83l-23.72,15.37l-3.79-6.76c-4.52-8.07-7.84-8.69-12.05-8.69c-4.09,0-6.64,3.79-6.64,7.3c0,3.13,0.58,4.98,3.82,7.53
				l0.11,0.08c2.24,1.55,4.21,2.9,5.64,3.67l8.84,4.6c6.49,3.24,10.24,5.18,16.26,9.77c10,7.45,14.71,16.57,15.3,29.63v0.31
				c0,11.16-3.67,20.78-10.85,28.58C728.23,984.53,722.44,988.27,715.8,990.36z"/>
		</g>
	</g>
</g>
</svg>
