<?xml version="1.0" encoding="utf-8"?>
<!-- Generator: Adobe Illustrator 16.0.3, SVG Export Plug-In . SVG Version: 6.00 Build 0)  -->
<!DOCTYPE svg PUBLIC "-//W3C//DTD SVG 1.1//EN" "http://www.w3.org/Graphics/SVG/1.1/DTD/svg11.dtd">
<svg version="1.1" id="Capa_1" xmlns="http://www.w3.org/2000/svg" xmlns:xlink="http://www.w3.org/1999/xlink" x="0px" y="0px"
	 width="1078.387px" height="1080px" viewBox="0 0 1078.387 1080" enable-background="new 0 0 1078.387 1080" xml:space="preserve">
<path fill="#545454" d="M798.209,701.259c53.341-73.104,85.239-162.767,85.239-260.073c0-243.442-197.52-441.594-440.232-441.594
	C200.428-0.408,2.912,197.743,2.912,441.186c0,243.584,197.516,441.594,440.304,441.594c96.966,0,186.461-31.987,259.221-85.488
	l288.434,289.301l95.771-96.104L798.209,701.259z M443.216,746.904c-168.083,0-304.792-137.148-304.792-305.719
	s136.709-305.719,304.792-305.719c168.009,0,304.792,137.148,304.792,305.719S611.226,746.904,443.216,746.904"/>
</svg>
