<?xml version="1.0" encoding="utf-8"?>
<!-- Generator: Adobe Illustrator 16.0.3, SVG Export Plug-In . SVG Version: 6.00 Build 0)  -->
<!DOCTYPE svg PUBLIC "-//W3C//DTD SVG 1.1//EN" "http://www.w3.org/Graphics/SVG/1.1/DTD/svg11.dtd">
<svg version="1.1" id="Capa_1" xmlns="http://www.w3.org/2000/svg" xmlns:xlink="http://www.w3.org/1999/xlink" x="0px" y="0px"
	 width="1.42px" height="1.42px" viewBox="0 0 1.42 1.42" enable-background="new 0 0 1.42 1.42" xml:space="preserve">
<path fill="#FFFFFF" d="M1.366,1.065L1.265,1.054l0,0L1.264,1.057L1.245,1.13L1.221,0.984L1.217,0.962L1.215,0.985l-0.01,0.079
	L1.198,1.032L1.194,1.017L1.191,1.034L1.179,1.099L1.172,1.057l-0.005-0.03l-0.004,0.03L1.156,1.102l-0.021-0.12L1.13,0.953
	L1.125,0.981L1.097,1.108C1.082,1.106,1.068,1.105,1.053,1.104c-0.015,0-0.03,0-0.045-0.001C1.007,1.101,1.004,1.096,1.002,1.091
	C1,1.086,0.998,1.079,0.995,1.073C0.99,1.059,0.986,1.043,0.983,1.026C0.975,0.992,0.969,0.952,0.965,0.91
	C0.964,0.9,0.964,0.889,0.963,0.878L0.96,0.847c0-0.023-0.001-0.044-0.002-0.067c0-0.011,0-0.022,0-0.033c0-0.012,0-0.023,0-0.034
	c0-0.023,0-0.046,0-0.069c0-0.023,0-0.046,0.002-0.068c0-0.023,0-0.046,0.002-0.068c0.001-0.023,0.002-0.045,0.004-0.068
	c0.001-0.022,0.002-0.045,0.004-0.067C0.971,0.35,0.972,0.327,0.974,0.305C0.977,0.282,0.979,0.26,0.98,0.238
	c0.002-0.022,0.004-0.044,0.006-0.066l0.007-0.065l0.005-0.052L0.984,0.07C0.975,0.08,0.966,0.091,0.958,0.102
	C0.949,0.114,0.941,0.127,0.934,0.14C0.925,0.153,0.917,0.167,0.909,0.183c-0.008,0.015-0.016,0.03-0.023,0.047L0.874,0.255
	L0.862,0.281C0.855,0.299,0.848,0.318,0.84,0.337c-0.003,0.01-0.007,0.02-0.01,0.03c-0.004,0.01-0.007,0.021-0.011,0.031
	C0.813,0.418,0.807,0.44,0.8,0.462C0.793,0.485,0.787,0.507,0.781,0.532C0.774,0.555,0.769,0.58,0.763,0.604
	C0.757,0.63,0.751,0.654,0.747,0.681c-0.005,0.026-0.01,0.054-0.014,0.081C0.729,0.775,0.728,0.791,0.725,0.804
	C0.723,0.818,0.72,0.831,0.718,0.846C0.714,0.875,0.71,0.903,0.707,0.934C0.703,0.962,0.7,0.993,0.697,1.022
	C0.693,1.046,0.692,1.07,0.689,1.095L0.54,1.088L0.433,0.394L0.418,0.301v0.106L0.416,1.204L0.282,0.42L0.268,0.336l0,0.097
	L0.265,1.24L0.217,0.999L0.212,0.972L0.205,0.995C0.192,1.042,0.18,1.088,0.167,1.136L0.129,0.892L0.123,0.857L0.119,0.893
	L0.094,1.087L0.083,1.013L0.082,1.007H0.081l-0.107,0.007L0.08,1.028l0.012,0.096l0.003,0.024l0.004-0.024l0.025-0.179l0.035,0.25
	l0.004,0.033L0.171,1.2C0.185,1.155,0.197,1.106,0.21,1.059l0.057,0.285L0.28,1.414l0.001-0.086l0.001-0.795l0.134,0.784
	l0.014,0.083l0-0.098l0.002-0.787l0.095,0.615l0.002,0.015h0.004l0.16,0.005l0.005,0.001L0.703,1.13
	c0.002-0.03,0.005-0.06,0.008-0.088c0.003-0.029,0.006-0.058,0.01-0.086C0.724,0.927,0.728,0.9,0.732,0.872
	c0.001-0.015,0.004-0.027,0.006-0.041c0.002-0.013,0.004-0.026,0.006-0.04C0.75,0.765,0.754,0.739,0.759,0.713
	c0.005-0.026,0.01-0.05,0.017-0.074c0.005-0.023,0.01-0.048,0.016-0.07C0.798,0.546,0.804,0.524,0.81,0.502
	C0.816,0.481,0.823,0.46,0.83,0.44c0.003-0.01,0.007-0.02,0.01-0.03C0.843,0.4,0.847,0.391,0.85,0.382
	c0.007-0.019,0.014-0.037,0.021-0.055l0.011-0.025l0.011-0.024c0.008-0.016,0.015-0.031,0.023-0.046S0.932,0.204,0.939,0.19
	c0.009-0.013,0.016-0.025,0.024-0.036C0.966,0.15,0.969,0.146,0.973,0.142l0,0.012C0.969,0.176,0.967,0.198,0.965,0.221
	C0.963,0.244,0.961,0.266,0.959,0.289C0.958,0.312,0.955,0.335,0.954,0.357C0.952,0.381,0.951,0.404,0.949,0.427
	c-0.001,0.024-0.002,0.048-0.003,0.07C0.945,0.521,0.944,0.544,0.942,0.569C0.941,0.593,0.941,0.617,0.941,0.641
	c0,0.023-0.001,0.048,0,0.072c0,0.012,0,0.024,0,0.036c0,0.012,0,0.024,0,0.037C0.942,0.81,0.944,0.834,0.945,0.857l0.003,0.036
	c0,0.012,0.001,0.024,0.002,0.036c0.005,0.046,0.011,0.091,0.02,0.131c0.004,0.02,0.009,0.038,0.015,0.055
	C0.988,1.124,0.99,1.132,0.994,1.138C0.997,1.146,1,1.152,1.003,1.158l0.001,0.001h0.002C1.022,1.16,1.038,1.161,1.053,1.161
	c0.016,0,0.031,0,0.047,0h0.004l0.001-0.01l0.023-0.115l0.022,0.118l0.004,0.028l0.005-0.029l0.006-0.048L1.173,1.14l0.004,0.023
	l0.004-0.022l0.014-0.073l0.008,0.033l0.004,0.017L1.21,1.097l0.008-0.079l0.023,0.133l0.002,0.01l0.002-0.009l0.02-0.083
	L1.366,1.065z"/>
</svg>
