<?xml version="1.0" encoding="utf-8"?>
<!-- Generator: Adobe Illustrator 24.0.2, SVG Export Plug-In . SVG Version: 6.00 Build 0)  -->
<svg version="1.1" baseProfile="tiny" id="Capa_1" xmlns="http://www.w3.org/2000/svg" xmlns:xlink="http://www.w3.org/1999/xlink"
	 x="0px" y="0px" viewBox="0 0 1920 549" xml:space="preserve">
<g>
	<g id="Layer_1-2">
		<path fill="#FFFFFF" d="M1920,402.88l-138.47-4.27l0,0l0,0l-26.54,28.37l-32.33-56.43l-4.88-8.24l-3.97,9.15l-12.51,30.5
			l-10.37-12.2l-4.88-5.8l-7.63,7.02L1660.74,416l-9.46-16.47l-6.41-11.29l-6.1,11.59l-9.46,17.39l-28.06-46.36l-6.71-10.98
			l-7.93,10.37l-37.82,49.41l-61-1.53h-61c-2.94-1.35-5.79-2.88-8.54-4.58c-3.45-2.17-6.71-4.62-9.76-7.32
			c-6.39-5.28-12.22-11.21-17.39-17.69c-10.29-13.57-18.33-28.71-23.79-44.84l-3.66-12.2l-2.44-13.73
			c-1.77-8.47-3.09-17.02-3.97-25.62c0-4.27,0-8.85,0-13.12c0-4.27,0-8.85,0-13.12c-0.46-8.84-0.46-17.7,0-26.54
			c0-8.85,0-17.39,2.14-26.23c2.14-8.85,2.14-17.69,3.66-26.54c1.53-8.85,3.05-17.39,5.19-25.93s3.66-17.69,6.1-26.23
			c2.44-8.54,4.27-17.08,7.02-25.93c2.74-8.85,4.88-17.08,7.93-25.62s5.49-17.08,8.54-25.32l9.46-25.32l6.41-19.52l-20.44,5.8
			c-12.51,3.66-23.79,7.93-35.69,12.51c-11.9,4.58-22.88,9.46-34.16,14.64s-22.27,10.68-33.25,16.47l-32.64,18l-15.56,9.76
			l-15.56,10.37c-10.37,7.02-20.44,14.03-30.5,21.66l-14.64,12.81l-14.34,11.9c-9.46,7.93-18.3,16.47-27.45,25.01
			s-17.69,17.39-25.93,26.84c-8.24,9.46-16.47,18.61-24.71,28.06c-8.24,9.46-15.25,19.52-22.27,30.5
			c-7.02,10.98-14.03,20.74-20.74,30.5c-3.36,5.19-6.1,10.98-9.15,16.17c-3.05,5.19-6.41,10.68-9.15,16.47
			c-5.49,10.98-11.29,21.96-16.17,33.55c-4.88,11.59-9.46,22.88-14.03,34.47c-4.58,11.59-6.41,18.3-9.46,27.76l-206.49-2.44
			L633.79,143.93l-19.83-35.99v41.18l-3.05,307.45L425.78,153.69l-19.52-32.03v37.82l-3.05,310.8l-66.8-91.5l-7.63-10.68l-8.85,9.46
			c-17.69,18-35.69,35.69-53.38,53.99l-52.16-95.47l-7.32-13.42l-6.1,13.42l-33.55,75.34l-14.03-28.67v-2.44h-4.88L0.9,383.05
			l144.88,5.49l17.39,37.21l4.58,9.46l4.88-9.46l35.69-69.54l47.28,96.38l6.41,12.81l10.68-10.07c18.61-18,36.3-36.6,54.29-55.21
			l77.78,110.11l19.52,27.45v-33.55l3.66-306.84l183,303.48l19.52,30.5v-36.91l3.36-305.01l130.85,237.6l3.05,5.49h6.41l220.82,2.44
			h7.63l2.75-7.93c3.66-11.29,7.02-22.88,11.29-33.86c4.27-10.98,8.54-22.57,13.73-33.25c5.19-10.68,10.07-21.66,15.56-32.33
			c2.44-5.49,5.8-10.68,8.54-15.86c2.74-5.19,5.8-10.37,9.15-15.56c6.41-10.07,12.51-20.13,19.83-30.5s14.34-19.22,21.35-28.67
			s15.25-18.3,23.79-27.15c8.54-8.85,16.47-17.08,25.01-25.62s17.39-16.47,26.54-24.1l14.03-11.59l14.03-10.98
			c9.46-7.32,19.52-14.03,30.5-21.05l14.95-9.76l15.56-9.46l30.5-17.69c10.68-5.49,21.35-10.98,32.33-15.86s21.96-9.76,32.94-14.03
			l12.81-4.88v4.58c-3.35,8.54-6.1,17.39-8.85,26.23c-2.75,8.85-5.49,17.39-8.24,26.23s-4.88,17.69-7.32,26.54
			s-4.27,17.69-6.1,26.84c-1.83,9.15-3.66,18-5.19,27.15c-1.53,9.15-2.75,18.3-3.97,27.45c-1.22,9.15-2.14,18.3-2.44,27.76
			s0,18.3,0,27.76c0,4.58,0,9.46,0,14.03c-0.3,4.67-0.3,9.36,0,14.03c0,9.46,2.44,18.61,4.27,28.06l3.35,13.73
			c0,4.58,2.75,9.15,4.27,13.73c6.16,18.27,15.34,35.39,27.15,50.63c5.99,7.77,12.73,14.92,20.13,21.35
			c3.97,3.05,7.93,6.1,12.2,8.85c4.37,2.98,9.08,5.44,14.03,7.32l0,0h2.14c21.66,0,43.01,0,64.66,0h71.68l3.05-3.97l30.5-44.53
			l30.5,45.45l7.63,11.59l5.8-11.9l9.46-18.61l8.54,14.03l5.49,8.85l5.8-8.54l18.3-28.06l11.59,12.81l6.41,6.71l3.05-8.54
			l11.59-30.5l30.5,50.94l2.44,4.27l3.35-3.66l27.76-32.03L1920,402.88z"/>
	</g>
</g>
</svg>
