<?xml version="1.0" encoding="utf-8"?>
<!-- Generator: Adobe Illustrator 24.0.2, SVG Export Plug-In . SVG Version: 6.00 Build 0)  -->
<svg version="1.1" id="Capa_1" xmlns="http://www.w3.org/2000/svg" xmlns:xlink="http://www.w3.org/1999/xlink" x="0px" y="0px"
	 viewBox="0 0 1430 1080" style="enable-background:new 0 0 1430 1080;" xml:space="preserve">
<style type="text/css">
	.st0{fill:#535353;stroke:#535353;stroke-width:0.25;stroke-miterlimit:10;}
</style>
<g>
	<path class="st0" d="M712.5,1080C507.1,1080,340,952.62,340,796.04V205.98h87.67v590.06c0,119.75,127.77,217.16,284.83,217.16
		s284.83-97.41,284.83-217.16V205.98c0-76.74-81.89-139.18-182.6-139.18c-100.68,0-182.59,62.44-182.59,139.18v590.06
		c0,33.79,36.06,61.25,80.36,61.25c44.31,0,80.31-27.46,80.31-61.25V205.98h87.65v590.06c0,70.64-75.33,128.06-167.96,128.06
		c-92.68,0-167.96-57.42-167.96-128.06V205.98C544.54,92.43,665.7,0,814.73,0C963.73,0,1085,92.43,1085,205.98v590.06
		C1085,952.62,917.87,1080,712.5,1080z"/>
</g>
</svg>
