<?xml version="1.0" encoding="utf-8"?>
<!-- Generator: Adobe Illustrator 24.0.2, SVG Export Plug-In . SVG Version: 6.00 Build 0)  -->
<svg version="1.1" baseProfile="tiny" id="Capa_1" xmlns="http://www.w3.org/2000/svg" xmlns:xlink="http://www.w3.org/1999/xlink"
	 x="0px" y="0px" viewBox="0 0 1059 1080" xml:space="preserve">
<g id="Layer_2">
	<g id="Footer">
		<path fill="#535353" d="M-0.46,1080h1059.83V726.72H-0.46V1080z M333.11,864.09h78.54v-39.13c0-10.88,8.82-19.7,19.7-19.7
			c10.88,0,19.7,8.82,19.7,19.7v39.13h470.94c10.88,0,19.7,8.82,19.7,19.7c-0.15,10.78-8.93,19.43-19.7,19.43H451.05v39.4
			c0,10.88-8.82,19.7-19.7,19.7c-10.88,0-19.7-8.82-19.7-19.7c0,0,0,0,0,0v-39.4h-78.54c-10.73,0-19.43-8.7-19.43-19.43l0,0
			C313.68,873.02,322.34,864.24,333.11,864.09z M195.74,824.96c0.01-10.88,8.84-19.69,19.72-19.69
			c10.87,0.01,19.68,8.82,19.69,19.69v117.67c0,10.88-8.82,19.7-19.7,19.7c-10.88,0-19.7-8.82-19.7-19.7c0,0,0,0,0,0L195.74,824.96z
			 M117.21,824.96c0-10.88,8.82-19.7,19.7-19.7c10.88,0,19.7,8.82,19.7,19.7v117.67c0,10.88-8.82,19.7-19.7,19.7
			s-19.7-8.82-19.7-19.7c0,0,0,0,0,0V824.96z"/>
		<path fill="#535353" d="M-0.46,0.47v686.85h1059.83V0.47H-0.46z M657.78,370.21L441.87,507.85c-3.18,1.91-6.81,2.94-10.53,2.97
			c-10.88,0-19.7-8.82-19.7-19.7V216.38c0.06-7.18,3.98-13.78,10.26-17.27c6.13-3.74,13.84-3.74,19.97,0l215.91,137.37
			c9.09,5.7,11.84,17.69,6.14,26.79c-1.56,2.48-3.66,4.58-6.14,6.14V370.21z"/>
	</g>
</g>
</svg>
