<?xml version="1.0" encoding="utf-8"?>
<!-- Generator: Adobe Illustrator 24.0.2, SVG Export Plug-In . SVG Version: 6.00 Build 0)  -->
<svg version="1.1" baseProfile="tiny" id="Capa_1" xmlns="http://www.w3.org/2000/svg" xmlns:xlink="http://www.w3.org/1999/xlink"
	 x="0px" y="0px" viewBox="0 0 1418 1080" xml:space="preserve">
<g>
	<g>
		<rect x="0.08" y="0" fill="#FFFFFF" width="1417.84" height="166.16"/>
		<path fill="#FFFFFF" d="M913.95,664.62c-45.82,0-83.11,37.27-83.11,83.07c0,45.8,37.29,83.09,83.11,83.09
			c45.77,0,83.07-37.29,83.07-83.09C997.01,701.89,959.72,664.62,913.95,664.62z"/>
		<rect x="0.08" y="249.22" fill="#FFFFFF" width="1417.84" height="83.09"/>
		<rect x="249.32" y="747.69" fill="#FFFFFF" width="166.13" height="83.09"/>
		<path fill="#FFFFFF" d="M0.08,415.38V1080h1417.84V415.38H0.08z M498.53,913.84H166.26V664.62h332.27V913.84z M664.7,581.53
			H166.26v-83.06H664.7V581.53z M1080.08,913.84c-29.66,0-58.39-8.1-83.57-22.82c-24.43,14.13-52.4,22.82-82.56,22.82
			c-91.63,0-166.18-74.52-166.18-166.16s74.55-166.16,166.18-166.16c30.16,0,58.13,8.71,82.56,22.82
			c25.19-14.72,53.92-22.82,83.57-22.82c91.63,0,166.18,74.52,166.18,166.16S1171.71,913.84,1080.08,913.84z"/>
		<path fill="#FFFFFF" d="M1080.08,664.62c-7.26,0-14.14,2.05-21.01,3.86c12.95,23.65,21.01,50.37,21.01,79.21
			s-8.06,55.56-21.01,79.23c6.87,1.81,13.75,3.86,21.01,3.86c45.81,0,83.06-37.29,83.06-83.09
			C1163.15,701.89,1125.9,664.62,1080.08,664.62z"/>
	</g>
</g>
</svg>
