<?xml version="1.0" encoding="utf-8"?>
<!-- Generator: Adobe Illustrator 24.0.2, SVG Export Plug-In . SVG Version: 6.00 Build 0)  -->
<svg version="1.1" baseProfile="tiny" id="Capa_1" xmlns="http://www.w3.org/2000/svg" xmlns:xlink="http://www.w3.org/1999/xlink"
	 x="0px" y="0px" viewBox="0 0 1418 1080" xml:space="preserve">
<g>
	<path fill="#FFFFFF" d="M733.74,15c-83.18,0-160.99,38.09-212.28,101.74C470.18,53.09,392.36,15,309.18,15
		C158.77,15,36.43,137.38,36.43,287.8c0,118.11,70.57,254.91,209.77,406.56c107.31,116.88,224.01,207.42,257.22,232.36l18.03,13.52
		l18.02-13.52c33.22-24.94,149.94-115.44,257.22-232.32c139.22-151.65,209.79-288.49,209.79-406.6
		C1006.49,137.38,884.15,15,733.74,15z"/>
	<g>
		<g>
			<path fill="#FFFFFF" d="M1148.27,921.73c-2.78,1.52-5.71,2.93-8.82,4.3c-24.29,10.74-56.16,16.59-89.77,16.59
				c-8.86,0-17.56-0.4-26.13-1.2c-0.18,15.36-2.71,30.11-7.3,43.99c10.7,1.52,21.98,2.39,33.43,2.39c28.3,0,55.69-4.95,75.21-13.56
				c16.08-7.12,23.38-15.28,23.38-19.88V921.73L1148.27,921.73z"/>
			<path fill="#FFFFFF" d="M1049.68,617.6c-33.61,0-65.49-5.89-89.78-16.59c-3.07-1.37-6-2.82-8.82-4.34v32.67
				c0,4.59,7.34,12.76,23.42,19.88c19.48,8.6,46.88,13.52,75.18,13.52c28.3,0,55.69-4.92,75.21-13.52
				c16.08-7.12,23.38-15.29,23.38-19.88v-32.67c-2.78,1.52-5.71,2.96-8.82,4.34C1115.17,611.7,1083.29,617.6,1049.68,617.6z"/>
			<path fill="#FFFFFF" d="M1049.68,698.88c-33.61,0-65.49-5.93-89.78-16.62c-3.07-1.37-6-2.82-8.82-4.3v32.64
				c0,4.59,7.34,12.79,23.42,19.88c19.48,8.6,46.88,13.52,75.18,13.52c28.3,0,55.69-4.91,75.21-13.52
				c16.08-7.08,23.38-15.29,23.38-19.88v-32.64c-2.78,1.48-5.71,2.93-8.82,4.3C1115.17,692.95,1083.29,698.88,1049.68,698.88z"/>
			<path fill="#FFFFFF" d="M1139.45,763.5c-24.29,10.7-56.16,16.62-89.77,16.62c-33.61,0-65.49-5.93-89.78-16.62
				c-3.07-1.37-6-2.82-8.82-4.26v32.6c0,4.63,7.34,12.79,23.42,19.88c19.48,8.6,46.88,13.56,75.18,13.56
				c28.3,0,55.69-4.95,75.21-13.56c16.08-7.08,23.38-15.25,23.38-19.88v-4.05v-28.55C1145.49,760.68,1142.56,762.13,1139.45,763.5z"
				/>
			<path fill="#FFFFFF" d="M1049.68,906.52c28.3,0,55.69-4.95,75.21-13.55c16.08-7.08,23.38-15.26,23.38-19.88v-32.6
				c-2.78,1.48-5.71,2.93-8.82,4.26c-24.29,10.74-56.16,16.62-89.77,16.62c-18.15,0-35.78-1.73-52.01-4.99
				c9.94,14.42,17.38,30.72,21.68,48.21C1029.15,905.87,1039.3,906.52,1049.68,906.52z"/>
			<path fill="#FFFFFF" d="M1372.75,1003.23c-24.25,10.74-56.13,16.59-89.78,16.59c-33.61,0-65.49-5.85-89.74-16.59
				c-3.11-1.37-6.04-2.78-8.86-4.3v32.64c0,4.59,7.34,12.79,23.42,19.88c19.52,8.6,46.91,13.55,75.18,13.55
				c28.3,0,55.7-4.95,75.21-13.55c16.08-7.08,23.38-15.29,23.38-19.88v-32.64C1378.78,1000.45,1375.86,1001.86,1372.75,1003.23z"/>
			<path fill="#FFFFFF" d="M1372.75,921.95c-24.25,10.73-56.13,16.62-89.78,16.62c-33.61,0-65.49-5.89-89.74-16.62
				c-3.11-1.34-6.04-2.78-8.86-4.27v32.64c0,4.59,7.34,12.76,23.42,19.84c19.52,8.6,46.91,13.55,75.18,13.55
				c28.3,0,55.7-4.95,75.21-13.55c16.08-7.08,23.38-15.25,23.38-19.84v-32.64C1378.78,919.17,1375.86,920.61,1372.75,921.95z"/>
			<path fill="#FFFFFF" d="M1372.75,840.7c-24.25,10.7-56.13,16.63-89.78,16.63c-33.61,0-65.49-5.93-89.74-16.63
				c-3.11-1.37-6.04-2.78-8.86-4.26v32.6c0,4.63,7.34,12.79,23.42,19.88c19.52,8.6,46.91,13.55,75.18,13.55
				c28.3,0,55.7-4.95,75.21-13.55c16.08-7.08,23.38-15.25,23.38-19.88v-32.6C1378.78,837.92,1375.86,839.33,1372.75,840.7z"/>
			<path fill="#FFFFFF" d="M974.5,567.94c19.48,8.6,46.88,13.55,75.18,13.55c28.3,0,55.69-4.95,75.21-13.55
				c16.08-7.08,23.38-15.29,23.38-19.84c0-4.63-7.3-12.79-23.38-19.88c-19.52-8.6-46.91-13.55-75.21-13.55
				c-28.3,0-55.7,4.95-75.18,13.55c-16.08,7.08-23.42,15.25-23.42,19.88C951.08,552.65,958.42,560.85,974.5,567.94z"/>
			<path fill="#FFFFFF" d="M1207.8,807.67c19.52,8.6,46.91,13.52,75.18,13.52c28.3,0,55.7-4.91,75.21-13.52
				c16.08-7.08,23.38-15.25,23.38-19.88c0-4.59-7.3-12.76-23.38-19.88c-19.52-8.6-46.91-13.52-75.21-13.52
				c-28.26,0-55.66,4.91-75.18,13.52c-16.08,7.12-23.42,15.28-23.42,19.88C1184.38,792.42,1191.72,800.59,1207.8,807.67z"/>
			<path fill="#FFFFFF" d="M987.48,939.59c0-61.08-49.7-110.74-110.78-110.74s-110.77,49.66-110.77,110.74
				s49.69,110.74,110.77,110.74S987.48,1000.67,987.48,939.59z M890.9,999.8v14.71h-25.95v-14.64
				c-14.42-4.59-25.41-16.91-28.66-32.74l-0.97-4.7l23.49-14.2l2.42,8.57c4.37,15.32,9.65,18.43,16.7,18.43
				c5.6,0,8.06-2.02,9.54-3.83c1.7-2.02,2.56-4.84,2.56-8.42c0-4.56-2.64-8.28-16.55-14.93c-9.22-4.19-13.88-7.01-19.8-12.14
				c-7.01-6.22-10.41-14.13-10.41-24.18c0-14.71,8.67-27.22,21.69-32.2V864.7h25.95v14.89c8.53,3.11,15.25,9.43,20.02,18.87
				l2.78,5.42l-22.19,14.39l-3.54-6.29c-4.26-7.59-7.37-8.17-11.28-8.17c-3.83,0-6.21,3.54-6.21,6.87c0,2.89,0.5,4.63,3.58,7.01
				l0.07,0.07c2.13,1.44,3.97,2.75,5.28,3.47l8.31,4.27c6.07,3.03,9.58,4.88,15.21,9.18c9.36,6.94,13.77,15.47,14.28,27.69
				l0.03,0.29c0,10.48-3.43,19.44-10.16,26.74C902.54,994.38,897.12,997.85,890.9,999.8z"/>
		</g>
	</g>
</g>
</svg>
