<?xml version="1.0" encoding="utf-8"?>
<!-- Generator: Adobe Illustrator 22.0.0, SVG Export Plug-In . SVG Version: 6.00 Build 0)  -->
<svg version="1.1" xmlns="http://www.w3.org/2000/svg" xmlns:xlink="http://www.w3.org/1999/xlink" x="0px" y="0px"
	 viewBox="0 0 587.8 596.9" style="enable-background:new 0 0 587.8 596.9;" xml:space="preserve">
<style type="text/css">
	.st0{display:none;}
	.st1{display:inline;fill:#545454;}
	.st2{fill:#5FA7FB;}
	.st3{display:inline;}
	.st4{fill:#545454;}
</style>
<g id="Capa_1" class="st0">
	<path class="st1" d="M218.7,569.8h111.8V299.6h75.1c0,0,7-43.6,10.5-91.3H331v-62.2c0-9.3,12.2-21.8,24.3-21.8h61V29.8h-82.9
		c-117.5,0-114.7,91-114.7,104.5v74.4h-54.6v91h54.6V569.8z"/>
</g>
<g id="Capa_2">
	<g>
		<path class="st2" d="M227.6,539.1c-24.1,0-49-2-74-5.8c-44.1-6.9-88.6-30-101.2-36.9l-33.2-18.1L55,466.5
			c39.2-12.9,63-20.9,92.5-33.3c-29.6-14.3-52.3-40-63.3-73.3l-8.3-25.3l6.8,1.1c-6.5-6.5-11.6-13.2-15.5-19.2
			c-14.1-21.4-21.7-47.6-20-70l1.5-22.1l13.2,5.1c-5.6-10.5-9.6-21.8-12-33.6c-5.8-28.7-1-59.3,13.6-86l11.5-21.1l15.4,18.6
			c48.7,58.5,110.4,93.2,183.7,103.3c-3.1-20.6-0.8-40.5,6.6-58.3c8.6-20.7,24-38.4,44.4-50.9c22.7-13.9,50.2-20.7,77.4-19
			c28.9,1.8,55.2,12.6,76.1,31.4c10.1-2.7,17.7-5.5,27.8-9.3c6.1-2.3,13-4.9,21.7-7.9l31.9-11l-20.8,59.4c1.4-0.2,2.9-0.2,4.3-0.3
			l34.1-1.6l-20.1,27.5c-1.2,1.6-1.4,2-1.8,2.7c-1.6,2.4-3.6,5.5-31.3,42.4c-6.9,9.2-10.3,21.3-9.7,33.9c2.4,47.9-3.4,91.4-17.5,129
			c-13.2,35.6-33.9,66.1-61.2,90.8c-33.9,30.5-77,51.3-128.3,62C282.5,536.5,255.5,539.1,227.6,539.1z"/>
	</g>
</g>
<g id="Capa_3" class="st0">
	<g class="st3">
		<path class="st4" d="M201.3,206c37.4,0,71.3,19.2,90.7,45.7l46-46.3c-27.5-35.8-80.4-64.1-136.6-64.1
			c-98.4,0-179.1,79.7-179.1,178c0,98.5,80.7,178.1,179.1,178.1c81.6,0,150.2-54.7,171.3-129.5c4.5-15.5,6.8-31.7,6.8-48.6v-16.2
			H217.5v64.7h85.8c-17.8,38.3-57,64.8-102,64.8c-62.5,0-114.4-50.8-114.4-113.3C86.9,256.9,138.8,206,201.3,206z"/>
		<path class="st4" d="M525,238.4h-64.7v48.5h-48.6v64.8h48.6v48.6H525v-48.6h49.7v-64.8H525V238.4z"/>
	</g>
</g>
</svg>
