<?xml version="1.0" encoding="utf-8"?>
<!-- Generator: Adobe Illustrator 24.0.2, SVG Export Plug-In . SVG Version: 6.00 Build 0)  -->
<svg version="1.1" baseProfile="tiny" id="Capa_1" xmlns="http://www.w3.org/2000/svg" xmlns:xlink="http://www.w3.org/1999/xlink"
	 x="0px" y="0px" viewBox="0 0 1313 1080" xml:space="preserve">
<g id="Layer_2">
	<g id="Layer_2-2">
		<path fill="#535353" d="M489.98,1077.7c-58.34-0.2-116.59-4.84-174.22-13.9c-83.32-16.21-163.58-45.43-237.82-86.58L-0.1,934.48
			l84.44-27.26c91.92-30.46,148.04-49.17,217.51-78.56c-71.14-34.83-124.99-97.17-149.11-172.62l-19.24-59.32l16.03,2.67
			c-13.78-13.87-26.13-29.09-36.88-45.43c-32.71-48.51-49.18-106.14-47.03-164.6l3.74-53.44l31,11.76
			c-12.87-24.39-22.22-50.48-27.79-77.49c-12.96-69.26-0.83-140.88,34.2-202.02l26.72-49.7l36.34,43.82
			C277.2,195.72,431.87,282.63,601.67,304.92c-7.16-46.17-1.8-93.41,15.5-136.81c21.97-50.27,59.42-92.21,106.89-119.71
			c53.36-32.33,115.1-48.14,177.43-45.43c66.31,3.57,129.44,29.58,179.03,73.75c22.11-5.49,43.88-12.27,65.2-20.31l53.44-18.71
			l72.68-26.72L1222.68,151h10.15l80.16-3.74l-47.03,64.13l-4.81,5.34c-3.74,5.88-8.55,12.83-73.22,99.94
			c-16.73,23.04-24.86,51.22-22.98,79.63c6.56,102.34-8,204.94-42.75,301.42c-29.77,81.91-79.13,155.3-143.76,213.77
			c-85.93,74.55-190.14,124.91-301.95,145.9C615.17,1070.47,552.68,1077.28,489.98,1077.7z"/>
	</g>
</g>
</svg>
