<?xml version="1.0" encoding="utf-8"?>
<!-- Generator: Adobe Illustrator 24.0.2, SVG Export Plug-In . SVG Version: 6.00 Build 0)  -->
<svg version="1.1" id="Capa_1" xmlns="http://www.w3.org/2000/svg" xmlns:xlink="http://www.w3.org/1999/xlink" x="0px" y="0px"
	 viewBox="0 0 671.59 849.14" style="enable-background:new 0 0 671.59 849.14;" xml:space="preserve">
<style type="text/css">
	.st0{fill:#FFFFFF;}
</style>
<title>Twitter (white)</title>
<g id="Layer_2">
	<g id="Layer_2-2">
		<path class="st0" d="M253.68,697.2c-29.63-0.1-59.21-2.46-88.48-7.06c-42.32-8.23-83.07-23.07-120.78-43.97L4.79,624.46
			l42.88-13.84c46.68-15.47,75.18-24.97,110.46-39.9c-36.13-17.69-63.48-49.35-75.72-87.67l-9.77-30.13l8.14,1.36
			c-7-7.05-13.27-14.77-18.73-23.07c-16.61-24.63-24.97-53.9-23.88-83.59l1.9-27.14l15.74,5.97c-6.53-12.39-11.29-25.64-14.11-39.35
			c-6.58-35.18-0.42-71.54,17.37-102.59l13.57-25.24l18.46,22.26c54.52,67.77,133.07,111.9,219.3,123.22
			c-3.63-23.45-0.92-47.44,7.87-69.48c11.16-25.53,30.18-46.83,54.28-60.8c27.1-16.42,58.45-24.45,90.11-23.07
			c33.68,1.82,65.74,15.02,90.92,37.45c11.23-2.79,22.29-6.23,33.11-10.31l27.14-9.5l36.91-13.57l-24.97,71.11h5.16l40.71-1.9
			l-23.88,32.57l-2.44,2.71c-1.9,2.99-4.34,6.51-37.18,50.75c-8.5,11.7-12.63,26.01-11.67,40.44
			c3.33,51.97-4.06,104.08-21.71,153.08c-15.12,41.6-40.18,78.87-73.01,108.56c-43.64,37.86-96.56,63.44-153.35,74.1
			C317.26,693.53,285.52,696.98,253.68,697.2z"/>
	</g>
</g>
</svg>
