<?xml version="1.0" encoding="utf-8"?>
<!-- Generator: Adobe Illustrator 16.0.3, SVG Export Plug-In . SVG Version: 6.00 Build 0)  -->
<!DOCTYPE svg PUBLIC "-//W3C//DTD SVG 1.1//EN" "http://www.w3.org/Graphics/SVG/1.1/DTD/svg11.dtd">
<svg version="1.1" id="Capa_1" xmlns="http://www.w3.org/2000/svg" xmlns:xlink="http://www.w3.org/1999/xlink" x="0px" y="0px"
	 width="1.42px" height="1.42px" viewBox="0 0 1.42 1.42" enable-background="new 0 0 1.42 1.42" xml:space="preserve">
<path fill="#FFFFFF" d="M0.405,0.14c0.102,0,0.184,0.086,0.184,0.191c0,0.106-0.082,0.192-0.184,0.192S0.221,0.437,0.221,0.331
	C0.221,0.226,0.303,0.14,0.405,0.14"/>
<path fill="#FFFFFF" d="M0.661,0.744C0.6,0.667,0.507,0.619,0.405,0.619c-0.184,0-0.333,0.155-0.333,0.347h0.376L0.661,0.744z"/>
<polygon fill="#FFFFFF" points="0.992,0.535 1.11,0.411 1.295,0.603 1.176,0.726 "/>
<polygon fill="#FFFFFF" points="0.411,1.331 0.621,1.267 0.473,1.112 "/>
<polygon fill="#FFFFFF" points="0.52,1.026 0.927,0.603 1.111,0.793 0.704,1.217 "/>
</svg>
