<?xml version="1.0" encoding="utf-8"?>
<!-- Generator: Adobe Illustrator 16.0.3, SVG Export Plug-In . SVG Version: 6.00 Build 0)  -->
<!DOCTYPE svg PUBLIC "-//W3C//DTD SVG 1.1//EN" "http://www.w3.org/Graphics/SVG/1.1/DTD/svg11.dtd">
<svg version="1.1" id="Capa_1" xmlns="http://www.w3.org/2000/svg" xmlns:xlink="http://www.w3.org/1999/xlink" x="0px" y="0px"
	 width="1237.036px" height="1027.83px" viewBox="0 0 1237.036 1027.83" enable-background="new 0 0 1237.036 1027.83"
	 xml:space="preserve">
<g opacity="0.75">
	<g>
		<defs>
			<rect id="SVGID_1_" x="3.703" y="17.196" width="1226.126" height="1010.843"/>
		</defs>
		<clipPath id="SVGID_2_">
			<use xlink:href="#SVGID_1_"  overflow="visible"/>
		</clipPath>
		<path clip-path="url(#SVGID_2_)" fill="#010202" d="M113.148,259.595H3.647v768.235h1226.182V259.595h-109.445H113.148z
			 M813.767,669.234L530.279,821.307c-7.036,3.797-14.745,5.664-22.454,5.664c-7.653,0-15.248-1.867-22.281-5.611
			c-13.844-7.273-22.059-20.418-22.059-35.018V482.195c0-14.625,8.215-27.767,22.059-35.042c13.784-7.354,30.947-7.302,44.734,0.05
			l283.487,152.102c13.842,7.273,21.945,20.365,21.945,34.912C835.712,648.766,827.608,661.859,813.767,669.234"/>
		<polygon clip-path="url(#SVGID_2_)" fill="#010202" points="507.263,786.289 507.263,786.393 791.765,634.32 508.277,482.143 		
			"/>
		<rect x="266.429" y="17.015" clip-path="url(#SVGID_2_)" fill="#010202" width="700.675" height="80.896"/>
		<polygon clip-path="url(#SVGID_2_)" fill="#010202" points="1098.497,138.332 989.05,138.332 244.595,138.332 134.981,138.332 
			134.981,219.201 1098.497,219.201 		"/>
	</g>
</g>
<path fill="#FFFFFF" d="M120.35,242.58H10.849v768.258h1226.183V242.58h-109.445H120.35z M820.97,652.248L537.48,804.32
	c-7.033,3.738-14.743,5.609-22.452,5.609c-7.652,0-15.249-1.871-22.283-5.609c-13.841-7.275-22.058-20.369-22.058-35.021v-304.12
	c0-14.625,8.217-27.767,22.058-35.043c13.785-7.353,30.949-7.301,44.735,0.051L820.97,582.262
	c13.842,7.328,21.945,20.418,21.945,34.967C842.915,631.775,834.812,644.867,820.97,652.248"/>
<polygon fill="#FFFFFF" points="514.466,769.299 514.466,769.406 798.968,617.279 515.48,465.127 "/>
<rect x="273.631" fill="#FFFFFF" width="700.674" height="80.896"/>
<polygon fill="#FFFFFF" points="1105.698,121.315 996.251,121.315 251.798,121.315 142.184,121.315 142.184,202.185 
	1105.698,202.185 "/>
</svg>
