<?xml version="1.0" encoding="utf-8"?>
<!-- Generator: Adobe Illustrator 24.0.2, SVG Export Plug-In . SVG Version: 6.00 Build 0)  -->
<svg version="1.1" id="Capa_1" xmlns="http://www.w3.org/2000/svg" xmlns:xlink="http://www.w3.org/1999/xlink" x="0px" y="0px"
	 viewBox="0 0 1430 1080" style="enable-background:new 0 0 1430 1080;" xml:space="preserve">
<style type="text/css">
	.st0{fill:#535353;}
</style>
<path class="st0" d="M1430,519.5l-340.77,135.01V472.52H975.54c69.65-49.52,113.69-121.97,113.69-202.51
	C1089.23,121.1,938.93,0,754.11,0C600.88,0,471.46,83.18,431.56,196.53c-45.69-37.92-109.6-61.53-180.16-61.53
	C112.74,135.01,0,225.83,0,337.51c0,51.83,24.23,99.15,64.18,135.01H0V1080h1089.23V897.97L1430,1032.97V519.5z M754.11,67.5
	c138.61,0,251.29,90.82,251.29,202.51c0,111.69-112.69,202.51-251.29,202.51c-138.67,0-251.4-90.82-251.4-202.51
	C502.7,158.33,615.44,67.5,754.11,67.5z M532.66,472.52h-94.14c16.15-14.5,29.75-30.96,40.21-48.79
	C494.25,441.66,512.37,458.07,532.66,472.52z M83.84,337.51c0-74.46,75.13-135.01,167.57-135.01c92.34,0,167.51,60.55,167.51,135.01
	c0,74.46-75.17,135.01-167.51,135.01C158.96,472.52,83.84,411.97,83.84,337.51z M1005.4,1012.5H83.84V539.98h921.56V1012.5z
	 M1346.16,924.57l-256.93-101.84v-92.97l256.93-101.84V924.57z"/>
</svg>
