<?xml version="1.0" encoding="utf-8"?>
<!-- Generator: Adobe Illustrator 22.0.0, SVG Export Plug-In . SVG Version: 6.00 Build 0)  -->
<svg version="1.1" xmlns="http://www.w3.org/2000/svg" xmlns:xlink="http://www.w3.org/1999/xlink" x="0px" y="0px"
	 viewBox="0 0 1299.6 1062.4" style="enable-background:new 0 0 1299.6 1062.4;" xml:space="preserve">
<style type="text/css">
	.st0{display:none;}
	.st1{display:inline;}
	.st2{fill:#545454;stroke:#545454;stroke-width:0.25;stroke-miterlimit:10;}
	.st3{fill:#545454;}
</style>
<g id="Capa_1" class="st0">
	<g class="st1">
		<g>
			<g>
				<rect x="-282.5" y="471.4" class="st2" width="103.3" height="119.6"/>
			</g>
		</g>
		<g>
			<g>
				<rect x="-131.6" y="471.4" class="st2" width="103.3" height="119.6"/>
			</g>
		</g>
		<g>
			<g>
				<rect x="19.4" y="420.7" class="st2" width="103.3" height="220.7"/>
			</g>
		</g>
		<g>
			<g>
				<rect x="170.4" y="360.9" class="st2" width="103.3" height="340.3"/>
			</g>
		</g>
		<g>
			<g>
				<rect x="321.3" y="255.2" class="st2" width="103.3" height="551.9"/>
			</g>
		</g>
		<g>
			<g>
				<rect x="472.2" y="4.5" class="st2" width="103.4" height="1053.2"/>
			</g>
		</g>
		<g>
			<g>
				<rect x="623.1" y="94.2" class="st2" width="103.4" height="873.8"/>
			</g>
		</g>
		<g>
			<g>
				<rect x="774.1" y="273.6" class="st2" width="103.3" height="515.1"/>
			</g>
		</g>
		<g>
			<g>
				<rect x="925" y="381.6" class="st2" width="103.3" height="298.9"/>
			</g>
		</g>
		<g>
			<g>
				<rect x="1076" y="427.7" class="st2" width="103.3" height="207"/>
			</g>
		</g>
		<g>
			<g>
				<rect x="1226.9" y="471.4" class="st2" width="103.3" height="119.6"/>
			</g>
		</g>
		<g>
			<g>
				<rect x="1377.9" y="471.4" class="st2" width="103.3" height="119.6"/>
			</g>
		</g>
	</g>
</g>
<g id="Capa_2">
	<path class="st3" d="M1283.9,511.6l-300,128.9V466.7H883.8c61.3-47.3,100.1-116.4,100.1-193.4c0-142.1-132.3-257.8-295-257.8
		C554,15.6,440,95,404.9,203.2c-40.2-36.2-96.5-58.7-158.6-58.7c-122,0-221.3,86.7-221.3,193.3c0,49.5,21.4,94.7,56.5,128.9H25v580
		h958.9V873l300,128.9V511.6z M688.8,80.1c122,0,221.2,86.7,221.2,193.3c0,106.6-99.2,193.4-221.2,193.4
		c-122.1,0-221.3-86.7-221.3-193.4C467.5,166.8,566.8,80.1,688.8,80.1z M493.9,466.7H411c14.2-13.8,26.2-29.5,35.4-46.5
		C460.1,437.3,476,453,493.9,466.7z M98.7,337.8c0-71.1,66.2-128.9,147.5-128.9c81.3,0,147.5,57.8,147.5,128.9
		c0,71.1-66.2,128.9-147.5,128.9C164.9,466.7,98.7,408.9,98.7,337.8z M910.1,982.3H98.7V531.2h811.3V982.3z M1210.1,898.4
		l-226.2-97.2v-88.8l226.2-97.2V898.4z"/>
</g>
</svg>
