<?xml version="1.0" encoding="utf-8"?>
<!-- Generator: Adobe Illustrator 16.0.3, SVG Export Plug-In . SVG Version: 6.00 Build 0)  -->
<!DOCTYPE svg PUBLIC "-//W3C//DTD SVG 1.1//EN" "http://www.w3.org/Graphics/SVG/1.1/DTD/svg11.dtd">
<svg version="1.1" id="Capa_1" xmlns="http://www.w3.org/2000/svg" xmlns:xlink="http://www.w3.org/1999/xlink" x="0px" y="0px"
	 width="1.42px" height="1.42px" viewBox="0 0 1.42 1.42" enable-background="new 0 0 1.42 1.42" xml:space="preserve">
<path fill="#545454" d="M1.42,0.675L1.089,0.817V0.625h-0.11c0.067-0.052,0.11-0.128,0.11-0.213c0-0.156-0.146-0.284-0.325-0.284
	c-0.148,0-0.274,0.088-0.313,0.207C0.407,0.295,0.345,0.27,0.277,0.27c-0.135,0-0.244,0.096-0.244,0.213
	c0,0.055,0.023,0.104,0.063,0.142H0.033v0.64h1.056V1.074L1.42,1.216V0.675z M0.764,0.199c0.135,0,0.244,0.096,0.244,0.213
	c0,0.118-0.109,0.213-0.244,0.213C0.63,0.625,0.52,0.53,0.52,0.412C0.52,0.295,0.63,0.199,0.764,0.199z M0.55,0.625H0.458
	C0.474,0.61,0.488,0.593,0.498,0.574C0.512,0.593,0.53,0.61,0.55,0.625z M0.114,0.483c0-0.079,0.073-0.142,0.163-0.142
	c0.089,0,0.162,0.063,0.162,0.142S0.367,0.625,0.277,0.625C0.188,0.625,0.114,0.562,0.114,0.483z M1.008,1.194H0.114V0.697h0.894
	V1.194z M1.339,1.102l-0.25-0.107V0.897l0.25-0.108V1.102z"/>
</svg>
