<?xml version="1.0" encoding="utf-8"?>
<!-- Generator: Adobe Illustrator 22.0.0, SVG Export Plug-In . SVG Version: 6.00 Build 0)  -->
<svg version="1.1" id="Capa_1" xmlns="http://www.w3.org/2000/svg" xmlns:xlink="http://www.w3.org/1999/xlink" x="0px" y="0px"
	 viewBox="0 0 400 400" style="enable-background:new 0 0 400 400;" xml:space="preserve">
<style type="text/css">
	.st0{fill:#262626;}
	.st1{fill:#535353;}
</style>
<g id="Layer_2">
	<g id="Layer_2-2">
		<rect x="-0.8" y="2.2" class="st0" width="400.8" height="400.8"/>
		<g id="Layer_1-2">
			<path class="st1" d="M351.6,210.3l-21.9-0.7l0,0l-4.2,4.5l-5.1-8.9l-0.8-1.3l-0.6,1.4l-2,4.8l-1.6-1.9l-0.8-0.9l-1.2,1.1
				l-2.8,3.9l-1.5-2.6l-1-1.8l-1,1.8l-1.5,2.8l-4.5-7.3l-1.1-1.8l-1.3,1.6l-6,7.8l-9.7-0.3h-9.7c-0.5-0.2-0.9-0.4-1.4-0.7
				c-0.5-0.3-1.1-0.7-1.5-1.2c-1.1-0.8-2-1.8-2.8-2.8c-1.6-2.2-2.9-4.6-3.7-7.2l-0.6-1.9l-0.3-2.1c-0.3-1.3-0.5-2.7-0.6-4v-4.2
				c-0.1-1.4-0.1-2.8,0-4.2c-0.1-1.4,0.1-2.8,0.3-4.1c0.3-1.4,0.3-2.8,0.6-4.2c0.3-1.4,0.5-2.8,0.8-4.1s0.6-2.8,1-4.1
				s0.7-2.8,1.1-4.1c0.4-1.3,0.8-2.7,1.2-4.1s0.9-2.7,1.4-4l1.5-4l1-3.1l-3.2,0.9c-2,0.6-3.7,1.2-5.7,2c-1.9,0.7-3.6,1.5-5.4,2.3
				s-3.5,1.7-5.3,2.6l-5.2,2.8l-2.5,1.5l-2.4,1.6c-1.6,1.1-3.2,2.2-4.9,3.4l-2.3,2l-2.3,1.9c-1.5,1.2-2.8,2.6-4.3,3.9
				c-1.5,1.3-2.8,2.8-4.1,4.3l-3.9,4.5c-1.3,1.5-2.5,3.1-3.5,4.8c-1.1,1.7-2.2,3.3-3.3,4.8c-0.5,0.8-1,1.7-1.4,2.6
				c-0.5,0.8-1,1.7-1.4,2.6c-0.9,1.7-1.8,3.5-2.6,5.3c-0.8,1.8-1.5,3.6-2.2,5.5c-0.7,1.8-1,2.8-1.5,4.4l-32.7-0.4l-23.5-42.7
				l-3.2-5.7v6.5l-0.5,48.7l-29.3-48l-3.1-5.1v6l-0.5,49.2l-10.6-14.4l-1.2-1.7l-1.4,1.5c-2.8,2.8-5.7,5.7-8.5,8.5l-8.1-15.1
				l-1.2-2.1l-1,2.1l-5.3,11.9l-2.2-4.5v-0.4h-0.8l-23.4,0.5l22.9,0.9l2.8,5.9l0.7,1.5L75,214l5.7-11l7.5,15.3l1,2l1.7-1.6
				c2.8-2.8,5.7-5.7,8.5-8.7l12.3,17.4l3.1,4.3v-5.2l0.6-48.6l28.9,48l3.1,4.8v-5.8l0.5-48.3l20.7,37.6l0.5,0.9h1l35,0.4h1.2
				l0.5-1.2c0.6-1.8,1.1-3.6,1.8-5.4c0.7-1.7,1.3-3.6,2.2-5.3s1.6-3.4,2.5-5.1c0.4-0.9,0.9-1.7,1.4-2.5c0.4-0.8,0.9-1.7,1.4-2.4
				c1-1.6,2-3.2,3.1-4.9s2.3-3,3.4-4.5c1.2-1.5,2.5-3,3.8-4.3c1.4-1.4,2.6-2.7,4-4.1c1.3-1.3,2.7-2.6,4.2-3.8l2.2-1.8l2.2-1.7
				c1.5-1.2,3.1-2.2,4.9-3.3l2.4-1.5l2.5-1.5l4.8-2.8c1.7-0.9,3.4-1.7,5.1-2.5c1.7-0.8,3.5-1.6,5.2-2.2l2-0.8v0.7
				c-0.5,1.3-1,2.8-1.4,4.1s-0.9,2.8-1.3,4.2c-0.5,1.3-0.8,2.8-1.1,4.2s-0.7,2.8-1,4.2c-0.3,1.4-0.6,2.8-0.8,4.3
				c-0.2,1.5-0.5,2.8-0.7,4.3c-0.2,1.5-0.3,2.8-0.4,4.4c-0.1,1.6,0,2.8,0,4.4v2.2c-0.1,0.7-0.1,1.5,0,2.2c0.1,1.5,0.3,3,0.7,4.5
				l0.5,2.2c0.1,0.8,0.3,1.5,0.7,2.2c1,2.9,2.5,5.6,4.3,8c0.9,1.2,2,2.4,3.2,3.4c0.6,0.5,1.2,1,1.9,1.4c0.7,0.5,1.4,0.9,2.2,1.2
				h21.7l0.5-0.6l4.8-7.1l4.8,7.2l1.2,1.8l0.9-1.9l1.5-2.8l1.4,2.2l0.9,1.4l0.9-1.4l2.8-4.4l1.8,2l1,1.1l0.5-1.4l1.8-4.8l4.8,8.1
				l0.4,0.7l0.5-0.6l4.4-5.1L351.6,210.3z"/>
		</g>
	</g>
</g>
</svg>
