<svg xmlns="http://www.w3.org/2000/svg" viewBox="0 0 141.19 141.19"><defs><style>.cls-1{fill:#262626;}.cls-2{fill:#535353;}</style></defs><title>Default Profile Picture_1</title><g id="Layer_2" data-name="Layer 2"><g id="Layer_2-2" data-name="Layer 2"><rect class="cls-1" width="141.19" height="141.19"/><g id="Layer_1-2" data-name="Layer 1-2"><path class="cls-2" d="M124.14,73.32l-7.73-.24h0l-1.48,1.59-1.81-3.15-.27-.46-.22.51-.7,1.7-.58-.68-.27-.32-.42.39-1,1.39-.53-.91-.36-.63-.34.64-.52,1-1.57-2.58-.37-.62-.45.58-2.11,2.76-3.4-.09h-3.4a3.62,3.62,0,0,1-.48-.25,4.26,4.26,0,0,1-.54-.41,6.05,6.05,0,0,1-1-1A8.47,8.47,0,0,1,93.3,70l-.21-.68L93,68.57a13.52,13.52,0,0,1-.22-1.42V65.68a12.18,12.18,0,0,1,0-1.48,6,6,0,0,1,.12-1.46c.11-.5.11-1,.2-1.48s.17-1,.29-1.45.2-1,.34-1.46.24-1,.39-1.45.27-.95.44-1.43.31-.95.48-1.41l.53-1.41.35-1.09-1.14.32c-.69.2-1.32.44-2,.7s-1.27.52-1.9.81-1.24.6-1.86.92l-1.82,1-.87.54-.86.58c-.58.39-1.14.78-1.71,1.21l-.81.71-.8.67c-.53.44-1,.92-1.53,1.39a18.64,18.64,0,0,0-1.45,1.5l-1.38,1.57a13.49,13.49,0,0,0-1.24,1.7c-.39.61-.78,1.16-1.16,1.7-.19.29-.34.61-.51.9s-.36.6-.51.92c-.31.61-.63,1.23-.9,1.87s-.53,1.28-.79,1.93-.35,1-.52,1.54l-11.52-.13L52.37,58.87l-1.11-2v2.29l-.17,17.16L40.76,59.42l-1.09-1.79v2.11L39.5,77.08,35.78,72l-.43-.6-.49.53c-1,1-2,2-3,3L29,69.6l-.41-.75-.34.75-1.87,4.2-.79-1.6v-.14h-.27l-8.23.16,8.08.3,1,2.08.25.53.28-.53,2-3.88,2.64,5.38.35.71.6-.56c1-1,2-2,3-3.08l4.34,6.14,1.09,1.53V79l.2-17.12L51.09,78.79l1.09,1.7V78.43l.19-17,7.3,13.26.17.3h.36l12.32.14h.42l.16-.44c.2-.63.39-1.28.63-1.89s.47-1.26.76-1.86.56-1.21.87-1.8c.14-.31.32-.6.48-.89a9.69,9.69,0,0,1,.51-.86c.36-.57.7-1.13,1.1-1.71s.8-1.07,1.2-1.6A16.78,16.78,0,0,1,80,62.55c.48-.49.92-.95,1.4-1.43a18.64,18.64,0,0,1,1.48-1.34l.78-.65.78-.61c.53-.41,1.09-.79,1.71-1.18L87,56.8l.87-.53,1.7-1c.6-.3,1.19-.61,1.8-.88s1.23-.55,1.84-.78l.72-.28v.26c-.19.47-.34,1-.5,1.46s-.3,1-.46,1.47-.27,1-.4,1.48-.24,1-.35,1.49-.2,1-.28,1.52-.16,1-.23,1.53-.11,1-.13,1.55,0,1,0,1.55v.78a5.08,5.08,0,0,0,0,.78,7.75,7.75,0,0,0,.24,1.57l.18.76a2.75,2.75,0,0,0,.24.77,9.93,9.93,0,0,0,1.52,2.83,8.4,8.4,0,0,0,1.12,1.19c.22.17.44.34.68.49a3.87,3.87,0,0,0,.78.41H104l.17-.22,1.7-2.49,1.7,2.54.43.65.32-.67.53-1,.48.79.3.49.33-.48,1-1.56.64.71.36.38.17-.48.65-1.7,1.7,2.84.14.24.18-.21,1.55-1.78Z"/></g></g></g></svg>